<svg width="61" height="61" viewBox="0 0 61 61" fill="none" xmlns="http://www.w3.org/2000/svg">
<g filter="url(#filter0_f_68_1818)">
<path fill-rule="evenodd" clip-rule="evenodd" d="M46.5294 11.0167C46.9978 11.0939 47.3894 11.4025 47.5327 11.904C48.5524 15.3274 47.7139 18.2103 46.8042 20.0766C48.8152 22.869 49.9998 26.2963 49.9998 30.0002C49.9998 39.3891 42.3886 47.0002 32.9998 47.0002C30.7174 47.0002 28.54 46.5505 26.5516 45.7347C25.5553 46.9132 23.8 47.5956 22.1279 46.9276C19.1313 45.7303 17.6851 43.837 16.6145 41.8078C16.0858 40.8056 15.1929 40.5497 14.4571 40.7558C13.7249 40.9608 13 41.6742 12.9998 43.0008C12.9996 43.8802 13.1775 44.4988 13.4164 44.9545C13.6544 45.4085 13.9806 45.7534 14.3563 46.0495L14.0296 44.7428L15.9699 44.2577L17.3187 49.653L11.3893 48.9942L11.6102 47.0064L12.5457 47.1103C12.2146 46.7747 11.9019 46.373 11.6451 45.8832C11.2382 45.1071 10.9996 44.1631 10.9998 43.0004C11.0001 40.8268 12.2753 39.2898 13.9178 38.8299C15.5567 38.3709 17.4132 39.0355 18.3835 40.8746C19.3127 42.6359 20.4517 44.1041 22.8699 45.0703C23.4466 45.3007 24.1155 45.1768 24.6356 44.8037C19.4795 41.8842 15.9998 36.3486 15.9998 30.0002C15.9998 26.307 17.1775 22.8889 19.1778 20.1008C18.2668 18.2354 17.4254 15.3423 18.5109 11.904C18.5872 11.6717 18.721 11.4663 18.8978 11.3099C19.0746 11.1536 19.2877 11.0522 19.5142 11.0167C19.7285 10.9773 19.9489 11.008 20.1468 11.1047C20.3448 11.2015 20.5113 11.3599 20.6249 11.5595V11.5568C21.8049 13.5745 22.985 14.8244 23.9501 15.6065C26.5706 13.9555 29.6736 13.0002 32.9998 13.0002C36.3335 13.0002 39.4431 13.9598 42.0674 15.6179C43.0126 14.8375 44.2027 13.5857 45.4187 11.5568C45.6695 11.171 46.0995 10.9396 46.5294 11.0167Z" fill="url(#paint0_linear_68_1818)" fill-opacity="0.5"/>
</g>
<path fill-rule="evenodd" clip-rule="evenodd" d="M46.5294 11.0167C46.9978 11.0939 47.3894 11.4025 47.5327 11.904C48.5524 15.3274 47.7139 18.2103 46.8042 20.0766C48.8152 22.869 49.9998 26.2963 49.9998 30.0002C49.9998 39.3891 42.3886 47.0002 32.9998 47.0002C30.7174 47.0002 28.54 46.5505 26.5516 45.7347C25.5553 46.9132 23.8 47.5956 22.1279 46.9276C19.1313 45.7303 17.6851 43.837 16.6145 41.8078C16.0858 40.8056 15.1929 40.5497 14.4571 40.7558C13.7249 40.9608 13 41.6742 12.9998 43.0008C12.9996 43.8802 13.1775 44.4988 13.4164 44.9545C13.6544 45.4085 13.9806 45.7534 14.3563 46.0495L14.0296 44.7428L15.9699 44.2577L17.3187 49.653L11.3893 48.9942L11.6102 47.0064L12.5457 47.1103C12.2146 46.7747 11.9019 46.373 11.6451 45.8832C11.2382 45.1071 10.9996 44.1631 10.9998 43.0004C11.0001 40.8268 12.2753 39.2898 13.9178 38.8299C15.5567 38.3709 17.4132 39.0355 18.3835 40.8746C19.3127 42.6359 20.4517 44.1041 22.8699 45.0703C23.4466 45.3007 24.1155 45.1768 24.6356 44.8037C19.4795 41.8842 15.9998 36.3486 15.9998 30.0002C15.9998 26.307 17.1775 22.8889 19.1778 20.1008C18.2668 18.2354 17.4254 15.3423 18.5109 11.904C18.5872 11.6717 18.721 11.4663 18.8978 11.3099C19.0746 11.1536 19.2877 11.0522 19.5142 11.0167C19.7285 10.9773 19.9489 11.008 20.1468 11.1047C20.3448 11.2015 20.5113 11.3599 20.6249 11.5595V11.5568C21.8049 13.5745 22.985 14.8244 23.9501 15.6065C26.5706 13.9555 29.6736 13.0002 32.9998 13.0002C36.3335 13.0002 39.4431 13.9598 42.0674 15.6179C43.0126 14.8375 44.2027 13.5857 45.4187 11.5568C45.6695 11.171 46.0995 10.9396 46.5294 11.0167Z" fill="url(#paint1_linear_68_1818)"/>
<defs>
<filter id="filter0_f_68_1818" x="-0.000244141" y="0" width="61" height="60.6531" filterUnits="userSpaceOnUse" color-interpolation-filters="sRGB">
<feFlood flood-opacity="0" result="BackgroundImageFix"/>
<feBlend mode="normal" in="SourceGraphic" in2="BackgroundImageFix" result="shape"/>
<feGaussianBlur stdDeviation="5.5" result="effect1_foregroundBlur_68_1818"/>
</filter>
<linearGradient id="paint0_linear_68_1818" x1="20.5" y1="11" x2="44.5" y2="47.5" gradientUnits="userSpaceOnUse">
<stop offset="0.0264024" stop-color="#6BFFED"/>
<stop offset="0.312797" stop-color="#64E6FF"/>
<stop offset="0.689383" stop-color="#FF5CD1"/>
<stop offset="1" stop-color="#FF576B"/>
</linearGradient>
<linearGradient id="paint1_linear_68_1818" x1="20.5" y1="11" x2="44.5" y2="47.5" gradientUnits="userSpaceOnUse">
<stop offset="0.0264024" stop-color="#6BFFED"/>
<stop offset="0.312797" stop-color="#7CDEF1"/>
<stop offset="0.689383" stop-color="#FE63D2"/>
<stop offset="1" stop-color="#FF576B"/>
</linearGradient>
</defs>
</svg>
