<svg xmlns="http://www.w3.org/2000/svg" xmlns:xlink="http://www.w3.org/1999/xlink" version="1.1" width="1000" height="1000" viewBox="0 0 1000 1000" xml:space="preserve">
<desc>Created with Fabric.js 3.6.3</desc>
<defs>
</defs>
<g transform="matrix(6.969126768415917 0 0 6.969126768415917 500 500)" id="uidcgaya03x9" style="opacity: 1; ">
	<g transform="matrix(1 0 0 1 -65.32000000000001 0.8158908167042576)" id="uidnfsy40fkm">
<path style="stroke: none; stroke-width: 0; stroke-dasharray:none; stroke-linecap: butt; stroke-dashoffset: 0; stroke-linejoin: miter; stroke-miterlimit: 4; fill: rgb(0,54,77); fill-rule: nonzero; opacity: 1;" transform=" translate(-6.4217773974421855, -20.815890816704258)" d="M 9.17 27 A 6.29 6.29 0 0 1 5 28.62 a 4.67 4.67 0 0 1 -5 -4.77 a 4.05 4.05 0 0 1 2.57 -4 a 11.88 11.88 0 0 1 3.85 -0.92 L 9 18.72 v -0.55 c 0 -1.65 -1.1 -2.39 -2.94 -2.39 a 8.6 8.6 0 0 0 -3.85 1.1 L 0.92 14.5 A 12.49 12.49 0 0 1 6.61 13 c 4 0 5.87 1.83 5.87 5.32 V 24.4 a 11.36 11.36 0 0 0 0.37 3.85 H 9.72 Z m -2.39 -5.5 a 3.91 3.91 0 0 0 -2.2 0.55 a 1.93 1.93 0 0 0 -0.92 1.65 a 2 2 0 0 0 2.2 2 a 4.9 4.9 0 0 0 2.94 -1.1 V 21.47 Z" stroke-linecap="round"/>
</g>
	<g transform="matrix(1 0 0 1 -50.191777397442195 -2.474407662159834)" id="uidip2yil1d7">
<path style="stroke: none; stroke-width: 0; stroke-dasharray:none; stroke-linecap: butt; stroke-dashoffset: 0; stroke-linejoin: miter; stroke-miterlimit: 4; fill: rgb(0,54,77); fill-rule: nonzero; opacity: 1;" transform=" translate(-21.55, -17.525592337840166)" d="m 14.68 21.1 c 0 -4.77 3.49 -7.89 8.07 -7.89 a 7.53 7.53 0 0 1 2 0.18 v -7.15 h 3.67 v 21.47 a 13.41 13.41 0 0 1 -5.5 1.1 c -4.57 -0.19 -8.24 -2.75 -8.24 -7.71 z m 10.09 4.22 v -8.81 a 5.66 5.66 0 0 0 -1.83 -0.18 a 4.48 4.48 0 0 0 -4.59 4.77 a 4.24 4.24 0 0 0 4.59 4.59 c 0.55 -0.19 1.28 -0.19 1.83 -0.37 z" stroke-linecap="round"/>
</g>
	<g transform="matrix(1 0 0 1 -34.591777397442186 1.0100000000000016)" id="uid2mtj4j4kd">
<path style="stroke: none; stroke-width: 0; stroke-dasharray:none; stroke-linecap: butt; stroke-dashoffset: 0; stroke-linejoin: miter; stroke-miterlimit: 4; fill: rgb(0,54,77); fill-rule: nonzero; opacity: 1;" transform=" translate(-37.150000000000006, -21.01)" d="m 29.72 13.58 h 3.85 l 3.67 10.09 l 3.67 -10.09 h 3.67 l -6.05 14.86 h -2.75 z" stroke-linecap="round"/>
</g>
	<g transform="matrix(1 0 0 1 -20.305720478324204 1.0096724361901508)" id="uidudvgpodc3">
<path style="stroke: none; stroke-width: 0; stroke-dasharray:none; stroke-linecap: butt; stroke-dashoffset: 0; stroke-linejoin: miter; stroke-miterlimit: 4; fill: rgb(0,154,97); fill-rule: nonzero; opacity: 1;" transform=" translate(-51.43605691911799, -21.00967243619015)" d="M 45.14 21.1 A 7.72 7.72 0 0 1 53 13.21 a 10.07 10.07 0 0 1 4 0.92 v 3.12 a 6.2 6.2 0 0 0 -3.67 -1.1 c -2.75 0 -4.4 2 -4.4 4.77 c 0 3.12 1.65 4.77 4.22 4.77 a 7 7 0 0 0 3.49 -0.92 l 1.1 2.57 a 10 10 0 0 1 -5.14 1.47 A 7.37 7.37 0 0 1 45.14 21.1 Z" stroke-linecap="round"/>
</g>
	<g transform="matrix(1 0 0 1 -6.9750000000000085 0.8308908167042546)" id="uid49u2585qv">
<path style="stroke: none; stroke-width: 0; stroke-dasharray:none; stroke-linecap: butt; stroke-dashoffset: 0; stroke-linejoin: miter; stroke-miterlimit: 4; fill: rgb(0,154,97); fill-rule: nonzero; opacity: 1;" transform=" translate(-64.76677739744218, -20.830890816704255)" d="M 67.52 27 a 6.29 6.29 0 0 1 -4.22 1.65 a 4.67 4.67 0 0 1 -5 -4.77 a 4.05 4.05 0 0 1 2.57 -4 a 11.88 11.88 0 0 1 3.85 -0.92 l 2.57 -0.18 v -0.55 c 0 -1.65 -1.1 -2.39 -2.94 -2.39 a 8.6 8.6 0 0 0 -3.85 1.1 L 59.27 14.5 A 12.49 12.49 0 0 1 65 13 c 4 0 5.87 1.83 5.87 5.32 V 24.4 a 11.36 11.36 0 0 0 0.37 3.85 H 68.07 Z m -2.39 -5.5 a 3.91 3.91 0 0 0 -2.2 0.55 A 1.93 1.93 0 0 0 62 23.67 a 2 2 0 0 0 2.2 2 a 4.9 4.9 0 0 0 2.94 -1.1 V 21.47 Z" stroke-linecap="round"/>
</g>
	<g transform="matrix(1 0 0 1 6.67822260255781 0.915011559805059)" id="uidturoou3f8">
<path style="stroke: none; stroke-width: 0; stroke-dasharray:none; stroke-linecap: butt; stroke-dashoffset: 0; stroke-linejoin: miter; stroke-miterlimit: 4; fill: rgb(0,154,97); fill-rule: nonzero; opacity: 1;" transform=" translate(-78.42, -20.91501155980506)" d="M 73.76 24.4 a 7.53 7.53 0 0 0 4 1.28 c 1.47 0 2.57 -0.37 2.57 -1.65 c 0 -2.57 -7 -1.65 -7 -6.42 c 0 -2.57 2.2 -4.4 5.69 -4.4 a 15.77 15.77 0 0 1 4.4 0.73 v 3.12 a 10.88 10.88 0 0 0 -4.22 -0.92 c -1.28 0 -2 0.37 -2 1.28 c 0 2.39 7 1.47 7 6.61 c 0 3.3 -2.75 4.59 -6.06 4.59 a 10.94 10.94 0 0 1 -5.5 -1.47 Z" stroke-linecap="round"/>
</g>
	<g transform="matrix(1 0 0 1 21.2182226025578 -2.740000000000002)" id="uida57fh5qko">
<path style="stroke: none; stroke-width: 0; stroke-dasharray:none; stroke-linecap: butt; stroke-dashoffset: 0; stroke-linejoin: miter; stroke-miterlimit: 4; fill: rgb(0,154,97); fill-rule: nonzero; opacity: 1;" transform=" translate(-92.96, -17.259999999999998)" d="M 86.24 6.24 h 3.67 v 9 a 8 8 0 0 1 5 -2 c 2.39 0 4.77 1.1 4.77 5.32 v 9.72 H 96 V 19.63 c 0 -1.83 -0.37 -3.3 -2.2 -3.3 A 6.08 6.08 0 0 0 90.09 18 V 28.26 H 86.42 v -22 Z" stroke-linecap="round"/>
</g>
	<g transform="matrix(1 0 0 1 51.7482226025578 0)" id="uidlqk0ppsx6">
<circle style="stroke: none; stroke-width: 0; stroke-dasharray:none; stroke-linecap: butt; stroke-dashoffset: 0; stroke-linejoin: miter; stroke-miterlimit: 4; fill: rgb(0,154,97); fill-rule: nonzero; opacity: 1;" cx="0" cy="0" r="20"/>
</g>
	<g transform="matrix(1 0 0 1 46.60322260255781 -0.6449999999999996)" id="uidpapdpou8j">
<polygon style="stroke: none; stroke-width: 0; stroke-dasharray:none; stroke-linecap: butt; stroke-dashoffset: 0; stroke-linejoin: miter; stroke-miterlimit: 4; fill: rgb(255,255,255); fill-rule: nonzero; opacity: 1;" points="-5.5049999999999955,11.285 4.775000000000006,-11.285 5.5049999999999955,-3.3949999999999996 -1.2849999999999966,11.105 "/>
</g>
	<g transform="matrix(1 0 0 1 51.563222602557815 2.4750000000000014)" id="uidgh00r394r">
<polygon style="stroke: none; stroke-width: 0; stroke-dasharray:none; stroke-linecap: butt; stroke-dashoffset: 0; stroke-linejoin: miter; stroke-miterlimit: 4; fill: rgb(0,54,77); fill-rule: nonzero; opacity: 1;" points="-9.725000000000009,-1.375 9.724999999999994,-1.375 7.525000000000006,1.375 -7.89500000000001,1.375 "/>
</g>
	<g transform="matrix(1 0 0 1 51.37822260255781 -2.4750000000000014)" id="uidgm4u9x9nv">
<polygon style="stroke: none; stroke-width: 0; stroke-dasharray:none; stroke-linecap: butt; stroke-dashoffset: 0; stroke-linejoin: miter; stroke-miterlimit: 4; fill: rgb(0,54,77); fill-rule: nonzero; opacity: 1;" points="-12.840000000000003,-1.375 12.840000000000003,-1.375 10.639999999999986,1.375 -11.010000000000005,1.375 "/>
</g>
	<g transform="matrix(1 0 0 1 56.148222602557794 -0.6449999999999996)" id="uidakqwqx4qy">
<polygon style="stroke: none; stroke-width: 0; stroke-dasharray:none; stroke-linecap: butt; stroke-dashoffset: 0; stroke-linejoin: miter; stroke-miterlimit: 4; fill: rgb(255,255,255); fill-rule: nonzero; opacity: 1;" points="5.5,11.285 -4.769999999999982,-11.285 -5.499999999999986,-3.3949999999999996 1.2800000000000011,11.105 "/>
</g>
</g>
</svg>