<svg width="855" height="300" xmlns="http://www.w3.org/2000/svg">

 <g>
  <title>background</title>
  <rect fill="none" id="canvas_background" height="602" width="802" y="-1" x="-1"/>
 </g>
 <g>
  <title>Layer 1</title>
  <path id="svg_1" fill="#00a1e9" d="m48.507999,0c-26.813999,0 -48.507999,21.511 -48.507999,48.068001l0,203.870003c0,26.535995 21.694,48.058975 48.507999,48.058975l205.809994,0c26.792999,0 48.496002,-21.522003 48.496002,-48.058975l0,-2.085907c-0.901825,-0.372589 -78.697998,-32.519989 -118.23999,-51.356995c-26.677002,32.524002 -61.086006,52.255997 -96.812004,52.255997c-60.412001,0 -80.927001,-52.380005 -52.322002,-86.860992c6.237202,-7.516006 16.847,-14.697006 33.313999,-18.71701c25.760002,-6.270294 66.755997,3.9151 105.180008,16.477005c6.911499,-12.613998 12.725998,-26.505997 17.056992,-41.296997l-118.409996,0l0,-11.881004l61.056999,0l0,-21.303001l-73.951,0l0,-11.890999l73.951,0l0,-30.389s0.000015,-5.119099 5.236298,-5.119099l29.848007,0l0,35.507999l73.106995,0l0,11.890999l-73.106995,0l0,21.303001l59.673996,0c-5.710403,23.175995 -14.380005,44.509003 -25.264008,63.235992c18.111008,6.490112 34.368011,12.646011 46.484009,16.666c40.412994,13.397003 51.738983,15.034012 53.200989,15.205002l0,-155.509995c0,-26.557001 -21.703979,-48.068 -48.495987,-48.068l-205.810005,0l-0.0033,-0.001zm33.206997,162.539993c-2.593094,0.029755 -5.197899,0.169632 -7.822296,0.425781c-7.564697,0.753693 -21.768002,4.061096 -29.533001,10.86499c-23.274,20.109009 -9.343998,56.871002 37.761997,56.871002c27.383003,0 54.743004,-17.343994 76.236,-45.11499c-27.709,-13.395004 -51.575996,-23.335007 -76.642998,-23.047012l0.000298,0.000229z"/>
  <path id="svg_2" fill="#ffffff" d="m829.47998,208.550003l-13.517029,29.164001l-13.717957,-29.164001l-13.402039,0l20.871033,40.321991l0,28.126999l12.294983,0l0,-28.126999l0.073792,-0.157013l20.786987,-40.165009l-13.389771,0.000031zm-98.968994,17.643997l9.534912,28.388992l-19.407043,0l9.872131,-28.388992zm12.463989,37.015015l4.593628,13.78598l12.884949,0l-25.369995,-68.449982l-9.850952,0l-25.286011,68.449982l12.895996,0l4.793762,-13.78598l25.338623,0zm-96.164001,-21.937012l-13.685974,0l0,-23.417007l13.685974,0c6.879883,0 10.989014,5.977203 10.989014,11.755005c0,5.652695 -3.845581,11.660995 -10.989014,11.660995m0.695374,-32.722992l-26.772034,0l0,68.449982l12.390015,0l0,-26.315979l14.380981,0c13.359009,0 22.694031,-8.667404 22.694031,-21.072006s-9.334717,-21.061005 -22.694031,-21.061005m-89.405945,68.449997l12.401001,0l0,-68.449997l-12.401001,0l0,68.449997zm-87.163025,-68.44899l0,68.449997l41.710999,0l0,-9.326904l-29.320984,0l0,-59.123001l-12.390015,-0.000092zm-70.587006,17.643997l9.524414,28.388992l-19.395996,0l9.871582,-28.388992zm12.46402,37.015015l4.593597,13.78598l12.875,0l-25.370026,-68.449997l-9.840485,0l-25.286011,68.449997l12.88501,0l4.793793,-13.78598l25.349121,0zm87.22998,-188.470016l-53.152985,0l0,-18.925999l61.634979,0l0,-11.786999l-61.634979,0l0,-23.982l-27.47702,0c-3.013184,0 -5.446991,2.512299 -5.446991,5.6003l0,18.381998l-61.203003,0l0,11.787003l61.203003,0l0,18.926003l-51.657013,0l0,11.775993l102.890015,0s-5.69989,22.119003 -33.924988,45.890999c-25.286011,-19.019997 -33.736023,-34.166992 -33.736023,-34.166992l-27.604004,0c11.167999,19.229996 27.035004,34.627991 44.124023,46.843994c-15.697998,10.132996 -36.054016,19.900009 -62.372009,27.719009l0,14.110992s40.605011,-7.610199 79.851013,-30.587006c39.30899,22.799011 78.786987,30.587006 78.786987,30.587006l0,-13.356995c-25.265015,-9.138504 -45.28299,-19.188004 -61.002014,-28.881012c22.768005,-16.758995 42.723022,-39.505997 50.719025,-69.935989m172.660004,-52.334003l-27.666992,0l0,28.723999l-68.197998,0l0,11.567001l68.197998,0l0,103.269993c-0.242371,2.365814 -2.117737,4.208099 -4.467224,4.33371l-14.065002,0l0,11.964996l35.864014,0c5.678772,-0.230286 10.208984,-4.909393 10.335999,-10.709l0,-108.860001l11.231018,0l0,-11.566998l-11.231018,0l-0.000793,-28.723701zm-58.348022,59.776997c-1.011353,-2.051697 -3.076477,-3.464897 -5.478577,-3.485794l-23.052002,0l17.963989,56.192001l27.267029,0l-16.700439,-52.706207zm-68.09198,-61.136997l-31.734009,74.584003l24.348022,0l0,88.746994l26.623962,0l0,-117.719994l-9.650757,0l20.049988,-45.609003l-29.637207,-0.002001zm308.72998,159.259983l-9.724548,-32.638977c-0.653259,-2.083115 -2.549744,-3.590515 -4.804321,-3.590515l-25.781006,0l7.480408,25.070999l-30.312012,0l0,-48.570999l59.516968,0l0,-11.556999l-59.516968,0l0,-22.861992l59.516968,0l0,-11.556999l-148.519958,0l0,11.556999l59.505981,0l0,22.861992l-59.505981,0l0,11.556999l59.505981,0l0,48.570999l-59.505981,0l0,11.557007l152.149963,0l-0.126404,-0.397781l0.120911,-0.000732zm-121.199951,-133.279984l86.677979,0l0,17.052002l30.965027,0l0,-20.203003c-0.010498,-0.041866 -0.010498,-0.062809 -0.010498,-0.115147c0,-4.543102 -3.582214,-8.2173 -8.017822,-8.2906l-50.108032,0l0,-15.901001l-32.397949,0l0,15.901001l-58.063049,0l0,28.609001l30.954041,0l0.000305,-17.052254z"/>
 </g>
</svg>