<svg width="24" height="24" viewBox="0 0 24 24" fill="none" xmlns="http://www.w3.org/2000/svg">
<rect width="24" height="24" rx="8" fill="#5EB76E" fill-opacity="0.1"/>
<path d="M10.0916 7H13.9084C16.1639 7 18 8.88784 18 11.2068V11.2811C18 13.5851 16.1639 15.473 13.9084 15.473H12.0145L9.36868 17.8068C9.2241 17.9257 9.0506 18 8.86265 18C8.42892 18 8.06747 17.6284 8.06747 17.1824V14.923C6.78072 14.1797 6 12.7973 6 11.2811V11.2068C6 8.88784 7.83614 7 10.0916 7ZM7.41687 11.2068V11.2811C7.41687 12.3811 8.05301 13.377 9.0506 13.8081L9.48434 14.0014V15.8L11.494 14.0162H13.9084C15.3687 14.0162 16.5687 12.7824 16.5687 11.2811V11.2068C16.5687 9.70541 15.3687 8.47162 13.9084 8.47162H10.0771C8.61687 8.47162 7.43133 9.69054 7.41687 11.2068Z" fill="#56B166"/>
</svg>
