<svg width="137" height="86" viewBox="0 0 137 86" fill="none" xmlns="http://www.w3.org/2000/svg">
<path d="M56.75 20.9684L56 14.9053C57.5 14.9053 59.25 14.9053 61 15.4105V11.3684C59.25 10.8632 57.5 10.8632 55.5 10.8632L55 7.32632L52.75 7.83158L53.25 11.1158C53 11.1158 52.75 11.1158 52.5 11.3684C47.5 12.6316 45 16.1684 46.25 20.2105C47.5 24.5053 51.25 25.0105 54.75 25.0105L55.5 31.5789C53.5 31.8316 51.75 31.5789 50 31.0737V35.1158C51.75 35.6211 53.75 35.8737 56 35.6211L56.5 39.9158L58.5 39.4105L58 35.3684C58.25 35.3684 58.5 35.3684 58.5 35.1158C63.75 33.6 66.25 30.0632 65.25 25.7684C64.5 21.4737 60.5 20.9684 56.75 20.9684ZM50.75 18.9474C50.25 17.4316 51.25 15.9158 54 15.1579L54.75 20.9684C52.5 20.9684 51 20.4632 50.75 18.9474ZM58 31.5789C58 31.5789 57.75 31.5789 58 31.5789L57 25.0105C59.75 25.0105 61 25.5158 61.5 27.2842C62 29.0526 60.5 30.8211 58 31.5789ZM88.5 24.2526C88.5 26.5263 89.5 28.0421 91.25 28.8L92.75 19.4526C90 19.7053 88.5 21.4737 88.5 24.2526ZM109.25 14.6526C103.5 5.05263 91 1.76842 81.25 7.32632C79.5 8.33684 77.75 9.6 76.25 11.1158C72 4.54737 64.5 0 56 0C42.75 0 32 10.6105 32 24C32 37.1368 42.75 48 56 48C64.25 48 71.25 43.9579 75.75 37.6421C82 44.9684 93 46.9895 101.75 42.1895C111.5 36.6316 115 24.2526 109.25 14.6526ZM55.75 42.9474C45.5 42.9474 37 34.3579 37 24C37 13.6421 45.5 5.05263 55.75 5.05263C66 5.05263 74.5 13.6421 74.5 24C74.5 34.3579 66.25 42.9474 55.75 42.9474ZM97.5 28.0421L98.25 31.0737C97 31.8316 95 32.3368 92.75 32.3368L92.25 36.1263H90.25L90.75 32.3368C87 31.5789 84.5 28.8 84.5 24.7579C84.5 19.9579 87.75 16.9263 92.75 16.9263H93.25L93.75 13.8947H95.75L95.25 17.1789C96.25 17.4316 97.5 17.6842 98.25 18.1895L97.5 21.2211C96.75 20.7158 95.75 20.4632 94.75 20.2105L93.25 29.5579C94.75 29.0526 96.25 28.8 97.5 28.0421Z" fill="url(#paint0_linear)"/>
<path d="M0 66.0478H4.95398L5.66735 64.1747H10.5223L11.2554 66.0478H16.2887L10.443 52H5.8457L0 66.0478ZM6.83649 60.867L8.10471 57.4796L9.37293 60.867H6.83649Z" fill="url(#paint1_linear)"/>
<path d="M16.7406 66.0478H21.2388V60.329C21.2388 59.3925 21.8531 58.8545 22.5268 58.8545C23.2006 58.8545 23.7554 59.3925 23.7554 60.329V66.0478H28.2536V58.8744C28.2536 56.4236 26.8269 54.9092 24.5481 54.9092C23.0222 54.9092 21.9324 55.7859 21.2388 56.6826V55.1682H16.7406V66.0478Z" fill="url(#paint2_linear)"/>
<path d="M35.1473 60.9069L33.2647 55.1682H28.608L32.8486 65.6293C32.6108 65.7489 32.373 65.7887 32.1154 65.7887C31.6993 65.7887 30.9463 65.5297 30.1338 65.0714L28.826 68.1599C30.0347 68.8374 31.4417 69.2957 33.0071 69.2957C35.5039 69.2957 36.6533 68.14 37.7035 65.2906L41.4487 55.1682H36.8712L35.1473 60.9069Z" fill="url(#paint3_linear)"/>
<path d="M47.1805 69.2359H51.6787V64.8124C52.3722 65.5895 53.2838 66.3068 54.9285 66.3068C57.4847 66.3068 59.5456 64.0153 59.5456 60.5681V60.5283C59.5456 57.2007 57.5046 54.9092 54.8889 54.9092C53.2441 54.9092 52.4119 55.7062 51.6787 56.5033V55.1682H47.1805V69.2359ZM53.3829 62.5807C52.3524 62.5807 51.5796 61.7039 51.5796 60.6279V60.5881C51.5796 59.4921 52.3524 58.6353 53.3829 58.6353C54.4133 58.6353 55.1861 59.4921 55.1861 60.5881V60.6279C55.1861 61.7239 54.4133 62.5807 53.3829 62.5807Z" fill="url(#paint4_linear)"/>
<path d="M63.7026 66.3068C65.0501 66.3068 66.0607 65.7688 66.8137 64.9519V66.0478H71.3119V59.8508C71.3119 58.2767 70.9949 57.2206 70.1824 56.4036C69.2312 55.4472 67.8045 54.9889 65.6049 54.9889C63.7224 54.9889 62.2957 55.3077 61.0473 55.7859L61.8399 58.7947C62.7911 58.4161 63.7224 58.177 64.8321 58.177C66.2192 58.177 66.8335 58.7549 66.8335 59.7512V59.9305C66.3579 59.7313 65.1888 59.532 64.2773 59.532C61.7606 59.532 60.1556 60.7475 60.1556 62.9194V62.9593C60.1556 65.1113 61.6219 66.3068 63.7026 66.3068ZM65.486 63.6965C64.9114 63.6965 64.4556 63.2781 64.4556 62.6404V62.6006C64.4556 61.9231 64.951 61.3851 65.8427 61.3851C66.2192 61.3851 66.6155 61.4648 66.8732 61.5644V62.0227C66.8732 63.0589 66.2787 63.6965 65.486 63.6965Z" fill="url(#paint5_linear)"/>
<path d="M77.914 60.9069L76.0315 55.1682H71.3748L75.6154 65.6293C75.3776 65.7489 75.1398 65.7887 74.8822 65.7887C74.4661 65.7887 73.7131 65.5297 72.9006 65.0714L71.5928 68.1599C72.8015 68.8374 74.2085 69.2957 75.7739 69.2957C78.2707 69.2957 79.42 68.14 80.4703 65.2906L84.2155 55.1682H79.638L77.914 60.9069Z" fill="url(#paint6_linear)"/>
<path d="M84.9159 66.0478H89.4141V60.2892C89.4141 59.3726 90.0086 58.8545 90.6625 58.8545C91.3164 58.8545 91.8514 59.3726 91.8514 60.2892V66.0478H96.3496V60.2892C96.3496 59.3726 96.9441 58.8545 97.5981 58.8545C98.252 58.8545 98.787 59.3726 98.787 60.2892V66.0478H103.285V58.8744C103.285 56.4236 101.858 54.9092 99.54 54.9092C97.8755 54.9092 96.7856 55.6664 95.8741 56.7025C95.2796 55.5468 94.1501 54.9092 92.6837 54.9092C91.1975 54.9092 90.1076 55.7261 89.4141 56.6228V55.1682H84.9159V66.0478Z" fill="url(#paint7_linear)"/>
<path d="M110.166 66.3068C112.504 66.3068 114.03 65.3304 115.1 63.9356L112.682 62.0028C111.969 62.7401 111.295 63.1187 110.483 63.1187C109.512 63.1187 108.759 62.6205 108.442 61.6641H115.397C115.417 61.425 115.417 61.146 115.417 60.9069C115.417 57.5992 113.633 54.9092 109.789 54.9092C106.539 54.9092 104.221 57.38 104.221 60.6279V60.6678C104.221 64.0552 106.618 66.3068 110.166 66.3068ZM108.382 59.6715C108.521 58.6752 109.056 58.0376 109.809 58.0376C110.601 58.0376 111.216 58.6353 111.315 59.6715H108.382Z" fill="url(#paint8_linear)"/>
<path d="M116.401 66.0478H120.899V60.329C120.899 59.3925 121.513 58.8545 122.187 58.8545C122.861 58.8545 123.416 59.3925 123.416 60.329V66.0478H127.914V58.8744C127.914 56.4236 126.487 54.9092 124.208 54.9092C122.682 54.9092 121.592 55.7859 120.899 56.6826V55.1682H116.401V66.0478Z" fill="url(#paint9_linear)"/>
<path d="M134.087 66.2869C135.177 66.2869 136.247 66.0478 136.96 65.6692V62.1821C136.485 62.4013 136.009 62.5209 135.593 62.5209C134.88 62.5209 134.503 62.222 134.503 61.405V58.6553H137V55.1682H134.503V52.4384H130.005V55.1682H128.737V58.6553H130.005V62.4013C130.005 65.0515 131.432 66.2869 134.087 66.2869Z" fill="url(#paint10_linear)"/>
<path d="M24.5779 85.741H29.0761V79.9824C29.0761 79.0658 29.6706 78.5477 30.3245 78.5477C30.9785 78.5477 31.5135 79.0658 31.5135 79.9824V85.741H36.0117V79.9824C36.0117 79.0658 36.6062 78.5477 37.2601 78.5477C37.914 78.5477 38.4491 79.0658 38.4491 79.9824V85.741H42.9473V78.5676C42.9473 76.1167 41.5205 74.6024 39.2021 74.6024C37.5375 74.6024 36.4477 75.3596 35.5361 76.3957C34.9417 75.24 33.8121 74.6024 32.3458 74.6024C30.8596 74.6024 29.7697 75.4193 29.0761 76.316V74.8614H24.5779V85.741Z" fill="url(#paint11_linear)"/>
<path d="M49.8276 86C52.1659 86 53.6917 85.0236 54.7618 83.6288L52.3442 81.696C51.6308 82.4333 50.9571 82.8119 50.1447 82.8119C49.1737 82.8119 48.4207 82.3137 48.1036 81.3573H55.059C55.0788 81.1181 55.0788 80.8392 55.0788 80.6001C55.0788 77.2924 53.2954 74.6024 49.4511 74.6024C46.2013 74.6024 43.8828 77.0732 43.8828 80.3211V80.361C43.8828 83.7484 46.2805 86 49.8276 86ZM48.0442 79.3647C48.1829 78.3684 48.7179 77.7307 49.4709 77.7307C50.2635 77.7307 50.8778 78.3285 50.9769 79.3647H48.0442Z" fill="url(#paint12_linear)"/>
<path d="M60.9771 85.9801C62.067 85.9801 63.1371 85.741 63.8505 85.3624V81.8753C63.3749 82.0945 62.8993 82.2141 62.4832 82.2141C61.7698 82.2141 61.3933 81.9152 61.3933 81.0982V78.3484H63.8901V74.8614H61.3933V72.1316H56.8951V74.8614H55.6268V78.3484H56.8951V82.0945C56.8951 84.7447 58.3218 85.9801 60.9771 85.9801Z" fill="url(#paint13_linear)"/>
<path d="M64.9064 85.741H69.4046V80.0222C69.4046 79.0857 70.0189 78.5477 70.6927 78.5477C71.3664 78.5477 71.9213 79.0857 71.9213 80.0222V85.741H76.4195V78.5676C76.4195 76.1167 74.9927 74.6024 72.7139 74.6024C71.1881 74.6024 70.0982 75.4193 69.4046 76.316V71.195H64.9064V85.741Z" fill="url(#paint14_linear)"/>
<path d="M83.4052 86C86.9721 86 89.5085 83.3698 89.5085 80.3012V80.2613C89.5085 77.1927 86.9919 74.6024 83.4448 74.6024C79.878 74.6024 77.3415 77.2326 77.3415 80.3012V80.341C77.3415 83.4096 79.8582 86 83.4052 86ZM83.4448 82.234C82.454 82.234 81.6614 81.3772 81.6614 80.3012V80.2613C81.6614 79.2252 82.3946 78.3684 83.4052 78.3684C84.396 78.3684 85.1886 79.2252 85.1886 80.3012V80.341C85.1886 81.3772 84.4555 82.234 83.4448 82.234Z" fill="url(#paint15_linear)"/>
<path d="M94.8675 86C96.5122 86 97.3445 85.203 98.0777 84.4059V85.741H102.576V71.195H98.0777V76.0968C97.3841 75.3197 96.4726 74.6024 94.8278 74.6024C92.2716 74.6024 90.2107 76.8939 90.2107 80.341V80.3809C90.2107 83.7085 92.2518 86 94.8675 86ZM96.3735 82.2739C95.3431 82.2739 94.5702 81.417 94.5702 80.3211V80.2813C94.5702 79.1853 95.3431 78.3285 96.3735 78.3285C97.4039 78.3285 98.1767 79.2053 98.1767 80.2813V80.3211C98.1767 81.417 97.4039 82.2739 96.3735 82.2739Z" fill="url(#paint16_linear)"/>
<path d="M108.695 86C111.627 86 113.391 84.6251 113.391 82.2539V82.2141C113.391 79.9824 111.746 79.2252 109.012 78.5477C107.922 78.2687 107.684 78.1293 107.684 77.9101V77.8702C107.684 77.651 107.882 77.5315 108.318 77.5315C109.23 77.5315 110.617 77.9101 111.766 78.5477L113.193 75.8577C111.885 75.0607 110.121 74.6024 108.338 74.6024C105.524 74.6024 103.622 75.9374 103.622 78.3285V78.3684C103.622 80.62 105.306 81.3573 108.041 82.0347C109.131 82.3137 109.329 82.4532 109.329 82.6724V82.7122C109.329 82.9713 109.111 83.0709 108.675 83.0709C107.446 83.0709 105.98 82.6724 104.672 81.8554L103.146 84.4259C104.692 85.462 106.594 86 108.695 86Z" fill="url(#paint17_linear)"/>
<defs>
<linearGradient id="paint0_linear" x1="88" y1="-12" x2="57" y2="63" gradientUnits="userSpaceOnUse">
<stop stop-color="#745EFF"/>
<stop offset="1" stop-color="#5B59E0" stop-opacity="0.44"/>
</linearGradient>
<linearGradient id="paint1_linear" x1="69" y1="33" x2="34" y2="123" gradientUnits="userSpaceOnUse">
<stop stop-color="#9781F0"/>
<stop offset="1" stop-color="#4542CF" stop-opacity="0.35"/>
</linearGradient>
<linearGradient id="paint2_linear" x1="69" y1="33" x2="34" y2="123" gradientUnits="userSpaceOnUse">
<stop stop-color="#9781F0"/>
<stop offset="1" stop-color="#4542CF" stop-opacity="0.35"/>
</linearGradient>
<linearGradient id="paint3_linear" x1="69" y1="33" x2="34" y2="123" gradientUnits="userSpaceOnUse">
<stop stop-color="#9781F0"/>
<stop offset="1" stop-color="#4542CF" stop-opacity="0.35"/>
</linearGradient>
<linearGradient id="paint4_linear" x1="69" y1="33" x2="34" y2="123" gradientUnits="userSpaceOnUse">
<stop stop-color="#9781F0"/>
<stop offset="1" stop-color="#4542CF" stop-opacity="0.35"/>
</linearGradient>
<linearGradient id="paint5_linear" x1="69" y1="33" x2="34" y2="123" gradientUnits="userSpaceOnUse">
<stop stop-color="#9781F0"/>
<stop offset="1" stop-color="#4542CF" stop-opacity="0.35"/>
</linearGradient>
<linearGradient id="paint6_linear" x1="69" y1="33" x2="34" y2="123" gradientUnits="userSpaceOnUse">
<stop stop-color="#9781F0"/>
<stop offset="1" stop-color="#4542CF" stop-opacity="0.35"/>
</linearGradient>
<linearGradient id="paint7_linear" x1="69" y1="33" x2="34" y2="123" gradientUnits="userSpaceOnUse">
<stop stop-color="#9781F0"/>
<stop offset="1" stop-color="#4542CF" stop-opacity="0.35"/>
</linearGradient>
<linearGradient id="paint8_linear" x1="69" y1="33" x2="34" y2="123" gradientUnits="userSpaceOnUse">
<stop stop-color="#9781F0"/>
<stop offset="1" stop-color="#4542CF" stop-opacity="0.35"/>
</linearGradient>
<linearGradient id="paint9_linear" x1="69" y1="33" x2="34" y2="123" gradientUnits="userSpaceOnUse">
<stop stop-color="#9781F0"/>
<stop offset="1" stop-color="#4542CF" stop-opacity="0.35"/>
</linearGradient>
<linearGradient id="paint10_linear" x1="69" y1="33" x2="34" y2="123" gradientUnits="userSpaceOnUse">
<stop stop-color="#9781F0"/>
<stop offset="1" stop-color="#4542CF" stop-opacity="0.35"/>
</linearGradient>
<linearGradient id="paint11_linear" x1="69" y1="33" x2="34" y2="123" gradientUnits="userSpaceOnUse">
<stop stop-color="#9781F0"/>
<stop offset="1" stop-color="#4542CF" stop-opacity="0.35"/>
</linearGradient>
<linearGradient id="paint12_linear" x1="69" y1="33" x2="34" y2="123" gradientUnits="userSpaceOnUse">
<stop stop-color="#9781F0"/>
<stop offset="1" stop-color="#4542CF" stop-opacity="0.35"/>
</linearGradient>
<linearGradient id="paint13_linear" x1="69" y1="33" x2="34" y2="123" gradientUnits="userSpaceOnUse">
<stop stop-color="#9781F0"/>
<stop offset="1" stop-color="#4542CF" stop-opacity="0.35"/>
</linearGradient>
<linearGradient id="paint14_linear" x1="69" y1="33" x2="34" y2="123" gradientUnits="userSpaceOnUse">
<stop stop-color="#9781F0"/>
<stop offset="1" stop-color="#4542CF" stop-opacity="0.35"/>
</linearGradient>
<linearGradient id="paint15_linear" x1="69" y1="33" x2="34" y2="123" gradientUnits="userSpaceOnUse">
<stop stop-color="#9781F0"/>
<stop offset="1" stop-color="#4542CF" stop-opacity="0.35"/>
</linearGradient>
<linearGradient id="paint16_linear" x1="69" y1="33" x2="34" y2="123" gradientUnits="userSpaceOnUse">
<stop stop-color="#9781F0"/>
<stop offset="1" stop-color="#4542CF" stop-opacity="0.35"/>
</linearGradient>
<linearGradient id="paint17_linear" x1="69" y1="33" x2="34" y2="123" gradientUnits="userSpaceOnUse">
<stop stop-color="#9781F0"/>
<stop offset="1" stop-color="#4542CF" stop-opacity="0.35"/>
</linearGradient>
</defs>
</svg>
