<svg width="24" height="24" viewBox="0 0 24 24" fill="none" xmlns="http://www.w3.org/2000/svg">
<rect opacity="0.1" width="24" height="24" rx="8" fill="#EF984A"/>
<g clip-path="url(#clip0)">
<path d="M12 6.00879C8.7 6.00879 6 8.70879 6 12.0088C6 15.3088 8.7 18.0088 12 18.0088C15.3 18.0088 18 15.3088 18 12.0088C18 8.68571 15.3 6.00879 12 6.00879ZM12 7.3934C14.5615 7.3934 16.6154 9.44725 16.6154 12.0088C16.6154 14.5703 14.5615 16.6242 12 16.6242C9.43846 16.6242 7.38462 14.5703 7.38462 12.0088C7.38462 9.44725 9.43846 7.3934 12 7.3934ZM12 8.08571C11.6077 8.08571 11.3077 8.38571 11.3077 8.77802V12.0088C11.3077 12.2626 11.4462 12.4934 11.6538 12.6088L14.0538 13.9934C14.3769 14.178 14.8154 14.0626 15 13.7396C15.1846 13.4165 15.0692 12.978 14.7462 12.7934L12.6923 11.6165V8.77802C12.6923 8.38571 12.3923 8.08571 12 8.08571Z" fill="#EEA25C"/>
</g>
<defs>
<clipPath id="clip0">
<rect x="6" y="6" width="12" height="12" fill="white"/>
</clipPath>
</defs>
</svg>
