<svg width="76" height="67" viewBox="0 0 76 67" fill="none" xmlns="http://www.w3.org/2000/svg">
<path d="M46.8652 48.9859C46.8652 49.8428 47.5267 50.5147 48.369 50.5147C49.2062 50.5147 49.8677 49.8428 49.8677 48.9859C49.8677 48.122 49.2062 47.457 48.369 47.457C47.5267 47.457 46.8652 48.122 46.8652 48.9859Z" fill="#FAFAFC"/>
<path d="M54.7508 53.9957L54.656 54.0516L54.4683 53.5071C54.3976 53.3186 54.2323 53.1964 54.0342 53.1964H53.0644C52.8129 53.1964 52.6113 53.4024 52.6113 53.6572V66.2892C52.6113 66.5388 52.8146 66.7448 53.0644 66.7448H54.8042C55.0591 66.7448 55.2555 66.5388 55.2555 66.2892V56.0691L55.3123 56.0429C56.0289 55.6694 56.7558 55.4321 58.1684 55.4321C59.8548 55.4321 60.1993 56.0778 60.1993 57.1162V66.2875C60.1993 66.5371 60.4008 66.743 60.654 66.743H62.3938C62.6419 66.743 62.8486 66.5371 62.8486 66.2875V57.193C62.8486 54.4111 61.2311 52.9434 58.1684 52.9434C57.028 52.9451 55.8808 53.2976 54.7508 53.9957Z" fill="#FAFAFC"/>
<path d="M49.6631 53.658C49.6631 53.4032 49.4616 53.1973 49.2067 53.1973H47.5202C47.2687 53.1973 47.0586 53.4032 47.0586 53.658V66.2831C47.0586 66.5432 47.2687 66.7456 47.5202 66.7456H49.2067C49.4616 66.7456 49.6631 66.5432 49.6631 66.2831V53.658Z" fill="#FAFAFC"/>
<path d="M43.8801 47.3447C43.8801 47.0934 43.6803 46.877 43.4237 46.877H41.7321C41.4875 46.877 41.2773 47.0916 41.2773 47.3447V66.2823C41.2773 66.5372 41.4858 66.7448 41.7321 66.7448H43.4237C43.682 66.7448 43.8801 66.5389 43.8801 66.2823V47.3447Z" fill="#FAFAFC"/>
<path d="M15.1191 59.9767C15.1191 61.7132 15.1191 66.9996 20.8002 66.9996C22.5038 66.9996 23.6218 66.8966 25.0911 66.4201C25.2599 66.3643 25.3512 66.1828 25.3512 65.9978V64.5789C25.3512 64.4236 25.2789 64.2735 25.148 64.1915C25.0257 64.1059 24.8741 64.1199 24.719 64.1496C23.4478 64.4236 22.4366 64.5039 20.8002 64.5039C18.4317 64.5039 17.97 62.989 17.8219 61.3432L17.8081 61.2455H25.5252C25.775 61.2455 25.9748 61.0343 25.9748 60.7813V59.975C25.9748 56.57 25.5769 52.9434 20.8002 52.9434C15.1191 52.9451 15.1191 58.2349 15.1191 59.9767ZM17.8098 58.7812C17.9407 57.0377 18.392 55.4321 20.8019 55.4321C22.8673 55.4321 23.2721 56.5613 23.3169 58.7847V58.8754H17.8046L17.8098 58.7812Z" fill="#FAFAFC"/>
<path d="M28.0234 59.9767C28.0234 61.7132 28.0234 66.9996 33.701 66.9996C35.4047 66.9996 36.5243 66.8966 37.9937 66.4201C38.1591 66.3643 38.2607 66.1828 38.2607 65.9978V64.5789C38.2607 64.4236 38.1883 64.2735 38.054 64.1915C37.93 64.1059 37.7784 64.1199 37.6302 64.1496C36.3504 64.4236 35.3409 64.5039 33.6993 64.5039C31.3359 64.5039 30.8726 62.989 30.7244 61.3432L30.7175 61.2455H38.4312C38.681 61.2455 38.8843 61.0343 38.8843 60.7813V59.975C38.8843 56.57 38.4795 52.9434 33.701 52.9434C28.0234 52.9451 28.0234 58.2349 28.0234 59.9767ZM30.7193 58.7812C30.8433 57.0377 31.2981 55.4321 33.701 55.4321C35.7681 55.4321 36.1712 56.5613 36.2212 58.7847L36.2229 58.8754H30.7072L30.7193 58.7812Z" fill="#FAFAFC"/>
<path d="M65.1367 59.9767C65.1367 61.7132 65.1367 66.9996 70.8212 66.9996C72.5214 66.9996 73.6411 66.8966 75.1087 66.4201C75.2792 66.3643 75.3791 66.1828 75.3791 65.9978V64.5789C75.3791 64.4236 75.3034 64.2735 75.1673 64.1915C75.0501 64.1059 74.8951 64.1199 74.7452 64.1496C73.474 64.4236 72.4559 64.5039 70.8195 64.5039C68.4544 64.5039 67.9927 62.989 67.8412 61.3432L67.8291 61.2455H75.5445C75.7943 61.2455 75.9976 61.0343 75.9976 60.7813V59.975C75.9976 56.57 75.5979 52.9434 70.8195 52.9434C65.1367 52.9451 65.1367 58.2349 65.1367 59.9767ZM67.8291 58.7812C67.9583 57.0377 68.4148 55.4321 70.8195 55.4321C72.8883 55.4321 73.2879 56.5613 73.3345 58.7847V58.8754H67.8205L67.8291 58.7812Z" fill="#FAFAFC"/>
<path d="M0.487489 46.8125C0.218767 46.8125 0 47.0324 0 47.3064V66.2528C0 66.5285 0.218767 66.745 0.487489 66.745H6.55612C10.8987 66.745 13.2914 64.6733 13.2914 60.9246C13.2914 58.8756 12.3233 57.1356 10.6955 56.2613C10.6955 56.2613 10.6558 56.2368 10.6179 56.2159C10.6472 56.1949 10.6903 56.1688 10.6903 56.1688C11.9443 55.2333 12.673 53.8319 12.673 52.3083C12.673 50.2594 11.8548 46.8142 6.38042 46.8142H0.487489V46.8125ZM6.50616 49.4723C9.33463 49.4723 9.72049 50.8353 9.72049 52.3083C9.72049 54.1844 8.7369 55.0989 6.70598 55.0989H2.74234V49.474H6.50616V49.4723ZM6.70598 57.7569C9.39148 57.7569 10.3406 58.5842 10.3406 60.9246C10.3406 62.4883 9.90997 64.0887 6.65603 64.0887H2.74234V57.7569H6.70598Z" fill="#FAFAFC"/>
<path d="M22.9111 34.3422C28.3716 34.494 34.5643 34.6406 38.0232 34.6406C41.4684 34.6406 47.5784 34.4975 52.9855 34.3457C55.1628 31.8953 56.77 28.9092 57.5917 25.6055H18.3066C19.1283 28.9075 20.732 31.8918 22.9111 34.3422Z" fill="#FAB721"/>
<path d="M22.9102 34.3438C26.6171 38.5114 31.983 41.1328 37.9482 41.1328C43.9135 41.1328 49.2759 38.5149 52.9829 34.3472C47.5757 34.4991 41.4657 34.6422 38.0206 34.6422C34.5634 34.6422 28.3707 34.4973 22.9102 34.3438Z" fill="black"/>
<path d="M17.6934 20.5678C17.6934 22.3061 17.907 23.9937 18.3066 25.6081H57.5899C57.9895 23.9955 58.2049 22.3061 58.2049 20.5678C58.2049 18.8278 57.9895 17.1419 57.5899 15.5293H18.3066C17.907 17.1402 17.6934 18.8278 17.6934 20.5678Z" fill="black"/>
<path d="M52.9848 6.78901C49.2778 2.61961 43.9137 0 37.9502 0C31.9832 0 26.6191 2.61961 22.9121 6.79075C28.3727 6.63892 34.5653 6.49231 38.0243 6.49231C41.4677 6.49406 47.5777 6.63892 52.9848 6.78901Z" fill="black"/>
<path d="M38.0232 6.49414C34.5643 6.49414 28.3716 6.639 22.9111 6.79258C20.732 9.24116 19.1283 12.2273 18.3066 15.5293H57.59C56.7683 12.2273 55.1611 9.24116 52.9838 6.78909C47.5784 6.639 41.4684 6.49414 38.0232 6.49414Z" fill="#FAB721"/>
</svg>
