<svg width="76" height="67" viewBox="0 0 76 67" fill="none" xmlns="http://www.w3.org/2000/svg">
<path d="M46.8643 48.9856C46.8643 49.8425 47.5257 50.5145 48.3681 50.5145C49.2052 50.5145 49.8667 49.8425 49.8667 48.9856C49.8667 48.1217 49.2052 47.4568 48.3681 47.4568C47.5257 47.4568 46.8643 48.1217 46.8643 48.9856Z" fill="black"/>
<path d="M54.7503 53.9962L54.6555 54.0521L54.4678 53.5076C54.3972 53.3191 54.2318 53.1969 54.0337 53.1969H53.0639C52.8124 53.1969 52.6108 53.4029 52.6108 53.6577V66.2897C52.6108 66.5393 52.8141 66.7452 53.0639 66.7452H54.8037C55.0586 66.7452 55.255 66.5393 55.255 66.2897V56.0696L55.3118 56.0434C56.0284 55.6699 56.7554 55.4326 58.1679 55.4326C59.8543 55.4326 60.1988 56.0783 60.1988 57.1167V66.288C60.1988 66.5376 60.4003 66.7435 60.6535 66.7435H62.3933C62.6414 66.7435 62.8481 66.5376 62.8481 66.288V57.1935C62.8481 54.4116 61.2306 52.9438 58.1679 52.9438C57.0275 52.9456 55.8803 53.2981 54.7503 53.9962Z" fill="black"/>
<path d="M49.6636 53.6575C49.6636 53.4027 49.4621 53.1968 49.2071 53.1968H47.5207C47.2692 53.1968 47.0591 53.4027 47.0591 53.6575V66.2826C47.0591 66.5427 47.2692 66.7451 47.5207 66.7451H49.2071C49.4621 66.7451 49.6636 66.5427 49.6636 66.2826V53.6575Z" fill="black"/>
<path d="M43.8809 47.3449C43.8809 47.0936 43.6811 46.8772 43.4244 46.8772H41.7328C41.4882 46.8772 41.2781 47.0919 41.2781 47.3449V66.2826C41.2781 66.5374 41.4865 66.7451 41.7328 66.7451H43.4244C43.6828 66.7451 43.8809 66.5391 43.8809 66.2826V47.3449Z" fill="black"/>
<path d="M15.1189 59.9772C15.1189 61.7137 15.1189 67 20.7999 67C22.5036 67 23.6215 66.8971 25.0909 66.4206C25.2597 66.3648 25.351 66.1833 25.351 65.9983V64.5794C25.351 64.4241 25.2786 64.274 25.1477 64.192C25.0254 64.1064 24.8738 64.1204 24.7188 64.1501C23.4475 64.4241 22.4364 64.5044 20.7999 64.5044C18.4314 64.5044 17.9698 62.9895 17.8216 61.3437L17.8078 61.246H25.525C25.7747 61.246 25.9746 61.0348 25.9746 60.7817V59.9754C25.9746 56.5705 25.5766 52.9438 20.7999 52.9438C15.1189 52.9456 15.1189 58.2354 15.1189 59.9772ZM17.8096 58.7817C17.9405 57.0382 18.3918 55.4326 20.8017 55.4326C22.867 55.4326 23.2718 56.5617 23.3166 58.7852V58.8759H17.8044L17.8096 58.7817Z" fill="black"/>
<path d="M28.0227 59.9772C28.0227 61.7137 28.0227 67 33.7003 67C35.4039 67 36.5236 66.8971 37.993 66.4206C38.1583 66.3648 38.26 66.1833 38.26 65.9983V64.5794C38.26 64.4241 38.1876 64.274 38.0533 64.192C37.9292 64.1064 37.7776 64.1204 37.6295 64.1501C36.3496 64.4241 35.3402 64.5044 33.6986 64.5044C31.3352 64.5044 30.8718 62.9895 30.7237 61.3437L30.7168 61.246H38.4305C38.6803 61.246 38.8835 61.0348 38.8835 60.7817V59.9754C38.8835 56.5705 38.4787 52.9438 33.7003 52.9438C28.0227 52.9456 28.0227 58.2354 28.0227 59.9772ZM30.7185 58.7817C30.8426 57.0382 31.2973 55.4326 33.7003 55.4326C35.7674 55.4326 36.1705 56.5617 36.2204 58.7852L36.2222 58.8759H30.7065L30.7185 58.7817Z" fill="black"/>
<path d="M65.1375 59.9772C65.1375 61.7137 65.1375 67 70.8219 67C72.5221 67 73.6418 66.8971 75.1094 66.4206C75.28 66.3648 75.3799 66.1833 75.3799 65.9983V64.5794C75.3799 64.4241 75.3041 64.274 75.168 64.192C75.0509 64.1064 74.8958 64.1204 74.746 64.1501C73.4747 64.4241 72.4567 64.5044 70.8202 64.5044C68.4551 64.5044 67.9935 62.9895 67.8419 61.3437L67.8298 61.246H75.5452C75.795 61.246 75.9983 61.0348 75.9983 60.7817V59.9754C75.9983 56.5705 75.5986 52.9438 70.8202 52.9438C65.1374 52.9456 65.1375 58.2354 65.1375 59.9772ZM67.8298 58.7817C67.959 57.0382 68.4155 55.4326 70.8202 55.4326C72.889 55.4326 73.2887 56.5617 73.3352 58.7852V58.8759H67.8212L67.8298 58.7817Z" fill="black"/>
<path d="M0.487489 46.8127C0.218767 46.8127 0 47.0326 0 47.3066V66.253C0 66.5288 0.218767 66.7452 0.487489 66.7452H6.55612C10.8987 66.7452 13.2914 64.6736 13.2914 60.9248C13.2914 58.8759 12.3233 57.1359 10.6955 56.2615C10.6955 56.2615 10.6558 56.2371 10.6179 56.2161C10.6472 56.1952 10.6903 56.169 10.6903 56.169C11.9443 55.2336 12.673 53.8321 12.673 52.3085C12.673 50.2596 11.8548 46.8145 6.38042 46.8145H0.487489V46.8127ZM6.50616 49.4725C9.33463 49.4725 9.72049 50.8355 9.72049 52.3085C9.72049 54.1847 8.7369 55.0992 6.70598 55.0992H2.74234V49.4742H6.50616V49.4725ZM6.70598 57.7572C9.39148 57.7572 10.3406 58.5844 10.3406 60.9248C10.3406 62.4885 9.90997 64.0889 6.65603 64.0889H2.74234V57.7572H6.70598Z" fill="black"/>
<path d="M22.9101 34.3429C28.3707 34.4947 34.5633 34.6413 38.0223 34.6413C41.4674 34.6413 47.5774 34.4982 52.9845 34.3464C55.1619 31.8961 56.769 28.91 57.5907 25.6062H18.3057C19.1273 28.9082 20.731 31.8926 22.9101 34.3429Z" fill="#FAB721"/>
<path d="M22.9102 34.3429C26.6171 38.5105 31.983 41.1319 37.9482 41.1319C43.9135 41.1319 49.2759 38.514 52.9829 34.3464C47.5757 34.4982 41.4657 34.6413 38.0206 34.6413C34.5634 34.6413 28.3707 34.4965 22.9102 34.3429Z" fill="black"/>
<path d="M17.6926 20.5677C17.6926 22.306 17.9062 23.9936 18.3059 25.608H57.5892C57.9888 23.9954 58.2041 22.306 58.2041 20.5677C58.2041 18.8277 57.9888 17.1418 57.5892 15.5292H18.3059C17.9062 17.14 17.6926 18.8277 17.6926 20.5677Z" fill="black"/>
<path d="M52.9848 6.78901C49.2778 2.61961 43.9137 0 37.9502 0C31.9832 0 26.6191 2.61961 22.9121 6.79075C28.3727 6.63892 34.5653 6.49231 38.0243 6.49231C41.4677 6.49406 47.5777 6.63892 52.9848 6.78901Z" fill="black"/>
<path d="M38.0223 6.49402C34.5633 6.49402 28.3707 6.63887 22.9101 6.79246C20.731 9.24104 19.1273 12.2272 18.3057 15.5292H57.589C56.7673 12.2272 55.1601 9.24104 52.9828 6.78897C47.5774 6.63887 41.4674 6.49402 38.0223 6.49402Z" fill="#FAB721"/>
</svg>
