<svg width="115" height="79" viewBox="0 0 115 79" fill="none" xmlns="http://www.w3.org/2000/svg">
<path d="M8.0919 66.4663C8.8199 66.4663 9.46389 66.6043 9.99588 66.8528C10.5279 67.1012 10.9759 67.4601 11.3399 67.9018C11.7039 68.3436 11.9559 68.8681 12.1239 69.4479C12.2919 70.0276 12.3759 70.6902 12.3759 71.3528C12.3759 72.4018 12.1799 73.3957 11.7879 74.3344C11.3959 75.273 10.8639 76.0736 10.1919 76.7638C9.51989 77.454 8.7079 78.0061 7.78391 78.3926C6.85992 78.8067 5.85193 79 4.78794 79H4.05995C3.72396 79 3.30396 78.9448 2.85597 78.8896C2.40797 78.8344 1.93198 78.7515 1.42798 78.6135C0.923989 78.5031 0.447995 78.3374 0 78.1166L4.00395 61.5521L7.58791 61L6.18793 66.8804C6.49592 66.7423 6.80392 66.6319 7.11192 66.5491C7.41991 66.4939 7.72791 66.4663 8.0919 66.4663ZM5.09594 76.2117C5.62793 76.2117 6.13193 76.0736 6.60792 75.8252C7.08392 75.5767 7.50391 75.2178 7.83991 74.7761C8.1759 74.3344 8.4559 73.865 8.6519 73.3129C8.8479 72.7607 8.95989 72.2086 8.95989 71.6012C8.95989 70.8834 8.8479 70.3037 8.5959 69.8896C8.3439 69.4755 7.89591 69.2822 7.22392 69.2822C6.99992 69.2822 6.71992 69.3098 6.38393 69.3926C6.04793 69.4755 5.71193 69.6411 5.45994 69.862L3.94795 76.1012C4.03195 76.1288 4.11595 76.1288 4.19995 76.1564C4.25595 76.184 4.33995 76.184 4.42395 76.184H4.70395C4.78794 76.2117 4.92794 76.2117 5.09594 76.2117ZM16.1558 78.6963H12.7398L15.6238 66.7147H19.0678L16.1558 78.6963ZM17.8078 65.2515C17.3318 65.2515 16.9118 65.1135 16.5198 64.8374C16.1278 64.5613 15.9318 64.1196 15.9318 63.5399C15.9318 63.2086 15.9878 62.9325 16.1278 62.6288C16.2678 62.3528 16.4358 62.1043 16.6598 61.911C16.8838 61.7178 17.1358 61.5521 17.4158 61.4141C17.6958 61.3037 18.0038 61.2209 18.3398 61.2209C18.8158 61.2209 19.2358 61.3589 19.6278 61.635C20.0198 61.911 20.2158 62.3528 20.2158 62.9325C20.2158 63.2638 20.1598 63.5399 20.0198 63.8436C19.8798 64.1196 19.7118 64.3681 19.4878 64.5613C19.2638 64.7546 19.0118 64.9202 18.7318 65.0583C18.4518 65.1963 18.1438 65.2515 17.8078 65.2515ZM22.0077 63.7331L25.5917 63.181L24.7237 66.7147H28.5597L27.8597 69.5031H24.0517L23.0437 73.6994C22.9597 74.0583 22.9037 74.362 22.8757 74.6656C22.8477 74.9693 22.9037 75.2454 22.9877 75.4386C23.0997 75.6595 23.2677 75.8252 23.5197 75.9632C23.7717 76.0736 24.1077 76.1564 24.5277 76.1564C24.8917 76.1564 25.2557 76.1288 25.5917 76.046C25.9277 75.9632 26.2917 75.8804 26.6557 75.7699L26.9077 78.365C26.4597 78.5307 25.9557 78.6687 25.3957 78.8067C24.8637 78.9172 24.2197 79 23.4917 79C22.4277 79 21.6157 78.8344 21.0278 78.5307C20.4398 78.227 20.0198 77.7853 19.7678 77.2607C19.5158 76.7086 19.4038 76.1012 19.4318 75.411C19.4598 74.7209 19.5718 73.9755 19.7678 73.2025L22.0077 63.7331ZM28.0557 73.8926C28.0557 72.8712 28.2237 71.8773 28.5597 70.9663C28.8957 70.0552 29.3717 69.2546 30.0156 68.5644C30.6596 67.8742 31.4156 67.3497 32.3116 66.9356C33.2076 66.5491 34.2156 66.3558 35.3356 66.3558C36.0356 66.3558 36.6516 66.411 37.1836 66.5491C37.7435 66.6871 38.2196 66.8528 38.6675 67.0736L37.4916 69.7239C37.1836 69.6135 36.8756 69.5031 36.5396 69.3926C36.2036 69.2822 35.8116 69.2546 35.3356 69.2546C34.1876 69.2546 33.2636 69.6411 32.6196 70.4141C31.9476 71.1871 31.6396 72.2362 31.6396 73.5337C31.6396 74.3067 31.8076 74.9417 32.1436 75.411C32.4796 75.8804 33.0956 76.1288 34.0196 76.1288C34.4676 76.1288 34.8876 76.0736 35.3076 75.9908C35.7276 75.908 36.0916 75.7975 36.4276 75.6595L36.6796 78.365C36.2596 78.5307 35.7836 78.6687 35.2516 78.8067C34.7476 78.9448 34.1036 79 33.3756 79C32.4236 79 31.6116 78.862 30.9396 78.5859C30.2676 78.3098 29.7356 77.9509 29.2877 77.4816C28.8677 77.0123 28.5317 76.4877 28.3637 75.8528C28.1677 75.2454 28.0557 74.5828 28.0557 73.8926ZM42.8115 79C41.9995 79 41.2995 78.8896 40.6835 78.6411C40.0675 78.3926 39.5915 78.0613 39.1995 77.6196C38.8075 77.1779 38.4995 76.6534 38.3035 76.0736C38.1075 75.4663 37.9956 74.8037 37.9956 74.0859C37.9956 73.1748 38.1355 72.2638 38.4435 71.3528C38.7515 70.4417 39.1995 69.6135 39.7595 68.8957C40.3195 68.1779 41.0475 67.5706 41.9155 67.1012C42.7555 66.6319 43.7355 66.411 44.8275 66.411C45.6395 66.411 46.3395 66.5215 46.9274 66.7699C47.5434 67.0184 48.0474 67.3497 48.4394 67.7914C48.8314 68.2331 49.1394 68.7577 49.3354 69.3374C49.5314 69.9448 49.6434 70.6074 49.6434 71.3252C49.6434 72.2362 49.5034 73.1472 49.1954 74.0583C48.9154 74.9693 48.4674 75.7975 47.9074 76.5153C47.3474 77.2331 46.6194 77.8405 45.7795 78.3098C44.9115 78.7791 43.9315 79 42.8115 79ZM44.5195 69.2546C44.0155 69.2546 43.5675 69.3926 43.1755 69.6963C42.7835 69.9724 42.4755 70.3589 42.1955 70.8006C41.9435 71.2423 41.7475 71.7117 41.6075 72.2362C41.4675 72.7607 41.4115 73.2577 41.4115 73.727C41.4115 74.5 41.5235 75.1074 41.7755 75.5215C42.0275 75.9356 42.4755 76.1564 43.1195 76.1564C43.6235 76.1564 44.0715 76.0184 44.4635 75.7147C44.8555 75.4386 45.1635 75.0521 45.4435 74.6104C45.6955 74.1687 45.8915 73.6994 46.0315 73.1748C46.1715 72.6503 46.2275 72.1534 46.2275 71.684C46.2275 70.911 46.1155 70.3037 45.8635 69.8896C45.6115 69.4755 45.1635 69.2546 44.5195 69.2546ZM53.3954 78.6963H49.9794L52.8634 66.7147H56.3073L53.3954 78.6963ZM55.0753 65.2515C54.5993 65.2515 54.1794 65.1135 53.7874 64.8374C53.3954 64.5613 53.1994 64.1196 53.1994 63.5399C53.1994 63.2086 53.2554 62.9325 53.3954 62.6288C53.5354 62.3528 53.7034 62.1043 53.9274 61.911C54.1514 61.7178 54.4034 61.5521 54.6833 61.4141C54.9633 61.3037 55.2713 61.2209 55.6073 61.2209C56.0833 61.2209 56.5033 61.3589 56.8953 61.635C57.2873 61.911 57.4833 62.3528 57.4833 62.9325C57.4833 63.2638 57.4273 63.5399 57.2873 63.8436C57.1473 64.1196 56.9793 64.3681 56.7553 64.5613C56.5313 64.7546 56.2793 64.9202 55.9993 65.0583C55.6913 65.1963 55.3833 65.2515 55.0753 65.2515ZM58.7433 67.2669C58.9953 67.184 59.3033 67.1012 59.6113 67.0184C59.9193 66.908 60.2833 66.8252 60.6753 66.7423C61.0673 66.6595 61.5153 66.6043 61.9913 66.5491C62.4673 66.4939 63.0273 66.4663 63.6432 66.4663C65.4632 66.4663 66.6952 66.9908 67.3952 68.0123C68.0672 69.0337 68.1792 70.4693 67.7312 72.2362L66.1632 78.6963H62.7193L64.2312 72.3742C64.3152 71.9877 64.3992 71.6012 64.4552 71.2147C64.5112 70.8558 64.5112 70.5245 64.4552 70.2485C64.3992 69.9724 64.2592 69.7515 64.0352 69.5583C63.8112 69.3926 63.4753 69.3098 62.9993 69.3098C62.5513 69.3098 62.1033 69.365 61.6273 69.4479L59.3873 78.7239H55.9433L58.7433 67.2669Z" fill="#C2C2C5"/>
<path d="M70 73.8807C70 72.8624 70.1682 71.8716 70.5047 70.9633C70.8411 70.055 71.3178 69.2569 71.9626 68.5688C72.5794 67.8807 73.3645 67.3578 74.2617 66.945C75.1589 66.5596 76.1682 66.367 77.2897 66.367C77.9907 66.367 78.6075 66.422 79.1402 66.5596C79.6729 66.6972 80.1776 66.8624 80.6262 67.0826L79.4486 69.7248C79.1402 69.6147 78.8318 69.5046 78.4953 69.3945C78.1589 69.2844 77.7664 69.2569 77.2897 69.2569C76.1402 69.2569 75.215 69.6422 74.5701 70.4128C73.8972 71.1835 73.5888 72.2294 73.5888 73.5229C73.5888 74.2936 73.757 74.9266 74.0935 75.3945C74.4299 75.8624 75.0467 76.1101 75.972 76.1101C76.4206 76.1101 76.8411 76.055 77.2617 75.9725C77.6822 75.8899 78.0467 75.7798 78.3832 75.6422L78.6355 78.3395C78.215 78.5046 77.7383 78.6422 77.2056 78.7798C76.7009 78.9174 76.0561 78.9725 75.3271 78.9725C74.3738 78.9725 73.5607 78.8349 72.8878 78.5596C72.2149 78.2844 71.6822 77.9266 71.2336 77.4587C70.8131 76.9908 70.4766 76.4679 70.3084 75.8349C70.1122 75.2294 70 74.5688 70 73.8807ZM90.7757 73.4954C90.5514 74.3486 90.4953 75.2294 90.5794 76.0826C90.6636 76.9358 90.8598 77.7339 91.1121 78.422L88.028 78.8624C87.9439 78.6697 87.8598 78.5046 87.7757 78.3395C87.6916 78.1743 87.6355 77.9817 87.5514 77.7615C87.1308 78.1193 86.6542 78.3945 86.1215 78.6147C85.5888 78.8349 85 78.945 84.3551 78.945C83.5701 78.945 82.9252 78.8073 82.3645 78.5596C81.8037 78.2844 81.3832 77.9266 81.0187 77.4862C80.6822 77.0459 80.4299 76.5229 80.2617 75.9174C80.1215 75.3119 80.0374 74.6789 80.0374 73.9908C80.0374 72.945 80.2336 71.9541 80.5981 71.0459C80.9626 70.1376 81.4953 69.3119 82.1682 68.6239C82.8411 67.9358 83.6262 67.3853 84.5514 67C85.4486 66.6147 86.4579 66.422 87.5234 66.422C87.6636 66.422 87.9159 66.422 88.2523 66.4495C88.5888 66.4771 89.0093 66.5046 89.4299 66.5596C89.8785 66.6147 90.3551 66.6972 90.8318 66.8073C91.3364 66.9174 91.785 67.0826 92.2336 67.3028L90.7757 73.4954ZM88.3645 69.3394C88.1682 69.3119 87.972 69.2844 87.8318 69.2844C87.6636 69.2569 87.4673 69.2569 87.243 69.2569C86.7103 69.2569 86.2336 69.3945 85.785 69.6422C85.3364 69.8899 84.9439 70.2477 84.5794 70.6606C84.243 71.0734 83.9626 71.5688 83.7944 72.0917C83.5981 72.6422 83.514 73.1927 83.514 73.7982C83.514 74.5138 83.6262 75.0917 83.8785 75.5321C84.1308 75.945 84.5794 76.1651 85.2523 76.1651C85.6168 76.1651 85.9252 76.1101 86.2056 75.9725C86.486 75.8349 86.7944 75.6147 87.1308 75.2844C87.1589 74.8991 87.215 74.5138 87.271 74.1009C87.3271 73.6881 87.4112 73.3028 87.4953 72.945L88.3645 69.3394ZM96.3551 76.2477C97.1402 76.2477 97.6729 76.1376 97.9813 75.9174C98.2617 75.6972 98.4299 75.4495 98.4299 75.2018C98.4299 75.0367 98.4019 74.8991 98.3458 74.7615C98.2897 74.6514 98.2056 74.5138 98.0935 74.4312C97.9813 74.3211 97.8131 74.211 97.5888 74.1009C97.3645 73.9908 97.0841 73.8532 96.7477 73.7156C96.3551 73.5505 95.9907 73.3578 95.6542 73.1927C95.3178 73 95.0093 72.7798 94.757 72.5046C94.5047 72.2294 94.3084 71.9266 94.1682 71.5963C94.028 71.2661 93.9439 70.8532 93.9439 70.3853C93.9439 69.1468 94.3925 68.1835 95.3178 67.4679C96.243 66.7523 97.5608 66.3945 99.3271 66.3945C100.168 66.3945 100.897 66.4771 101.542 66.6697C102.187 66.8624 102.72 67.055 103.112 67.2477L101.935 69.7798C101.598 69.6147 101.206 69.4495 100.673 69.3119C100.168 69.1743 99.6636 69.0917 99.1589 69.0917C98.9346 69.0917 98.7383 69.0917 98.514 69.1193C98.3178 69.1468 98.1215 69.2018 97.9252 69.2569C97.757 69.3394 97.6168 69.4495 97.5047 69.5872C97.3925 69.7248 97.3364 69.9174 97.3364 70.1376C97.3364 70.4404 97.4486 70.6606 97.7009 70.8257C97.9533 70.9908 98.2617 71.156 98.7103 71.3761C99.2991 71.6514 99.8037 71.9266 100.224 72.1743C100.617 72.422 100.953 72.6697 101.178 72.945C101.43 73.2202 101.598 73.5229 101.71 73.8807C101.822 74.2385 101.879 74.6514 101.879 75.1193C101.879 75.6147 101.766 76.0826 101.57 76.5505C101.374 77.0183 101.037 77.4312 100.589 77.789C100.14 78.1468 99.5794 78.4495 98.8785 78.6697C98.1776 78.8899 97.3645 79 96.3832 79C95.7944 79 95.2336 78.9725 94.757 78.8899C94.2804 78.8073 93.8318 78.7248 93.4673 78.6147C93.1028 78.5046 92.7944 78.3945 92.5421 78.2569C92.2897 78.1468 92.0935 78.0367 91.9533 77.9541L93.1308 75.367C93.3832 75.5046 93.8037 75.6972 94.3645 75.945C94.8972 76.1376 95.5421 76.2477 96.3551 76.2477ZM111.187 66.5046C111.86 66.5046 112.421 66.5872 112.897 66.7798C113.374 66.9725 113.766 67.2202 114.075 67.578C114.383 67.9083 114.607 68.3211 114.776 68.789C114.916 69.2569 115 69.7523 115 70.3028C115 70.9358 114.916 71.5688 114.776 72.1743L113.206 78.6147H109.757L111.271 72.3119C111.327 72.0642 111.383 71.789 111.439 71.4862C111.495 71.211 111.523 70.9358 111.523 70.6606C111.523 70.2752 111.411 69.9174 111.215 69.6422C111.019 69.367 110.598 69.2294 110.009 69.2294C109.757 69.2294 109.533 69.2569 109.308 69.2844C109.084 69.3119 108.86 69.3394 108.664 69.3945L106.421 78.6147H102.972L107.121 61.5505L110.71 61L109.308 66.6972L110.234 66.5321C110.57 66.5321 110.879 66.5046 111.187 66.5046Z" fill="#22CC77"/>
<path d="M58 48C71.2548 48 82 37.2548 82 24C82 10.7452 71.2548 0 58 0C44.7452 0 34 10.7452 34 24C34 37.2548 44.7452 48 58 48Z" fill="#22CC77"/>
<path d="M67.4522 26.8465C66.9847 25.917 66.1666 25.1618 64.9979 24.5809C66.751 24.1162 67.8028 22.8963 67.9781 20.9212C68.0365 20.2241 67.9781 19.527 67.8028 18.9461C67.569 18.3651 67.2184 17.8423 66.751 17.4357C66.2835 17.029 65.6991 16.6224 65.1148 16.332C64.472 16.0415 63.7708 15.751 62.9527 15.5187L63.8292 11.4523L61.375 10.9295L60.5569 14.8797C60.1478 14.7635 59.4466 14.6473 58.5701 14.473L59.4466 10.5228L56.817 10L55.9405 14.0664C55.5899 14.0083 55.064 13.8921 54.3628 13.7759L50.9736 12.9627L50.3892 15.5768L52.2007 15.9834C53.0188 16.1577 53.4278 16.6224 53.4278 17.3776L52.4344 21.9668C52.5513 21.9668 52.6097 22.0249 52.6682 22.0249L52.4344 21.9668L51.032 28.4149C50.8567 28.9378 50.4477 29.1701 49.9217 29.0539L48.1103 28.6473L47 31.4938L50.2139 32.1909C50.4477 32.249 50.7398 32.3071 51.0904 32.3651C51.4995 32.4813 51.7917 32.5394 51.967 32.5394L51.0904 36.6058L53.5447 37.1286L54.4212 33.0622C54.8887 33.1784 55.5315 33.2946 56.408 33.4689L55.5315 37.4772L57.9857 38L58.8623 33.9336C59.7388 34.0498 60.5569 34.166 61.2581 34.166C61.9593 34.166 62.6605 34.166 63.3617 34.0498C64.063 33.9336 64.6473 33.7012 65.1148 33.4689C65.6407 33.1784 66.0497 32.7718 66.4588 32.249C66.8678 31.7261 67.16 31.0871 67.3937 30.332C67.8612 28.9959 67.9197 27.834 67.4522 26.8465ZM57.8689 17.3776C57.9273 17.3776 58.161 17.4357 58.5117 17.4938C58.8623 17.5519 59.1544 17.61 59.3882 17.6681C59.6219 17.7261 59.9141 17.7842 60.3231 17.9004C60.7322 18.0166 61.0243 18.1328 61.3165 18.249C61.5503 18.3651 61.8424 18.5394 62.1346 18.7137C62.4268 18.888 62.6605 19.1203 62.8358 19.3527C63.0111 19.5851 63.128 19.8174 63.1864 20.1079C63.2449 20.3983 63.2449 20.7469 63.1864 21.0954C63.128 21.3859 63.0111 21.6764 62.8943 21.9087C62.719 22.1411 62.5437 22.3154 62.3099 22.4315C62.0762 22.5477 61.8424 22.6639 61.6087 22.722C61.375 22.7801 61.0828 22.8382 60.7906 22.8382H59.9141C59.6803 22.8382 59.3882 22.7801 59.0376 22.722C58.687 22.6639 58.3948 22.6058 58.2195 22.6058C58.0442 22.5477 57.8104 22.5477 57.4598 22.4315C57.1677 22.3734 56.9339 22.3154 56.9339 22.3154L57.8689 17.3776ZM62.3099 29.6929C62.1346 29.9253 61.9593 30.0996 61.784 30.2739C61.6087 30.4481 61.3165 30.5643 61.0243 30.6224C60.7322 30.6805 60.44 30.7386 60.2063 30.7967C59.9141 30.8548 59.6219 30.8548 59.2713 30.8548C58.9207 30.8548 58.5701 30.7967 58.3363 30.7967C58.0442 30.7386 57.752 30.7386 57.4014 30.6805C57.0508 30.6224 56.7586 30.5643 56.5249 30.5062C56.2911 30.4481 56.0574 30.39 55.7652 30.332C55.473 30.2739 55.2393 30.2158 55.1809 30.2158L56.3496 24.8133C56.408 24.8133 56.7002 24.8714 57.1092 24.9876C57.5183 25.0456 57.8689 25.1618 58.161 25.2199C58.4532 25.278 58.8038 25.3942 59.2713 25.5104C59.7388 25.6266 60.1478 25.8008 60.44 25.917C60.7322 26.0332 61.0828 26.2075 61.4334 26.4398C61.784 26.6722 62.0762 26.9046 62.2515 27.1369C62.4268 27.3693 62.6021 27.6598 62.6605 28.0083C62.7774 28.3568 62.7774 28.7054 62.6605 29.112C62.5437 29.2282 62.4852 29.5187 62.3099 29.6929Z" fill="white"/>
</svg>
