<svg width="92" height="79" viewBox="0 0 92 79" fill="none" xmlns="http://www.w3.org/2000/svg">
<path d="M68.3123 29.1843C65.24 41.7758 52.7588 49.4353 40.4336 46.2966C28.1149 43.1579 20.6152 30.4063 23.689 17.8178C26.7599 5.22625 39.2403 -2.43542 51.5612 0.703272C63.8849 3.84197 71.3839 16.595 68.3116 29.1843H68.3123Z" fill="#F7931A"/>
<path d="M55.9425 20.6583C56.4003 17.6111 54.0704 15.9731 50.8846 14.8803L51.9181 10.7526L49.3949 10.1264L48.3888 14.1453C47.7167 13.9809 47.0431 13.823 46.3679 13.6716L47.3812 9.62617L44.8588 9L43.8254 13.1263C43.2763 13.0018 42.7373 12.8787 42.2142 12.7492L42.217 12.7363L38.7373 11.8711L38.0661 14.5547C38.0661 14.5547 39.9382 14.9819 39.8987 15.0084C40.9206 15.2624 41.1053 15.9358 41.0744 16.4697L39.8972 21.1721C39.9677 21.19 40.0589 21.2164 40.1595 21.2558L39.8929 21.19L38.2429 27.7773C38.1179 28.0864 37.8009 28.5502 37.0859 28.3741C37.1117 28.4106 35.2526 27.9183 35.2526 27.9183L34 30.7951L37.2835 31.6109C37.8944 31.7626 38.493 31.9222 39.0823 32.0725L38.0381 36.2474L40.5584 36.8736L41.5918 32.7423C42.2803 32.9291 42.9486 33.1001 43.6026 33.2626L42.572 37.3738L45.0945 38L46.1394 33.8329C50.442 34.6437 53.6773 34.3167 55.0392 30.4423C56.1365 27.3222 54.9845 25.5224 52.7208 24.348C54.3694 23.9687 55.6112 22.8889 55.9425 20.6583ZM50.1768 28.7076C49.397 31.8277 44.1214 30.1417 42.4111 29.7181L43.7966 24.187C45.507 24.6128 50.9917 25.4544 50.1768 28.7076ZM50.9572 20.6139C50.2458 23.4513 45.8548 22.0094 44.4305 21.6558L45.6867 16.6393C47.111 16.9928 51.6982 17.6526 50.9572 20.6132V20.6139Z" fill="white"/>
<path d="M10.7892 62.2591C11.7798 62.2591 12.6357 62.4335 13.3546 62.7759C14.0776 63.1218 14.6739 63.5876 15.1523 64.1735C15.6241 64.7624 15.9753 65.4507 16.2021 66.2395C16.4273 67.0309 16.5403 67.8809 16.5403 68.7909C16.5403 70.1899 16.2796 71.5102 15.7531 72.7555C15.2263 74.0027 14.5124 75.0848 13.6039 76.0075C12.696 76.9291 11.6241 77.6553 10.3879 78.1921C9.15373 78.7292 7.81186 78.9977 6.37112 78.9977C6.18482 78.9977 5.85727 78.9925 5.39459 78.9831C4.9319 78.9737 4.40011 78.9269 3.80457 78.8481C3.16444 78.7583 2.52949 78.6358 1.90229 78.4813C1.24591 78.3255 0.608234 78.1017 0 77.8136L5.34916 55.7292L10.1402 55L8.22492 62.8367C8.62323 62.6598 9.03661 62.5178 9.46028 62.4121C9.89515 62.3083 10.3413 62.2569 10.7888 62.2591H10.7892ZM6.77043 75.2634C7.49195 75.2634 8.17147 75.089 8.81053 74.7469C9.45288 74.4019 10.0166 73.9313 10.467 73.3643C10.9376 72.7731 11.308 72.111 11.5638 71.4037C11.8319 70.6726 11.9681 69.9011 11.9661 69.1239C11.9661 68.1517 11.8008 67.3948 11.4714 66.846C11.1419 66.3003 10.5323 66.0257 9.64658 66.0257C9.35644 66.0257 8.98309 66.0801 8.51964 66.1772C8.05466 66.2804 7.63855 66.4946 7.26557 66.8168L5.22585 75.1392C5.34877 75.1606 5.45758 75.1809 5.55034 75.2C5.6412 75.2206 5.74122 75.2352 5.84162 75.2454C5.94737 75.257 6.06839 75.263 6.2146 75.263L6.77005 75.2634H6.77043ZM21.5089 78.5754H16.9328L20.7973 62.5978H25.4047L21.5089 78.5754ZM23.7356 60.6511C23.1113 60.6562 22.5027 60.4589 22.004 60.0899C21.486 59.7179 21.229 59.1451 21.229 58.3732C21.229 57.9486 21.3168 57.5502 21.4913 57.1744C21.6599 56.8103 21.8963 56.4804 22.1884 56.2018C22.4811 55.9273 22.821 55.7059 23.1924 55.548C23.5789 55.3857 23.9952 55.3032 24.4156 55.3057C25.0538 55.3057 25.6295 55.4925 26.1457 55.8668C26.6595 56.243 26.918 56.8158 26.918 57.5836C26.9205 57.998 26.8306 58.408 26.6546 58.7846C26.4876 59.1491 26.2518 59.4791 25.9598 59.7572C25.6677 60.0321 25.3276 60.253 24.9557 60.4091C24.5732 60.5734 24.1678 60.6511 23.7356 60.6511ZM29.415 58.617L34.208 57.8874L33.031 62.597H38.1641L37.2372 66.3021H32.135L30.776 71.891C30.6508 72.3564 30.5798 72.7915 30.5599 73.1963C30.537 73.6025 30.5897 73.9513 30.7134 74.245C30.8363 74.5395 31.057 74.7664 31.3776 74.9265C31.6972 75.0897 32.1541 75.1719 32.7535 75.1719C33.2471 75.1719 33.7285 75.1257 34.1927 75.0342C34.6697 74.9413 35.1392 74.8147 35.5976 74.6554L35.9396 78.1193C35.2829 78.3529 34.6117 78.5452 33.93 78.6951C33.2074 78.8586 32.3519 78.937 31.3631 78.937C29.9415 78.937 28.8393 78.7296 28.0541 78.317C27.2699 77.9014 26.7156 77.3327 26.3839 76.6133C26.0567 75.8969 25.9105 75.0706 25.9514 74.1392C25.9934 73.206 26.1369 72.2248 26.3839 71.1922L29.415 58.617ZM37.9629 72.1955C37.9629 70.819 38.1897 69.5215 38.6424 68.3062C39.0948 67.0902 39.7465 66.0268 40.5917 65.1146C41.4342 64.2069 42.4608 63.4871 43.6694 62.959C44.8712 62.4339 46.218 62.1691 47.7015 62.1691C48.6307 62.1691 49.4602 62.2553 50.1905 62.4282C50.9235 62.6027 51.5862 62.8281 52.186 63.1109L50.6082 66.6367C50.1876 66.4706 49.7595 66.3237 49.3251 66.1964C48.8823 66.0625 48.3421 65.998 47.7026 65.998C46.1749 65.998 44.9677 66.5156 44.0691 67.5463C43.1735 68.5782 42.7226 69.9671 42.7226 71.7098C42.7226 72.7424 42.9498 73.577 43.4048 74.2158C43.8576 74.8545 44.694 75.1726 45.9084 75.1726C46.5074 75.1726 47.0861 75.1111 47.64 74.9911C48.1982 74.8695 48.691 74.7165 49.1251 74.5357L49.4671 78.1501C48.841 78.386 48.2009 78.5844 47.5503 78.7442C46.8479 78.913 46.013 79 45.0445 79C43.7664 79 42.6837 78.8166 41.7988 78.4542C40.9131 78.087 40.1813 77.599 39.6045 76.9809C39.025 76.3613 38.6092 75.6373 38.3519 74.8073C38.0946 73.9772 37.9625 73.1044 37.9625 72.1955H37.9629ZM58.2914 78.9989C57.1992 78.9989 56.2501 78.8353 55.4454 78.5116C54.643 78.1883 53.9787 77.7337 53.4526 77.1448C52.9258 76.5589 52.5322 75.8646 52.2623 75.0646C51.9924 74.2649 51.8626 73.3793 51.8626 72.409C51.8626 71.1922 52.0611 69.9754 52.4635 68.7612C52.864 67.5459 53.4576 66.4529 54.2425 65.4818C55.0224 64.5092 55.9844 63.714 57.116 63.094C58.2471 62.4781 59.5478 62.1683 61.0095 62.1683C62.0818 62.1683 63.0252 62.3322 63.8414 62.6559C64.6534 62.9789 65.3222 63.4369 65.8509 64.0227C66.3739 64.6116 66.7717 65.3029 67.0382 66.1045C67.3077 66.9023 67.4405 67.7901 67.4405 68.7612C67.4405 69.9743 67.2443 71.1918 66.8553 72.4086C66.4655 73.6201 65.8872 74.7154 65.1237 75.6883C64.3617 76.6598 63.4092 77.4543 62.2643 78.0717C61.1217 78.6894 59.7959 78.9989 58.2914 78.9989ZM60.5781 65.9983C59.8997 65.9983 59.3 66.1915 58.7865 66.5737C58.2712 66.9604 57.8386 67.4469 57.4897 68.0328C57.137 68.6217 56.8758 69.2638 56.6991 69.9619C56.5235 70.6614 56.4376 71.3235 56.4376 71.951C56.4376 72.9648 56.6044 73.7551 56.9312 74.323C57.2626 74.8879 57.8589 75.1726 58.7247 75.1726C59.4054 75.1726 60.0024 74.9802 60.5186 74.5942C61.0309 74.2105 61.4645 73.724 61.8158 73.1362C62.1662 72.5511 62.43 71.9067 62.6068 71.2072C62.7797 70.5099 62.8679 69.8449 62.8679 69.2177C62.8679 68.2065 62.7022 67.415 62.3716 66.8475C62.0425 66.2823 61.4435 65.998 60.5781 65.998V65.9983ZM72.4274 78.5754H67.8479L71.7124 62.5978H76.3217L72.4274 78.5754ZM74.6508 60.6511C74.027 60.6563 73.419 60.459 72.921 60.0899C72.4049 59.7179 72.1461 59.1451 72.1461 58.3732C72.1461 57.9486 72.2354 57.5502 72.4095 57.1744C72.577 56.8099 72.8132 56.4799 73.1058 56.2018C73.3989 55.9272 73.7392 55.7058 74.111 55.548C74.496 55.3857 74.9109 55.3032 75.3299 55.3057C75.9701 55.3057 76.5477 55.4925 77.0627 55.8668C77.5777 56.243 77.8373 56.8158 77.8373 57.5836C77.8373 58.0097 77.7449 58.4095 77.572 58.7846C77.399 59.1597 77.1665 59.4827 76.8787 59.7572C76.5861 60.0315 76.2461 60.2522 75.8747 60.4091C75.491 60.5734 75.0856 60.6511 74.6508 60.6511ZM79.6197 63.3243C79.9671 63.2246 80.3549 63.1045 80.7764 62.974C81.2453 62.8311 81.7209 62.7105 82.2015 62.6124C82.7241 62.4999 83.3139 62.408 83.9625 62.3371C84.6108 62.2647 85.3502 62.2294 86.171 62.2294C88.5845 62.2294 90.2481 62.92 91.1666 64.2969C92.0844 65.6739 92.2432 67.5579 91.6477 69.9469L89.5427 78.5739H84.9364L86.9769 70.128C87.101 69.601 87.1983 69.0909 87.2708 68.5928C87.3441 68.0992 87.3395 67.6637 87.2548 67.2875C87.18 66.9268 86.978 66.6037 86.6845 66.3749C86.3825 66.1427 85.9263 66.0261 85.3078 66.0261C84.6954 66.0285 84.0847 66.0903 83.4846 66.2106L80.4851 78.5728H75.8773L79.6197 63.3243Z" fill="#4D4D4D"/>
</svg>
