<svg width="115.00000000000001" height="79" xmlns="http://www.w3.org/2000/svg" fill="none">
 <g>
  <title>Layer 1</title>
  <g stroke="null">
   <circle stroke="null" fill="#f0b90b" r="22.84731" cy="24.32514" cx="57.5"/>
   <path stroke="null" fill="#fff" d="m49.39671,13.73426l8.10329,-4.67727l8.10333,4.67727l-2.9792,1.72791l-5.12413,-2.94936l-5.12413,2.94936l-2.97916,-1.72791zm16.20662,5.89871l-2.97921,-1.72789l-5.12412,2.94936l-5.12413,-2.94936l-2.97916,1.72789l0,3.45583l5.12413,2.9493l0,5.89872l2.97916,1.72797l2.97919,-1.72797l0,-5.89872l5.12413,-2.9493l0.00001,-3.45583zm0,9.35456l0,-3.45582l-2.97921,1.72785l0,3.45582l2.97921,-1.72784zm2.11514,1.22145l-5.12412,2.9493l0,3.45582l8.10332,-4.67727l0,-9.35455l-2.9792,1.72797l0,5.89873zm-2.97906,-13.52536l2.97906,1.72789l0,3.45584l2.97919,-1.72792l0,-3.45581l-2.97919,-1.72791l-2.97906,1.72791zm-10.21856,17.72601l0,3.45582l2.97916,1.72784l2.97919,-1.72784l0,-3.45582l-2.97919,1.72784l-2.97916,-1.72784zm-5.12413,-5.4221l2.97916,1.72784l0,-3.45582l-2.97916,-1.72785l0,3.45582zm5.12413,-12.30391l2.97916,1.72789l2.97919,-1.72789l-2.97919,-1.72791l-2.97916,1.72791zm-7.23936,1.72789l2.97916,-1.72789l-2.97916,-1.72791l-2.97913,1.72791l0,3.45581l2.97915,1.72792l-0.00002,-3.45584zm0,5.89874l-2.97913,-1.72797l0,9.35455l8.10329,4.67727l0,-3.45582l-5.12415,-2.9493l0,-5.89872z"/>
  </g>
  <g id="svg_1">
   <path stroke="null" fill="#F0B90B" d="m47.53581,69.49658l0,-0.04263c0,-1.9998 -1.06369,-2.99969 -2.78701,-3.65922c1.0637,-0.59568 1.9573,-1.53177 1.9573,-3.21245l0,-0.04256c0,-2.34021 -1.87217,-3.85071 -4.91442,-3.85071l-6.91419,0l0,14.89227l7.08445,0c3.36135,0 5.57388,-1.36156 5.57388,-4.0847zm-4.08469,-6.36117c0,1.10629 -0.91485,1.57432 -2.36153,1.57432l-3.021,0l0,-3.14864l3.23374,0c1.38282,0 2.1488,0.55313 2.1488,1.53177l0,0.04255zm0.82973,5.95694c0,1.10619 -0.87236,1.6168 -2.31891,1.6168l-3.89335,0l0,-3.27628l3.78683,0c1.68083,0 2.42543,0.61702 2.42543,1.61684l0,0.04264z"/>
   <path stroke="null" fill="#F0B90B" d="m63.67643,73.58128l0,-14.89227l-3.23373,0l0,9.16936l-6.97808,-9.16936l-3.021,0l0,14.89227l3.23374,0l0,-9.46724l7.21207,9.46724l2.78701,0z"/>
   <path stroke="null" fill="#F0B90B" d="m80.12251,69.49658l0,-0.04263c0,-1.9998 -1.06371,-2.99969 -2.78687,-3.65922c1.0637,-0.59568 1.95729,-1.53177 1.95729,-3.21245l0,-0.04256c0,-2.34021 -1.87231,-3.85071 -4.91457,-3.85071l-6.9142,0l0,14.89227l7.08447,0c3.36134,0 5.57388,-1.36156 5.57388,-4.0847zm-4.08471,-6.36117c0,1.10629 -0.91483,1.57432 -2.36137,1.57432l-3.021,0l0,-3.14864l3.23373,0c1.3828,0 2.14864,0.55313 2.14864,1.53177l0,0.04255zm0.82972,5.95694c0,1.10619 -0.87221,1.6168 -2.31889,1.6168l-3.8932,0l0,-3.27628l3.78681,0c1.68069,0 2.42528,0.61702 2.42528,1.61684l0,0.04264z"/>
  </g>
 </g>

</svg>