<svg width="16" height="16" viewBox="0 0 16 16" fill="none" xmlns="http://www.w3.org/2000/svg">
<path d="M15.0158 8.2924H14.5968V6.78787C14.5968 5.75569 13.7924 4.89846 12.7869 4.89846H8.56368V3.34145C9.18376 3.09653 9.61948 2.46673 9.61948 1.73196C9.61948 0.769758 8.8821 0 7.96037 0C7.03865 0 6.30126 0.769758 6.30126 1.73196C6.30126 2.46673 6.73699 3.07903 7.35706 3.34145V4.89846H3.11711C2.12835 4.89846 1.30718 5.7382 1.30718 6.78787V8.2924H0.904969C0.402208 8.2924 0 8.71227 0 9.2371V11.4589C0 11.9837 0.402208 12.4036 0.904969 12.4036H1.32394V14.0481C1.32394 15.0803 2.12835 15.9375 3.13387 15.9375H12.8036C13.7924 15.9375 14.6136 15.0978 14.6136 14.0481V12.4036H15.0325C15.5353 12.4036 15.9375 11.9837 15.9375 11.4589V9.2371C15.9207 8.72976 15.5185 8.2924 15.0158 8.2924ZM4.07236 9.00967C4.07236 8.22242 4.67567 7.59262 5.42981 7.59262C6.18395 7.59262 6.78726 8.22242 6.78726 9.00967C6.78726 9.79693 6.18395 10.4267 5.42981 10.4267C4.67567 10.4267 4.07236 9.79693 4.07236 9.00967ZM9.28431 13.4533H6.63644C6.30126 13.4533 6.03312 13.1734 6.03312 12.8235C6.03312 12.4736 6.30126 12.1937 6.63644 12.1937H9.26755C9.60272 12.1937 9.87086 12.4736 9.87086 12.8235C9.88762 13.1734 9.60272 13.4533 9.28431 13.4533ZM10.4909 10.4267C9.73679 10.4267 9.13348 9.79693 9.13348 9.00967C9.13348 8.22242 9.73679 7.59262 10.4909 7.59262C11.2451 7.59262 11.8484 8.22242 11.8484 9.00967C11.8484 9.79693 11.2451 10.4267 10.4909 10.4267Z" fill="#5EB76E"/>
</svg>
