<svg width="18" height="16" viewBox="0 0 18 16" fill="none" xmlns="http://www.w3.org/2000/svg">
<path d="M17.1562 6.67521L13.3509 10.1993L14.3437 15.2899C14.3596 15.3722 14.357 15.457 14.336 15.5381C14.3149 15.6192 14.276 15.6946 14.2221 15.7588C14.1682 15.8229 14.1006 15.8742 14.0243 15.9089C13.9481 15.9436 13.865 15.9608 13.7812 15.9593C13.6829 15.9608 13.5859 15.9366 13.5 15.889L8.99995 13.3577L4.45495 15.8749C4.36134 15.9266 4.25495 15.9505 4.14824 15.9438C4.04153 15.9372 3.93893 15.9002 3.85245 15.8374C3.76597 15.7745 3.6992 15.6883 3.65996 15.5888C3.62072 15.4894 3.61064 15.3808 3.63089 15.2758L4.63776 10.188L0.843702 6.65271C0.765132 6.57954 0.709143 6.48542 0.682349 6.38145C0.655555 6.27748 0.659075 6.16802 0.692494 6.06598C0.725913 5.96395 0.787835 5.87362 0.870945 5.80565C0.954055 5.73768 1.05488 5.69491 1.16151 5.6824L6.3112 5.06646L8.49651 0.363965C8.5415 0.268146 8.6126 0.186964 8.70166 0.129749C8.79071 0.0725344 8.89411 0.0416089 8.99995 0.0405273C9.10706 0.0407979 9.21187 0.0716437 9.30205 0.129438C9.39223 0.187232 9.46403 0.269573 9.50902 0.366777L11.6943 5.0749L16.844 5.70209C16.9508 5.71506 17.0516 5.75837 17.1345 5.82688C17.2174 5.89539 17.279 5.98624 17.3118 6.08866C17.3447 6.19107 17.3475 6.30076 17.3199 6.40472C17.2923 6.50868 17.2355 6.60255 17.1562 6.67521Z" fill="#CF8A4A"/>
</svg>
