<svg width="106" height="60" viewBox="0 0 106 60" fill="none" xmlns="http://www.w3.org/2000/svg">
<g clip-path="url(#clip0)">
<path d="M51.0007 29.9998C51.0007 43.807 39.5842 55 25.501 55C11.4176 55 0.000976562 43.807 0.000976562 29.9998C0.000976562 16.1928 11.4176 5 25.501 5C39.584 5 51.0007 16.1928 51.0007 29.9998Z" fill="#BEBEBE"/>
<path d="M45.5861 30.0002C45.5861 40.8751 36.5934 49.6923 25.5003 49.6923C14.4074 49.6923 5.41406 40.8751 5.41406 30.0002C5.41406 19.1243 14.4074 10.3077 25.5003 10.3077C36.5936 10.3077 45.5861 19.1241 45.5861 30.0002Z" fill="#BEBEBE"/>
<path d="M24.01 36.6784L25.6663 30.564L29.5876 29.1595L30.563 25.5661L30.5297 25.4769L26.6697 26.8594L29.4508 16.5927H21.5634L17.9263 29.991L14.8896 31.0786L13.8862 34.7832L16.9206 33.6965L14.777 41.5928H35.7685L37.1142 36.6784H24.01Z" fill="white"/>
</g>
<g clip-path="url(#clip1)">
<path d="M89.9948 4L89.6455 5.20743V40.2444L89.9948 40.599L105.988 30.9855L89.9948 4Z" fill="#343434"/>
<path d="M89.9968 4L74.0039 30.9855L89.9968 40.5991V23.5932V4Z" fill="#8C8C8C"/>
<path d="M89.9952 43.6784L89.7983 43.9225V56.4034L89.9952 56.988L105.998 34.0698L89.9952 43.6784Z" fill="#3C3C3B"/>
<path d="M89.9953 56.9879V43.6782L74.0024 34.0696L89.9953 56.9879Z" fill="#8C8C8C"/>
<path d="M89.9951 40.599L105.988 30.9857L89.9951 23.5934V40.599Z" fill="#141414"/>
<path d="M74.0024 30.9854L89.9951 40.5989V23.5931L74.0024 30.9854Z" fill="#393939"/>
</g>
<path d="M86.1496 34.2664L85.5304 36.7502C81.8733 51.4189 67.0157 60.3447 52.3459 56.6878L52.3457 56.6877C37.6821 53.0306 28.7553 38.1733 32.413 23.5059L86.1496 34.2664ZM86.1496 34.2664H86.0298M86.1496 34.2664H86.0298M86.0298 34.2664C88.1606 20.4394 79.4327 7.01556 65.5913 3.5649C50.9251 -0.0922461 36.0686 8.83568 32.4131 23.5055L86.0298 34.2664Z" fill="#F7931A" stroke="white" stroke-width="4"/>
<path d="M70.1627 26.5108C70.6671 23.1336 68.0958 21.3181 64.5798 20.107L65.7203 15.5322L62.9348 14.8382L61.8245 19.2925C61.0932 19.1101 60.3413 18.9379 59.5942 18.7674L60.7125 14.2838L57.9294 13.5898L56.7881 18.1631C56.1821 18.025 55.5873 17.8886 55.0099 17.7451L55.013 17.7308L51.1727 16.7719L50.4319 19.7461C50.4319 19.7461 52.498 20.2196 52.4544 20.249C53.5822 20.5306 53.7868 21.2769 53.7519 21.8686L52.4528 27.0803C52.5305 27.1001 52.6312 27.1286 52.7423 27.1731L52.4488 27.1001L50.627 34.4009C50.489 34.7435 50.1392 35.2575 49.3508 35.0624C49.3786 35.1028 47.3268 34.5571 47.3268 34.5571L45.9443 37.7455L49.569 38.6489C50.2431 38.8178 50.9038 38.9947 51.5534 39.1613L50.401 43.7892L53.1825 44.4832L54.3246 39.9052C55.0836 40.1114 55.8212 40.3018 56.543 40.481L55.4056 45.0376L58.1903 45.7316L59.3427 41.1132C64.0912 42.0118 67.6627 41.6493 69.1641 37.3553C70.3752 33.8972 69.1046 31.9025 66.6063 30.601C68.4257 30.1798 69.7962 28.983 70.1619 26.5108H70.1627ZM63.7994 35.4327C62.938 38.8908 57.1164 37.0222 55.228 36.5527L56.7571 30.4225C58.6448 30.8936 64.6972 31.8264 63.8002 35.4327H63.7994ZM64.6599 26.4608C63.8747 29.6064 59.0287 28.0082 57.4559 27.6164L58.8423 22.0565C60.4151 22.4484 65.4784 23.1796 64.6599 26.4608Z" fill="white"/>
<defs>
<clipPath id="clip0">
<rect y="5" width="51" height="50" fill="white"/>
</clipPath>
<clipPath id="clip1">
<rect x="74" y="4" width="32" height="53" fill="white"/>
</clipPath>
</defs>
</svg>
