<svg width="122" height="68" viewBox="0 0 122 68" fill="none" xmlns="http://www.w3.org/2000/svg">
<g clip-path="url(#clip0)">
<path d="M58.6997 33.9238C58.6997 49.8151 45.56 62.6975 29.351 62.6975C13.1419 62.6975 0.00195312 49.8151 0.00195312 33.9238C0.00195312 18.0327 13.1419 5.15039 29.351 5.15039C45.5598 5.15039 58.6997 18.0327 58.6997 33.9238Z" fill="#BEBEBE"/>
<path d="M52.4662 33.9246C52.4662 46.4411 42.1161 56.5891 29.3486 56.5891C16.5813 56.5891 6.23047 46.4411 6.23047 33.9246C6.23047 21.4071 16.5813 11.2598 29.3486 11.2598C42.1163 11.2598 52.4662 21.4069 52.4662 33.9246Z" fill="#BEBEBE"/>
<path d="M27.6343 41.6097L29.5406 34.5724L34.0538 32.9559L35.1764 28.8201L35.1381 28.7175L30.6955 30.3087L33.8964 18.4922H24.8184L20.6324 33.913L17.1373 35.1647L15.9824 39.4285L19.4748 38.1778L17.0077 47.2659H41.1677L42.7165 41.6097H27.6343Z" fill="white"/>
</g>
<g clip-path="url(#clip1)">
<path d="M103.58 4L103.178 5.38969V45.7152L103.58 46.1234L121.987 35.0588L103.58 4Z" fill="#343434"/>
<path d="M103.583 4L85.1758 35.0588L103.583 46.1235V26.5507V4Z" fill="#8C8C8C"/>
<path d="M103.58 49.6684L103.354 49.9492V64.314L103.58 64.9869L121.998 38.6094L103.58 49.6684Z" fill="#3C3C3B"/>
<path d="M103.579 64.9852V49.6664L85.1719 38.6074L103.579 64.9852Z" fill="#8C8C8C"/>
<path d="M103.58 46.1233L121.987 35.0589L103.58 26.5508V46.1233Z" fill="#141414"/>
<path d="M85.1719 35.0589L103.578 46.1234V26.5508L85.1719 35.0589Z" fill="#393939"/>
</g>
<path d="M98.7665 39.1376L98.1473 41.6214C93.9785 58.3424 77.0421 68.5172 60.3198 64.3485L60.3196 64.3485C43.6043 60.1797 33.4285 43.2436 37.598 26.524L98.7665 39.1376ZM98.7665 39.1376H98.661M98.7665 39.1376H98.661M98.661 39.1376C101.291 23.2539 91.3123 7.7553 75.4184 3.79294C58.7002 -0.375877 41.765 9.80119 37.5981 26.5236L98.661 39.1376Z" fill="#F7931A" stroke="#222225" stroke-width="4"/>
<path d="M80.7528 29.9103C81.3334 26.0234 78.374 23.9339 74.3273 22.54L75.64 17.2746L72.434 16.4759L71.156 21.6025C70.3144 21.3925 69.449 21.1944 68.5891 20.9982L69.8762 15.8378L66.673 15.0391L65.3594 20.3026C64.662 20.1437 63.9774 19.9867 63.3128 19.8215L63.3165 19.8051L58.8964 18.7014L58.0438 22.1246C58.0438 22.1246 60.4218 22.6696 60.3716 22.7034C61.6697 23.0274 61.9052 23.8864 61.865 24.5674L60.3698 30.5658C60.4592 30.5886 60.5752 30.6214 60.703 30.6726L60.3652 30.5886L58.2684 38.9914C58.1095 39.3857 57.707 39.9773 56.7996 39.7527C56.8316 39.7993 54.47 39.1712 54.47 39.1712L52.8789 42.8409L57.0506 43.8806C57.8266 44.0751 58.587 44.2786 59.3346 44.4703L58.0082 49.7968L61.2096 50.5956L62.5241 45.3266C63.3977 45.5639 64.2467 45.783 65.0773 45.9893L63.7683 51.2336L66.9733 52.0324L68.2997 46.7169C73.765 47.7511 77.8755 47.3339 79.6036 42.3918C80.9975 38.4117 79.5351 36.1159 76.6596 34.6179C78.7537 34.1332 80.3311 32.7557 80.7519 29.9103H80.7528ZM73.429 40.179C72.4377 44.159 65.7373 42.0084 63.5638 41.468L65.3238 34.4125C67.4964 34.9548 74.4624 36.0283 73.4299 40.179H73.429ZM74.4195 29.8528C73.5158 33.4732 67.9382 31.6338 66.128 31.1828L67.7237 24.7838C69.5339 25.2347 75.3615 26.0764 74.4195 29.8528Z" fill="white"/>
<defs>
<clipPath id="clip0">
<rect y="5.15039" width="58.6981" height="57.5472" fill="white"/>
</clipPath>
<clipPath id="clip1">
<rect x="85.1699" y="4" width="36.8302" height="61" fill="white"/>
</clipPath>
</defs>
</svg>
