<svg width="72" height="34" viewBox="0 0 72 34" fill="none" xmlns="http://www.w3.org/2000/svg">
<path d="M0 6.02245C1.23618 5.42851 1.4144 5.39492 2.27153 5.56961C2.27153 4.49862 2.2885 3.4142 2.26587 2.32978C2.25031 1.57593 2.15272 0.824763 2.13857 0.0709094C2.12867 -0.437035 2.52895 -0.691007 3.05086 -0.668163C3.37051 -0.654725 3.7029 -0.836134 4.01972 -0.814633C5.40301 -0.716538 5.62224 -0.399409 5.39028 0.917483C5.3436 1.1822 5.40866 1.50068 5.52747 1.74793C6.04656 2.82966 6.60242 3.89393 7.14696 4.96491C7.63068 5.91495 7.67877 5.99692 8.81312 6.17564C9.95596 6.35571 11.1158 6.44171 12.2671 6.56937C13.0266 6.65403 13.7961 6.85425 14.5443 6.79646C15.4976 6.7239 16.4834 6.55593 17.3504 6.19983C17.738 6.04127 17.9247 5.34117 18.1071 4.85472C18.5527 3.66414 18.7677 3.60636 20.1311 3.81464C21.6969 4.05249 23.2881 4.14252 24.8694 4.28093C25.5172 4.33737 26.1494 4.40993 26.7321 3.92483C26.9358 3.75552 27.4252 3.85765 27.7774 3.89527C29.2512 4.04846 30.725 4.20299 32.1917 4.39784C33.7249 4.60075 35.2454 4.90444 36.7829 5.05091C37.4193 5.11138 38.0855 4.81844 38.7432 4.79022C39.3104 4.76469 39.8564 4.4274 40.4787 4.7835C40.7686 4.94878 41.2651 4.84128 41.6555 4.78216C42.1519 4.70691 42.6357 4.4825 43.0274 5.01329C43.0769 5.08047 43.357 4.98507 43.5324 4.977C43.8747 4.96088 44.2834 4.85203 44.2495 5.42717C43.7092 5.51989 43.1717 5.61126 42.6342 5.70264C42.6371 5.76176 42.6385 5.82089 42.6413 5.88002C42.9695 5.89883 43.2976 5.91764 43.671 5.93914C43.6031 6.736 44.2863 6.62581 44.77 6.69568C46.4163 6.93622 48.0655 7.15122 49.719 7.34875C51.1022 7.51404 52.4968 7.60273 53.8759 7.7922C55.2224 7.97629 56.5562 8.24236 57.8956 8.47617C57.9366 8.48289 57.9861 8.51246 58.0102 8.54471C58.7782 9.63585 60.3156 10.1572 60.5533 11.6461C60.5702 11.755 60.6919 11.8813 60.8008 11.9377C61.5334 12.3153 62.2746 12.6768 63.0143 13.041C63.0949 13.0813 63.2053 13.1579 63.2633 13.135C64.7272 12.5182 66.2208 13.0786 67.6974 13.0463C68.7837 13.0235 69.8727 13.2156 70.9618 13.2707C71.7001 13.307 71.9646 13.7975 71.9731 14.3256C72.017 16.9123 71.9929 19.5018 71.9929 22.1073C70.7992 22.8276 69.8034 22.1933 68.8134 21.4691C67.0892 20.2073 65.3014 19.0167 63.6395 17.685C62.5589 16.8196 61.259 16.4246 60.0554 15.8239C59.8234 15.7083 59.525 15.711 59.2251 15.6532C58.8065 16.9527 58.8814 18.1835 59.1615 19.448C59.4514 20.7569 59.6466 22.0885 59.8149 23.4189C59.8913 24.0182 58.9861 24.8433 58.351 24.8339C57.6537 24.8231 56.9564 24.7707 56.4161 24.7438C55.8999 22.4272 55.4049 20.2046 54.9098 17.986C53.5746 17.986 52.3596 17.986 51.0513 17.986C50.7062 18.3421 51.9622 19.5838 50.4148 19.4763C49.6978 21.5631 49.1065 23.6621 48.2536 25.6616C47.2975 27.903 46.0359 30.01 44.3386 31.8524C44.0614 32.1534 43.9284 32.5699 43.6823 32.9018C43.5833 33.0349 43.3598 33.1612 43.1943 33.1598C42.6823 33.1558 42.0685 33.3533 41.7474 32.7688C41.1364 31.6548 40.5141 30.5422 39.978 29.3946C39.6951 28.7886 39.5862 28.11 39.4151 27.5227C43.2184 23.8529 44.8506 19.2962 45.5804 14.2342C44.4673 14.0931 43.3796 13.8808 42.2863 13.8445C41.6724 13.8244 41.0459 14.0918 40.4264 14.2329C39.268 14.4963 38.2425 14.3041 37.186 13.7169C36.4448 13.3057 35.5057 13.1807 34.6372 13.0208C32.5057 12.6284 30.3502 12.3449 28.23 11.9055C27.264 11.7052 26.38 11.1651 25.4196 10.9232C24.6883 10.7391 23.8934 10.7834 23.1268 10.723C21.4324 10.5913 19.7394 10.4461 18.0449 10.3359C17.7521 10.3171 17.3646 10.129 17.1694 10.6302C17.1156 10.7673 16.5895 10.7646 16.2783 10.7754C16.0025 10.7848 15.7225 10.723 15.3844 10.6853C15.3038 10.0484 14.7409 10.086 14.2303 10.0524C12.0889 9.91401 9.94747 9.76485 7.80466 9.65332C6.9051 9.60628 6.0013 9.67213 5.10032 9.6345C4.73824 9.61972 4.38039 9.47056 4.02397 9.37112C3.61379 9.25556 3.20644 9.1279 2.73262 8.98412C2.69585 8.88199 2.58269 8.70058 2.57279 8.5138C2.54875 8.03273 2.31537 7.8782 1.81467 7.88626C1.2079 7.89432 0.603948 7.81235 0 7.7707C0 7.1875 0 6.60565 0 6.02245ZM15.2303 8.99084C14.5103 8.93574 13.8611 8.89543 13.2133 8.83496C11.8739 8.70999 10.5373 8.57024 9.19784 8.44661C8.5755 8.38883 7.9461 8.30552 7.32517 8.33373C6.87681 8.35389 6.43552 8.54068 6.03948 8.64011C6.32802 8.95187 13.4552 9.66541 15.0973 9.47325C15.1383 9.32544 15.1793 9.17628 15.2303 8.99084ZM25.4663 6.9819C23.7845 6.76556 22.1438 6.54921 20.4989 6.35033C20.3772 6.33555 20.1665 6.41349 20.1212 6.50487C19.9798 6.79378 20.4013 7.34069 20.7606 7.37428C21.7506 7.467 22.752 7.5006 23.728 7.67126C24.4734 7.8016 25.1452 8.00451 25.4663 6.9819ZM17.0718 9.74872C19.9727 9.9691 22.6304 10.1707 25.288 10.3722C25.3192 10.2956 25.3503 10.2177 25.38 10.1411C25.206 10.0229 25.0434 9.81994 24.8581 9.79844C23.8439 9.6775 22.827 9.56731 21.8072 9.51759C20.3985 9.44906 18.9883 9.43025 17.5767 9.41009C17.4664 9.40875 17.3533 9.55522 17.0718 9.74872ZM52.4502 15.0929C52.4063 15.8373 52.3893 16.4528 52.3271 17.0642C52.279 17.5385 52.5082 17.8342 52.9608 17.8369C53.4303 17.8395 54.0951 18.154 54.2705 17.341C54.0131 17.3168 53.7613 17.2926 53.5958 17.2765C53.6722 16.6248 53.7443 16.0013 53.8236 15.3307C53.3483 15.2474 52.9707 15.1829 52.4502 15.0929ZM3.85424 4.90578C4.46384 4.96357 5.02536 5.01732 5.60809 5.07376C5.32097 4.2554 4.88109 3.68161 3.85424 3.76896C3.85424 4.1264 3.85424 4.49325 3.85424 4.90578Z" fill="#373739"/>
</svg>
