<svg width="115.00000000000001" height="79" xmlns="http://www.w3.org/2000/svg" fill="none">
 <g>
  <title>Layer 1</title>
  <g fill="#f0b90b" stroke="null" id="svg_2">
   <circle stroke="null" fill="#f0b90b" r="22.84731" cy="24.32514" cx="57.5" id="svg_3"/>
  </g>
  <g stroke="null">

   <title stroke="#ffffff" fill="#ffffff">Asset 1</title>
   <g stroke="null" data-name="Layer 2" id="svg_9">
    <g stroke="null" data-name="Layer 1" id="svg_10">
     <path stroke="#ffffff" fill="#ffffff" d="m57.5,9.22477l3.78307,3.87424l-9.52605,9.52607l-3.78308,-3.78307l9.52606,-9.61724z" class="cls-1"/>
     <path stroke="#ffffff" fill="#ffffff" d="m63.24297,14.96777l3.78308,3.87424l-15.26904,15.26904l-3.78308,-3.78307l15.26904,-15.3602z" class="cls-1"/>
     <path stroke="#ffffff" fill="#ffffff" d="m46.01403,20.71076l3.78308,3.87423l-3.78308,3.78308l-3.78307,-3.78308l3.78307,-3.87423z" class="cls-1"/>
     <path stroke="#ffffff" fill="#ffffff" d="m68.98596,20.71076l3.78308,3.87423l-15.26904,15.26904l-3.78308,-3.78308l15.26904,-15.3602z" class="cls-1"/>
    </g>
   </g>
  </g>
  <g fill="#f0b90b" stroke="null">
   <g stroke="#000" fill="black" stroke-width="0.25mm" font-size="9pt" fill-rule="evenodd" stroke-linecap="round" id="svg_11">
    <path fill="#f0b90b" stroke="#f0b90b" vector-effect="non-scaling-stroke" d="m47.93288,58.92722l-2.63781,0l0,8.35983a12.04443,12.04443 0 0 0 0.18018,2.2186c0.49063,2.59763 2.02868,3.8092 5.16361,3.82787a12.41778,12.41778 0 0 0 0.07386,0.00021a8.58403,8.58403 0 0 0 2.05222,-0.21873c2.44687,-0.60508 3.40602,-2.48076 3.40602,-5.82793l0,-8.35983l-2.63781,0l0,8.70477a6.53101,6.53101 0 0 1 -0.10348,1.23267c-0.26967,1.39337 -1.08759,2.09502 -2.69665,2.09502c-2.02908,0 -2.80013,-1.116 -2.80013,-3.3277l0,-8.70477zm16.98342,5.78289l-1.3189,-0.24348c-1.26067,-0.22584 -1.87569,-0.62598 -1.95847,-1.54069a2.49435,2.49435 0 0 1 -0.00974,-0.22462c0,-0.86398 0.5308,-1.42868 1.55874,-1.605a4.48123,4.48123 0 0 1 0.75441,-0.05885c1.03281,0 1.81603,0.27839 2.42881,0.73615a3.96787,3.96787 0 0 1 0.73656,0.72479l1.82617,-1.72472a5.61183,5.61183 0 0 0 -3.35266,-1.95462a7.90429,7.90429 0 0 0 -1.49685,-0.13534c-1.82191,0 -3.24714,0.54441 -4.12878,1.49016a3.84004,3.84004 0 0 0 -1.0048,2.68975a4.18539,4.18539 0 0 0 0.36747,1.80913c0.58235,1.23084 1.86168,1.99601 3.87332,2.30991l1.3392,0.20291c1.48122,0.26379 1.92763,0.85222 1.92763,1.80589c0,1.03929 -0.64221,1.77261 -1.88664,1.94812a4.3678,4.3678 0 0 1 -0.60913,0.04037a4.53135,4.53135 0 0 1 -3.35225,-1.43942a6.20494,6.20494 0 0 1 -0.27982,-0.30559l-1.80588,1.74501a6.44701,6.44701 0 0 0 2.99493,2.02219c0.59127,0.18709 1.24404,0.30071 1.96659,0.32608a8.91011,8.91011 0 0 0 0.31411,0.00548a7.44146,7.44146 0 0 0 2.1356,-0.28834c2.05059,-0.6144 3.18059,-2.16544 3.18059,-4.21622c0,-2.12973 -1.11559,-3.38046 -3.48535,-3.96828a10.80933,10.80933 0 0 0 -0.71485,-0.15076zm-32.9726,-5.78289l0,14.163l7.18295,0a3.64017,3.64017 0 0 0 3.49287,-2.83382a4.69002,4.69002 0 0 0 0.15948,-1.22435c0,-2.2123 -1.53297,-3.13006 -2.7419,-3.28387a2.93689,2.93689 0 0 0 -0.32202,-0.02354l0,-0.12174a2.52479,2.52479 0 0 0 2.08509,-1.17119c0.16679,-0.27352 0.29462,-0.60082 0.37092,-0.98898a4.5768,4.5768 0 0 0 0.08035,-0.88346a4.00642,4.00642 0 0 0 -0.38126,-1.77443c-0.42225,-0.86175 -1.18174,-1.46764 -2.20866,-1.72269a4.82414,4.82414 0 0 0 -1.16388,-0.13493l-6.55394,0zm39.85119,0l0,14.163l5.15387,0a6.36665,6.36665 0 0 0 3.18221,-0.76537c1.83531,-1.04375 2.92533,-3.15319 2.92533,-6.31613c0,-4.44633 -2.15427,-6.81102 -5.5051,-7.05958a8.14291,8.14291 0 0 0 -0.60243,-0.02192l-5.15387,0zm5.15387,11.78898l-2.47548,0l0,-9.41495l2.47548,0a3.7047,3.7047 0 0 1 1.56828,0.31289c1.0054,0.46669 1.62468,1.4581 1.69225,2.99249a6.4884,6.4884 0 0 1 0.00629,0.2861l0,2.23199c0,2.19283 -1.05412,3.36484 -2.73704,3.56165a4.56016,4.56016 0 0 1 -0.52979,0.02983zm-42.32667,0.10145l0,-3.79439l3.73351,0a2.07494,2.07494 0 0 1 0.70024,0.11079c0.58762,0.21042 0.92303,0.71362 0.92303,1.4516l0,0.6899c0,0.99425 -0.60872,1.5421 -1.62327,1.5421l-3.73351,0zm0,-5.98579l0,-3.63206l3.3074,0a1.97917,1.97917 0 0 1 0.65174,0.10044c0.47947,0.16699 0.7816,0.5373 0.86601,1.07521a2.10051,2.10051 0 0 1 0.02435,0.32587l0,0.62902a1.76388,1.76388 0 0 1 -0.12418,0.67954c-0.21691,0.52209 -0.71018,0.82198 -1.41792,0.82198l-3.3074,0z"/>
   </g>
  </g>
 </g>

</svg>