<svg width="24" height="24" viewBox="0 0 24 24" fill="none" xmlns="http://www.w3.org/2000/svg">
<rect width="24" height="24" rx="8" fill="#B0B0B0" fill-opacity="0.1"/>
<path d="M12.0002 6.66003C9.05104 6.66003 6.66016 9.05091 6.66016 12C6.66016 14.9493 9.05104 17.34 12.0002 17.34C14.9494 17.34 17.3402 14.9493 17.3402 12C17.3402 9.05091 14.9494 6.66003 12.0002 6.66003ZM12.0002 7.98003C12.8367 7.98003 13.6132 8.23575 14.2566 8.67291L8.67304 14.2566C8.23588 13.6132 7.98016 12.8366 7.98016 12C7.98016 9.77991 9.78004 7.98003 12.0002 7.98003ZM12.0002 16.02C11.1707 16.02 10.4001 15.7686 9.75988 15.3381L15.3382 9.75975C15.7688 10.4 16.0202 11.1706 16.0202 12C16.0202 14.2202 14.2203 16.02 12.0002 16.02Z" fill="#CFCFCF"/>
</svg>
