<svg width="121" height="88" viewBox="0 0 121 88" fill="none" xmlns="http://www.w3.org/2000/svg">
<path d="M12.086 71.8093C14.2037 71.8093 15.6904 72.7421 15.6904 74.4739H18.4696C18.4696 71.4357 15.67 69.9766 12.0417 69.9766C7.58821 69.9766 5 71.9129 5 76.0012C5 80.1903 7.58821 82.0231 12.0417 82.0231C15.7109 82.0231 18.4696 80.5967 18.4696 77.5612H15.7961C15.7961 79.2576 14.3332 80.1903 12.086 80.1903C9.13636 80.1903 7.77917 78.8839 7.77917 76.1703V75.8321C7.77917 73.1675 9.15682 71.8093 12.086 71.8093Z" fill="#4D4D4D"/>
<path d="M25.8148 70.1812L20.1508 81.8186H22.9504L24.1166 79.2931H30.7798L31.9665 81.8186H34.8957L29.2317 70.1812H25.8148ZM24.9657 77.4604L26.4525 74.2694C26.7492 73.6421 27.2777 72.2839 27.3834 72.0467H27.4926C27.5983 72.2839 28.1268 73.6585 28.4235 74.2694L29.9103 77.4604H24.9657Z" fill="#4D4D4D"/>
<path d="M50.0436 73.7103C50.0436 71.5557 48.4955 70.1812 45.2934 70.1812H37.6141V81.8186H40.3421V77.324H44.8467L47.6054 81.8186H50.5756L47.4554 76.9858C49.1741 76.4403 50.0436 75.2894 50.0436 73.7103ZM45.082 75.4912H40.3284V72.0303H45.082C46.5449 72.0303 47.3088 72.6576 47.3088 73.7103C47.3088 74.8121 46.4801 75.4912 45.082 75.4912Z" fill="#4D4D4D"/>
<path d="M59.5726 70.1812H53.7585V81.8186H59.5726C63.9613 81.8186 66.6348 79.9886 66.6348 76.0012C66.6348 72.0139 63.9613 70.1812 59.5726 70.1812ZM63.8556 76.1812C63.8351 78.7258 62.3279 79.9804 59.5726 79.9804H56.4763V72.0303H59.5726C62.3279 72.0303 63.8556 73.2876 63.8556 75.8322V76.1812Z" fill="#4D4D4D"/>
<path d="M73.7448 70.1812L68.0807 81.8186H70.8804L72.0466 79.2931H78.7064L79.8965 81.8186H82.8359L77.1719 70.1812H73.7448ZM72.8957 77.4604L74.3791 74.2694C74.6757 73.6421 75.2077 72.2839 75.3134 72.0467H75.4191C75.5248 72.2839 76.0568 73.6585 76.3535 74.2694L77.8368 77.4604H72.8957Z" fill="#4D4D4D"/>
<path d="M95.2362 77.1031C95.2362 77.324 95.2805 77.9213 95.2805 78.0195L95.1748 78.0522C95.11 77.9867 94.6871 77.3922 94.4519 77.1194L88.1331 70.1812H85.5449V81.8186H88.1535V74.8476C88.1535 74.5585 88.1092 73.9994 88.1092 73.9149L88.2149 73.863C88.2797 73.9312 88.5968 74.4221 88.9379 74.8121L95.301 81.8213H97.8414V70.1812H95.2293L95.2362 77.1031Z" fill="#4D4D4D"/>
<path d="M108.662 69.9766C104.099 69.9766 101.344 71.9129 101.344 76.0012C101.344 80.0894 104.099 82.0231 108.662 82.0231C113.224 82.0231 116 80.0894 116 76.0012C116 71.9129 113.221 69.9766 108.662 69.9766ZM113.221 76.1866C113.221 78.8512 111.632 80.1903 108.662 80.1903C105.692 80.1903 104.123 78.8512 104.123 76.1866V75.8321C104.123 73.1675 105.732 71.8093 108.662 71.8093C111.591 71.8093 113.221 73.173 113.221 75.8321V76.1866Z" fill="#4D4D4D"/>
<path d="M48.0709 27.316C48.0173 28.2998 48.3541 29.2648 49.0077 29.9999C49.6614 30.735 50.5786 31.1804 51.5587 31.2384C51.6305 31.2384 51.7053 31.2384 51.7728 31.2384C52.4968 31.2379 53.2047 31.0245 53.8091 30.6247C54.4136 30.2249 54.888 29.6561 55.1739 28.9886C55.4597 28.3212 55.5445 27.5843 55.4176 26.869C55.2907 26.1538 54.9578 25.4915 54.46 24.9641C53.9622 24.4366 53.3213 24.067 52.6165 23.9011C51.9117 23.7351 51.1739 23.78 50.4942 24.0302C49.8146 24.2804 49.2229 24.7249 48.7922 25.3089C48.3615 25.8928 48.1108 26.5906 48.0709 27.316Z" fill="#246DD3"/>
<path d="M34.2638 26.3595C34.0275 26.3462 33.7926 26.4035 33.5887 26.5242C33.3849 26.6448 33.2213 26.8234 33.1186 27.0374C33.0159 27.2514 32.9787 27.4911 33.0117 27.7263C33.0448 27.9614 33.1465 28.1815 33.3042 28.3586C33.4618 28.5358 33.6683 28.662 33.8974 28.7214C34.1266 28.7809 34.3681 28.7707 34.5916 28.6924C34.815 28.6141 35.0102 28.471 35.1527 28.2813C35.2951 28.0916 35.3783 27.8638 35.3917 27.6267C35.4008 27.4691 35.3788 27.3113 35.327 27.1623C35.2752 27.0132 35.1946 26.8759 35.0899 26.7582C34.9851 26.6404 34.8582 26.5446 34.7164 26.4762C34.5747 26.4078 34.4209 26.3681 34.2638 26.3595Z" fill="#246DD3"/>
<path d="M47.8364 5.74355C48.047 5.63592 48.2211 5.46813 48.3369 5.26133C48.4526 5.05452 48.5047 4.81796 48.4866 4.58147C48.4686 4.34499 48.3811 4.11916 48.2353 3.93248C48.0895 3.74579 47.8919 3.6066 47.6674 3.53246C47.4429 3.45832 47.2016 3.45254 46.9738 3.51586C46.746 3.57918 46.5421 3.70876 46.3876 3.88826C46.2331 4.06776 46.135 4.28914 46.1057 4.5245C46.0765 4.75985 46.1173 4.99864 46.223 5.21074C46.294 5.35215 46.392 5.47813 46.5116 5.58146C46.6311 5.68479 46.7697 5.76346 46.9196 5.81295C47.0694 5.86244 47.2276 5.88178 47.3849 5.86987C47.5422 5.85796 47.6956 5.81504 47.8364 5.74355Z" fill="#246DD3"/>
<path d="M51.5939 12.3184C51.9205 12.1531 52.1909 11.8944 52.371 11.575C52.5511 11.2555 52.6328 10.8897 52.6057 10.5237C52.5786 10.1576 52.444 9.80788 52.2189 9.51862C51.9937 9.22936 51.6882 9.01359 51.3409 8.89857C50.9936 8.78356 50.62 8.77446 50.2676 8.87245C49.9151 8.97043 49.5995 9.17109 49.3607 9.44905C49.1218 9.72702 48.9705 10.0698 48.9257 10.4341C48.881 10.7984 48.9449 11.1678 49.1094 11.4956C49.3303 11.9352 49.7161 12.2687 50.1819 12.423C50.6478 12.5773 51.1557 12.5396 51.5939 12.3184Z" fill="#246DD3"/>
<path d="M38.9511 16.8396C39.2033 17.0054 39.4987 17.0924 39.8001 17.0896C40.1016 17.0869 40.3954 16.9945 40.6445 16.8241C40.8935 16.6538 41.0867 16.4131 41.1995 16.1326C41.3122 15.8521 41.3396 15.5443 41.278 15.2482C41.2164 14.952 41.0688 14.6809 40.8536 14.469C40.6385 14.2572 40.3656 14.1141 40.0694 14.0579C39.7732 14.0017 39.4671 14.0349 39.1897 14.1533C38.9123 14.2717 38.6762 14.47 38.5111 14.7231C38.2899 15.0624 38.212 15.4759 38.2945 15.8728C38.377 16.2697 38.6132 16.6174 38.9511 16.8396Z" fill="#246DD3"/>
<path d="M41.2027 25.697C40.8371 25.676 40.4736 25.7643 40.1581 25.9507C39.8425 26.1371 39.5892 26.4133 39.4301 26.7442C39.271 27.0751 39.2132 27.4459 39.2641 27.8098C39.3151 28.1737 39.4724 28.5142 39.7162 28.7883C39.96 29.0624 40.2793 29.2578 40.6338 29.3498C40.9883 29.4417 41.362 29.4261 41.7077 29.3049C42.0533 29.1837 42.3554 28.9623 42.5756 28.6688C42.7959 28.3753 42.9245 28.0229 42.9451 27.656C42.9727 27.1644 42.8047 26.6819 42.478 26.3146C42.1512 25.9472 41.6925 25.7251 41.2027 25.697Z" fill="#246DD3"/>
<path d="M39.1595 38.1663C38.8903 38.3023 38.6674 38.5155 38.5189 38.7787C38.3704 39.042 38.303 39.3435 38.3253 39.6452C38.3476 39.9468 38.4585 40.2351 38.6441 40.4735C38.8297 40.7118 39.0815 40.8897 39.3678 40.9844C39.654 41.0791 39.9619 41.0865 40.2524 41.0057C40.5428 40.9248 40.8029 40.7593 40.9996 40.5301C41.1963 40.3009 41.3209 40.0183 41.3575 39.7181C41.3942 39.4178 41.3413 39.1134 41.2055 38.8433C41.1158 38.6638 40.9915 38.5039 40.84 38.3726C40.6885 38.2414 40.5127 38.1415 40.3226 38.0786C40.1325 38.0157 39.9319 37.9911 39.7324 38.0061C39.5328 38.0212 39.3381 38.0756 39.1595 38.1663Z" fill="#246DD3"/>
<path d="M46.3462 21.854C46.7062 22.0909 47.128 22.2154 47.5585 22.2116C47.9889 22.2079 48.4086 22.0762 48.7645 21.8332C49.1203 21.5901 49.3964 21.2466 49.5577 20.8461C49.719 20.4456 49.7584 20.0061 49.6708 19.5832C49.5832 19.1602 49.3727 18.7728 49.0657 18.47C48.7587 18.1671 48.3692 17.9624 47.9463 17.8818C47.5234 17.8011 47.0862 17.848 46.6899 18.0167C46.2936 18.1854 45.9561 18.4682 45.7199 18.8294C45.5629 19.0692 45.4546 19.3377 45.4011 19.6195C45.3476 19.9014 45.35 20.1911 45.4082 20.472C45.4663 20.7529 45.5791 21.0196 45.7401 21.2567C45.901 21.4939 46.107 21.6968 46.3462 21.854Z" fill="#246DD3"/>
<path d="M69.1485 12.1707C69.4546 12.3723 69.8134 12.4782 70.1795 12.4752C70.5456 12.4721 70.9026 12.3602 71.2053 12.1535C71.508 11.9468 71.7428 11.6547 71.8801 11.3141C72.0173 10.9734 72.0508 10.5996 71.9763 10.2399C71.9018 9.88018 71.7227 9.55071 71.4616 9.29315C71.2005 9.03559 70.8692 8.86152 70.5095 8.79296C70.1498 8.7244 69.7779 8.76442 69.4409 8.90797C69.1039 9.05152 68.8169 9.29214 68.6161 9.59941C68.4827 9.80328 68.3907 10.0315 68.3452 10.2711C68.2998 10.5107 68.3018 10.757 68.3513 10.9958C68.4007 11.2346 68.4966 11.4613 68.6334 11.6629C68.7702 11.8645 68.9452 12.037 69.1485 12.1707Z" fill="#246DD3"/>
<path d="M72.9443 5.6165C73.1424 5.747 73.3747 5.81559 73.6117 5.81361C73.8487 5.81162 74.0798 5.73914 74.2758 5.60534C74.4717 5.47154 74.6238 5.28242 74.7126 5.06191C74.8014 4.84141 74.8231 4.59941 74.7749 4.36653C74.7267 4.13365 74.6107 3.92035 74.4417 3.75361C74.2727 3.58687 74.0582 3.47418 73.8253 3.4298C73.5925 3.38541 73.3517 3.41131 73.1335 3.50424C72.9154 3.59717 72.7296 3.75294 72.5996 3.95185C72.5132 4.08382 72.4535 4.23159 72.424 4.38672C72.3946 4.54185 72.3959 4.70129 72.4279 4.85591C72.4599 5.01053 72.522 5.1573 72.6106 5.28781C72.6992 5.41832 72.8126 5.53001 72.9443 5.6165Z" fill="#246DD3"/>
<path d="M69.4389 23.7704C68.9533 23.7426 68.4671 23.8112 68.0079 23.972C67.5487 24.1328 67.1256 24.3829 66.7627 24.7078C66.3998 25.0327 66.1043 25.4262 65.8929 25.8658C65.6816 26.3054 65.5586 26.7824 65.5309 27.2697C65.5033 27.7569 65.5716 28.2449 65.7318 28.7057C65.8921 29.1665 66.1413 29.5911 66.4651 29.9552C66.7889 30.3194 67.181 30.616 67.619 30.8281C68.057 31.0402 68.5324 31.1636 69.0179 31.1914C69.0898 31.1914 69.1646 31.1914 69.2306 31.1914C70.1947 31.1913 71.1209 30.814 71.8121 30.1395C72.5034 29.4651 72.9053 28.5467 72.9324 27.5795C72.9595 26.6124 72.6097 25.6728 71.9573 24.9603C71.305 24.2479 70.4015 23.8189 69.4389 23.7645V23.7704Z" fill="#246DD3"/>
<path d="M52.8114 21.5967C53.1081 22.1872 53.5566 22.6875 54.1103 23.0461C54.6641 23.4046 55.3032 23.6084 55.9617 23.6363C56.6201 23.6642 57.2741 23.5153 57.856 23.2049C58.438 22.8945 58.9268 22.4339 59.2722 21.8706C59.6175 21.3073 59.8068 20.6618 59.8205 20.0005C59.8343 19.3393 59.6719 18.6864 59.3502 18.1092C59.0285 17.532 58.5592 17.0514 57.9906 16.7169C57.422 16.3825 56.7748 16.2064 56.1158 16.2068C55.4836 16.2072 54.8621 16.37 54.3104 16.6796C53.7586 16.9893 53.2951 17.4355 52.9638 17.9758C52.6326 18.5161 52.4447 19.1325 52.418 19.7663C52.3913 20.4001 52.5267 21.0303 52.8114 21.5967Z" fill="#246DD3"/>
<path d="M81.8395 16.8351C82.1078 16.6981 82.3296 16.4844 82.477 16.221C82.6243 15.9576 82.6907 15.6563 82.6676 15.3551C82.6446 15.0539 82.5331 14.7664 82.3474 14.5287C82.1616 14.2909 81.9099 14.1138 81.6239 14.0195C81.3379 13.9252 81.0305 13.918 80.7405 13.9988C80.4505 14.0796 80.1908 14.2449 79.9942 14.4736C79.7976 14.7024 79.673 14.9845 79.6359 15.2842C79.5989 15.584 79.6512 15.8881 79.7862 16.1581C79.8764 16.3381 80.0012 16.4985 80.1533 16.63C80.3055 16.7615 80.482 16.8616 80.6727 16.9245C80.8635 16.9874 81.0648 17.0119 81.265 16.9966C81.4652 16.9812 81.6605 16.9264 81.8395 16.8351Z" fill="#246DD3"/>
<path d="M72.4529 18.0185C72.0687 18.213 71.7505 18.5175 71.5386 18.8934C71.3268 19.2693 71.2307 19.6999 71.2626 20.1306C71.2945 20.5613 71.453 20.9728 71.7179 21.3132C71.9829 21.6536 72.3424 21.9075 72.7511 22.0428C73.1598 22.1782 73.5993 22.1889 74.0141 22.0736C74.4289 21.9583 74.8003 21.7222 75.0814 21.3952C75.3625 21.0681 75.5406 20.6648 75.5933 20.2361C75.646 19.8075 75.5709 19.3728 75.3775 18.9869C75.1173 18.4697 74.6632 18.0772 74.1149 17.8956C73.5665 17.714 72.9688 17.7582 72.4529 18.0185Z" fill="#246DD3"/>
<path d="M60.3604 5.05608C60.661 5.07298 60.9599 5.00012 61.2193 4.8467C61.4787 4.69328 61.687 4.46617 61.8179 4.19405C61.9488 3.92193 61.9965 3.61699 61.9548 3.31772C61.9132 3.01846 61.7841 2.73828 61.5839 2.51256C61.3837 2.28684 61.1214 2.12569 60.83 2.04946C60.5386 1.97323 60.2313 1.98534 59.9468 2.08424C59.6623 2.18315 59.4133 2.36444 59.2314 2.6052C59.0494 2.84597 58.9426 3.13544 58.9245 3.43706C58.9122 3.63812 58.9396 3.83963 59.0053 4.03001C59.0709 4.22038 59.1734 4.39585 59.3068 4.54632C59.4403 4.6968 59.602 4.8193 59.7829 4.90678C59.9637 4.99427 60.1599 5.04501 60.3604 5.05608Z" fill="#246DD3"/>
<path d="M60.3426 14.6775C60.7723 14.7012 61.1993 14.5966 61.5697 14.3769C61.9402 14.1572 62.2374 13.8322 62.4239 13.443C62.6103 13.0538 62.6776 12.6179 62.6173 12.1903C62.557 11.7628 62.3717 11.3627 62.0849 11.0408C61.7981 10.7189 61.4227 10.4895 61.006 10.3816C60.5893 10.2737 60.1501 10.2922 59.7439 10.4347C59.3377 10.5773 58.9827 10.8374 58.7238 11.1823C58.4649 11.5272 58.3137 11.9414 58.2893 12.3726C58.2732 12.6592 58.3136 12.9462 58.4081 13.2172C58.5026 13.4882 58.6494 13.7379 58.8401 13.9519C59.0308 14.1659 59.2616 14.3402 59.5194 14.4647C59.7772 14.5892 60.0569 14.6615 60.3426 14.6775Z" fill="#246DD3"/>
<path d="M48.5462 36.9817C48.9307 36.7872 49.249 36.4827 49.461 36.1067C49.6729 35.7307 49.769 35.3001 49.7371 34.8693C49.7052 34.4384 49.5467 34.0268 49.2816 33.6864C49.0166 33.346 48.6569 33.0921 48.248 32.9568C47.8392 32.8216 47.3995 32.811 46.9847 32.9265C46.5699 33.042 46.1985 33.2784 45.9175 33.6057C45.6366 33.933 45.4586 34.3366 45.4062 34.7654C45.3538 35.1942 45.4293 35.6289 45.6232 36.0147C45.883 36.5319 46.337 36.9243 46.8852 37.1056C47.4333 37.287 48.0308 37.2424 48.5462 36.9817Z" fill="#246DD3"/>
<path d="M61.7463 17.8653C61.2957 18.5563 61.0876 19.3783 61.1548 20.2013C61.2221 21.0243 61.5609 21.8014 62.1176 22.4094C62.6744 23.0175 63.4173 23.4219 64.2288 23.5586C65.0403 23.6954 65.8741 23.5567 66.5983 23.1645C67.3224 22.7723 67.8955 22.1489 68.227 21.3931C68.5584 20.6373 68.6293 19.7921 68.4283 18.9913C68.2273 18.1906 67.766 17.4799 67.1173 16.9718C66.4687 16.4637 65.6697 16.1872 64.8468 16.186C64.2318 16.1858 63.6263 16.3393 63.0851 16.6324C62.5438 16.9256 62.0837 17.3493 61.7463 17.8653Z" fill="#246DD3"/>
<path d="M68.1878 33.4055C67.8583 32.7486 67.3419 32.2046 66.7042 31.8422C66.0664 31.4798 65.3359 31.3154 64.605 31.3698C63.8741 31.4241 63.1757 31.6948 62.5981 32.1476C62.0205 32.6003 61.5898 33.2148 61.3603 33.9133C61.1308 34.6118 61.1129 35.3629 61.3089 36.0716C61.5049 36.7803 61.9059 37.4148 62.4613 37.8947C63.0166 38.3746 63.7014 38.6785 64.4288 38.7678C65.1563 38.8571 65.8938 38.7279 66.5481 38.3965C66.9842 38.1789 67.373 37.8767 67.6919 37.5073C68.0108 37.1379 68.2535 36.7086 68.406 36.2445C68.5585 35.7803 68.6178 35.2904 68.5803 34.8031C68.5429 34.3158 68.4095 33.8407 68.1878 33.4055Z" fill="#246DD3"/>
<path d="M74.6529 33.1459C74.2928 32.9085 73.8705 32.7837 73.4397 32.7872C73.0088 32.7907 72.5887 32.9224 72.2324 33.1655C71.8761 33.4087 71.5997 33.7525 71.4382 34.1533C71.2766 34.5542 71.2372 34.9941 71.3248 35.4175C71.4125 35.8408 71.6233 36.2285 71.9306 36.5316C72.2379 36.8347 72.6279 37.0395 73.0512 37.1202C73.4745 37.2008 73.9122 37.1536 74.3088 36.9845C74.7054 36.8155 75.0431 36.5322 75.2792 36.1705C75.5955 35.686 75.7072 35.0953 75.5898 34.5281C75.4723 33.961 75.1354 33.4639 74.6529 33.1459Z" fill="#246DD3"/>
<path d="M81.7486 27.5632C81.7695 27.1963 81.6815 26.8315 81.4958 26.5149C81.31 26.1983 81.0349 25.944 80.7051 25.7843C80.3754 25.6247 80.0058 25.5667 79.6433 25.6178C79.2807 25.6689 78.9414 25.8268 78.6682 26.0715C78.395 26.3161 78.2003 26.6366 78.1087 26.9923C78.0171 27.3481 78.0326 27.7231 78.1534 28.0699C78.2742 28.4168 78.4948 28.7199 78.7872 28.941C79.0797 29.162 79.431 29.291 79.7965 29.3117C80.2864 29.3394 80.7672 29.1708 81.1332 28.843C81.4993 28.5151 81.7207 28.0548 81.7486 27.5632Z" fill="#246DD3"/>
<path d="M86.8703 26.2427C86.634 26.2294 86.3991 26.2867 86.1952 26.4074C85.9914 26.528 85.8278 26.7067 85.7251 26.9206C85.6223 27.1346 85.5852 27.3743 85.6182 27.6095C85.6512 27.8447 85.753 28.0647 85.9107 28.2419C86.0683 28.419 86.2748 28.5453 86.5039 28.6047C86.7331 28.6641 86.9746 28.654 87.198 28.5756C87.4215 28.4973 87.6167 28.3542 87.7591 28.1646C87.9016 27.9749 87.9847 27.7471 87.9981 27.51C88.0158 27.1919 87.9069 26.8798 87.6954 26.6422C87.484 26.4046 87.1872 26.2609 86.8703 26.2427Z" fill="#246DD3"/>
<path d="M82.0478 38.1603C81.7957 37.9947 81.5002 37.9078 81.1989 37.9107C80.8976 37.9136 80.6039 38.006 80.3549 38.1764C80.1059 38.3467 79.9129 38.5873 79.8001 38.8678C79.6874 39.1482 79.6601 39.4559 79.7216 39.752C79.7831 40.048 79.9307 40.3191 80.1457 40.531C80.3607 40.7429 80.6334 40.886 80.9295 40.9423C81.2256 40.9987 81.5316 40.9656 81.809 40.8474C82.0864 40.7292 82.3226 40.5311 82.4878 40.2782C82.7091 39.9388 82.7871 39.525 82.7046 39.1279C82.6221 38.7308 82.3858 38.3827 82.0478 38.1603Z" fill="#246DD3"/>
<path d="M48.0548 49.3849C47.857 49.2545 47.6251 49.1859 47.3884 49.1878C47.1517 49.1896 46.9208 49.2619 46.725 49.3954C46.5293 49.5289 46.3773 49.7177 46.2885 49.9378C46.1996 50.158 46.1778 50.3997 46.2258 50.6323C46.2738 50.8649 46.3894 51.078 46.5581 51.2446C46.7268 51.4113 46.941 51.524 47.1735 51.5685C47.406 51.613 47.6464 51.5873 47.8644 51.4947C48.0824 51.4021 48.2681 51.2466 48.398 51.0481C48.5719 50.7818 48.6334 50.4571 48.5691 50.1453C48.5047 49.8335 48.3198 49.5601 48.0548 49.3849Z" fill="#246DD3"/>
<path d="M73.1615 49.2582C72.9503 49.3658 72.7757 49.5337 72.6596 49.7407C72.5435 49.9478 72.4911 50.1847 72.509 50.4217C72.527 50.6586 72.6145 50.8848 72.7605 51.0719C72.9065 51.259 73.1044 51.3984 73.3293 51.4727C73.5542 51.547 73.796 51.5527 74.0241 51.4892C74.2523 51.4257 74.4566 51.2958 74.6112 51.1159C74.7658 50.936 74.8639 50.7141 74.893 50.4783C74.9221 50.2425 74.881 50.0034 74.7748 49.791C74.7041 49.6494 74.6063 49.5231 74.4868 49.4196C74.3673 49.316 74.2286 49.2372 74.0786 49.1877C73.9287 49.1381 73.7704 49.1189 73.613 49.131C73.4556 49.1431 73.3021 49.1863 73.1615 49.2582Z" fill="#246DD3"/>
<path d="M59.2529 37.1349C59.7046 36.4432 59.9135 35.6201 59.8465 34.7959C59.7796 33.9717 59.4406 33.1934 58.8832 32.5843C58.3259 31.9751 57.582 31.57 56.7693 31.4329C55.9567 31.2958 55.1216 31.4347 54.3965 31.8274C53.6713 32.2202 53.0974 32.8445 52.7656 33.6015C52.4338 34.3584 52.363 35.2048 52.5645 36.0067C52.7661 36.8085 53.2283 37.52 53.8782 38.0286C54.528 38.5371 55.3283 38.8136 56.1524 38.8143C56.7679 38.8168 57.3742 38.6644 57.9158 38.371C58.4575 38.0776 58.9172 37.6526 59.2529 37.1349Z" fill="#246DD3"/>
<path d="M51.8507 42.8305C51.5446 42.6289 51.1858 42.523 50.8197 42.5261C50.4536 42.5291 50.0966 42.6411 49.7939 42.8477C49.4912 43.0544 49.2564 43.3465 49.1191 43.6872C48.9819 44.0278 48.9484 44.4016 49.0229 44.7613C49.0974 45.121 49.2765 45.4505 49.5376 45.7081C49.7987 45.9656 50.13 46.1397 50.4897 46.2083C50.8494 46.2768 51.2213 46.2368 51.5583 46.0932C51.8953 45.9497 52.1823 45.7091 52.3831 45.4018C52.6521 44.99 52.7472 44.4877 52.6474 44.0056C52.5475 43.5234 52.261 43.1007 51.8507 42.8305Z" fill="#246DD3"/>
<path d="M60.482 49.944C60.1813 49.9268 59.8823 49.9994 59.6227 50.1526C59.3631 50.3059 59.1546 50.5329 59.0235 50.8049C58.8923 51.077 58.8445 51.382 58.886 51.6813C58.9274 51.9807 59.0564 52.261 59.2565 52.4869C59.4566 52.7127 59.7189 52.874 60.0103 52.9504C60.3017 53.0267 60.6091 53.0147 60.8937 52.9159C61.1783 52.817 61.4274 52.6358 61.6094 52.395C61.7914 52.1542 61.8983 51.8647 61.9164 51.563C61.9285 51.3621 61.901 51.1608 61.8354 50.9706C61.7698 50.7804 61.6674 50.6051 61.5342 50.4547C61.4009 50.3042 61.2394 50.1817 61.0588 50.0941C60.8783 50.0065 60.6823 49.9554 60.482 49.944Z" fill="#246DD3"/>
<path d="M60.4981 40.3227C60.0685 40.299 59.6415 40.4036 59.2711 40.6233C58.9007 40.8429 58.6035 41.1678 58.417 41.5569C58.2305 41.946 58.1631 42.3819 58.2233 42.8094C58.2836 43.2369 58.4687 43.6369 58.7553 43.9589C59.042 44.2809 59.4173 44.5103 59.8339 44.6184C60.2504 44.7264 60.6896 44.7081 61.0958 44.5658C61.502 44.4235 61.857 44.1636 62.1161 43.8189C62.3752 43.4742 62.5267 43.0602 62.5514 42.6291C62.5676 42.3423 62.5274 42.0552 62.433 41.784C62.3385 41.5128 62.1918 41.263 62.0011 41.0488C61.8104 40.8346 61.5795 40.6602 61.3216 40.5356C61.0637 40.4111 60.7838 40.3387 60.4981 40.3227Z" fill="#246DD3"/>
<path d="M69.4036 42.682C69.0777 42.8483 68.8081 43.1078 68.629 43.4277C68.4498 43.7475 68.3691 44.1135 68.397 44.4794C68.4249 44.8452 68.5602 45.1946 68.7857 45.4834C69.0113 45.7723 69.317 45.9876 69.6644 46.1022C70.0118 46.2168 70.3852 46.2256 70.7375 46.1275C71.0898 46.0294 71.4053 45.8287 71.6442 45.5509C71.883 45.273 72.0345 44.9304 72.0794 44.5662C72.1244 44.2021 72.0609 43.8327 71.897 43.5047C71.7876 43.2859 71.6362 43.091 71.4515 42.9312C71.2668 42.7713 71.0525 42.6496 70.8208 42.5732C70.5891 42.4967 70.3446 42.467 70.1014 42.4856C69.8582 42.5043 69.621 42.571 69.4036 42.682Z" fill="#246DD3"/>
</svg>
