<svg width="22" height="22" viewBox="0 0 22 22" fill="none" xmlns="http://www.w3.org/2000/svg">
<path d="M18.7182 2.70705C17.5277 1.70788 16.1436 0.965607 14.6526 0.526851C13.7394 0.248247 12.7963 0.079128 11.8432 0.0230514C11.3772 -0.00589343 10.9099 -0.00589343 10.444 0.0230514C9.83281 0.0546912 9.22391 0.120796 8.62018 0.221051C7.34058 0.451918 6.10944 0.898254 4.97918 1.54105C3.45879 2.3651 2.17899 3.5706 1.26558 5.03905C0.675012 5.96718 0.279896 7.00598 0.104382 8.09197C-0.0711324 9.17797 -0.0233588 10.2883 0.244783 11.3553C0.683634 13.1465 1.67591 14.7538 3.08058 15.9488C4.83812 17.488 7.02297 18.4549 9.34398 18.7208C9.48109 18.7283 9.61522 18.7638 9.73805 18.8252C9.86088 18.8866 9.9698 18.9725 10.0581 19.0777C10.1463 19.1829 10.2121 19.305 10.2512 19.4367C10.2903 19.5683 10.302 19.7065 10.2856 19.8428C10.2856 20.2036 10.2042 20.5622 10.1602 20.9208C10.0922 21.1874 10.0773 21.4647 10.1162 21.737C10.118 21.7756 10.1278 21.8133 10.1449 21.8479C10.162 21.8825 10.1861 21.9131 10.2157 21.9379C10.2452 21.9627 10.2796 21.9812 10.3166 21.992C10.3536 22.0029 10.3925 22.006 10.4308 22.001C10.6571 21.9719 10.8789 21.9142 11.0908 21.8294C12.0298 21.3945 12.9206 20.8621 13.7484 20.241C15.5858 18.9423 17.3209 17.5044 18.9382 15.94C19.5012 15.4231 20.0112 14.8512 20.4606 14.2328C21.4501 12.8323 21.9875 11.1626 22.0006 9.44785C22.0016 8.68693 21.8972 7.92953 21.6904 7.19725C21.176 5.43464 20.1398 3.86917 18.7182 2.70705ZM6.53898 11.1639C6.28768 11.1656 6.04155 11.0924 5.832 10.9537C5.62245 10.8149 5.45897 10.6169 5.36241 10.3849C5.26585 10.1529 5.24058 9.89738 5.28984 9.65095C5.33909 9.40451 5.46064 9.17833 5.63896 9.00125C5.81729 8.82417 6.04432 8.70422 6.2911 8.6567C6.53788 8.60918 6.79322 8.63624 7.02455 8.73443C7.25589 8.83262 7.45273 8.99749 7.58998 9.20801C7.72724 9.41853 7.79867 9.66516 7.79518 9.91645C7.79172 10.2477 7.65798 10.5643 7.42289 10.7978C7.18781 11.0312 6.87028 11.1627 6.53898 11.1639ZM10.9874 11.1639C10.7376 11.1617 10.494 11.0856 10.2874 10.9452C10.0808 10.8048 9.92034 10.6063 9.82634 10.3749C9.73235 10.1434 9.70899 9.88929 9.75921 9.64458C9.80944 9.39986 9.93099 9.1755 10.1086 8.99977C10.2861 8.82404 10.5117 8.70483 10.757 8.65715C11.0022 8.60947 11.256 8.63547 11.4865 8.73187C11.717 8.82826 11.9137 8.99074 12.052 9.19881C12.1903 9.40689 12.2638 9.65123 12.2634 9.90105C12.2599 10.2374 12.124 10.5588 11.8852 10.7956C11.6463 11.0324 11.3237 11.1655 10.9874 11.166V11.1639ZM15.4622 11.1639C15.2116 11.1652 14.9663 11.092 14.7574 10.9537C14.5484 10.8154 14.3853 10.6182 14.2886 10.387C14.1919 10.1559 14.166 9.9012 14.2142 9.65532C14.2625 9.40944 14.3827 9.18343 14.5595 9.00594C14.7364 8.82845 14.962 8.70749 15.2077 8.65839C15.4534 8.60929 15.7082 8.63427 15.9397 8.73015C16.1712 8.82604 16.369 8.98851 16.508 9.19697C16.647 9.40543 16.721 9.65048 16.7206 9.90105C16.7212 10.2356 16.589 10.5567 16.3531 10.7939C16.1171 11.031 15.7967 11.1649 15.4622 11.166V11.1639Z" fill="white"/>
</svg>
