<svg width="18" height="18" viewBox="0 0 18 18" fill="none" xmlns="http://www.w3.org/2000/svg">
<path d="M9.00004 0.770828C4.46254 0.770828 0.770874 4.46249 0.770874 8.99999C0.770874 13.5373 4.46254 17.2292 9.00004 17.2292C13.5373 17.2292 17.2292 13.5373 17.2292 8.99999C17.2292 4.46249 13.5373 0.770828 9.00004 0.770828ZM9.90587 13.3421V14.6762C9.90587 14.7335 9.859 14.7804 9.80171 14.7804H8.19837C8.14087 14.7804 8.09421 14.7335 8.09421 14.6762V13.4575C7.41941 13.3729 6.7865 13.1473 6.34587 12.8325L6.10254 12.6587C6.06462 12.6314 6.04942 12.5827 6.06504 12.5387L6.64525 10.9198C6.65608 10.8896 6.68004 10.8662 6.71025 10.856C6.74046 10.846 6.77379 10.8504 6.80067 10.8679L7.22129 11.1444C7.66962 11.4398 8.25525 11.616 8.78796 11.616C9.40566 11.616 9.82087 11.31 9.82087 10.8544C9.82087 10.5398 9.68212 10.1927 8.67754 9.78499C7.47296 9.31312 6.24046 8.62208 6.24046 7.08083C6.24046 5.90041 6.97837 4.95999 8.17233 4.60916V3.32374C8.17233 3.26624 8.219 3.21958 8.2765 3.21958H9.87962C9.93691 3.21958 9.98379 3.26624 9.98379 3.32374V4.50958C10.5002 4.5802 10.9665 4.73604 11.4048 4.98499L11.7002 5.15249C11.745 5.1777 11.7648 5.23208 11.7465 5.27999L11.1386 6.88124C11.1275 6.90979 11.1052 6.93208 11.0761 6.94229C11.0477 6.95249 11.0159 6.94958 10.9892 6.93458L10.5867 6.70374C10.3519 6.56937 9.91525 6.31895 9.21337 6.31895C8.43233 6.31895 8.34816 6.7527 8.34816 6.93916C8.34816 7.21624 8.43817 7.43624 9.64046 7.94708C10.7775 8.41083 11.9413 9.10728 11.9405 10.7517C11.9402 11.9783 11.1444 12.9873 9.90587 13.3421Z" fill="#E47166"/>
</svg>
