<svg width="18" height="18" viewBox="0 0 18 18" fill="none" xmlns="http://www.w3.org/2000/svg">
<path d="M8.99992 0.770828C4.46242 0.770828 0.770752 4.46249 0.770752 8.99999C0.770752 13.5373 4.46242 17.2292 8.99992 17.2292C13.5372 17.2292 17.2291 13.5373 17.2291 8.99999C17.2291 4.46249 13.5372 0.770828 8.99992 0.770828ZM9.90575 13.3421V14.6762C9.90575 14.7335 9.85888 14.7804 9.80158 14.7804H8.19825C8.14075 14.7804 8.09408 14.7335 8.09408 14.6762V13.4575C7.41929 13.3729 6.78638 13.1473 6.34575 12.8325L6.10242 12.6587C6.0645 12.6314 6.04929 12.5827 6.06492 12.5387L6.64513 10.9198C6.65596 10.8896 6.67992 10.8662 6.71013 10.856C6.74033 10.846 6.77367 10.8504 6.80054 10.8679L7.22117 11.1444C7.6695 11.4398 8.25513 11.616 8.78783 11.616C9.40554 11.616 9.82075 11.31 9.82075 10.8544C9.82075 10.5398 9.682 10.1927 8.67742 9.78499C7.47283 9.31312 6.24033 8.62208 6.24033 7.08083C6.24033 5.90041 6.97825 4.95999 8.17221 4.60916V3.32374C8.17221 3.26624 8.21888 3.21958 8.27638 3.21958H9.8795C9.93679 3.21958 9.98367 3.26624 9.98367 3.32374V4.50958C10.5001 4.5802 10.9664 4.73604 11.4047 4.98499L11.7001 5.15249C11.7449 5.1777 11.7647 5.23208 11.7464 5.27999L11.1385 6.88124C11.1274 6.90979 11.1051 6.93208 11.076 6.94229C11.0476 6.95249 11.0158 6.94958 10.9891 6.93458L10.5866 6.70374C10.3518 6.56937 9.91513 6.31895 9.21325 6.31895C8.43221 6.31895 8.34804 6.7527 8.34804 6.93916C8.34804 7.21624 8.43804 7.43624 9.64034 7.94708C10.7774 8.41083 11.9412 9.10728 11.9403 10.7517C11.9401 11.9783 11.1443 12.9873 9.90575 13.3421Z" fill="#5EB76E"/>
</svg>
