<svg width="17" height="16" viewBox="0 0 17 16" fill="none" xmlns="http://www.w3.org/2000/svg">
<path d="M6.35558 4.45026C5.83035 4.50122 5.42767 4.92585 5.4802 5.4354L5.97041 12.2634C6.00543 12.739 6.42561 13.1127 6.91583 13.1127H6.98586C7.23097 13.0957 7.45857 12.9768 7.63365 12.79C7.80872 12.6031 7.87876 12.3653 7.86125 12.1275L7.37103 5.29952C7.33602 4.80695 6.88081 4.43328 6.35558 4.45026Z" fill="#F36B5E"/>
<path d="M10.6099 4.43317C10.0847 4.41619 9.64698 4.78986 9.61197 5.28243L9.12175 12.1105C9.10424 12.3652 9.17427 12.603 9.34935 12.7899C9.50692 12.9767 9.75203 13.0786 9.99713 13.0956H10.0497C10.5399 13.0956 10.9601 12.7219 10.9951 12.2463L11.4853 5.41831C11.5378 4.90876 11.1526 4.48413 10.6099 4.43317Z" fill="#F36B5E"/>
<path d="M16.0371 1.44374H11.6601L10.8898 0.390658C10.6972 0.152866 10.3996 0 10.102 0H6.88054C6.54789 0 6.25026 0.152866 6.09269 0.390658L5.32235 1.44374H0.945417C0.437693 1.44374 0 1.86837 0 2.36093C0 2.87049 0.420185 3.27813 0.945417 3.27813H1.45314L2.76622 13.9108C2.92379 15.0998 3.95675 16 5.19979 16H11.8002C13.0433 16 14.0762 15.0998 14.2338 13.9108L15.5469 3.27813H16.0546C16.5623 3.27813 17 2.8535 17 2.36093C16.9825 1.85138 16.5448 1.44374 16.0371 1.44374ZM12.3429 13.69C12.3254 13.9618 12.0803 14.1656 11.8002 14.1656H5.19979C4.91967 14.1656 4.67456 13.9618 4.65705 13.69L3.36148 3.27813H13.621L12.3429 13.69Z" fill="#F36B5E"/>
</svg>
