<svg width="16" height="16" viewBox="0 0 16 16" fill="none" xmlns="http://www.w3.org/2000/svg">
<circle cx="8" cy="8" r="8" fill="#FFE4AE"/>
<path d="M12.9956 7.02222C12.9956 7.01379 13 7.00786 13 7.00003C13 6.98807 12.9937 6.97843 12.9931 6.96698C12.99 6.91003 12.9788 6.85478 12.958 6.80134C12.9518 6.78517 12.9486 6.76829 12.9412 6.75273C12.9381 6.7461 12.9374 6.73897 12.9337 6.73173L11.6837 4.33177C11.5781 4.12846 11.3619 4 11.125 4H4.87497C4.63809 4 4.42193 4.12847 4.31562 4.33187L3.0656 6.73184C3.06184 6.73907 3.06121 6.7462 3.05807 6.75283C3.05054 6.7684 3.0474 6.78527 3.04122 6.80145C3.02124 6.85549 3.00931 6.91063 3.00617 6.96708C3.00628 6.97843 3 6.98808 3 7.00003C3 7.00786 3.00439 7.01379 3.00439 7.02222C3.00691 7.09244 3.01936 7.16144 3.0475 7.22804C3.0519 7.23768 3.0588 7.24481 3.06309 7.25446C3.08245 7.29343 3.1018 7.33361 3.13058 7.36846L7.50541 12.7685C7.50918 12.7733 7.51546 12.7751 7.51912 12.7798C7.53042 12.7924 7.54413 12.8026 7.55658 12.8146C7.57405 12.8313 7.58974 12.8487 7.6091 12.8638C7.63662 12.8854 7.66664 12.9016 7.6972 12.919C7.71655 12.9293 7.73465 12.9376 7.75474 12.9467C7.76604 12.9509 7.77536 12.958 7.78666 12.9616C7.79231 12.9634 7.79544 12.9677 7.80099 12.9695C7.80162 12.9701 7.80287 12.9695 7.80413 12.9701C7.86743 12.9886 7.93303 13 7.99989 13C8.06675 13 8.13235 12.9886 8.19492 12.9694C8.19555 12.9688 8.1968 12.9694 8.19806 12.9688C8.20371 12.967 8.20685 12.9627 8.21239 12.9609C8.22369 12.9567 8.23301 12.9496 8.24431 12.946C8.26429 12.9369 8.28239 12.9286 8.30185 12.9183C8.33251 12.9016 8.36243 12.8847 8.38995 12.8631C8.40931 12.8481 8.42552 12.8306 8.44247 12.8139C8.45492 12.8019 8.46874 12.7923 8.47993 12.7791C8.4837 12.7743 8.48997 12.7725 8.49364 12.7678L12.8685 7.36776C12.8972 7.3324 12.9172 7.29273 12.936 7.25375C12.9404 7.24411 12.9478 7.23698 12.9515 7.22734C12.9798 7.16205 12.9922 7.09244 12.9954 7.02223L12.9956 7.02222ZM5.67439 7.6L6.25309 9.26621L4.90252 7.6H5.67439ZM8.23876 5.20003L8.86371 6.40007H7.13628L7.76123 5.20003H8.23876ZM9.00811 7.6L8 10.5029L6.99188 7.6H9.00811ZM10.3256 7.6H11.0975L9.7469 9.26621L10.3256 7.6ZM11.3637 6.40007H10.2612L9.63623 5.20003H10.7387L11.3637 6.40007ZM5.26145 5.20003H6.36393L5.73897 6.40007H4.63649L5.26145 5.20003Z" fill="#423B36"/>
</svg>
