<svg width="121" height="88" viewBox="0 0 121 88" fill="none" xmlns="http://www.w3.org/2000/svg">
<path d="M61.4181 56.9684C77.113 56.9684 89.8362 44.2156 89.8362 28.4842C89.8362 12.7528 77.113 0 61.4181 0C45.7232 0 33 12.7528 33 28.4842C33 44.2156 45.7232 56.9684 61.4181 56.9684Z" fill="#988430"/>
<path d="M61.4182 56.0686C76.6173 56.0686 88.9386 43.7186 88.9386 28.4841C88.9386 13.2496 76.6173 0.899597 61.4182 0.899597C46.219 0.899597 33.8977 13.2496 33.8977 28.4841C33.8977 43.7186 46.219 56.0686 61.4182 56.0686Z" fill="#7A6A2A"/>
<path d="M61.4181 55.4751C76.2901 55.4751 88.3462 43.3909 88.3462 28.4844C88.3462 13.5778 76.2901 1.49365 61.4181 1.49365C46.5462 1.49365 34.4901 13.5778 34.4901 28.4844C34.4901 43.3909 46.5462 55.4751 61.4181 55.4751Z" fill="#BA9F33"/>
<path fill-rule="evenodd" clip-rule="evenodd" d="M45.4228 25.4433C45.2612 25.2993 45.0997 25.1554 44.9381 24.9934C44.7765 24.8495 44.6149 24.7055 44.4534 24.5436L43.9687 24.0937C43.8969 24.0218 43.8071 23.9498 43.7353 23.8598C43.6635 23.7878 43.5737 23.7159 43.484 23.6439C42.8556 23.0321 42.2094 22.4383 41.5811 21.8265C42.2273 22.4203 42.8556 23.0141 43.5199 23.6079L43.7533 23.8418C43.8251 23.9138 43.9148 23.9858 43.9866 24.0757L44.4713 24.5256C44.6329 24.6695 44.7945 24.8135 44.956 24.9754C45.1176 25.1554 45.2612 25.2993 45.4228 25.4433ZM37.0033 25.3533C37.0033 25.3533 39.3191 25.5872 40.4321 25.7492C41.4733 25.8931 44.7406 26.3969 44.7406 26.3969L37.0033 25.3533ZM37.0033 25.3533C37.6496 25.4073 38.2958 25.4793 38.9421 25.5512C39.2652 25.5872 39.5884 25.6232 39.9115 25.6592L40.3962 25.7132C40.5578 25.7312 40.7194 25.7672 40.8809 25.7851L42.8197 26.091L43.7892 26.253C44.1123 26.307 44.4175 26.3609 44.7586 26.4149C44.4354 26.3789 44.1123 26.343 43.7892 26.289L42.8197 26.145L40.8809 25.8571C40.7194 25.8391 40.5578 25.8031 40.3962 25.7851L39.9115 25.7312C39.5884 25.6952 39.2652 25.6592 38.9421 25.6232C38.2958 25.5332 37.6496 25.4613 37.0033 25.3533ZM44.5252 27.0087C44.5252 27.0087 42.0658 27.6385 41.222 27.8724C40.3962 28.1063 37.9188 28.8621 37.9188 28.8621L44.5252 27.0087Z" fill="#CFB66C"/>
<path fill-rule="evenodd" clip-rule="evenodd" d="M44.5252 27.0087C43.9867 27.1707 43.4301 27.3326 42.8736 27.4766L41.222 27.9264C40.6835 28.0884 40.127 28.2503 39.5884 28.4122L38.7626 28.6462C38.4933 28.7181 38.224 28.7901 37.9368 28.8801C38.2061 28.7901 38.4754 28.7001 38.7626 28.6102L39.5884 28.3403C40.127 28.1783 40.6835 28.0164 41.222 27.8364C41.7786 27.6925 42.3171 27.5485 42.8736 27.4226C43.4122 27.2786 43.9687 27.1347 44.5252 27.0087ZM38.2599 30.3916C38.5292 30.2836 41.6529 28.8261 42.3889 28.4842C42.748 28.3223 43.8071 27.9444 43.8071 27.9444L38.2599 30.3916Z" fill="#CFB66C"/>
<path fill-rule="evenodd" clip-rule="evenodd" d="M38.26 30.3916C38.4934 30.3017 38.7268 30.1937 38.9601 30.0858L39.6423 29.7619L41.0067 29.0961C41.4555 28.8802 41.9043 28.6462 42.371 28.4303C42.6044 28.3224 42.8557 28.2504 43.0891 28.1604L43.4482 28.0524C43.5738 28.0165 43.6815 27.9805 43.8072 27.9445C43.3584 28.1604 42.8737 28.3404 42.4249 28.5563C41.9761 28.7902 41.5093 28.9701 41.0426 29.1681L39.6603 29.7799C39.1935 29.9778 38.7268 30.1937 38.26 30.3916ZM38.5652 31.6512C38.5652 31.6512 41.4016 29.9958 42.371 29.456C42.8737 29.1681 44.5253 28.3583 44.5253 28.3583L38.5652 31.6512Z" fill="#CFB66C"/>
<path fill-rule="evenodd" clip-rule="evenodd" d="M38.5651 31.6512C39.0498 31.3633 39.5345 31.0574 40.0192 30.7515L40.7553 30.3017C41.0066 30.1577 41.24 30.0138 41.4913 29.8698C41.7426 29.7259 41.976 29.5819 42.2273 29.438C42.353 29.366 42.4787 29.294 42.6043 29.24L42.9993 29.0421C43.5019 28.7902 44.0225 28.5383 44.5611 28.3224C44.0764 28.6283 43.5737 28.8982 43.0711 29.1681C42.8197 29.312 42.5684 29.438 42.3171 29.5639C42.0658 29.7079 41.8324 29.8518 41.5811 29.9778C41.3297 30.1217 41.0963 30.2657 40.845 30.3916L40.091 30.8055L38.5651 31.6512ZM44.5252 28.7182C44.5252 28.7182 42.7659 30.0678 42.1914 30.4996C41.617 30.9315 39.9474 32.155 39.9474 32.155L44.5252 28.7182Z" fill="#CFB66C"/>
<path fill-rule="evenodd" clip-rule="evenodd" d="M54.6323 39.6583L53.7347 37.9309L54.2553 35.8076L57.9893 34.3501L56.3916 31.0752L57.1815 27.7644L58.6535 24.8134L63.2313 24.0936L66.5704 20.8907L73.823 21.4306L75.2412 29.2039L72.4946 38.9745L70.9507 44.0308L64.6316 44.2647L61.6874 42.2314L58.2586 40.7919L54.6323 39.6583Z" fill="#E2CC85"/>
<path fill-rule="evenodd" clip-rule="evenodd" d="M65.7086 39.5866C65.7086 39.5866 64.829 39.9824 63.339 39.8925C62.9081 39.3167 59.8922 39.0468 59.8922 39.0468C59.8922 39.0468 59.5152 38.9388 58.8509 39.2087C58.1867 39.4786 57.5404 39.4426 56.948 39.6046C56.3556 39.7665 55.7632 38.9748 55.3144 38.8128C54.8656 38.6509 54.2552 38.237 54.2552 38.237L52.9806 38.1111L50.4314 37.0315L46.3743 32.9828L45.2792 34.7103L44.9381 36.8515L46.1589 39.3886L49.462 42.4116L55.9068 44.049L59.7306 42.9154L64.5238 40.8821L65.7086 39.5866Z" fill="#F1D789"/>
<path fill-rule="evenodd" clip-rule="evenodd" d="M42.802 25.2633L43.6278 22.7622L44.5972 21.1608L47.7388 20.9088L46.7873 23.6619L44.1663 28.3403L45.2614 32.5328L43.3226 33.4865L42.7302 32.5868L42.2634 30.4816L42.2275 28.1424L42.802 25.2633Z" fill="#F4ECB4"/>
<path fill-rule="evenodd" clip-rule="evenodd" d="M46.3205 39.4245L45.7102 38.5787C45.7102 38.5787 45.5486 38.1829 45.6384 37.823C45.7281 37.4631 45.7102 37.4451 45.6743 37.3192C45.6204 37.1932 45.2434 36.7254 45.2614 36.3295C45.2793 35.9337 45.2255 35.7897 45.5306 35.4838C45.8358 35.1779 45.7461 34.6381 45.7461 34.6381L46.141 34.89L46.2308 34.7461C46.2308 34.7461 46.3744 34.854 46.3744 35.034C46.4103 34.7821 46.2667 33.6304 46.5719 33.3785C46.877 33.1086 47.4156 34.6021 47.4156 34.6021L47.0925 32.4429L46.2487 30.2296L44.7407 28.1963L44.651 25.9651V25.7672C44.651 25.7672 43.9509 26.8288 43.7713 27.6745C43.6277 28.2503 43.9688 28.9521 43.897 29.7978C43.8431 30.6255 43.7713 30.5715 43.9688 30.8954C44.1663 31.2193 44.6689 31.903 44.4715 32.3889C44.3099 32.8027 43.7175 32.5148 43.7175 32.5148C43.7175 32.5148 43.6098 32.8567 43.4482 32.9827C43.3943 32.7847 43.3405 32.6588 43.2148 32.5328C43.1969 32.6048 43.1789 32.7128 43.1789 32.7128C43.1789 32.7128 43.0712 32.3889 42.9814 31.993C42.8378 31.4532 42.6942 30.7514 42.5686 30.3736C42.5147 30.5895 42.3711 31.2553 42.3711 31.2553L42.4429 32.2629L42.8199 33.6484L43.1789 34.5661L43.538 35.6817L43.8431 36.4375L44.0945 37.0133L44.3099 38.2908L45.3511 39.3885L45.9076 39.6404L46.3205 39.4245Z" fill="#F3E19D"/>
<path fill-rule="evenodd" clip-rule="evenodd" d="M43.3404 23.23C43.3404 23.23 42.5864 24.5075 42.371 25.7851C42.1555 27.0627 41.976 28.4302 42.1017 30.1936C42.2453 31.957 42.4966 33.0366 42.712 33.8103C43.0711 35.0879 44.0225 36.8873 44.0225 36.8873L44.0584 36.8153C43.8969 36.5094 43.7712 36.2035 43.6815 35.8616C43.5558 35.3758 43.5199 34.8 43.3942 34.5301C43.2865 34.2602 43.1249 34.0443 43.0352 33.7204C42.9634 33.4145 42.9454 32.9286 42.712 32.5508C42.6043 32.4068 42.4787 32.011 42.4428 31.6331C42.3889 31.0573 42.4607 30.4095 42.4069 29.8697C42.2991 28.988 42.2453 28.3762 42.335 27.9084C42.4248 27.4405 42.9095 26.127 43.1967 25.0653C43.3942 24.3996 43.2686 23.8238 43.6276 23.248C43.9866 22.6722 44.2021 22.1503 44.2739 21.8085C44.3816 21.4846 43.3404 23.23 43.3404 23.23Z" fill="#F2E8B0"/>
<path fill-rule="evenodd" clip-rule="evenodd" d="M46.9128 22.708C46.9128 22.708 46.5179 22.816 46.3383 23.0319C46.1588 23.2299 46.0691 23.3918 45.8357 23.7157C45.5843 24.0396 45.5664 24.3095 45.3689 24.7233C45.1715 25.1192 44.7227 25.731 44.6688 25.9469C44.6149 26.1629 44.5252 27.1705 44.3995 27.6563C44.2918 28.1422 44.5072 28.718 44.5072 28.718L44.7765 28.664C44.7765 28.664 44.7765 29.0059 45.0458 29.2398C45.3151 29.4737 45.351 28.4661 45.351 28.4661L46.3383 25.1552L47.8104 24.1475L47.972 23.3378L46.9128 22.708Z" fill="#F5EEC0"/>
<path fill-rule="evenodd" clip-rule="evenodd" d="M47.631 24.2199C47.631 24.2199 46.9308 24.2739 46.5898 24.5078C46.4461 24.6158 46.3923 24.6877 46.2487 24.8137C45.9794 25.0476 45.6922 25.2455 45.5665 25.5514C45.4229 25.8393 45.2613 26.2892 45.1536 27.1349C45.0997 27.4948 45.0997 27.8187 45.0818 28.1066C45.0279 28.5024 44.9741 28.8083 45.01 29.0242C45.0638 29.4741 45.5126 29.69 45.5485 30.1938L46.5 29.708L47.3796 26.1992L49.2646 25.0116L48.2054 23.806L47.631 24.2199Z" fill="#E6DB9D"/>
<path fill-rule="evenodd" clip-rule="evenodd" d="M42.6403 47.8455C42.6403 47.8096 42.6403 47.7736 42.6582 47.7376C42.8019 46.55 42.8198 45.6503 42.9275 45.0925C43.0711 44.3008 43.1789 43.9949 43.1609 43.707C43.125 43.2211 43.0891 42.8793 43.1429 42.5014C43.2148 42.0156 43.6815 41.4397 43.6815 41.0259C43.6636 40.702 43.5199 40.5041 43.3763 40.3061C43.2327 40.1082 43.125 39.9463 43.125 39.9463C43.125 39.9463 44.0765 39.2985 44.0585 36.6714C44.0765 36.6714 44.0944 36.6894 44.1124 36.6894L44.5791 38.0209L44.9022 38.4168L46.123 40.702L47.6848 42.2315L50.0006 43.7969L51.4547 45.3804L51.5984 49.6089L49.6954 52.0741L49.3903 52.6319C46.8949 51.3903 44.633 49.7709 42.6403 47.8455Z" fill="#E5CB7A"/>
<path fill-rule="evenodd" clip-rule="evenodd" d="M48.4568 51.8941C48.4568 51.8941 48.4927 51.3723 48.9235 51.0304C48.9953 51.1384 49.0312 51.2643 49.0312 51.3363C49.103 51.1924 49.6596 50.3107 50.8982 50.0768C52.1369 49.8428 52.4421 48.9431 52.4421 48.9431L55.0631 46.55L58.0611 43.7789L61.7054 42.5014L63.4108 42.0875C63.4108 42.0875 63.4467 42.2135 63.3749 42.4834C63.6981 42.4654 64.3982 42.3034 65.1342 42.0335C65.4215 41.9256 65.7087 41.8716 65.8523 42.0155C66.0677 42.2135 66.1036 42.6993 66.1216 42.9872C66.4806 42.9152 66.8935 42.5733 67.2167 42.5913C67.7373 42.6453 68.204 43.2571 68.7426 43.2571C69.4427 43.2571 69.7658 42.8253 70.2506 42.4834C70.5378 42.2854 70.9686 42.0335 71.202 41.8536C71.7765 41.4397 77.8084 39.5864 77.8084 39.5864L79.9267 39.7303L80.2678 42.0155L80.0883 47.9715C80.0703 47.9895 80.0524 48.0075 80.0165 48.0435L70.3942 53.0817L57.0558 55.133C54.0758 54.6472 51.1855 53.6575 48.5286 52.2L48.4568 51.8941Z" fill="#D8C173"/>
<path fill-rule="evenodd" clip-rule="evenodd" d="M43.4482 48.6013C43.6457 48.2055 43.8072 47.8636 43.8431 47.7556C43.8611 47.9895 43.9149 48.5294 44.0047 49.0872C43.8252 48.9252 43.6277 48.7633 43.4482 48.6013Z" fill="#F1D789"/>
<path fill-rule="evenodd" clip-rule="evenodd" d="M53.1961 54.1973L54.9195 53.7114L55.0631 53.7654C55.0631 53.7654 55.1349 53.8194 55.1349 53.9633C55.3504 53.8374 55.5299 53.8554 55.6735 53.7834C55.7453 53.9273 55.8171 54.4132 56.1223 54.4852C56.4454 54.5571 56.7865 54.3412 57.1276 54.0893C57.4687 53.8194 57.8637 53.4775 58.1509 53.3336C58.2586 53.5315 58.3484 53.7294 58.4381 53.9453C58.8331 53.6394 59.4973 52.3799 60.4487 52.3979C60.718 51.7501 61.1848 51.1923 61.7772 50.7964C62.6568 50.1846 63.2134 50.1486 63.9135 50.2026C64.1828 49.8428 64.5239 49.5369 64.9188 49.3029C65.0265 49.3569 65.3497 49.5369 65.7446 49.3569C66.1395 49.177 66.5883 48.4572 67.1808 48.3673C67.5039 48.3313 67.827 48.3853 68.0963 48.5652C68.0963 48.5652 69.8197 46.8378 71.0225 46.28C70.9686 46.136 70.8789 45.6142 72.2791 44.4626C72.351 44.5346 72.2971 44.7325 72.351 44.7325C72.3689 44.7325 72.71 44.5886 73.1408 44.2467C73.6794 43.8508 74.3077 43.419 74.7027 43.311C75.4387 43.0951 76.2106 43.5449 76.2106 43.5449C76.2824 43.4909 76.3543 43.4729 76.4261 43.4369C76.6056 43.401 76.7492 43.383 76.839 43.347C76.821 43.5809 76.9646 43.9948 76.839 44.3546C76.9826 44.4446 77.1441 44.4986 77.2878 44.5526C77.216 44.7145 77.0364 45.1644 76.7492 45.3623C76.9826 45.4703 77.0185 45.6142 77.3596 45.7222C77.216 45.9201 77.0005 46.244 76.8928 46.4599C76.7851 46.6758 76.4261 47.5755 76.2645 47.9174C76.1029 48.2593 75.8696 48.8891 75.7618 49.015C75.6541 49.141 75.2592 49.6808 74.936 49.9327C75.2053 49.8248 76.3184 49.4829 76.8031 49.3569C76.6594 49.5728 75.9414 50.6345 75.2592 51.6421C68.6349 55.6368 60.5924 56.5724 53.1961 54.1973Z" fill="#E0CD81"/>
<path fill-rule="evenodd" clip-rule="evenodd" d="M47.7387 24.0936C47.7387 24.0936 47.3437 24.0936 47.254 24.1475C47.1822 24.2015 47.6489 24.3095 47.7925 24.3815C47.9361 24.4534 48.2593 24.6873 48.3311 24.8853C48.4029 25.0832 51.2034 26.2168 51.2034 26.2168L53.1781 26.1089L53.8603 25.1732L52.5678 24.0396L53.4833 21.3585L52.2805 21.5564L49.3903 23.2838L47.9361 23.8416L47.7387 24.0936Z" fill="#DFC57C"/>
<path fill-rule="evenodd" clip-rule="evenodd" d="M52.083 24.9752C52.1368 25.0652 52.2445 25.1192 52.3523 25.1192C52.7652 25.1192 53.1421 25.2272 53.3037 25.4251C53.573 25.749 54.2911 26.8106 54.2911 26.8106L56.0324 27.4404L56.1401 25.3891L54.2372 24.0576L52.083 24.8493V24.9752Z" fill="#E5CC7C"/>
<path fill-rule="evenodd" clip-rule="evenodd" d="M51.742 25.749C51.742 25.749 52.0651 25.767 52.46 25.623C52.855 25.4791 53.5192 25.1552 53.8064 25.2812C54.2014 25.4431 54.1296 25.9829 54.5604 26.4687C54.8297 26.7566 55.2965 26.7566 55.5657 27.0805C55.835 27.4044 56.7685 27.2425 56.7685 27.2425L57.1276 29.1498L55.7094 30.9672L55.2426 33.2344H53.3217L51.5624 32.5327L50.7007 30.4274L51.1316 28.3041L51.742 25.749Z" fill="#D2C281"/>
<path fill-rule="evenodd" clip-rule="evenodd" d="M55.4581 25.8391C55.5119 25.8571 55.5478 25.8571 55.6017 25.8571C55.5478 25.9111 55.4401 26.0011 55.476 26.271C55.5299 26.5409 55.6735 26.8648 55.5478 27.0627C55.6555 27.1707 55.7273 27.2966 55.7632 27.4406C55.8351 27.6745 55.871 27.8724 56.3736 27.9084C56.3018 27.9624 56.23 28.0164 56.1761 28.0704C56.1761 28.0704 56.5352 28.3763 56.7147 28.6642C56.8942 28.6642 57.3789 28.5022 57.3789 28.5022L57.4866 28.5742L57.7021 28.4842C57.7021 28.4842 57.5046 28.4123 57.6482 27.9084C57.7918 27.4766 57.9175 27.4946 57.9175 27.4586C57.9175 27.4226 58.0252 26.9727 58.0252 26.7928C58.097 26.5589 58.1509 25.8211 58.1509 25.8211L58.0073 24.2197L57.1815 23.7159L56.5172 23.0681L55.8889 24.2737L55.476 24.6875L55.4401 25.7312L55.4581 25.8391Z" fill="#E2C270"/>
<path fill-rule="evenodd" clip-rule="evenodd" d="M57.4506 24.4896C57.4506 24.4896 57.5942 24.9035 57.6481 25.2274C57.6661 25.1734 57.684 25.1014 57.684 25.0294C57.684 25.0294 57.7917 25.6592 57.8276 25.9291C57.8815 25.9111 57.9174 25.9111 57.9353 25.9471C57.9533 26.0011 58.043 26.5049 58.0251 26.7928C58.2226 26.469 58.4739 26.217 58.797 26.0191C58.9766 25.9111 59.192 25.7852 59.4254 25.7672C59.7844 25.7492 60.0357 26.0011 60.4666 26.0011C61.4898 26.0011 62.4054 25.2454 63.0876 25.0115C63.5902 24.8495 64.0211 24.7236 64.3263 24.4357C64.4699 24.3097 64.7392 24.0398 64.9725 23.6259C65.2957 23.0861 65.6188 22.6003 65.9599 22.5463C65.8163 22.5823 65.6547 22.5823 65.5111 22.5823C65.5111 22.5823 65.6188 22.4743 65.7804 22.3484C65.9599 22.2044 66.1574 22.0425 66.4446 22.0425C66.9652 22.0425 67.2345 22.1145 67.5217 22.1145C67.809 22.0965 67.9885 22.0425 67.9885 22.0425C67.9885 22.0425 68.2937 22.2584 68.9938 22.2584C69.6939 22.2764 70.1607 22.3304 70.5197 22.3664C70.8788 22.4024 72.0995 22.2584 72.4585 22.2764C72.6919 22.2764 72.9073 22.3484 73.1228 22.4383L71.9918 19.1635L67.9346 15.6187L65.4931 17.3101L61.7771 21.0348L58.1867 22.3664L57.4327 23.2121L57.4506 24.4896Z" fill="#CCB360"/>
<path fill-rule="evenodd" clip-rule="evenodd" d="M65.4932 22.6184C65.4932 22.6184 65.601 22.5104 65.7625 22.3844C65.9241 22.2585 66.1395 22.0785 66.4267 22.0785C66.9474 22.0785 67.2166 22.1505 67.5039 22.1505C67.7911 22.1325 67.9706 22.0785 67.9706 22.0785C67.9706 22.0785 68.2758 22.2945 68.9759 22.2945C69.6761 22.3125 70.1428 22.3664 70.5019 22.4024C70.8609 22.4384 72.0816 22.2945 72.4407 22.3125C72.6741 22.3125 72.8895 22.3844 73.1049 22.4744L72.6023 20.9989L72.0098 19.8653L70.3223 18.0119C70.3223 18.0119 68.2938 16.8064 68.2758 16.8064C68.2579 16.7884 67.5757 16.6084 67.5757 16.6084L65.7446 17.724L64.075 22.0606L64.0391 22.9782L65.1162 23.4821C65.3855 23.0322 65.6907 22.6543 65.96 22.6184C65.6907 22.6004 65.4932 22.6004 65.4932 22.6184Z" fill="#D5B457"/>
<path fill-rule="evenodd" clip-rule="evenodd" d="M65.4753 22.9241C65.3137 22.9421 65.188 22.9061 65.1521 22.7802C65.0085 22.3843 64.9008 22.3303 64.7931 22.3303C64.6854 22.3303 64.5238 22.5823 64.434 22.6002C64.3443 22.6182 64.2366 22.3123 64.2366 22.3123L64.1289 22.2584C64.1289 22.2584 63.5364 22.6542 63.1235 23.1041C62.7107 23.5539 62.0285 24.3277 61.7053 24.4716C61.4002 24.6156 60.341 24.6515 59.9819 24.7415C59.6229 24.8135 59.21 25.0834 59.1561 25.1374C59.1023 25.1914 59.3177 25.2633 59.3536 25.3173C59.3895 25.3713 58.9946 25.3533 58.9587 25.4073C58.9407 25.4613 59.0484 25.7132 59.1023 25.8571C59.192 25.8031 59.3177 25.7852 59.4254 25.7852C59.7845 25.7672 60.0358 26.0191 60.4666 26.0191C61.4899 26.0191 62.4055 25.2633 63.0876 25.0294C63.5903 24.8675 64.0212 24.7415 64.3263 24.4536C64.47 24.3277 64.7392 24.0577 64.9726 23.6439C65.1342 23.374 65.2957 23.1041 65.4753 22.9241Z" fill="#D2B257"/>
<path fill-rule="evenodd" clip-rule="evenodd" d="M50.8264 45.7401C50.8264 45.7401 50.7366 45.3982 49.8928 44.5165C49.6595 44.2646 49.4979 44.0667 49.3543 43.9047C48.9593 43.5269 48.726 43.4189 48.4387 43.203C47.8104 42.7351 47.1282 42.7351 46.6076 42.1593C46.087 41.5835 45.4766 40.5039 45.0458 39.3703C44.6329 38.2547 44.5072 37.8948 44.5072 37.8588C44.5072 37.8228 44.6149 37.6069 44.7765 37.6429C44.9201 37.6789 44.9201 37.9668 44.956 38.0387C45.0278 38.1467 45.1176 38.2547 45.2074 38.3626C45.4228 38.6146 45.728 38.9025 45.8895 39.3523C45.8536 38.9744 45.728 38.5606 45.728 38.5606C45.728 38.5606 46.5358 39.0644 47.2359 39.6042C47.9361 40.144 48.2233 40.324 48.4208 40.6658C48.6183 41.0077 49.103 41.9074 49.3363 42.1773C49.5697 42.4472 52.6934 43.4369 52.6934 43.4369L54.1834 44.5525L54.9194 46.172L54.345 47.0897L53.2319 47.3236L51.4188 46.5138L50.8264 45.7401Z" fill="#D2B159"/>
<path fill-rule="evenodd" clip-rule="evenodd" d="M46.8052 40.1262C46.8052 40.1262 47.1822 40.738 48.0977 41.2958C48.9235 41.7996 50.234 42.2494 51.4009 42.5194C52.0651 42.6813 52.7473 42.8073 53.3397 42.8073C54.9554 42.8252 56.0864 42.3574 57.4687 42.2135C58.2227 42.1415 59.1382 42.0695 60.0897 41.8536C61.3104 41.5657 62.0465 41.2238 63.0338 40.756C63.7519 40.4321 64.4161 40.1802 64.9368 39.8563C65.6907 39.4064 66.2293 38.9206 66.8756 38.7766C66.8038 38.9926 66.714 39.3884 66.0857 39.7843C66.4088 39.7663 66.8756 39.7483 66.8756 39.7483C66.8756 39.7483 66.4268 40.0182 65.6548 40.594C65.1701 40.9539 64.5418 41.5837 63.8955 41.9795C63.4826 42.2494 63.0159 42.4294 62.7287 42.5913C61.9926 42.9872 61.7054 43.2031 61.2207 43.689C61.3822 43.671 61.4002 43.689 61.4002 43.689C61.4002 43.689 60.7898 43.7609 60.359 43.9948C60.2692 43.9948 60.1077 43.9589 59.8384 44.0488C59.6229 44.1208 59.3357 44.2827 59.0485 44.3547C58.6356 44.4807 58.492 44.4267 58.492 44.4267L58.5638 44.5707C58.5638 44.5707 58.0252 44.5527 57.8277 44.5886C57.8636 44.6066 57.8457 44.6066 57.8457 44.6066C57.8098 44.6066 57.7918 44.6246 57.7559 44.6426C57.6662 44.6966 57.5764 44.7326 57.4687 44.7686C57.4148 44.7866 57.361 44.7866 57.3071 44.7866C57.3251 44.8406 57.5046 45.1465 57.5944 45.3264C57.5226 45.3804 56.4993 46.1541 56.4993 46.1541C56.5352 46.2081 56.5532 46.2621 56.5711 46.3161C56.607 46.424 56.625 46.568 56.6429 46.6399C56.7147 46.7839 56.7686 46.8019 56.7686 46.8019C56.7686 46.8019 56.6429 46.8199 56.4275 46.8739C56.248 46.9278 56.0146 46.9998 55.6915 47.0358C55.6017 47.0538 55.494 47.0538 55.4042 47.0538C55.4581 47.1618 55.6555 47.5396 55.2786 47.9895C54.9016 48.4393 54.7938 48.4933 54.6682 48.7812C54.6143 48.7452 54.5425 48.6912 54.4887 48.6732C54.363 48.6193 54.2014 48.5293 54.1296 48.4213C54.0937 48.5653 54.0399 48.7092 53.986 48.8532C53.8783 49.1591 53.6988 49.465 53.6629 49.6989C53.5372 49.5549 53.3038 49.285 52.9986 49.339C52.6755 49.393 52.4242 49.8248 52.3703 49.9508C52.3703 49.8788 52.3165 49.8068 52.2985 49.8968C52.2806 50.0048 52.119 51.0664 51.1316 51.9121C51.1137 51.6962 51.1137 51.2104 51.0957 51.0664C51.006 51.1564 50.8983 51.3003 50.234 51.5702C49.5878 51.8581 49.6955 52.146 49.6955 52.146C49.6955 52.146 49.6416 51.6962 49.9827 51.2104C50.3417 50.7245 50.5572 50.5086 50.5572 50.4726C50.5572 50.4366 50.5392 50.4006 50.5033 50.3647C50.4495 50.3107 50.3597 50.2567 50.3597 50.2207C50.4136 50.2027 50.9701 49.9328 50.9342 49.393C50.8983 48.9072 50.7008 48.6552 50.5392 48.4753C50.5213 48.4573 50.7546 48.2774 50.7187 48.2234C50.7008 48.1874 50.3956 47.9715 50.3597 47.8635C50.3597 47.7915 50.3776 47.7196 50.4136 47.6656C50.4495 47.5576 50.4674 47.5036 50.4674 47.4317C50.4495 47.3237 50.3238 46.9998 50.2879 46.9638C50.3238 46.9818 50.5572 46.9638 50.5572 46.9638C50.5572 46.9638 50.3776 46.6759 50.3417 46.532C50.3058 46.388 50.234 46.0281 50.1981 45.9562C50.2699 45.9742 50.4674 45.9742 50.4674 45.9562C50.4854 45.8842 50.3058 45.7762 50.3776 45.6863C50.4315 45.7043 50.5392 45.7402 50.6469 45.8662C50.5931 45.7223 50.5033 45.4344 50.3058 45.3264C50.3956 45.2904 50.7008 45.2184 50.9701 45.3804C51.2393 45.5423 51.3291 45.7762 51.3291 45.7762C51.3291 45.7762 51.4907 45.9022 51.742 46.0821C52.0292 46.3161 52.3883 46.6219 52.9627 46.8559C53.0884 46.9278 53.4115 46.9278 53.627 46.8739C53.7347 46.8559 53.8244 46.8199 53.9142 46.7659C53.9501 46.7479 53.986 46.7299 54.0219 46.7119C53.9681 46.604 53.9142 46.514 53.8603 46.424C53.9322 46.424 54.0219 46.442 54.0219 46.442C54.0219 46.442 54.0758 46.3161 53.8244 46.0821C53.8783 46.0282 53.9501 45.9922 53.9501 45.9022C53.8783 45.8842 53.7347 45.7762 53.6988 45.7402C53.7526 45.7043 53.8065 45.5963 53.8962 45.5783C53.8244 45.5243 53.6629 45.2904 53.5731 45.2724C53.6449 45.2364 53.7167 45.2184 53.7885 45.1644C53.7885 45.1644 53.3936 45.0565 53.2859 44.9845C53.1602 44.8945 52.9807 44.7326 52.873 44.6966C52.7653 44.6426 52.5498 44.6246 52.478 44.5347C52.5498 44.5527 52.6755 44.5347 52.7653 44.5347C52.8371 44.5347 52.873 44.5527 52.8909 44.5527C52.873 44.5167 52.873 44.4447 53.0525 44.4267C53.1423 44.4087 53.2141 44.3907 53.3038 44.3547C53.3038 44.3547 53.1423 44.3367 52.9448 44.1568C52.7473 43.9769 52.5857 43.8329 52.478 43.7969C52.3703 43.7789 52.1549 43.8689 52.0113 43.8689C51.8318 43.8509 51.742 43.7609 51.742 43.7609C51.742 43.7609 51.1316 43.8149 49.7673 42.9872C48.6004 42.2674 48.0798 41.6377 48.0798 41.6377C47.9721 41.6017 47.8644 41.5477 47.7566 41.4937C47.4156 41.2238 46.8052 40.756 46.8052 40.1262Z" fill="#C2A44D"/>
<path fill-rule="evenodd" clip-rule="evenodd" d="M63.7339 12.4519C63.8416 12.4878 63.9314 12.5418 64.0032 12.6318C64.2186 12.8837 64.3622 13.3515 63.8596 13.8554C64.0571 13.9274 64.1289 13.9453 64.3084 13.9274C64.1468 14.1253 63.7519 14.5571 63.7339 14.935C63.716 15.2409 63.8955 15.3309 63.8955 15.3309C63.8955 15.3309 63.6083 15.6728 63.5903 16.2486C63.7339 16.0866 63.8775 15.9427 64.0391 15.8167C64.3802 15.5468 64.847 15.2409 65.1701 15.043C65.1701 15.1329 65.1701 15.2049 65.206 15.2769C65.206 15.2769 65.7984 14.7911 66.3011 15.007C66.5344 15.1149 66.4267 15.4208 66.4267 15.4208C66.4267 15.4208 66.7319 15.3129 66.9473 15.5288C67.1628 15.7447 67.4679 16.3025 67.6295 16.5185C67.7013 16.6264 67.8808 16.8064 68.0604 17.1123C68.3117 17.5261 68.5271 17.976 68.6887 18.4438C68.7066 18.2099 68.7605 17.832 69.4427 18.0659C70.1248 18.2999 70.8968 18.8037 71.5431 19.7933C72.1893 20.783 72.3509 21.8986 72.674 22.3305C72.9972 22.7443 73.3383 23.4281 73.3742 23.716C73.4101 24.0039 73.2665 24.9216 73.9486 27.4227C74.1461 26.649 74.4333 24.9216 74.4333 24.9216L74.5949 23.4101L74.7744 18.7137L69.8915 14.6471L66.0677 11.8581L63.5724 12.092L63.7339 12.4519Z" fill="#CAA13E"/>
<path fill-rule="evenodd" clip-rule="evenodd" d="M72.8177 19.4334C72.8177 19.4334 72.7459 18.9835 71.597 18.2098C70.4481 17.4361 69.5505 17.4361 68.7247 16.7883C68.0964 16.2845 67.4321 15.0969 67.0013 14.719C66.5884 14.3411 66.5166 13.2255 66.5166 13.2255L67.9348 12.0379L70.0172 8.99697L71.7945 7.03564L72.6382 8.22324L73.823 9.60876L74.4873 12.3978L74.7206 16.4824L72.8177 19.4334Z" fill="#B59544"/>
<path fill-rule="evenodd" clip-rule="evenodd" d="M74.2359 24.3457C74.2718 23.7339 74.2 23.1041 74.0025 22.5103C73.6973 21.5566 73.0331 19.8832 72.7279 19.2534C72.6022 18.5517 72.692 18.4977 72.8356 18.4257C72.9613 18.3537 73.4639 18.0658 73.7512 17.0582C74.0204 16.0505 74.8822 16.0145 74.8822 16.0145L75.4028 15.6187L76.1927 17.616L76.8928 19.4154L77.1082 20.8009L77.2698 21.9705L76.8928 24.4536L75.0258 26.1451L74.2359 24.3457Z" fill="#C89D3A"/>
<path fill-rule="evenodd" clip-rule="evenodd" d="M48.2414 52.0383V51.9843C48.2773 51.9663 48.3132 51.9303 48.3491 51.8944C48.385 51.8404 48.403 51.7864 48.4209 51.7864C48.4748 51.7684 48.6902 51.6964 48.7979 51.7144C48.9056 51.7324 49.2108 51.8584 49.3724 51.8584C49.6955 51.8404 50.0905 51.5885 50.7008 51.7144C51.6164 51.8764 51.8318 52.5061 52.3704 52.866C52.7294 53.1179 53.1064 53.01 53.1603 53.01H53.2859C53.3039 53.01 53.4834 52.812 53.5732 52.83C53.7527 52.848 53.7706 52.992 53.8963 52.992C54.1656 53.028 54.6862 52.848 54.9555 52.92C55.117 52.974 55.2427 53.0999 55.2786 53.2439C55.3325 53.4058 55.2965 53.6398 55.1529 53.7477C54.8657 54.0176 54.5964 54.2515 54.5426 54.4855C54.6144 54.5395 54.6862 54.5934 54.74 54.6654C52.4781 54.0716 50.2879 53.2079 48.2414 52.0383Z" fill="#CEB052"/>
<path fill-rule="evenodd" clip-rule="evenodd" d="M72.7458 42.8253C72.7458 42.8253 73.4639 41.8716 73.7152 41.3858C73.9666 40.9 72.9254 34.6921 72.9254 34.6921L75.0078 27.8724L74.9539 25.6412C74.9539 25.6412 75.0617 23.5899 75.295 22.7082C75.5823 23.212 76.4619 23.8418 76.6594 24.1657C76.7491 23.5359 77.0543 22.2224 77.0184 20.8009C77.18 21.0708 77.5929 23.6979 77.5929 23.6979L78.0058 25.4793L78.5444 27.3686L79.1368 29.3659L79.4958 30.7514L79.6933 31.0753L79.8549 31.6511L80.0164 32.2809L80.4832 33.7564L80.7525 34.962L80.9679 37.1572C81.0217 37.3192 81.0576 37.4991 81.0756 37.6611C81.0935 37.895 81.0397 38.0389 81.0397 38.0749C81.0397 38.1109 81.1115 38.5968 81.0935 38.9566C81.0397 39.3165 81.0397 39.6044 80.7704 39.8743C80.4832 40.1442 80.3037 41.6917 80.3037 41.6917L79.801 41.3498C79.801 41.3498 79.9087 40.882 79.6574 40.4681C79.424 40.0363 78.9572 39.9643 78.688 40.0183C78.4187 40.0722 77.8981 40.1622 77.7365 40.3062C77.5749 40.4501 77.18 40.918 76.821 41.1159C76.3722 41.3858 75.6182 41.4038 75.2232 41.5117C74.8283 41.6017 74.3795 41.8716 73.9127 42.1955C73.5357 42.4654 73.1408 42.6634 72.7458 42.8253Z" fill="#CCA847"/>
<path fill-rule="evenodd" clip-rule="evenodd" d="M72.7458 52.902C72.7458 52.902 72.7817 52.92 72.8356 52.956C76.1029 51.4265 79.0291 49.2492 81.4526 46.5502C81.4346 45.6145 81.3987 44.6608 81.3628 44.3009C81.291 43.5452 81.3449 42.7894 81.309 42.3396C81.291 41.8898 81.0397 40.0904 80.914 39.6225C80.7884 39.1547 80.555 38.9208 80.5191 38.9208C80.4832 38.9388 80.2857 39.8025 80.2857 40.0184C80.2857 40.2343 80.2318 40.7561 80.2318 40.9001C80.1959 40.8821 80.178 40.8101 80.178 40.7741C80.1241 40.8821 80.0703 41.098 80.0523 41.116C80.0344 41.134 80.0882 40.9181 80.0523 40.8821C80.0164 40.8281 79.9626 40.8641 79.9805 40.7382C79.9805 40.6662 79.9985 40.5942 80.0164 40.5402C80.0164 40.5402 79.8728 40.7382 79.783 41.26C79.6753 41.7638 79.6753 41.7818 79.6394 41.8358C79.6035 41.8898 79.424 42.0697 79.4061 42.1417C79.3881 42.2676 79.5676 42.3936 79.5856 42.4656C79.6035 42.5735 79.424 43.1133 79.3701 43.3832C79.3163 43.6532 79.3342 44.157 79.2804 44.4269C79.2265 44.6608 79.1906 44.8048 79.0291 44.9127C79.1368 44.9307 79.2624 44.9667 79.2624 44.9667C79.2624 44.9667 79.424 45.6505 79.0111 46.2263C78.8675 46.4242 78.8316 46.5142 78.67 46.7121C78.3648 47.054 78.1135 47.4498 78.0955 47.7018C78.0776 47.6298 78.0776 47.5578 78.0596 47.4678C78.0596 47.4678 77.5749 48.0256 77.3775 48.3495C77.1082 48.7634 76.7491 48.7454 76.6414 48.8354C76.5337 48.9253 76.5158 49.1233 76.5517 49.2672C76.4619 49.2852 76.2824 49.3212 76.1747 49.6811C76.1208 49.861 75.9772 50.041 75.7618 50.1669C75.5464 50.2929 75.2771 50.3289 75.1514 50.3648C75.2591 50.4008 75.313 50.4008 75.3668 50.4368C75.295 50.5448 74.9719 50.7247 74.6308 50.9586C74.2718 51.1746 74.1102 51.4985 74.0204 51.6964C73.9307 51.8943 73.7871 52.0203 73.5716 52.0383C73.6614 52.0923 73.805 52.2182 73.8589 52.2722C73.7512 52.2902 73.5896 52.2902 73.2844 52.5601C72.9972 52.812 72.8895 52.884 72.7458 52.902Z" fill="#C39D3C"/>
<path fill-rule="evenodd" clip-rule="evenodd" d="M66.3369 55.0431C66.5165 54.9171 66.696 54.8092 66.9114 54.7372C67.6295 54.4493 68.3835 54.3953 68.6887 54.3054C68.9759 54.2154 69.1913 54.0894 69.5504 54.0175C69.5324 54.0894 69.5324 54.1794 69.5324 54.2514C68.4732 54.5753 67.4141 54.8452 66.3369 55.0431Z" fill="#D2BA6B"/>
<path fill-rule="evenodd" clip-rule="evenodd" d="M79.5677 36.1318C79.5677 36.1318 79.4241 36.9235 79.1548 37.4273C78.8856 37.9312 78.6163 38.6329 78.6163 38.6329C78.6163 38.471 78.6342 38.327 78.6701 38.1651C78.347 38.363 77.5392 38.8308 77.3058 39.0288C77.0904 39.2267 76.7313 39.5686 76.6416 39.7305C76.857 39.1008 77.0904 38.525 77.1263 38.255C76.8031 38.489 75.2413 39.7665 74.4514 40.6122L71.9381 42.6455C71.6509 42.8075 71.3457 42.9334 71.0405 43.0594C70.6097 43.2393 70.0891 43.4013 69.7121 43.5452C69.8198 43.2753 69.9814 43.0414 70.1968 42.8075C70.4302 42.5736 71.1482 41.7998 71.2559 41.44C71.3637 41.0621 71.3816 40.8282 71.238 40.5223C71.1123 40.5583 70.8251 40.5763 70.6276 40.6302C70.4302 40.6842 70.2327 40.9001 70.2327 40.9001C70.2327 40.9001 70.3763 40.0544 70.6994 39.2627C70.4661 39.2807 70.0532 39.3347 70.0532 39.3347C70.0532 39.3347 70.6276 38.381 71.597 37.7152C71.2919 37.7872 71.0046 37.8772 70.7174 37.9851C70.1429 38.2191 69.5146 38.5789 69.0658 38.7769C69.3351 38.417 71.1662 35.7719 72.2613 33.3247C73.3563 30.8776 73.7692 30.2478 74.0026 28.9342C74.1283 28.2865 74.0924 27.3148 74.1283 26.4691C74.1642 25.6234 74.2719 24.8497 74.2001 24.3458C74.4873 24.7057 75.5465 25.6954 75.5824 27.9446C75.6183 30.1758 74.5591 33.1988 73.4461 34.8362C73.7154 34.9082 74.4335 34.9982 75.1515 33.7386C75.8696 32.479 75.8696 32.1192 76.1389 31.5973C76.1748 31.8672 76.1569 31.9572 76.1569 31.9572C76.1569 31.9572 77.216 30.6796 77.7187 29.0602C77.8264 29.762 78.1136 30.3738 77.6469 31.6513C77.234 32.8029 76.6775 33.0908 76.6775 33.0908C76.6775 33.0908 76.9467 33.0368 77.3417 32.8029C77.4135 32.9649 77.3955 33.1628 77.5033 33.2348C77.611 33.3067 77.7725 33.4147 77.7905 33.5227C77.9162 33.3427 78.1136 33.1088 78.1675 32.9289C78.1136 33.2888 78.0957 34.8902 78.2572 35.6999C78.6163 35.6639 78.9753 35.6459 79.2267 34.9982C79.0651 35.6279 79.0651 36.0058 79.1728 36.5456C79.4062 36.3657 79.5677 36.1318 79.5677 36.1318Z" fill="#C0993A"/>
<path fill-rule="evenodd" clip-rule="evenodd" d="M67.6295 10.7064C67.6295 10.7064 67.2705 10.8503 66.6781 10.8503C66.1575 10.8503 66.3011 10.6524 65.4753 10.6524C64.2187 10.6524 59.8204 11.3901 59.0485 11.3722C58.5458 11.3542 60.736 11.5881 60.736 11.5881L66.337 11.6601L67.468 11.5701L67.8809 10.7244L67.6295 10.7064Z" fill="#A88F33"/>
<path fill-rule="evenodd" clip-rule="evenodd" d="M53.0884 21.7006C53.0884 21.7006 52.3703 22.2404 52.0651 22.6722C51.7599 23.0861 51.5983 23.374 51.2572 23.7159C51.347 23.7159 51.4188 23.7159 51.4906 23.6799C51.4906 23.6799 51.4906 23.7698 51.4368 23.7878C51.5265 23.7698 51.6342 23.8058 51.706 23.8778C51.5983 23.9318 51.3291 24.2017 51.5445 24.5436C51.7061 24.7955 52.0471 24.8135 52.0471 24.8135C52.0471 24.8135 51.9753 25.0474 52.2985 25.0114C52.9986 24.9754 53.7885 24.6695 54.1475 24.7415C54.5066 24.8315 54.722 24.8675 54.9733 25.3173C55.2426 25.7672 55.476 25.8211 55.476 25.8211C55.476 25.8211 55.6375 25.4073 55.6016 24.7955C55.7273 24.4716 55.7991 24.1117 55.8171 23.7519L55.5837 21.9885L54.5425 20.6929L53.1961 21.4486L53.0884 21.7006Z" fill="#E3C571"/>
<path fill-rule="evenodd" clip-rule="evenodd" d="M54.363 21.4308C54.363 21.4308 54.4707 21.6647 54.8836 21.7007C54.8297 21.8086 54.8297 21.8086 54.8477 21.8986C54.8656 21.9706 54.8656 22.0965 54.8656 22.0965C54.9195 22.0785 54.9554 22.0425 54.9913 22.0066C55.0093 22.1145 54.9734 22.2765 54.9913 22.3844C55.0093 22.4564 55.0272 22.5284 55.0631 22.5824C55.0631 22.5644 55.0811 22.5464 55.0811 22.5284C55.099 22.5104 55.1708 22.7803 55.4042 22.9782C55.4042 22.9422 55.4042 22.9062 55.4222 22.8883C55.4222 22.9422 55.4401 22.9962 55.476 23.0502C55.4581 23.0502 55.4401 23.0322 55.4222 23.0142C55.4222 23.0142 55.4401 23.752 55.5658 24.1118C55.5837 24.0938 55.6017 24.0579 55.6196 24.0399C55.6196 24.0219 55.6017 24.2378 55.5837 24.3997C55.5478 24.5617 55.5658 24.7956 55.5658 24.7956C55.6555 24.7236 55.7453 24.6696 55.8351 24.6337C55.9787 24.5797 56.1941 24.3997 56.3377 24.0219C56.4095 23.8059 56.4813 23.59 56.5172 23.3561C56.5531 23.4461 56.589 23.536 56.607 23.626C56.6249 23.734 56.8404 23.68 56.8404 23.68L56.8942 23.1762L57.1635 22.0425L57.4148 21.3408L58.6176 19.4694L60.7719 17.796L62.6568 18.2279L64.2546 16.0686L61.5438 14.4492L58.9408 14.7191L56.589 17.9939L54.7041 20.9629L54.363 21.4308Z" fill="#D8B65B"/>
<path fill-rule="evenodd" clip-rule="evenodd" d="M67.9528 16.7162C67.9528 16.7162 67.7912 16.7522 67.3244 16.9861C66.8577 17.22 66.5346 17.31 66.355 17.6519C66.1755 18.0118 66.1576 18.2817 66.1576 18.2817C66.1576 18.2817 66.4807 18.1377 66.6602 18.1017C66.8577 18.0478 67.0731 18.0658 67.0552 18.1557C67.0372 18.2097 67.0013 18.2637 66.9654 18.2997C66.9654 18.2997 67.3244 18.2817 67.3244 18.4616C67.3065 18.6416 67.2526 18.8395 67.1808 18.9295C67.109 19.0194 66.8218 19.1634 66.7859 19.2533C66.7141 19.4693 66.8218 19.4873 66.7679 19.6492C66.732 19.8112 66.5884 20.153 66.0858 20.7288C65.5831 21.3046 65.3497 21.7185 65.3497 21.7185C65.3497 21.7185 65.0984 21.2507 64.9727 20.8548C64.883 20.9088 64.3983 21.1787 64.3983 21.1787L63.2673 17.22L63.2852 16.9501C63.2852 16.9501 63.3929 16.8242 63.4109 16.5903C63.2493 16.5363 63.2134 16.4823 62.998 16.2664C62.7826 16.0504 62.5851 15.7805 62.2081 15.6006C62.1543 15.4926 62.0825 15.3667 61.8132 15.3127C61.5439 15.2587 61.3644 15.2047 61.3644 15.2047C61.3644 15.2047 61.508 15.1508 61.5798 15.0428C61.4182 15.0608 61.2746 15.1148 60.8976 15.1148C60.5206 15.0968 60.4847 15.0968 60.2693 15.1328C60.0539 15.1687 59.8205 15.2587 59.7307 14.9348C59.623 14.8629 59.4076 14.9168 59.2281 15.2047C59.0486 15.4746 58.9767 15.6906 58.6177 15.7985C58.5998 15.9605 58.5459 16.1044 58.4561 16.2484C58.3484 16.4103 58.1869 16.5903 57.9714 16.8422C57.6303 17.238 57.6842 17.9038 57.1456 18.4076C56.6071 18.9115 57.2354 17.0221 57.2354 17.0221L58.115 14.9168L60.6104 12.4697L64.4701 12.1998L64.8471 14.1971L66.732 14.8449L67.9528 16.7162Z" fill="#D3AE4D"/>
<path fill-rule="evenodd" clip-rule="evenodd" d="M68.563 17.148L66.9473 14.8088L65.8163 13.9271C65.8163 13.9271 65.0085 12.4336 64.9546 12.3796C64.9008 12.3436 64.1468 12.2716 63.6621 12.2357L63.7519 12.4696C63.8596 12.5056 63.9493 12.5595 64.0211 12.6495C64.2366 12.9014 64.3802 13.3693 63.8775 13.8731C64.075 13.9451 64.1468 13.9631 64.3263 13.9451C64.1648 14.143 63.7698 14.5749 63.7519 14.9527C63.7339 15.2586 63.9134 15.3486 63.9134 15.3486C63.9134 15.3486 63.6262 15.6905 63.6082 16.2663C63.7519 16.1043 63.8955 15.9604 64.057 15.8344C64.3981 15.5645 64.8649 15.2586 65.188 15.0607C65.188 15.1507 65.188 15.2226 65.2239 15.2946C65.2239 15.2946 65.8163 14.8088 66.319 15.0247C66.5524 15.1327 66.4447 15.4386 66.4447 15.4386C66.4447 15.4386 66.7499 15.3306 66.9653 15.5465C67.1807 15.7624 67.4859 16.3203 67.6475 16.5362C67.7193 16.6441 67.8988 16.8241 68.0783 17.13C68.3296 17.5438 68.5451 17.9937 68.7066 18.4615C68.7246 18.2816 68.7605 18.0117 69.0657 18.0117L68.563 17.148Z" fill="#CAA13E"/>
<path fill-rule="evenodd" clip-rule="evenodd" d="M44.2201 23.8238C44.2201 23.8238 44.1124 23.5359 44.2201 22.9781C44.3278 22.4202 44.5073 22.1503 44.5791 21.3406C44.633 20.5129 45.1715 19.5052 45.1715 19.5052L46.6436 18.8395L47.6848 19.1274L47.99 20.5309L46.6616 21.2686C46.6616 21.2686 46.5898 21.5745 46.2128 21.8265C45.8358 22.0784 45.3331 22.2763 45.2074 22.5282C45.1356 22.6902 45.0818 22.8521 45.0459 23.014C45.0459 23.014 44.6689 22.9421 44.4355 23.176C44.2201 23.3919 44.238 23.6258 44.2201 23.8238Z" fill="#F4EFC8"/>
<path fill-rule="evenodd" clip-rule="evenodd" d="M47.2001 23.4461C47.2001 23.4461 47.0744 23.518 46.9847 23.716C46.8949 23.572 46.6795 22.6903 46.6615 21.8986C46.6436 21.1069 46.6077 20.9089 46.7872 20.639C46.9667 20.3691 47.6848 20.0812 47.5771 19.5954C47.4694 19.1276 47.0565 18.9296 46.5359 19.0736C46.1768 19.1635 45.9075 19.9373 45.5306 20.3331C45.2433 20.621 44.9022 20.5851 44.8125 20.747C44.6868 20.9629 44.7945 21.1789 44.7586 21.3228C44.7407 21.3768 44.6329 21.6107 44.4355 21.9166C44.0226 22.5284 43.3045 23.3741 43.2147 24.1478C43.2506 23.716 43.2327 23.698 43.3404 23.2301L43.2686 23.1222L43.7174 21.6287L44.0046 20.4051L44.6689 18.3358L45.8357 16.1946L46.9667 14.935L48.1336 15.007L48.2772 16.7704L48.9414 20.0812L50.3596 21.8266L48.0977 23.3561L47.2001 23.4461Z" fill="#EBCC73"/>
<path fill-rule="evenodd" clip-rule="evenodd" d="M47.9002 24.0757C47.9002 24.0757 47.7027 24.1297 47.6309 24.0937C47.5591 24.0577 47.4873 24.0217 47.5232 23.9677C47.5412 23.9138 47.6668 23.8418 47.6668 23.8058C47.6668 23.7338 47.613 23.6798 47.5591 23.6619C47.4514 23.6439 47.4155 23.7158 47.4155 23.7158C47.4155 23.7158 47.3078 23.6439 47.236 23.6259C47.2898 23.6259 47.3258 23.6079 47.3796 23.6079C47.2539 23.5539 47.1103 23.5179 46.9847 23.4999C47.0924 23.4279 47.3258 23.23 47.4694 23.23C47.613 23.23 47.7027 23.212 47.6848 23.122C47.6668 23.0501 47.5412 22.9241 47.4155 22.8881C47.4694 22.8341 47.4873 22.7442 47.3796 22.5282C47.2719 22.2943 47.3078 22.1504 47.3437 22.0964C47.3796 22.0244 47.4873 21.8985 47.5412 21.8265C47.595 21.7545 47.6489 21.6465 47.7387 21.5926C47.7925 21.5566 47.9361 21.5026 48.0797 21.4486C48.2413 21.3946 48.367 21.3227 48.4747 21.3946C48.5824 21.4666 48.5285 21.5566 48.5285 21.5566C48.5285 21.5566 48.8517 21.4486 49.1389 21.5926C49.4261 21.7365 50.1263 21.8265 50.1263 21.8265L50.3776 22.3303L48.726 23.7518L48.0438 24.0937L47.9002 24.0757Z" fill="#E5C66B"/>
<path fill-rule="evenodd" clip-rule="evenodd" d="M50.1981 21.7545C50.1981 21.7545 49.6955 22.0964 49.5698 22.2224C49.6416 22.2404 49.7493 22.2764 49.7134 22.3483C49.6596 22.4203 49.3185 22.6542 49.139 22.8882C48.9415 23.1221 48.762 23.392 48.6902 23.5359C48.6183 23.6619 48.0977 24.0218 47.9182 24.0757C48.2952 24.0757 49.0492 23.6079 49.3364 23.6079C49.3185 23.7519 49.4082 23.8958 49.5698 23.9138C49.7314 23.9318 50.1981 24.0218 50.8264 23.6259C51.4548 23.248 51.2393 22.9601 51.5086 22.7802C52.0113 22.4563 52.2088 22.1504 52.496 21.9705C52.7653 21.7905 52.9089 21.7365 52.9089 21.7365C52.9089 21.7365 52.9268 21.5926 52.9986 21.6106C53.0525 21.6106 53.0884 21.6466 53.1064 21.6826C53.1064 21.6826 53.5911 21.3407 54.2014 21.2507C54.1835 21.2507 54.1835 21.2327 54.1655 21.2147C54.1655 21.2147 54.2194 21.1967 54.2194 21.1607C54.2194 21.1607 54.2553 21.1068 54.2732 21.1428C54.2912 21.1607 54.3271 21.3407 54.3809 21.4127C54.4887 21.3587 54.6682 20.9268 54.6682 20.9268L55.1349 19.5953V18.3717L54.7759 18.4437L52.0472 19.6133L50.3956 21.3407L50.1981 21.7545Z" fill="#E6BD62"/>
<path fill-rule="evenodd" clip-rule="evenodd" d="M58.0431 15.7805C58.1868 15.7445 58.3304 15.6906 58.456 15.6186C58.4022 15.7625 58.4022 15.9245 58.1688 16.2844C57.9354 16.6262 57.9175 16.6802 57.72 17.0581C57.5225 17.436 57.5046 17.9758 57.3251 18.2277C57.4148 18.1917 57.5046 18.1557 57.5943 18.1557C57.5943 18.1557 57.4148 18.3177 57.3251 18.4796C57.2533 18.6415 57.1096 19.0014 56.7686 19.2173C56.4275 19.4333 55.9966 19.5772 55.5299 20.081C55.0631 20.5849 54.5784 21.2147 54.345 21.4486C54.4707 21.2327 54.6323 20.8008 54.6861 20.5129C54.74 20.225 54.6682 19.8831 54.7579 19.5052C54.8477 19.1274 54.8297 18.8575 55.2067 18.1917C55.5837 17.5259 56.23 15.2407 56.23 15.2407L57.6123 14.7909L58.0431 15.7805Z" fill="#B6933F"/>
<path fill-rule="evenodd" clip-rule="evenodd" d="M57.0557 14.9349C57.0557 14.9349 56.6428 15.5467 56.5172 16.0685C56.4095 16.6083 56.4992 16.5544 56.4454 16.8243C56.4095 16.9862 56.4095 17.1482 56.4454 17.3101C56.589 17.0762 56.7865 16.8783 57.0198 16.7343C57.4148 16.5004 57.7379 16.3204 57.9354 16.1225C58.1329 15.9066 58.2944 15.5467 58.7073 15.2768C58.5458 15.2588 58.2944 15.1688 58.2585 15.1868C58.4201 14.9889 58.9407 14.701 59.4613 14.3411C59.964 13.9812 59.946 13.8373 60.7718 13.4594C60.5025 13.5134 60.3769 13.4414 60.1435 13.4594C60.2333 13.2615 60.5564 13.1715 60.8795 12.8476C61.2027 12.5237 60.6821 12.0559 60.6821 12.0559L58.2585 13.5314L57.0557 14.9349Z" fill="#C49937"/>
<path fill-rule="evenodd" clip-rule="evenodd" d="M50.4673 13.8372L50.5211 13.4054L51.2213 12.2898L51.9394 10.3284V7.64736L51.8855 6.09989L51.9932 5.09224L52.083 4.76835L52.1727 4.6424L52.7651 4.94829L53.5909 6.06391L53.6627 8.22316L52.8729 11.606L50.6109 14.1071L50.4673 13.8372Z" fill="#DFC068"/>
<path fill-rule="evenodd" clip-rule="evenodd" d="M52.2805 4.51635C52.2805 4.51635 51.9215 4.53435 51.8317 6.04583C51.742 7.55731 51.724 8.36703 51.6702 9.10478C51.6163 9.84252 51.4906 10.3104 51.4188 10.7602C51.347 11.2101 51.3111 11.8038 51.1136 12.1817C51.0239 12.3437 50.8264 12.8835 50.3776 13.2793C49.875 13.7292 49.103 14.0351 48.9953 14.0531C48.7978 14.1071 47.7746 14.197 47.3437 14.4309C47.2001 14.5029 46.9488 14.5929 46.6615 14.8628C46.105 15.3666 45.369 16.2663 44.8304 17.3459C44.0046 18.9654 43.1968 23.5358 43.1968 23.5358L43.3763 23.2299C43.3763 23.2299 43.3943 22.8161 43.8072 22.0963C44.2021 21.3766 44.0944 20.5668 44.6509 19.1993C44.8663 18.6775 45.1356 17.9937 45.4767 17.4179C45.9973 16.4643 46.6436 15.6545 47.2719 15.2227C48.3131 14.5029 49.4621 14.341 49.4621 14.341L50.7007 13.5133C50.7007 13.5133 50.9162 13.0994 51.2034 12.6136C51.5983 11.9478 52.119 11.1921 52.2267 10.0944C52.3882 8.47499 51.9933 7.41336 52.0112 6.45969C52.0292 5.50601 52.0471 4.80425 52.2446 4.62432C52.4062 4.44438 52.2805 4.51635 52.2805 4.51635Z" fill="#A88F33"/>
<path fill-rule="evenodd" clip-rule="evenodd" d="M52.2806 11.7499C52.2806 11.7499 52.8191 10.4004 53.0704 9.21278C53.1243 8.97886 53.2141 8.72694 53.232 8.54701C53.3397 7.4134 53.3756 6.94556 53.232 6.33377C53.1243 5.88392 52.6755 5.47006 52.4421 5.14618C52.2087 4.82229 52.119 4.69633 52.1549 4.62435C52.1908 4.55238 52.3883 4.44442 52.5498 4.46241C52.9268 4.4804 53.2859 4.64235 53.5372 4.91226C53.8962 5.32611 54.1655 6.71164 54.1655 6.71164L54.4527 8.54701L55.2067 10.8682L52.2806 11.7499Z" fill="#C99E3D"/>
<path fill-rule="evenodd" clip-rule="evenodd" d="M57.3968 10.3465C57.3968 10.3465 57.2891 10.4005 57.1096 10.3465C57.1275 10.5085 57.0557 10.6524 56.93 10.7424C56.7326 10.6704 54.9374 10.8143 54.9374 10.8143C54.9374 10.8143 54.0936 10.6704 53.8423 9.55478C53.6628 8.81703 53.9859 7.79139 53.8782 7.10762C53.7166 6.11796 53.4833 5.92003 53.4653 5.61413C53.4474 5.30824 53.4114 5.21827 53.4114 5.03833C53.3037 5.02034 53.2499 4.98435 53.1422 4.98435C53.1242 4.89438 53.1601 4.82241 53.0704 4.66046C53.1242 4.67846 53.5012 4.73244 53.95 5.14629C54.309 5.48818 54.309 5.61413 54.3629 5.68611C54.4347 5.75808 54.9912 6.22592 55.2246 6.71176C55.458 7.19759 55.9247 8.70907 56.0324 8.96098C56.0684 9.06895 56.1402 9.15892 56.3017 9.39284C56.571 9.71672 56.966 10.2565 57.3968 10.3465Z" fill="#B58634"/>
<path fill-rule="evenodd" clip-rule="evenodd" d="M54.4168 5.70392C54.7041 6.15376 54.9374 6.6216 55.1708 7.10744C55.4401 7.71923 55.6017 8.22305 55.9428 8.63691C55.7632 8.0971 55.4401 7.05345 55.2426 6.67558C55.0272 6.27972 54.5784 5.84787 54.4168 5.70392Z" fill="#A88F33"/>
<path fill-rule="evenodd" clip-rule="evenodd" d="M51.2931 13.2794C51.2931 13.2794 50.8264 13.3874 49.9647 13.8552C49.6775 13.9991 49.4082 14.1251 49.1389 14.2511C48.4567 14.5569 47.7207 14.8449 47.1462 15.0068C47.2001 15.0608 47.218 15.0788 47.218 15.0788C47.218 15.0788 47.218 15.3127 47.3437 15.4386C47.2719 15.5106 46.3563 16.1404 46.6256 18.2277C46.8051 18.1557 47.0206 18.0657 47.0565 18.0657C47.1103 18.0837 47.1283 18.2277 47.2001 18.2277C47.2719 18.2277 47.4873 18.1377 47.7386 17.8318C47.7207 17.9578 47.595 19.2173 48.3311 20.0631C48.4747 19.9011 48.8158 19.3613 48.8158 19.3613L48.8337 19.1994C48.8337 19.1994 48.8696 18.6056 49.0671 18.0657C49.2646 17.5259 49.6416 17.1121 49.6416 17.1121L51.6163 14.287L51.2931 13.2794Z" fill="#E6C367"/>
<path fill-rule="evenodd" clip-rule="evenodd" d="M49.462 17.4181C49.3723 17.49 49.2646 17.526 49.1748 17.562C49.1389 17.454 49.103 17.0582 49.3723 16.6623C49.6954 16.1945 50.3776 15.6007 50.5751 15.1149C50.7007 14.809 50.6469 14.0352 51.742 13.0456C52.837 12.0559 53.2858 11.714 53.2858 11.714L55.0631 10.8143L57.2532 11.678L56.1582 15.9606L55.3144 17.9579L51.9574 17.3281L49.462 17.4181Z" fill="#DCBA5A"/>
<path fill-rule="evenodd" clip-rule="evenodd" d="M50.7366 16.2485L51.1495 15.7267V15.3488C51.1495 15.3488 51.6163 15.2229 52.1189 14.7191C52.6216 14.2152 53.3217 13.2256 53.9321 13.2796C54.5425 13.3515 54.5963 14.6111 54.6322 14.971C54.6681 15.3309 54.7399 16.1406 54.8656 16.5724C55.0092 17.0043 53.3756 18.6417 53.3756 18.6417L52.2626 19.4874L50.7366 16.2485Z" fill="#E9CE77"/>
<path fill-rule="evenodd" clip-rule="evenodd" d="M52.0293 20.621C52.0293 20.621 52.3704 20.0812 52.119 19.9732C52.2626 19.6493 52.5319 19.2894 52.5319 19.2894C52.5319 19.2894 52.7294 18.8036 53.3577 18.2278C53.986 17.652 54.363 17.2381 54.4707 16.8423C54.5246 16.5904 54.5605 16.3204 54.5785 16.0505C54.6503 16.1045 54.7221 16.1585 54.7939 16.1945C54.9016 16.2485 55.3683 16.6443 55.2965 17.4361C55.2247 18.2278 54.9375 18.5697 54.9375 18.5697C54.9375 18.5697 54.6503 18.8576 54.4528 19.0015C54.2374 19.1455 54.1656 19.3254 53.7886 19.3254C53.8245 19.2894 53.8604 19.2714 53.9142 19.2534C53.9142 19.2534 53.5372 19.1995 53.3398 19.3974C53.1423 19.5773 52.7114 20.1531 52.496 20.3151C52.2806 20.477 52.0293 20.621 52.0293 20.621Z" fill="#CDAE50"/>
<path fill-rule="evenodd" clip-rule="evenodd" d="M67.3243 11.6599C66.7857 11.4619 66.2113 11.354 65.6368 11.336C64.6674 11.3 63.2671 11.354 61.8669 11.372C60.3768 11.39 59.0304 10.8682 57.1455 10.7602C56.8403 10.5803 56.0504 9.77053 53.6089 11.4799C53.7525 11.4619 55.3862 11.1021 55.9427 11.8038C56.5171 12.5056 56.3556 13.7112 56.2658 13.9991C56.1222 14.6289 55.6375 15.5645 55.44 16.2123C55.2426 16.8601 55.2964 17.202 55.1528 17.6518C55.0092 18.1017 54.704 18.3356 54.8835 18.8574C55.1169 18.7135 55.2426 18.7135 55.6554 17.8138C56.0504 16.9141 55.9786 16.2663 56.6428 15.5106C57.2891 14.7368 58.3662 13.6932 58.7791 13.4413C59.192 13.1714 62.4413 11.4799 65.8702 13.0994C66.7139 13.0094 67.3243 11.6599 67.3243 11.6599Z" fill="#D2A83E"/>
<path fill-rule="evenodd" clip-rule="evenodd" d="M54.9912 11.0301C54.9912 10.9941 54.9733 10.9581 54.9733 10.9222C54.9374 10.8502 54.9015 10.7962 54.8476 10.7422C54.8476 10.7422 54.0398 10.5983 53.6269 10.6343C52.9088 10.7062 52.2625 11.6059 51.9573 12.0558C51.6521 12.5056 51.2751 13.2254 50.8622 13.5852C50.8622 13.5493 50.8622 13.5133 50.8443 13.4773C50.8443 13.4773 50.8622 13.5133 50.8263 13.5493C50.7904 13.5852 50.7725 13.6212 50.8084 13.6392L50.8802 13.7112C50.8981 13.7112 51.5444 13.4233 52.4061 12.6136C53.3217 11.7679 54.0218 11.336 54.3988 11.1921C54.5783 11.1381 54.7758 11.0661 54.9912 11.0301Z" fill="#C29637"/>
<path fill-rule="evenodd" clip-rule="evenodd" d="M70.6993 7.55737C70.6993 7.55737 70.5557 7.73731 70.3762 7.95324C69.9633 8.38509 69.4247 8.87092 68.9759 9.37475C68.5451 9.86058 68.0604 10.2205 67.5038 10.8502C66.9473 11.48 66.319 12.1818 66.1574 12.3797C66.0138 12.5776 65.8882 12.9195 65.8882 13.0815C65.8164 13.0275 65.7266 12.9735 65.7266 12.9735C65.7625 13.0455 65.8164 13.1175 65.8702 13.1714C65.9779 13.3334 66.1574 13.5313 66.2652 13.6573C66.3729 13.8192 66.4626 13.9992 66.4985 14.1791C66.5524 14.1971 66.9114 14.2511 67.3423 13.5313C67.7731 12.8116 68.3655 12.0018 68.3655 12.0018L69.2811 10.6343L69.8556 9.46472L70.5916 8.16916L70.6993 7.55737Z" fill="#AC8132"/>
<path fill-rule="evenodd" clip-rule="evenodd" d="M71.6328 6.63971C71.6328 6.63971 71.0763 7.08955 70.8608 7.37746C70.6454 7.64736 70.1248 8.36712 70.1248 8.36712L70.3043 8.34912L71.2378 7.52141L71.5969 6.87363L71.6328 6.63971Z" fill="#A88F33"/>
<path fill-rule="evenodd" clip-rule="evenodd" d="M71.4712 43.275C71.4712 43.275 71.4533 42.8972 71.6687 42.6633C71.8841 42.4293 72.4406 42.1054 72.9613 40.8639C73.4998 39.6223 73.5537 39.3344 73.5537 39.3344C73.5537 39.3344 72.6022 40.1621 72.0098 40.342C72.1534 40.0541 72.2252 39.8562 72.297 39.7123C72.2252 39.6403 71.8841 39.5683 71.8482 39.5323C72.0277 39.3524 72.1355 38.9025 72.5125 38.5966C72.9972 38.2368 73.8589 37.607 74.541 37.0492C75.2232 36.4914 76.5517 35.1958 76.7312 34.8179C76.8389 34.9619 76.8569 35.0519 76.8569 35.0519C76.8569 35.0519 76.1926 35.9336 75.8336 36.4914C75.5284 36.9772 75.5464 37.2471 75.5464 37.2471L76.1747 36.9772C76.1747 36.9772 76.3542 37.661 75.5284 38.7046C75.8874 38.5607 76.0311 38.6506 76.2465 38.5427C75.9054 38.7586 75.4386 39.0465 74.9898 39.8742C74.559 40.6839 73.9666 41.6376 72.9792 42.2134C72.0277 42.8072 71.4712 43.275 71.4712 43.275Z" fill="#A67A2E"/>
<path fill-rule="evenodd" clip-rule="evenodd" d="M68.976 12.1457C68.976 12.1457 68.599 12.9374 68.5451 13.5492C68.5272 13.6932 68.4912 13.8191 68.4912 13.9811C68.4733 14.5209 68.5272 15.1507 68.4015 15.4206C68.3476 15.3126 68.3297 15.2227 68.2938 15.1867C68.222 15.3846 68.0963 15.9784 68.0065 16.2123C67.9527 16.0684 67.8629 15.5465 67.8629 14.9527C67.8809 14.341 67.8809 14.233 67.8809 14.107C67.8629 14.287 67.7373 14.5389 67.6834 14.6828C67.6116 14.5569 67.5398 14.3949 67.45 14.269C67.3962 14.359 67.3244 14.5029 67.2705 14.5569C67.2526 14.5029 67.2346 14.3589 67.2167 14.143C67.1987 13.9091 67.1987 13.6032 67.1987 13.5312C67.2167 13.4053 67.4141 12.9194 67.827 12.4696C68.3117 11.9298 68.8144 10.9041 68.958 10.5802C69.1016 10.2564 69.7299 8.94281 69.7299 8.94281H70.2146L69.5145 10.5263C69.5145 10.5263 69.1016 11.39 68.8862 11.7139C68.6708 12.0377 68.222 12.9374 68.0065 13.2973C68.1502 13.0994 68.2758 13.0094 68.4194 12.8115C68.581 12.7035 68.976 12.1457 68.976 12.1457Z" fill="#8C6228"/>
<path fill-rule="evenodd" clip-rule="evenodd" d="M71.6508 6.56763C71.579 6.80155 71.4533 7.03547 71.2918 7.2334C71.0045 7.57528 70.3942 8.02513 70.089 8.403C69.8197 8.76287 69.2632 9.73454 69.5145 10.8681C69.6043 10.6162 69.7838 10.1304 70.2326 9.57259C70.6814 9.01479 71.184 8.36701 71.4174 7.88118C71.6508 7.37735 71.6867 6.98148 71.6867 6.98148L71.7765 6.87352L71.7226 6.60361L71.6508 6.56763Z" fill="#CBA94C"/>
<path fill-rule="evenodd" clip-rule="evenodd" d="M80.9679 37.1574C80.9679 37.1574 80.7884 36.6536 80.7345 36.2038C80.6807 35.7539 80.8243 35.6639 80.6627 35.1421C80.555 34.8182 80.3755 34.8722 80.3396 34.8182C80.2857 34.7823 80.2678 34.2964 80.2678 34.0265C80.2857 33.7566 80.2498 33.4147 80.2139 33.2708C80.1421 33.2168 80.1062 33.1628 79.9985 32.8209C79.8908 32.479 79.8369 32.3171 79.7651 32.2091C79.7113 32.1012 79.5497 32.0112 79.5497 31.9212C79.5497 31.7233 79.7292 31.6153 79.7292 31.5614C79.7113 31.4534 79.5856 31.5434 79.5497 31.5074C79.4958 31.4534 79.6574 31.1115 79.6036 31.0755C79.5856 31.0575 79.424 31.2375 79.3702 31.1835C79.3163 31.1295 79.2625 30.5717 79.1907 30.2118C79.1188 29.8519 79.0291 29.6 79.0291 29.4921C79.0111 29.3841 78.4008 27.6027 78.2392 27.1709C78.1135 26.811 78.0058 26.4331 77.934 26.0553C77.8802 25.8393 77.8622 25.3895 77.8263 25.4435C77.8084 25.4974 77.8084 25.7134 77.7724 25.7134C77.7365 25.6954 77.6288 24.9216 77.5929 24.7957C77.557 24.6697 77.3595 24.2559 77.3236 23.95C77.2698 23.6441 77.18 22.8344 77.1082 22.2766C77.0364 21.7187 77.0005 21.5028 77.0005 21.3589C77.0185 21.017 77.0005 20.6931 76.9467 20.3512C76.8569 19.7754 76.6774 19.0737 76.5158 18.6598C76.2106 17.8861 75.3848 15.9067 75.2412 15.4029C75.2412 15.277 75.4028 15.3489 75.4028 15.3489C75.4028 15.3489 75.7977 16.3566 76.1029 17.1303C76.3901 17.9041 76.6594 18.5878 76.7312 18.6598C76.7851 18.7318 77.2159 19.4875 77.4134 20.7291C77.6109 21.9707 77.6827 23.1223 77.7904 23.896C77.8443 24.2559 77.8981 24.6517 78.0058 25.0296C78.1315 25.4435 78.329 25.8753 78.5803 26.5411C78.7957 27.0989 78.9573 27.5667 79.047 27.9626C79.1548 28.4664 79.1548 28.8623 79.2086 29.1142C79.2625 29.3301 79.3522 29.762 79.5317 30.3918C79.7292 31.0215 80.0165 31.8313 80.196 32.3351C80.573 33.3427 80.7345 34.1705 80.8063 34.6203C80.8422 35.0881 81.0038 36.6716 80.9679 37.1574Z" fill="#A88F33"/>
<path fill-rule="evenodd" clip-rule="evenodd" d="M71.6688 6.51384L71.6508 6.56782C71.6508 6.56782 71.7226 6.58581 71.7047 6.67578C71.7047 6.80174 71.7047 6.9277 71.6867 7.05365C71.6688 7.2156 71.6149 7.34155 71.6149 7.44952C71.6149 7.66544 71.6508 7.91736 71.3456 8.52915C71.2559 8.69109 71.202 8.85303 71.1482 8.943C71.0404 9.19492 71.0045 9.2309 70.9148 9.33887C71.0763 9.2489 71.6508 8.88902 71.956 8.943C71.7585 9.05097 71.4533 9.28489 71.2559 9.57279C71.3097 9.59078 71.4892 9.62677 71.7944 9.57279C72.2971 9.50081 72.8716 9.30288 73.3742 9.33887C73.9307 9.37486 73.6974 8.6731 73.6974 8.6731L73.069 7.28757L71.8662 6.44186L71.6688 6.51384Z" fill="#BE9C44"/>
<path fill-rule="evenodd" clip-rule="evenodd" d="M74.7924 16.9503C74.7924 16.9503 74.2538 16.4105 74.0384 14.5752C73.823 12.7398 73.8768 10.0227 73.8768 10.0227L73.446 8.96109C73.446 8.96109 73.3562 8.25933 73.1228 7.98942C72.8895 7.71952 72.4586 7.28766 72.2432 7.07174C72.0457 6.85581 71.8123 6.56791 71.6687 6.51393C71.7405 6.40597 72.0457 5.7402 73.2305 5.7402C74.4154 5.7222 74.7744 6.38797 74.9001 6.62189C75.0257 6.85581 75.5823 7.89945 75.7797 9.87877C75.9772 11.8581 75.9772 12.002 75.9413 12.6858C75.9233 13.0637 75.7977 13.9454 75.5823 14.8811C75.4027 15.6728 75.1873 16.5545 74.7924 16.9503Z" fill="#A17C34"/>
<path fill-rule="evenodd" clip-rule="evenodd" d="M73.1229 18.5156C73.3024 18.5336 73.482 18.4796 73.6256 18.4076C73.7871 18.3896 74.4155 18.4796 74.8822 17.8678C74.9181 18.0117 74.9899 18.3716 74.7745 18.7135C74.8822 18.6055 75.0617 18.5516 75.0797 18.5156C75.0976 18.6775 75.2413 19.2173 74.577 20.4949C74.7566 20.297 74.972 20.297 75.1694 20.279C75.1874 20.5129 75.3131 21.3226 74.972 21.7545C74.7386 22.0424 74.3796 21.9524 74.3796 21.9524C74.3796 21.8804 74.3796 21.8264 74.3796 21.7545C74.3616 21.6285 74.3257 21.5025 74.3616 21.4306C74.1821 21.3406 74.0205 21.2326 73.8769 21.1067C73.482 20.7288 72.9613 20.081 72.9254 19.5952C72.8716 19.0554 73.3563 18.9474 73.3563 18.9474C73.3204 18.9114 73.2845 18.8755 73.2486 18.8215C73.2306 18.7495 73.2127 18.6235 73.1229 18.5156Z" fill="#8C6228"/>
<path fill-rule="evenodd" clip-rule="evenodd" d="M69.5684 12.7215C69.5684 12.7215 69.5504 12.6855 69.4247 12.8295C69.4427 12.6855 69.4786 12.5416 69.4786 12.4156C69.5325 12.2897 69.6222 12.1817 69.712 12.0737C69.6402 12.2177 69.6043 12.3436 69.6043 12.3436C69.6043 12.3436 69.7658 12.0198 70.0172 11.8398C70.1787 11.6959 70.4121 11.6419 70.5019 11.5159C70.6096 11.372 70.5737 11.354 70.6096 11.336C70.6096 11.336 70.843 11.192 71.184 10.7602C71.2379 10.7062 71.2918 10.6522 71.3456 10.5982C71.4174 10.5623 71.6149 10.4903 71.8303 10.3643C72.0637 10.2384 72.315 10.0764 72.4586 10.0044C72.7638 9.8605 73.087 9.87849 73.2485 9.66257C73.3562 9.62658 73.4819 9.2847 73.464 8.9968C73.6255 9.06877 74.5052 9.60859 74.8104 10.7962C75.0258 11.6419 74.6488 12.9374 74.4872 13.5672C74.3257 14.197 74.3077 14.6648 74.0743 14.9527C73.7871 15.3306 72.8715 15.8704 72.6382 16.1223C72.4407 16.3383 71.8662 16.8961 71.8842 17.2919C71.9021 17.5798 72.2791 17.7418 72.3509 17.7958C72.4227 17.8498 72.4227 17.9217 72.5843 17.8857C72.7279 17.8498 72.7818 17.7778 72.8536 17.7778C72.9254 17.7958 72.9254 17.7958 72.9613 17.7958C72.9792 17.7958 73.0152 17.7958 73.0331 17.7778C73.0331 17.7778 73.0152 18.1916 72.0278 18.3176C71.956 18.3356 71.8842 18.3536 71.7944 18.3716C71.9021 18.3176 71.9739 18.3176 72.0996 18.1377C71.956 18.1197 71.561 18.0837 71.4713 18.0657C71.5072 18.0117 71.6149 17.8677 71.7047 17.7958C71.7765 17.7238 71.6867 17.7058 71.6328 17.7418C71.5072 17.8138 71.3995 17.9037 71.2918 18.0117C71.184 18.1197 71.0763 18.2456 70.8968 18.3716C70.843 18.1916 70.843 17.8318 71.0584 17.5798C71.0045 17.5978 70.8968 17.7418 70.7891 17.7238C70.7711 17.5619 70.7891 17.3819 70.825 17.22C70.8789 17.004 71.184 16.6442 71.184 16.6442L72.6202 14.0531L72.9254 12.0917L69.5684 12.7215Z" fill="#92723A"/>
<path fill-rule="evenodd" clip-rule="evenodd" d="M69.4965 12.8295C69.4965 12.8295 69.4247 12.8835 69.5684 12.9915C69.5504 13.0275 69.4965 13.1354 69.4247 13.2254C69.3529 13.3154 69.2632 13.3694 69.2273 13.4593C69.1555 13.6213 69.1016 13.7292 69.1016 13.8012C69.1016 13.8732 69.0836 14.305 68.8862 14.5929C68.8144 14.7009 68.7426 14.8628 68.6887 14.9888C68.581 15.1867 68.4733 15.3487 68.4553 15.4386C68.4015 15.6006 68.3835 16.0504 68.3835 16.0504C68.3835 16.0504 68.4912 15.9245 68.5271 15.8885C68.4733 15.9965 68.4194 16.1224 68.3297 16.2124C68.3835 16.1584 68.5451 16.0504 68.8144 15.8165C69.1914 15.4926 69.7838 14.9708 70.5019 14.539C70.2864 14.6109 70.1069 14.6109 69.9633 14.6469C70.071 14.539 71.1122 13.3154 71.6508 13.2074C71.6867 13.1714 71.7046 13.1174 71.7046 13.0635L71.2379 13.0095L70.2864 13.2074L70.1428 12.4697L69.4965 12.8295Z" fill="#B18E3E"/>
<path fill-rule="evenodd" clip-rule="evenodd" d="M70.9866 16.9861C70.9866 16.9861 70.8609 17.1121 70.7532 17.418C70.6635 17.328 70.5917 17.22 70.5199 17.1121C70.3583 16.8242 70.089 16.4643 69.4786 16.6622C69.4607 16.4643 69.4607 16.3743 69.4786 16.2304C69.5864 16.2124 69.8915 15.9605 70.1967 15.6006C70.4121 15.3487 70.6096 15.0608 70.7532 14.7009C70.843 14.6289 71.0046 14.521 71.202 14.377C71.4893 14.1791 71.8483 13.8912 71.9022 13.5853C71.7585 13.6393 71.4713 13.7832 71.0225 13.7472C71.1841 13.6752 71.4534 13.5853 71.4175 13.2434C71.4893 13.1894 71.5431 13.1714 71.5431 13.1714C71.4893 13.1534 71.4354 13.1534 71.3816 13.1534C71.3636 13.1174 71.3636 13.0815 71.2738 13.0994C71.1841 13.1174 71.1841 13.1174 71.1661 13.1534C71.1302 13.1714 71.0225 13.1534 70.9507 13.2074C70.8789 13.2614 70.6635 13.4413 70.5737 13.4773C70.6096 13.4233 70.6455 13.3334 70.6455 13.3334C70.6455 13.3334 70.4121 13.3514 70.2506 13.4233C69.9633 13.5313 69.6223 13.7112 69.2632 13.8912C69.2991 13.8372 69.3171 13.8012 69.335 13.7832C69.353 13.7652 69.4068 13.7652 69.4068 13.7472C69.4068 13.7292 69.3889 13.6573 69.3889 13.6213C69.4966 13.4053 69.6223 13.1894 69.7479 12.9915C69.9095 12.7756 69.9454 12.4697 69.9454 12.4697L70.6455 12.1098L72.6202 11.6599L73.8948 11.7319L73.7333 12.6136L72.9793 14.1611L72.333 15.5826L71.597 16.4463L70.9866 16.9861Z" fill="#543E26"/>
<path fill-rule="evenodd" clip-rule="evenodd" d="M74.2 13.1356C74.2 13.1356 73.4281 14.0893 73.2126 14.2333C73.3563 13.9454 74.2 12.182 74.5052 11.6961C74.4334 11.6421 74.3436 11.6421 74.5591 10.7784C74.3795 11.2103 74.3077 11.4442 74.1641 11.5522C74.0205 11.6601 74.0025 11.6242 73.8948 11.6242C73.9128 11.5882 73.9307 11.5522 73.9128 11.5162C73.9128 11.5162 73.2665 11.4442 72.8177 11.4442C72.3689 11.4442 71.4893 11.6781 71.0045 11.8761C70.6096 12.038 70.3942 12.038 70.2685 12.146C70.1249 12.2539 70.0531 12.3799 69.9813 12.4159C69.9274 12.4519 69.6581 12.5238 69.6043 12.6138C69.5504 12.7038 69.4607 12.8117 69.4607 12.8297C69.4607 12.8477 69.4427 12.8837 69.5145 12.8657C69.5325 12.8477 69.712 12.7578 69.9095 12.6498C70.1788 12.5058 70.4839 12.3259 70.7173 12.2359C71.3815 11.966 71.579 12.02 71.8842 11.966C72.1894 11.9121 72.6382 11.7861 72.9254 11.7861C73.2126 11.7681 73.7692 11.7861 73.9128 11.8041C73.8589 11.8581 73.8051 11.9121 73.841 12.092C73.841 12.146 73.7871 12.2 73.7512 12.3439C73.6076 12.7218 73.3563 13.3516 73.2126 13.6754C73.0152 14.1073 72.7818 14.4672 72.6741 14.7011C72.5664 14.935 72.315 15.5288 72.0637 15.8347C71.8124 16.1406 71.6867 16.3385 71.6149 16.4105C71.5431 16.4825 70.9866 16.8963 71.0225 17.0403C71.1302 17.0043 71.7585 16.7704 72.2253 16.2486C72.692 15.7267 72.7818 15.4029 73.1408 15.115C73.4999 14.8271 73.7871 14.3412 73.9666 13.9454C74.0564 13.5675 74.0205 13.4595 74.2 13.1356Z" fill="#806031"/>
<path fill-rule="evenodd" clip-rule="evenodd" d="M57.5405 20.2791C57.5405 20.2791 57.4328 20.6929 57.2174 20.9088C56.984 21.1068 56.5891 21.2867 56.5532 21.6286C56.4993 21.9705 56.9481 22.1324 56.9481 22.1324C56.9481 22.1324 56.6968 22.5463 56.6968 22.8522C56.6968 23.1761 56.6788 23.2301 56.7147 23.5359C56.6788 23.5539 56.6429 23.5899 56.625 23.6259C56.625 23.6259 56.6429 23.9138 56.8763 24.1117C57.1097 24.2917 57.2892 24.3996 57.4149 24.3637C57.4328 24.3996 57.4508 24.4356 57.4687 24.4716C57.4687 24.4716 57.6303 24.0398 57.7559 23.6619C57.8637 23.266 57.9714 23.338 58.0252 22.8162C58.0791 22.2944 58.5638 21.3947 58.5638 21.3947L58.9049 20.6389L58.3484 20.2071L57.5405 20.2791Z" fill="#B6903C"/>
<path fill-rule="evenodd" clip-rule="evenodd" d="M58.5817 21.0348C58.474 21.1608 58.3663 21.2867 58.2586 21.4127C58.115 21.6106 57.9893 21.8085 57.7739 21.8805C57.5585 21.9525 57.4148 21.9525 57.4328 22.1684C57.4508 22.3843 57.6482 22.4743 57.7559 22.5823C57.8816 22.6902 57.9893 22.8882 57.9175 23.1041C57.9893 23.0681 58.115 23.0321 58.2227 22.7802C58.3304 22.5283 59.1382 21.0168 59.1382 21.0168L58.5817 21.0348Z" fill="#685026"/>
<path fill-rule="evenodd" clip-rule="evenodd" d="M61.7412 17.5441C61.7412 17.5441 61.813 17.3641 61.7412 17.2202C61.6694 17.0762 61.2565 17.0402 61.0411 16.8783C60.8257 16.7164 60.5564 16.6084 60.341 16.6804C60.3769 16.6084 60.5025 16.4284 60.3948 16.3925C60.2871 16.3565 59.9101 16.5364 59.8204 16.6084C59.7126 16.6804 59.4972 16.7703 59.4434 16.8423C59.3895 16.8963 59.3177 17.0043 59.2818 16.9503C59.2279 16.9143 59.21 16.8423 59.1382 16.8783C59.0664 16.9323 58.6894 17.2382 58.6176 17.4181C58.5458 17.598 58.3842 17.9939 57.9174 18.4618C57.4507 18.9116 57.2532 19.2175 57.3789 19.3794C57.5225 19.5414 57.5764 19.4334 57.6123 19.5774C57.6302 19.7213 57.6302 19.8653 57.5943 20.0092C57.5405 20.2431 57.4507 20.4771 57.5764 20.513C57.8995 20.621 58.2047 20.4231 58.2765 20.4771C58.4201 20.603 58.2047 21.0529 58.5278 21.1428C58.851 21.2328 59.192 21.0709 59.192 21.0709L60.3948 20.4231L61.5617 19.8113L62.1541 18.6417L61.831 17.652L61.7412 17.5441Z" fill="#D4B968"/>
<path fill-rule="evenodd" clip-rule="evenodd" d="M60.6104 20.3509C60.6104 20.3509 60.4129 20.045 60.6642 19.775C60.9155 19.5051 61.2746 19.3792 61.4002 19.2172C61.3823 19.1813 61.3464 19.1633 61.2925 19.1453C61.3823 18.9833 61.5259 18.8574 61.6875 18.7674C61.6157 18.6954 61.5259 18.6414 61.4182 18.6414C61.1848 18.6414 61.0592 18.7854 60.8437 18.7854C60.6463 18.7854 60.6104 18.6774 60.6104 18.6774C60.6104 18.6774 60.9514 18.6414 60.9155 18.4975C60.8796 18.3355 60.8258 18.3355 60.8258 18.3355C60.8258 18.3355 61.49 18.0656 61.5977 17.9217C61.7054 17.7777 61.7054 17.5978 61.7234 17.5258C61.7952 17.5258 62.2619 17.2919 62.4415 17.3819C62.621 17.4898 62.4953 17.7597 62.4953 17.7597C62.4953 17.7597 63.0518 17.3459 63.3391 16.932C63.5904 16.95 63.6981 16.7701 63.8776 16.7701C64.111 16.7701 64.4521 17.076 64.5239 17.7417C64.5778 18.1196 64.6316 18.3355 64.5778 19.0013C64.5419 19.3792 64.5598 20.1889 64.6675 20.5848C64.7393 20.9087 64.9368 20.8727 64.9368 20.8727C64.9009 20.9626 64.847 21.0526 64.7752 21.1246C64.6496 21.2325 64.6316 21.5384 64.6496 21.6644C64.6675 21.7544 64.6855 21.8263 64.7214 21.9163C64.7214 21.9163 64.5778 22.0783 64.5419 22.2042C64.5059 22.3122 64.3623 22.4021 64.2546 22.4021C64.1469 22.4021 64.2008 22.3842 64.0571 22.4021C63.9135 22.4201 63.8597 22.4381 63.7699 22.4021C63.6802 22.3662 63.6083 22.3302 63.6442 22.0423C63.6802 21.7544 62.5133 21.0526 62.5133 21.0526L60.6104 20.3509Z" fill="#CCA849"/>
<path fill-rule="evenodd" clip-rule="evenodd" d="M58.4201 23.2661C58.4201 23.2661 58.833 23.8239 60.5564 23.8239C61.3822 23.8239 61.6514 23.752 61.831 23.698C62.0105 23.644 62.7106 23.3741 63.3928 22.5644C64.0211 21.8266 63.8775 21.5207 63.8775 21.5207L63.5185 21.4667L62.3336 21.6287L58.833 23.1222L58.4201 23.2661Z" fill="#585136"/>
<path fill-rule="evenodd" clip-rule="evenodd" d="M59.6947 23.3919C59.6947 23.3919 58.2047 23.7158 58.2047 22.7801C58.2047 21.8624 59.1203 20.8908 59.3536 20.7108C59.587 20.5489 60.1615 20.351 60.1615 20.351H61.5438L61.8131 21.0527L61.7053 22.5642L59.6947 23.3919Z" fill="#252211"/>
<path fill-rule="evenodd" clip-rule="evenodd" d="M61.077 20.6387C61.077 20.6387 60.7898 20.3688 60.1435 20.7287C59.4973 21.0885 58.9767 21.8263 58.9408 22.4921C58.9049 23.0859 59.4255 23.5357 60.2333 23.5537C60.8437 23.5717 61.2027 23.4997 61.3822 23.4637C61.3284 23.4097 61.095 23.1039 61.095 23.1039L61.077 20.6387Z" fill="#C3B378"/>
<path fill-rule="evenodd" clip-rule="evenodd" d="M60.7899 20.7829C60.7899 20.7829 60.7181 20.729 60.5206 20.8369C60.359 20.9269 60.1077 21.1608 59.9102 21.3407C59.7845 21.4487 59.7127 21.4847 59.6409 21.5747C59.3537 21.9165 59.1203 22.4744 59.246 22.7443C59.3717 23.0142 59.8384 23.3381 61.0053 23.1221L60.7899 20.7829Z" fill="#E6D89C"/>
<path fill-rule="evenodd" clip-rule="evenodd" d="M60.4128 21.3587C60.4128 21.3587 60.2333 21.6466 60.2333 22.0964C60.2333 22.5643 60.5025 23.302 61.454 23.356C62.19 23.41 62.6927 22.2944 63.2313 21.8445C63.6442 21.5206 63.8955 21.5026 63.8955 21.5026C63.8955 21.5026 63.4826 21.0528 62.3516 20.459C61.2565 19.8652 60.0178 19.7932 59.3357 20.6929C59.6588 20.6749 60.6821 20.405 60.6821 20.405L61.1847 20.567L60.4128 21.3587Z" fill="#252211"/>
<path fill-rule="evenodd" clip-rule="evenodd" d="M61.867 21.9705C61.8311 21.8985 61.8131 21.8085 61.9388 21.7905C62.0644 21.7726 62.1362 21.7726 62.1721 21.8805C62.226 21.9885 62.2619 22.0605 62.1901 22.1144C62.1362 22.1324 61.9567 22.0964 61.867 21.9705ZM61.6336 21.3227C61.6336 21.3227 61.5797 21.3587 61.6156 21.2867C61.6336 21.2147 61.6874 21.0708 61.8311 21.1068C61.9747 21.1428 61.9388 21.3047 61.9208 21.3407C61.9029 21.3947 61.7772 21.4667 61.6874 21.4307C61.6515 21.4127 61.6156 21.3767 61.6336 21.3407C61.6336 21.3227 61.6336 21.3227 61.6336 21.3227Z" fill="#6F674D"/>
<path fill-rule="evenodd" clip-rule="evenodd" d="M49.1927 21.6107C49.1927 21.6107 49.5518 21.8806 49.9826 21.8806C50.3955 21.8626 50.9341 21.4308 51.1854 21.1609C51.329 20.9989 51.4547 20.837 51.5983 20.693C51.706 20.5851 51.7958 20.5311 51.8497 20.4411C51.9215 20.3511 52.0112 20.1712 52.0471 20.1172C51.9394 20.1892 51.7958 20.3331 51.6522 20.4231C51.5086 20.5131 51.1854 20.693 51.0598 20.729C50.9341 20.783 49.6416 21.4668 49.6416 21.4668L49.1927 21.6107Z" fill="#AC924C"/>
<path fill-rule="evenodd" clip-rule="evenodd" d="M49.7493 18.2097C49.7493 18.2097 49.9467 18.0657 50.3417 17.9758C50.7187 17.8858 51.4727 17.8138 51.4727 17.8138L52.101 18.0837L52.3523 19.0374L51.9035 20.0271L51.329 20.3869L50.6648 19.3253L49.7493 18.2097Z" fill="#9F8E57"/>
<path fill-rule="evenodd" clip-rule="evenodd" d="M48.9234 19.0374L48.708 19.1994C48.708 19.1994 48.7619 19.0914 48.8157 18.7855C48.8696 18.4796 49.103 17.7239 49.4441 17.292C49.7851 16.8602 49.7851 16.8782 49.7851 16.8782C49.7133 16.8602 49.6595 16.8782 49.6056 16.9322C49.6595 16.8242 49.9467 16.4643 50.2339 16.2844C50.5212 16.1044 50.6468 16.0505 50.952 16.1944C51.2572 16.3384 51.347 16.4283 51.5624 16.4103C51.7958 16.3923 51.9753 16.1584 51.9753 16.1584C51.9753 16.1584 52.0291 16.3024 51.8496 16.6443C51.6881 16.9861 51.0059 17.6879 51.0059 17.6879L49.6056 18.6416L48.9234 19.0374Z" fill="#EAC970"/>
<path fill-rule="evenodd" clip-rule="evenodd" d="M49.9648 18.0838C49.9648 18.0838 50.9701 18.2277 51.2932 17.9398C51.3112 17.9758 51.3471 17.9758 51.3471 17.9938C51.3471 18.0118 51.3291 18.0298 51.3291 18.0478C51.365 18.0478 51.4009 18.0478 51.4368 18.0298C51.4727 18.0478 51.5266 18.0478 51.5625 18.0478C51.5984 18.0478 51.6343 18.0478 51.6702 18.0298C51.6702 18.0838 51.6343 18.1198 51.5984 18.1378C51.6523 18.1378 51.6882 18.1557 51.6882 18.1917C51.6882 18.2277 51.7061 18.3357 51.6343 18.3537C51.5805 18.3717 51.5445 18.3717 51.4907 18.3357C51.4907 18.4257 51.5266 18.5156 51.5625 18.5876C51.6523 18.7495 51.8497 18.9475 52.1011 18.8935C52.1011 18.8935 52.2447 19.2174 51.6523 19.9551C51.5805 20.0631 51.4907 20.1891 51.383 20.315C51.3471 20.405 51.3112 20.4949 51.2932 20.5849C51.2932 20.5849 52.2806 20.207 52.5499 19.3433C52.8371 18.4796 52.891 17.6159 52.8371 16.8242C52.8191 16.5903 52.7832 16.4283 52.7294 16.3204C52.5858 16.0325 52.2088 16.0865 52.0472 16.2484C51.8138 16.4823 51.4368 17.0401 50.9162 17.418C50.3956 17.8499 50.3777 17.9218 49.9648 18.0838Z" fill="#D7BC6B"/>
<path fill-rule="evenodd" clip-rule="evenodd" d="M48.744 19.3253C48.744 19.3253 48.5465 19.4332 48.4568 19.8651C48.3491 20.3149 48.5465 20.8548 48.6542 21.0167C48.762 21.1786 49.0133 21.6465 49.5339 21.6825C49.6596 21.6825 49.7852 21.6465 49.9109 21.6105C50.0904 21.5205 50.2699 21.4126 50.4135 21.2866C50.6469 21.1247 50.8264 20.9627 50.8085 20.9627C50.7546 20.9447 49.4262 19.8291 49.4262 19.8291L48.9235 19.2713L48.744 19.3253Z" fill="#585136"/>
<path fill-rule="evenodd" clip-rule="evenodd" d="M50.0186 21.1608C50.0186 21.1608 50.2879 21.1428 50.4494 21.0348C50.611 20.9268 49.498 19.8292 49.498 19.8292L49.5698 21.0168L50.0186 21.1608Z" fill="#453A25"/>
<path fill-rule="evenodd" clip-rule="evenodd" d="M48.8337 19.2534C48.8337 19.2534 48.6901 19.5233 48.6901 19.5773C48.6722 19.8112 48.744 20.513 48.7978 20.7469C48.8517 20.9808 49.1569 21.3587 49.5339 21.3587C49.7672 21.3587 50.1083 21.2147 50.1083 21.1788C50.1083 21.1248 49.7672 21.0888 49.6775 20.9089C49.6236 20.8189 49.6057 20.585 49.5877 20.369C49.5698 20.2251 49.5698 20.0631 49.6416 20.0092C49.7672 19.8652 49.7852 19.4693 49.7852 19.4693L50.234 18.6416H49.6595L48.9594 19.0735L48.8337 19.2534Z" fill="#84754B"/>
<path fill-rule="evenodd" clip-rule="evenodd" d="M48.6721 19.5054C48.6721 19.5054 49.1209 18.8936 49.5338 18.7676C49.9467 18.6237 50.1262 18.7136 50.1262 18.7136L49.8929 19.3254L49.5518 19.7033L49.5697 19.9012C49.5697 19.9012 49.5159 20.4051 49.857 20.7649C50.1981 21.1248 50.4494 21.1068 50.593 21.1068C50.7366 21.1068 51.1675 20.9809 51.3829 20.477C51.5804 19.9912 51.7419 19.3794 51.347 18.7676C50.97 18.1558 50.3058 18.1378 50.1801 18.1378C50.0544 18.1198 49.0312 18.1558 48.6721 19.5054Z" fill="#252211"/>
<path fill-rule="evenodd" clip-rule="evenodd" d="M60.3409 21.5566C60.1793 21.4846 60.323 20.9988 60.5025 20.8549C60.664 20.7109 60.8974 20.531 61.2744 20.513C61.418 20.495 61.5437 20.5849 61.5257 20.6749C61.4898 20.8369 61.2565 21.0888 61.041 21.2507C60.7359 21.5026 60.5384 21.6466 60.3409 21.5566Z" fill="#F7F7E7"/>
<path fill-rule="evenodd" clip-rule="evenodd" d="M51.1495 18.9475C51.2752 18.9295 51.4367 19.0374 51.4726 19.1814C51.5085 19.3253 51.4008 19.6312 51.1495 19.6312C50.952 19.6312 50.8623 19.3973 50.8623 19.3253C50.8623 19.2713 50.8802 19.2174 50.9161 19.1634C50.8982 19.1274 50.9341 18.9655 51.1495 18.9475Z" fill="#F8F6DE"/>
<path fill-rule="evenodd" clip-rule="evenodd" d="M49.3544 19.0376C49.3544 19.0376 49.0313 19.1815 48.8877 19.4874C48.7799 19.7214 48.744 19.9733 48.7979 20.2252C48.8158 20.3332 48.9415 20.6211 49.0133 20.729C49.0851 20.837 49.1928 20.891 49.2826 20.891C49.3724 20.891 49.516 20.675 49.516 20.5491C49.516 20.4231 49.5339 19.9013 49.6775 19.6134C49.8032 19.3255 49.3544 19.0376 49.3544 19.0376Z" fill="#D4C38B"/>
<path fill-rule="evenodd" clip-rule="evenodd" d="M49.3903 19.0195C49.3365 19.0554 49.2467 19.0914 49.2646 19.1634C49.2826 19.2174 49.4801 19.2534 49.5519 19.3973C49.6237 19.5413 49.6237 19.6852 49.6057 19.7572C49.6596 19.7212 49.7135 19.6852 49.7673 19.6492C49.875 19.5413 50.0007 19.3793 50.0904 19.3793C50.1623 19.3793 50.2341 19.4153 50.2879 19.4153C50.3956 19.4153 50.4854 19.3793 50.5033 19.2714C50.5213 19.1274 50.3059 19.0015 50.1802 19.0375C50.1982 18.9475 50.2341 18.8035 50.1263 18.7136C50.0186 18.6236 49.7134 18.7855 49.6416 18.8215C49.5698 18.8575 49.3903 19.0195 49.3903 19.0195Z" fill="#E2D59D"/>
<path fill-rule="evenodd" clip-rule="evenodd" d="M56.7147 28.7L57.3969 28.5021L57.5944 28.6461C57.5944 28.6461 57.738 28.934 57.9534 28.9699C57.8816 29.1139 57.7021 29.2399 57.72 29.3478C57.738 29.4558 57.8277 29.5278 57.8277 29.5278C57.8277 29.5278 57.2174 30.5354 58.4202 31.5611C58.1329 31.669 57.7739 31.831 57.5764 31.9209C57.72 31.9569 58.0073 32.0109 58.1329 32.1189C58.2586 32.2268 58.2586 32.2628 58.3663 32.3348C58.474 32.4068 58.5458 32.4967 58.5279 32.5327C58.4561 32.4787 58.1868 32.3528 58.1329 32.4787C58.0791 32.6047 57.0019 32.5507 57.0019 32.5507L55.1708 32.9106C55.1708 32.9106 55.2427 32.7307 55.0452 32.5507C54.8118 32.3528 54.5425 32.5687 54.2553 32.3348C53.8603 32.0469 53.8603 31.705 53.7347 31.5611C53.8603 31.4891 54.1117 31.3631 54.722 31.2911C54.7041 31.2372 54.6143 31.1112 54.6682 30.9853C54.722 30.8233 54.9554 30.7153 54.8836 30.5354C54.9913 30.5174 55.0272 30.5174 55.2786 30.1935C55.5119 29.8696 55.6735 29.7977 55.853 29.7797C56.0325 29.7617 56.1403 29.7797 56.4813 29.4558C56.7147 29.2219 56.6429 29.0419 56.6429 29.0419C56.6429 29.0419 56.7686 29.0239 56.7147 28.7Z" fill="#CBAC5A"/>
<path fill-rule="evenodd" clip-rule="evenodd" d="M54.704 28.8082C54.722 28.7542 54.7579 28.7362 54.9913 28.7542C55.2426 28.7722 56.8044 28.6103 57.2353 28.5923C57.6661 28.5563 59.192 28.5743 59.9281 28.7362C60.6641 28.8982 61.4181 29.0781 61.7771 29.1681C62.1362 29.276 62.2618 29.312 62.2439 29.348C62.2259 29.402 62.1541 29.438 62.1003 29.42C62.0464 29.402 60.8436 29.0421 60.4846 28.9701C60.1076 28.8982 58.8151 28.6822 58.1149 28.7002C57.4507 28.7182 57.1994 28.6822 56.6429 28.7542C56.0863 28.8262 55.1708 28.9162 54.8836 28.8802C54.6322 28.8622 54.6861 28.8622 54.704 28.8082Z" fill="#D6BC6F"/>
<path fill-rule="evenodd" clip-rule="evenodd" d="M58.4021 32.4248C58.4021 32.4248 59.3536 32.9287 59.6767 33.5585C59.928 34.0263 59.5331 34.2602 59.5331 34.2602C59.5331 34.2602 60.0717 34.2602 59.9999 34.5481C59.9639 34.7281 59.0843 35.2319 58.4919 35.5018C57.8815 35.7717 57.9174 35.7537 57.6122 35.7897C57.325 35.8437 56.5531 35.6997 56.3915 35.9336C56.2299 36.1676 56.3017 36.4015 56.3376 36.4375C56.3915 36.4735 56.7505 36.5094 56.7505 36.5094C56.7505 36.5094 56.6787 36.7254 55.9068 36.7434C55.1348 36.7614 54.9374 36.8153 54.9015 36.9053C54.8476 36.9773 55.0451 36.9413 55.4041 36.9953C55.7632 37.0493 56.2479 37.0852 56.2479 37.0852C56.2479 37.0852 56.0863 37.2292 55.6734 37.3372C55.1887 37.4631 54.4527 37.5711 54.2193 37.715C54.327 37.787 54.5065 37.913 54.5783 37.913C54.3809 37.9669 54.1116 38.0569 54.0757 38.0929C54.1475 38.1469 54.2372 38.2009 54.2372 38.2009C54.2372 38.2009 53.8423 38.6687 53.6269 38.7767C53.3935 38.8846 52.101 39.4964 51.6522 39.3884C50.5391 39.1005 50.3955 37.877 50.1262 37.787C49.7133 37.6431 49.5159 37.931 49.1568 37.733C49.3184 37.6251 49.4081 37.5531 49.5697 37.4631C49.3902 37.3731 48.4387 36.7614 48.4387 36.7614C48.331 36.5454 48.2233 36.3295 48.1156 36.1316C47.9361 35.8077 47.6668 35.3938 47.4514 35.016C47.0026 34.1882 46.9846 33.8104 46.5897 33.3605C46.6615 33.2706 46.8949 33.2886 46.8949 33.2886L50.2519 34.3862L56.194 34.5661L57.7379 32.3529L58.4021 32.4248Z" fill="#DFC677"/>
<path fill-rule="evenodd" clip-rule="evenodd" d="M49.5877 35.8077C49.6236 35.8437 49.6595 35.8796 49.7134 35.9156C49.8211 35.9876 50.0006 36.0776 50.1083 36.2215C50.1622 36.1495 50.2699 36.0236 50.4674 36.2215C50.6648 36.4195 50.9162 36.2755 51.0777 36.3295C51.2393 36.3835 51.2393 36.4015 51.2393 36.4015C51.2393 36.4015 51.3291 36.3295 51.5265 36.2395C51.6522 36.1855 51.7958 36.1675 51.9574 36.1136C52.101 36.0776 52.2626 36.0416 52.3703 36.0416C52.478 36.1136 52.837 36.4914 54.2912 35.9336C55.6735 35.3938 55.9786 35.3398 56.212 35.4298C56.23 35.3758 56.2659 35.2679 56.607 35.2858C56.607 35.1419 56.3197 34.6381 56.3197 34.6381L54.7041 34.0803H53.8244L51.1675 34.5661L49.6954 35.4118L49.5877 35.8077Z" fill="#C4A859"/>
<path fill-rule="evenodd" clip-rule="evenodd" d="M48.708 34.8722C48.708 34.8722 48.7439 35.1241 49.103 35.376C49.462 35.6459 49.5877 35.7899 49.5877 35.7899C49.5877 35.7899 49.6595 35.6999 49.7133 35.6099C49.7672 35.502 49.821 35.394 49.9108 35.358C50.0903 35.286 50.5212 35.43 50.6109 35.412C50.6827 35.394 50.6648 35.2321 50.7546 35.2321C50.952 35.2141 51.0777 35.358 51.1495 35.358C51.2213 35.358 51.3829 35.34 51.4188 35.304C51.4547 35.268 51.4547 34.8902 51.706 34.6922C51.9932 34.4943 52.3343 34.5843 52.442 34.6203C52.442 34.6922 52.46 34.8542 52.6395 34.8722C52.819 34.8902 52.837 34.8542 52.9986 34.9082C53.1601 34.9622 53.3576 34.8902 53.4474 35.1781C53.5192 35.1601 53.7166 35.1241 53.6628 34.8722C53.7525 34.8002 53.8244 34.7642 54.0218 34.4763C54.0757 34.4043 54.1475 34.3324 54.2013 34.2244C54.3629 34.2244 54.5604 34.1884 54.8117 34.4223C54.7399 34.4763 54.6861 34.5123 54.6681 34.5663C54.7399 34.6383 54.7938 34.7102 54.8476 34.7822C54.9194 34.8722 54.9553 34.9801 55.0451 35.0161C55.2426 35.0701 55.5478 34.9981 55.9068 35.0161C56.2479 35.0341 56.5351 35.1601 56.6608 35.2501C56.7146 35.2321 56.7146 35.2141 56.8223 35.2321C56.9301 35.2501 57.0198 35.268 56.8942 35.1241C56.966 35.1601 57.0378 35.2321 57.1096 35.1601C57.1814 35.0881 57.2352 34.9981 57.4327 34.9622C57.6302 34.9442 57.702 34.9801 57.7738 34.7642C57.8815 34.5123 57.5225 34.5123 57.5225 34.5123C57.5225 34.5123 57.684 34.3684 57.8636 34.1704C58.079 33.9725 58.3303 33.7026 58.3842 33.3787C58.4919 32.7849 57.8995 32.7129 57.8995 32.7129L55.081 33.5766L51.6522 33.4147L48.708 34.8722Z" fill="#927D49"/>
<path fill-rule="evenodd" clip-rule="evenodd" d="M46.1768 26.7209C46.1768 26.7209 46.0871 26.8288 46.0332 27.1167C45.9794 27.3867 45.9973 27.3507 45.9614 27.5486C45.9255 27.7465 45.351 29.6719 45.5665 30.3197C45.7819 30.9674 46.1409 31.2013 46.3743 31.7412C46.4282 31.8491 46.4641 31.9211 46.482 32.0291C46.5538 32.3709 46.5 32.6409 46.5897 32.9827C46.6256 33.0907 46.6974 33.2347 46.8231 33.3786C47.0924 33.6665 47.5412 33.9364 47.7387 34.1343C48.0079 34.4222 48.4029 34.998 48.8876 35.052C49.1569 35.088 49.5159 34.9801 49.839 34.7821C50.1083 34.6202 50.2878 34.3683 50.5751 34.2423C50.7726 34.1343 50.988 34.0984 51.1854 34.0624C51.5804 33.9904 51.9574 33.9724 52.1728 34.0084C52.4959 34.0804 53.2858 34.3143 53.7167 34.3143C54.0578 34.3143 54.3989 34.2603 54.722 34.1703C55.3862 33.9724 56.1761 33.6485 56.6967 33.5046C57.0019 33.4146 57.2532 33.3966 57.5046 33.3426C57.9354 33.2347 58.2945 33.1087 58.5099 32.8388C58.3663 32.6768 58.2047 32.4249 57.2891 32.4429C56.2479 32.4609 55.0451 33.0547 54.4527 33.1447C53.8603 33.2347 53.609 33.3066 52.9447 33.0727C52.2985 32.8388 52.2805 32.6768 52.2805 32.6768C52.2805 32.6768 51.5983 32.191 51.3111 30.9854C51.0239 29.7618 51.3111 28.8801 52.0471 28.0344C52.2446 27.8185 52.1908 27.6206 52.1908 27.6206C52.1908 27.6206 52.6755 26.9548 52.5498 26.343C52.4062 25.7312 51.4547 25.8572 51.4547 25.8572L46.1768 26.7209Z" fill="#6E6342"/>
<path fill-rule="evenodd" clip-rule="evenodd" d="M46.9667 28.772C46.9308 28.844 46.9129 28.934 46.9129 29.0239C46.9308 29.1499 46.9667 29.3118 47.3258 29.6717C47.6489 29.9956 47.5771 30.3375 47.5771 30.3375C47.5771 30.3375 47.7387 30.3735 48.1695 30.1576C48.5106 29.9956 48.6183 30.2835 48.6183 30.2835C48.726 30.2295 48.8337 30.1935 48.9415 30.1756C49.0492 30.1576 49.1389 30.1396 49.2287 30.0856C49.2287 30.0856 49.6236 30.4994 49.9827 30.6974C50.3058 30.8593 50.4853 30.9853 50.6469 30.8593C50.7905 30.7514 50.7905 30.5534 50.7905 30.4635C50.7546 30.3735 50.7008 30.3015 50.6469 30.2295C50.5392 30.0856 50.3776 29.9056 50.3776 29.7797C50.3597 29.4558 50.611 29.0779 50.5571 28.988C50.5033 28.898 50.2879 28.88 49.7852 29.0599C49.2466 29.2399 46.9667 28.772 46.9667 28.772Z" fill="#39331F"/>
<path fill-rule="evenodd" clip-rule="evenodd" d="M48.1695 30.8414C48.1695 30.8414 47.9002 30.5895 48.0079 29.3839C48.1156 29.3839 48.2233 29.4019 48.3311 29.4199C48.3311 29.4199 48.4747 30.3556 48.1695 30.8414Z" fill="#292311"/>
<path fill-rule="evenodd" clip-rule="evenodd" d="M46.3025 25.8033C46.3384 25.7673 46.3743 25.7493 46.4102 25.7133C46.3205 25.8753 45.9076 26.5591 46.2487 27.6387C46.5897 28.7003 47.4514 29.51 48.4927 29.546C49.5518 29.582 50.1083 29.0602 50.7367 28.2865C50.988 27.9806 51.2752 27.5847 51.5266 27.3328C51.9035 26.9189 52.1908 26.811 52.1908 26.4151C52.1908 25.6054 51.365 25.2455 50.1442 24.8676C48.9235 24.4898 47.8284 24.5437 47.254 24.7957C46.6975 25.0656 46.4461 25.3535 46.3025 25.8033Z" fill="#252211"/>
<path fill-rule="evenodd" clip-rule="evenodd" d="M50.216 31.2013L50.3058 31.1473C50.3058 31.1473 50.3237 30.7874 50.4674 30.7874C50.611 30.8054 50.6828 31.0033 50.6648 31.0753C50.6469 31.1473 50.611 31.2553 50.4674 31.2373C50.2878 31.2553 50.216 31.2013 50.216 31.2013Z" fill="#3F3824"/>
<path fill-rule="evenodd" clip-rule="evenodd" d="M49.8031 29.6537C49.8031 29.6537 49.8929 29.6177 50.0006 29.7257C50.0903 29.7257 50.4853 29.6717 50.6109 29.7617C50.7366 29.8336 50.7725 29.9056 50.7725 29.9056C50.7725 29.9056 50.3058 30.0136 50.0544 29.9056C49.8031 29.8156 49.8031 29.6537 49.8031 29.6537Z" fill="#2D2815"/>
<path fill-rule="evenodd" clip-rule="evenodd" d="M51.8496 29.7257C51.8496 29.7077 51.5983 29.5278 51.347 29.4738C51.2931 29.4558 51.2931 29.4918 51.2572 29.4918C51.2393 29.4738 51.2213 29.4198 51.2213 29.4198L51.0777 29.4918C51.0777 29.4918 51.0597 29.5278 51.1316 29.5817C51.2034 29.6357 51.3111 29.6897 51.347 29.7797C51.3829 29.8696 51.3829 29.9056 51.4008 29.9236C51.4188 29.9416 51.5624 29.9236 51.6522 29.8696C51.724 29.8337 51.8676 29.7437 51.8496 29.7257Z" fill="#82764F"/>
<path fill-rule="evenodd" clip-rule="evenodd" d="M49.5339 30.6616C49.5339 30.6616 49.5877 30.3377 49.8929 30.3377C50.2161 30.3197 50.2699 30.6256 50.2699 30.6256L50.0904 30.8055C50.0725 30.7875 49.9468 30.6076 49.5339 30.6616Z" fill="#2D2816"/>
<path fill-rule="evenodd" clip-rule="evenodd" d="M51.5266 29.2938C51.5266 29.2938 51.365 29.4737 50.988 29.5277C50.9521 29.4737 50.8803 29.3837 50.988 29.2398C51.0957 29.0959 51.2035 29.0419 51.3112 29.0959C51.4189 29.1138 51.5086 29.1858 51.5266 29.2938Z" fill="#574F35"/>
<path fill-rule="evenodd" clip-rule="evenodd" d="M52.2267 29.5099C52.2447 29.4559 52.2088 29.4559 52.2267 29.4379C52.2447 29.4199 52.3703 29.3659 52.3883 29.3839C52.4062 29.4019 52.3883 29.4379 52.3883 29.4739C52.3883 29.5099 52.3883 29.5638 52.3703 29.5998C52.3344 29.6538 52.2447 29.6718 52.2088 29.6538C52.1549 29.6358 52.1549 29.5818 52.1549 29.5638C52.1729 29.5638 52.2267 29.5459 52.2267 29.5099ZM53.0166 29.024C53.0166 29.006 53.0884 28.9521 53.1423 28.9521C53.2141 28.9521 53.2141 29.006 53.2141 29.024C53.232 29.042 53.232 29.006 53.2679 29.06C53.2859 29.096 53.3218 29.168 53.3038 29.222C53.2859 29.2759 53.1961 29.2939 53.1602 29.2939C53.1243 29.258 53.0166 29.042 53.0166 29.024Z" fill="#82764F"/>
<path fill-rule="evenodd" clip-rule="evenodd" d="M51.4369 29.6179C51.4369 29.6179 51.5448 29.6359 51.6707 29.7619C51.6167 29.7979 51.5628 29.8338 51.5628 29.8338C51.5628 29.8338 51.5448 29.7259 51.4369 29.6179Z" fill="#6E6342"/>
<path fill-rule="evenodd" clip-rule="evenodd" d="M51.2034 28.61C51.1854 28.592 51.2752 28.538 51.329 28.538C51.3829 28.556 51.4009 28.592 51.4727 28.592C51.5265 28.61 51.5445 28.574 51.5624 28.538C51.5804 28.5201 51.6701 28.5201 51.6701 28.538C51.6701 28.556 51.6881 28.556 51.6881 28.574C51.6881 28.538 51.706 28.5021 51.7419 28.4841C51.7778 28.4661 51.8317 28.4481 51.8676 28.4661C51.8856 28.5021 51.9215 28.61 51.9215 28.628C51.9215 28.646 51.7778 28.682 51.7599 28.664C51.7778 28.718 51.8856 28.8259 51.9035 28.8619C51.9215 28.8799 51.7958 28.9339 51.7599 28.9339C51.6701 28.9339 51.2752 28.7 51.2034 28.61ZM51.8138 27.8363C51.8138 27.8183 51.7958 27.8003 51.7599 27.7823C51.724 27.7643 51.6163 27.7823 51.6163 27.8363C51.6163 27.8903 51.706 28.1962 51.8138 28.3581C51.9215 28.5201 52.0112 28.646 52.083 28.682C52.1369 28.7 52.1907 28.682 52.2267 28.628C52.2446 28.61 52.2626 28.4301 52.2446 28.0342C52.2266 27.6384 52.2267 27.2425 52.1907 27.2245C52.1728 27.2065 52.083 27.2065 52.0471 27.2425C52.0292 27.3145 51.8138 27.7643 51.8138 27.8363Z" fill="#585136"/>
<path fill-rule="evenodd" clip-rule="evenodd" d="M51.401 30.2115C51.401 30.2115 51.2394 30.1035 51.0778 30.1755C50.9342 30.2475 50.9342 30.5174 50.9342 30.5174C51.006 30.5354 51.0778 30.5354 51.1317 30.4994C51.2394 30.4274 51.383 30.3015 51.401 30.2115Z" fill="#574F35"/>
<path fill-rule="evenodd" clip-rule="evenodd" d="M51.7061 30.5716C51.6881 30.4816 51.6163 30.4816 51.6163 30.4276C51.6343 30.3737 51.6702 30.3557 51.724 30.3557C51.7779 30.3557 51.8138 30.4097 51.8677 30.4456C51.9215 30.4816 52.0113 30.5356 52.0113 30.6076C52.0292 30.6796 51.9215 30.8775 51.8138 30.8775C51.7061 30.8775 51.724 30.6616 51.7061 30.5716ZM52.5857 30.4456C52.5857 30.4456 52.4062 30.4996 52.4242 30.4456C52.4421 30.3917 52.478 30.3737 52.5319 30.3737C52.5678 30.3377 52.6037 30.3197 52.6396 30.3197C52.6576 30.3197 52.6935 30.3197 52.7114 30.3377C52.7114 30.3377 52.8371 30.2837 52.873 30.3197C52.9089 30.3557 52.8909 30.3557 52.9089 30.3917C52.9448 30.4276 52.9627 30.4816 52.9627 30.5356C52.9627 30.5716 52.8191 30.6436 52.7114 30.6436C52.5857 30.6076 52.6216 30.4636 52.5857 30.4456ZM53.6629 30.2297C53.6629 30.2297 53.7167 30.2657 53.6808 30.3017C53.6449 30.3377 53.4833 30.3917 53.3577 30.4097C53.2141 30.4097 53.0884 30.4276 53.0884 30.3917C53.0884 30.3377 53.1961 30.2477 53.2679 30.2297C53.3038 30.1937 53.3397 30.1757 53.3756 30.1757C53.4295 30.1757 53.6449 30.1577 53.6988 30.1397C53.7526 30.1218 53.8065 30.1577 53.7706 30.2117C53.7706 30.2297 53.6629 30.2297 53.6629 30.2297ZM53.986 28.8082C53.986 28.8082 53.9142 28.9522 53.8424 28.9522C53.7706 28.9342 53.7706 28.9162 53.7706 28.8982C53.7706 28.8622 53.8424 28.7902 53.8424 28.7542C53.8244 28.7542 53.7706 28.7542 53.7706 28.7002C53.7706 28.6463 53.8424 28.5923 53.9142 28.6103C53.9681 28.5743 54.0399 28.5383 54.0937 28.5383C54.1655 28.5383 54.2373 28.5563 54.2373 28.6103C54.2373 28.6643 54.1476 28.7542 54.1117 28.7722C54.0758 28.8262 54.0219 28.8442 53.986 28.8082ZM52.9268 31.5433C52.9268 31.5433 52.8371 31.5613 52.8371 31.5972C52.8371 31.6152 52.855 31.6152 52.8909 31.6152C52.9089 31.6152 52.9268 31.6152 52.9448 31.5972C52.9627 31.6152 52.9627 31.6512 53.0166 31.6512C53.0704 31.6512 53.1243 31.6332 53.1782 31.5972C53.232 31.5793 53.2859 31.5433 53.2859 31.5073C53.2679 31.4353 53.2141 31.3993 53.1423 31.3993C53.1064 31.3993 53.0704 31.3993 53.0345 31.4173C53.0345 31.4173 53.0166 31.3633 52.9268 31.4173C52.855 31.4713 52.855 31.4713 52.873 31.4893C52.9448 31.5073 52.9268 31.5433 52.9268 31.5433ZM52.4062 32.0111C52.4062 31.9931 52.5139 31.9391 52.5498 31.9571C52.5857 31.9751 52.6755 32.1371 52.6755 32.1551C52.6755 32.173 52.5678 32.227 52.5139 32.227C52.4601 32.227 52.3883 32.1551 52.3883 32.1371C52.3883 32.1191 52.4421 32.1191 52.4421 32.1011C52.4601 32.1011 52.4062 32.0471 52.4062 32.0111ZM52.0472 31.3453C52.0651 31.3273 52.0651 31.3093 52.101 31.2913C52.119 31.2734 52.1549 31.2734 52.1728 31.2734C52.1908 31.2374 52.2267 31.2194 52.2447 31.2194C52.2985 31.2014 52.3524 31.2194 52.3344 31.2374C52.3344 31.3093 52.3883 31.3453 52.3883 31.3993C52.3883 31.4533 52.3524 31.5253 52.2447 31.5613C52.1369 31.5972 51.9754 31.5972 51.9574 31.5793C51.9395 31.5613 51.9036 31.4713 51.9395 31.4353C51.9395 31.4173 52.0113 31.3633 52.0472 31.3453Z" fill="#82764F"/>
<path fill-rule="evenodd" clip-rule="evenodd" d="M52.191 31.3812C52.191 31.3812 52.119 31.4352 52.119 31.4532C52.119 31.4712 52.1011 31.5071 52.1011 31.5251C52.1011 31.5431 52.209 31.5071 52.209 31.5071C52.227 31.4712 52.191 31.3992 52.191 31.3812Z" fill="#6E6342"/>
<path fill-rule="evenodd" clip-rule="evenodd" d="M51.5086 31.1654C51.5624 31.1834 51.6342 31.1654 51.6881 31.1834C51.742 31.2014 51.7599 31.2554 51.724 31.3094C51.6701 31.3633 51.6342 31.4533 51.5265 31.4353C51.4188 31.4173 51.2932 31.3633 51.2932 31.3274C51.2932 31.2734 51.3111 31.2014 51.347 31.1654C51.4009 31.1114 51.4368 31.1474 51.5086 31.1654Z" fill="#585136"/>
<path fill-rule="evenodd" clip-rule="evenodd" d="M51.4547 31.2012C51.4547 31.2012 51.3111 31.3091 51.2752 31.3631C51.2213 31.4171 51.0059 31.705 50.9341 31.759C50.9521 31.723 50.988 31.687 51.0059 31.651C50.9162 31.705 50.8443 31.795 50.8084 31.9029C50.7546 32.0649 51.1136 32.1728 51.347 32.2268C51.5804 32.2988 51.6701 32.3168 51.6701 32.3168C51.5804 32.1908 51.5086 32.0469 51.4368 31.9029C51.347 31.687 51.2931 31.669 51.365 31.561C51.4188 31.4531 51.4727 31.3991 51.4727 31.3091C51.4727 31.2552 51.4547 31.2012 51.4547 31.2012Z" fill="#574F35"/>
<path fill-rule="evenodd" clip-rule="evenodd" d="M46.2126 31.561C46.2486 31.561 46.2845 31.561 46.3204 31.561C46.3922 31.543 47.1102 31.2911 47.8642 31.3271C48.4207 31.3631 48.9773 31.4531 49.5158 31.597C50.4673 31.8489 51.6342 32.3348 52.3881 32.6227C52.5856 32.6947 52.7831 32.8386 52.9267 32.8926C53.5012 33.1265 53.5371 33.1265 53.8782 33.1805C54.2731 33.2345 54.686 33.1085 55.1169 33.0185C55.6375 32.9106 56.5351 32.8566 57.325 32.7306C57.5763 32.6946 57.8276 32.6407 58.0789 32.5687C58.0789 32.5687 57.4506 33.1985 55.9606 33.4144C55.3502 33.5044 54.7399 33.5224 54.1295 33.4324C53.6448 33.3784 53.3396 33.3244 53.0883 33.2525C52.819 33.1805 52.2625 32.9646 51.5803 32.8026C51.0956 32.6767 50.575 32.5867 49.9646 32.4787C48.4387 32.1908 46.7871 31.8849 46.2126 31.561Z" fill="#252211"/>
<path fill-rule="evenodd" clip-rule="evenodd" d="M44.5253 28.718C44.1662 29.0239 43.7713 29.3298 43.3943 29.5997L42.2633 30.4814C41.8684 30.7693 41.4914 31.0572 41.1144 31.3451C40.7194 31.633 40.3424 31.9029 39.9295 32.1729C40.2886 31.867 40.6835 31.5791 41.0605 31.2912C41.4555 31.0033 41.8504 30.7333 42.2274 30.4454L43.3584 29.5638C43.7533 29.2938 44.1303 28.988 44.5253 28.718ZM42.5146 31.9389C42.5146 31.9389 42.9275 31.597 43.4302 31.1112C44.0585 30.5174 44.8484 29.7617 45.0818 29.6177L42.5146 31.9389Z" fill="#CFB66C"/>
<path fill-rule="evenodd" clip-rule="evenodd" d="M42.5146 31.9391C42.7121 31.7412 42.9275 31.5433 43.143 31.3453L43.4661 31.0574C43.5738 30.9675 43.6815 30.8595 43.7892 30.7695C43.9867 30.5716 44.1842 30.3557 44.3996 30.1397C44.5073 30.0318 44.5971 29.9418 44.7227 29.8518C44.7766 29.7979 44.8484 29.7619 44.9023 29.7259C44.9561 29.6899 45.01 29.6359 45.0997 29.6179C45.0459 29.6899 44.992 29.7259 44.9561 29.7799C44.9023 29.8338 44.8484 29.8878 44.8125 29.9238C44.7048 30.0318 44.5971 30.1217 44.4894 30.2117C44.2739 30.3917 44.0406 30.5716 43.8251 30.7695C43.6097 30.9675 43.4123 31.1654 43.1968 31.3633C42.9455 31.5613 42.7301 31.7592 42.5146 31.9391ZM45.2613 30.1038C45.2613 30.1038 43.7533 31.5792 43.4482 31.8132L45.2613 30.1038Z" fill="#CFB66C"/>
<path fill-rule="evenodd" clip-rule="evenodd" d="M45.2614 30.1037C45.1177 30.2657 44.9741 30.4096 44.8305 30.5536L44.3817 30.9854C44.2381 31.1294 44.0945 31.2733 43.9329 31.4353C43.7713 31.5792 43.6277 31.7052 43.4482 31.8311L43.897 31.3993C44.0406 31.2553 44.2022 31.1294 44.3638 30.9854L44.8126 30.5536C44.9562 30.3916 45.0998 30.2297 45.2614 30.1037ZM45.3332 30.8955C45.1895 31.2733 45.028 31.6512 44.8485 32.0291C44.4535 32.8028 43.879 33.7745 43.6277 34.2603L45.3332 30.8955Z" fill="#CFB66C"/>
<path fill-rule="evenodd" clip-rule="evenodd" d="M45.3331 30.8954C45.3331 31.0573 45.2793 31.2193 45.2254 31.3632C45.1715 31.5072 45.1177 31.6511 45.0459 31.7951C44.9741 31.939 44.9023 32.083 44.8125 32.2089C44.7227 32.3349 44.6509 32.4788 44.5791 32.6228L44.1124 33.4505C43.9508 33.7204 43.7892 33.9903 43.6277 34.2602C43.7354 33.9723 43.897 33.6844 44.0406 33.4145C44.2021 33.1446 44.3458 32.8747 44.4894 32.5868C44.5612 32.4429 44.633 32.2989 44.6868 32.155C44.7587 32.011 44.8305 31.8671 44.8843 31.7411C44.9561 31.5971 45.01 31.4532 45.0818 31.3272C45.1536 31.1653 45.2254 31.0393 45.3331 30.8954Z" fill="#CFB66C"/>
<path fill-rule="evenodd" clip-rule="evenodd" d="M46.9668 34.6741C46.9668 34.6741 46.518 35.2859 46.5539 36.0416C46.6795 35.6457 46.8411 35.0339 46.9668 34.6741ZM47.3976 35.2859C47.3976 35.2859 47.2361 36.9233 47.1104 37.733C47.2899 36.7973 47.3258 36.8873 47.3976 35.2859ZM50.4136 37.823C50.4136 37.823 49.7314 39.8203 49.7134 40.3781C49.8571 39.8203 50.1443 38.6507 50.4136 37.823Z" fill="#DEC270"/>
<path fill-rule="evenodd" clip-rule="evenodd" d="M51.9932 34.548C51.9932 34.548 53.0883 36.3654 53.9321 37.9308C53.7166 37.1571 53.196 35.7176 51.9932 34.548Z" fill="#CBAF59"/>
<path fill-rule="evenodd" clip-rule="evenodd" d="M54.9733 37.2471C55.5837 38.3267 56.1223 39.4243 56.607 40.5579C56.5172 39.7662 56.2659 38.4347 54.9733 37.2471Z" fill="#E3C677"/>
<path fill-rule="evenodd" clip-rule="evenodd" d="M63.6979 39.9283C63.8775 39.8203 64.2365 39.1906 64.5596 39.0286C64.8828 38.8667 65.1162 38.8307 65.4034 38.5248C65.6906 38.2009 65.7624 37.985 66.3907 37.7331C67.2704 37.3552 66.66 36.8693 66.66 36.8693C66.7498 36.7794 66.8575 36.6894 66.9652 36.5994C67.1986 36.4375 67.4499 36.2216 67.432 35.8617C67.3961 35.2499 67.2883 34.3502 66.7857 33.8464C67.2704 33.7384 68.2039 33.6844 68.7784 33.5225C69.4426 33.3606 69.7657 33.1086 69.7657 33.1086C69.7657 33.1086 69.3708 32.4429 69.9991 31.7771C70.6274 31.1113 71.1301 30.7155 71.5071 29.9777C71.0762 29.9237 70.412 29.6898 68.7245 30.3376C68.8143 30.3736 68.904 30.4276 68.9938 30.4815C68.9938 30.4815 67.9526 30.7694 67.5756 31.0933C66.9114 31.6511 66.8395 32.101 66.1215 32.4429C65.4034 32.7848 64.6853 32.6948 64.0929 32.9647C63.5005 33.2346 63.4107 33.4685 63.1953 33.5765C63.2491 33.6305 63.1773 33.7204 63.2671 33.8104C63.2132 33.8824 62.8901 34.4222 62.567 34.4222C62.6029 34.5481 62.8721 34.6381 62.8721 34.6381C62.8721 34.6381 62.6747 34.7821 62.1541 34.8181C62.4233 35.088 62.6567 35.3939 63.3569 35.8257C63.303 35.9337 63.0696 36.1136 63.1594 36.3295C63.2671 36.5455 63.5184 36.8334 64.5776 37.0853C64.039 37.1033 63.4107 37.2292 62.5849 37.1213C61.7412 37.0133 61.5975 36.9593 61.0769 37.0853C61.1308 37.1393 61.2744 37.1393 61.4001 37.2832C61.2565 37.3012 60.3948 37.1752 60.1075 37.5711C59.8023 37.967 59.6587 38.6327 59.6946 39.0826C59.5331 39.1546 59.3715 39.2985 59.4613 39.5864C59.551 39.8743 59.946 39.9643 60.2152 40.1442C60.4845 40.3422 60.5025 40.4141 60.7538 40.3602C61.0231 40.3062 61.4001 40.0363 61.6335 40.0363C61.8668 40.0363 62.0284 40.1982 62.0284 40.1982C62.0284 40.1982 62.6388 39.9103 62.6926 39.9643C62.7465 40.0183 62.7106 40.3781 62.7644 40.4321C62.8183 40.4681 63.5005 40.0543 63.6979 39.9283Z" fill="#ECD592"/>
<path fill-rule="evenodd" clip-rule="evenodd" d="M77.0544 21.4848C74.1821 14.0353 67.0731 12.6678 67.0731 12.6678H46.8052L46.877 20.2432H50.9162V37.1754H46.8052V44.7328H66.5165C71.2738 44.7328 75.0797 39.9464 75.0797 39.9464C81.1834 31.2734 77.0544 21.4848 77.0544 21.4848ZM66.6243 34.8542C66.6243 34.8542 65.0804 37.0854 63.3929 37.0854H60.0358L59.964 20.2612H64.2905C64.2905 20.2612 66.2832 20.675 67.6834 24.6517C67.6655 24.6517 69.5145 30.3377 66.6243 34.8542Z" fill="white" fill-opacity="0.8"/>
<path d="M36.502 73.7832C35.5047 73.2686 34.3683 73.0076 33.1081 73.0076C31.848 73.0076 30.7116 73.2686 29.6988 73.7832C28.7015 74.2978 27.9052 75.0138 27.3254 75.9237C26.7533 76.8335 26.475 77.8627 26.475 79.0038C26.475 80.1449 26.7611 81.1741 27.3254 82.0839C27.9052 82.9938 28.6938 83.7098 29.6988 84.2244C30.7116 84.739 31.848 85 33.1081 85C34.3683 85 35.5047 84.739 36.502 84.2244C37.5148 83.7098 38.3033 82.9938 38.8754 82.0839C39.4552 81.1741 39.749 80.1449 39.749 79.0038C39.749 77.8627 39.4552 76.8335 38.8754 75.9237C38.3033 75.0138 37.5148 74.2978 36.502 73.7832ZM35.9067 80.7266C35.6207 81.2188 35.2342 81.6066 34.7471 81.8751C34.2601 82.1511 33.7112 82.2853 33.1081 82.2853C32.5051 82.2853 31.9562 82.1511 31.4692 81.8751C30.9821 81.5992 30.5956 81.2188 30.3095 80.7266C30.0235 80.2194 29.8843 79.6452 29.8843 78.9963C29.8843 78.3475 30.0235 77.7807 30.3095 77.2885C30.5956 76.7813 30.9821 76.3935 31.4692 76.1176C31.9562 75.8416 32.5051 75.7074 33.1081 75.7074C33.7112 75.7074 34.2601 75.8416 34.7471 76.1176C35.2342 76.3935 35.6207 76.7813 35.9067 77.2885C36.1928 77.7807 36.3319 78.355 36.3319 78.9963C36.3319 79.6377 36.1928 80.2269 35.9067 80.7266Z" fill="#4D4D4D"/>
<path d="M47.7196 75.7072C48.8483 75.7072 49.8146 76.1323 50.6187 76.99L52.7679 75.1106C52.1803 74.4319 51.4381 73.9099 50.5491 73.5444C49.66 73.179 48.6627 73 47.5495 73C46.2739 73 45.1297 73.261 44.117 73.7756C43.1042 74.2828 42.3157 74.9913 41.7436 75.9011C41.1715 76.811 40.8932 77.8402 40.8932 78.9962C40.8932 80.1522 41.1792 81.1814 41.7436 82.0913C42.3157 83.0011 43.0965 83.7171 44.1015 84.2317C45.0988 84.7388 46.2275 84.9924 47.4799 84.9924C48.369 84.9924 49.2503 84.8656 50.1393 84.612C51.0284 84.3585 51.8092 84.0005 52.4973 83.5232V78.7501H49.5131V81.9123C48.9411 82.1658 48.338 82.2926 47.6886 82.2926C47.0315 82.2926 46.444 82.1584 45.9337 81.8824C45.4235 81.599 45.0215 81.2112 44.7432 80.7115C44.4571 80.2044 44.318 79.6376 44.318 79.0037C44.318 78.0043 44.6272 77.2063 45.2534 76.6171C45.8719 76.013 46.6991 75.7072 47.7196 75.7072Z" fill="#4D4D4D"/>
<path d="M22.1225 73.9471C21.1097 73.4773 19.9501 73.2386 18.6436 73.2386H13V84.7612H18.6436C19.9501 84.7612 21.1097 84.5225 22.1225 84.0527C23.1352 83.5828 23.9161 82.9116 24.4804 82.0465C25.037 81.1814 25.3154 80.1671 25.3154 79.0036C25.3154 77.8402 25.037 76.8259 24.4804 75.9608C23.9161 75.0882 23.1275 74.417 22.1225 73.9471ZM20.9628 81.3231C20.3521 81.8824 19.5326 82.1658 18.5044 82.1658H16.3707V75.8489H18.5044C19.5249 75.8489 20.3444 76.1323 20.9628 76.6917C21.5891 77.251 21.8983 78.0266 21.8983 79.0111C21.8983 79.9955 21.5813 80.7637 20.9628 81.3231Z" fill="#4D4D4D"/>
<path d="M96.2389 73.2386H92.8605V84.7612H96.2389V73.2386Z" fill="#4D4D4D"/>
<path d="M87.8509 73.7832C86.8536 73.2686 85.7172 73.0076 84.4571 73.0076C83.1969 73.0076 82.0605 73.2686 81.0477 73.7832C80.0504 74.2978 79.2541 75.0138 78.6743 75.9237C78.1022 76.8335 77.8239 77.8627 77.8239 79.0038C77.8239 80.1449 78.11 81.1741 78.6743 82.0839C79.2541 82.9938 80.0427 83.7098 81.0477 84.2244C82.0605 84.739 83.1969 85 84.4571 85C85.7172 85 86.8536 84.739 87.8509 84.2244C88.8637 83.7098 89.6522 82.9938 90.2243 82.0839C90.8041 81.1741 91.0979 80.1449 91.0979 79.0038C91.0979 77.8627 90.8041 76.8335 90.2243 75.9237C89.6522 75.0138 88.8637 74.2978 87.8509 73.7832ZM87.2479 80.7266C86.9619 81.2188 86.5753 81.6066 86.0883 81.8751C85.6012 82.1511 85.0523 82.2853 84.4493 82.2853C83.8463 82.2853 83.2974 82.1511 82.8104 81.8751C82.3233 81.5992 81.9368 81.2188 81.6507 80.7266C81.3647 80.2194 81.2255 79.6452 81.2255 78.9963C81.2255 78.3475 81.3647 77.7807 81.6507 77.2885C81.9368 76.7813 82.3233 76.3935 82.8104 76.1176C83.2974 75.8416 83.8463 75.7074 84.4493 75.7074C85.0523 75.7074 85.6012 75.8416 86.0883 76.1176C86.5753 76.3935 86.9619 76.7813 87.2479 77.2885C87.534 77.7807 87.6731 78.355 87.6731 78.9963C87.6731 79.6377 87.534 80.2269 87.2479 80.7266Z" fill="#4D4D4D"/>
<path d="M57.9862 80.1372H63.2896V77.6985H57.9862V75.7594H64.0086V73.2386H54.6387V84.7612H64.2251V82.2404H57.9862V80.1372Z" fill="#4D4D4D"/>
<path d="M106.691 73.2386V79.3765L101.419 73.2386H98.6433V84.7612H101.952V78.6233L107.217 84.7612H110V73.2386H106.691Z" fill="#4D4D4D"/>
<path d="M70.4717 76.1176C70.982 75.8416 71.5618 75.7074 72.2112 75.7074C73.3167 75.7074 74.2522 76.1549 75.0252 77.0573L77.1744 75.1779C76.5946 74.4768 75.8679 73.9398 74.9943 73.5669C74.1207 73.194 73.1312 73.0076 72.0411 73.0076C70.7887 73.0076 69.6677 73.2686 68.6627 73.7832C67.6731 74.2904 66.8923 74.9989 66.3279 75.9087C65.7559 76.8186 65.4776 77.8478 65.4776 79.0038C65.4776 80.1598 65.7636 81.189 66.3279 82.0989C66.9 83.0087 67.6731 83.7247 68.6627 84.2393C69.66 84.7464 70.7887 85 72.0411 85C73.1312 85 74.113 84.8136 74.9943 84.4407C75.8679 84.0678 76.5946 83.5308 77.1744 82.8297L75.0252 80.9503C74.2522 81.8527 73.3167 82.3002 72.2112 82.3002C71.5618 82.3002 70.982 82.166 70.4717 81.89C69.9692 81.6141 69.5827 81.2337 69.2966 80.7415C69.026 80.2344 68.8869 79.6601 68.8869 79.0113C68.8869 78.3624 69.026 77.7956 69.2966 77.3034C69.5749 76.7813 69.9692 76.3935 70.4717 76.1176Z" fill="#4D4D4D"/>
</svg>
