<svg width="230" height="171" viewBox="0 0 230 171" fill="none" xmlns="http://www.w3.org/2000/svg">
<path d="M204.998 40.1649H114.998C111.72 40.1649 108.473 40.8135 105.446 42.0735C102.418 43.3335 99.6689 45.1802 97.3554 47.5075C95.042 49.8348 93.2099 52.5969 91.9645 55.6353C90.719 58.6738 90.0847 61.9287 90.0979 65.2134V125.33C90.0978 131.956 92.718 138.312 97.3848 143.007C102.052 147.701 108.385 150.352 114.998 150.378H176.698L201.998 169.415C202.852 170.087 203.912 170.441 204.998 170.417C205.758 170.407 206.508 170.237 207.198 169.916C208.032 169.494 208.735 168.85 209.228 168.055C209.722 167.26 209.988 166.344 209.998 165.408V149.878C215.645 148.761 220.729 145.712 224.378 141.251C228.027 136.791 230.014 131.197 229.998 125.43V65.2134C230.024 61.9166 229.396 58.6473 228.149 55.5963C226.902 52.5452 225.062 49.7732 222.735 47.4419C220.408 45.1106 217.642 43.2666 214.596 42.0172C211.551 40.7678 208.288 40.1382 204.998 40.1649ZM194.998 120.32H124.998C123.672 120.32 122.4 119.792 121.462 118.853C120.525 117.913 119.998 116.639 119.998 115.311C119.998 113.982 120.525 112.708 121.462 111.768C122.4 110.829 123.672 110.301 124.998 110.301H194.998C196.324 110.301 197.596 110.829 198.533 111.768C199.471 112.708 199.998 113.982 199.998 115.311C199.998 116.639 199.471 117.913 198.533 118.853C197.596 119.792 196.324 120.32 194.998 120.32ZM194.998 100.281H124.998C123.672 100.281 122.4 99.7536 121.462 98.8141C120.525 97.8746 119.998 96.6003 119.998 95.2717C119.998 93.943 120.525 92.6688 121.462 91.7293C122.4 90.7898 123.672 90.262 124.998 90.262H194.998C196.324 90.262 197.596 90.7898 198.533 91.7293C199.471 92.6688 199.998 93.943 199.998 95.2717C199.998 96.6003 199.471 97.8746 198.533 98.8141C197.596 99.7536 196.324 100.281 194.998 100.281ZM194.998 80.2425H124.998C123.672 80.2425 122.4 79.7147 121.462 78.7752C120.525 77.8357 119.998 76.5615 119.998 75.2328C119.998 73.9042 120.525 72.6299 121.462 71.6904C122.4 70.7509 123.672 70.2231 124.998 70.2231H194.998C196.324 70.2231 197.596 70.7509 198.533 71.6904C199.471 72.6299 199.998 73.9042 199.998 75.2328C199.998 76.5615 199.471 77.8357 198.533 78.7752C197.596 79.7147 196.324 80.2425 194.998 80.2425Z" fill="#222226"/>
<path d="M35 60.3042H80.6C81.671 52.7131 85.1815 45.6784 90.6 40.2654H35C33.6739 40.2654 32.4021 39.7376 31.4645 38.7981C30.5268 37.8586 30 36.5843 30 35.2557C30 33.927 30.5268 32.6528 31.4645 31.7133C32.4021 30.7738 33.6739 30.246 35 30.246H130V25.136C130 21.8513 129.353 18.5989 128.095 15.5655C126.837 12.5321 124.994 9.77737 122.672 7.45938C120.349 5.1414 117.592 3.30581 114.56 2.05794C111.527 0.810078 108.278 0.17451 105 0.187701H25C21.7217 0.17451 18.473 0.810078 15.4405 2.05794C12.4079 3.30581 9.65114 5.1414 7.32836 7.45938C5.00558 9.77737 3.16251 12.5321 1.90492 15.5655C0.64733 18.5989 -2.64371e-05 21.8513 8.09759e-10 25.136V75.2331C0.00302843 80.9954 1.99675 86.579 5.64253 91.0354C9.28832 95.4919 14.3614 98.5466 20 99.6805V115.311C20.0095 116.247 20.2757 117.163 20.7695 117.958C21.2633 118.753 21.9657 119.397 22.8 119.82C23.4899 120.14 24.2396 120.311 25 120.321C26.0855 120.344 27.1455 119.99 28 119.319L53.3 100.282H80.1V70.2234H35C33.6739 70.2234 32.4021 69.6956 31.4645 68.7561C30.5268 67.8166 30 66.5424 30 65.2137C30.0262 63.9025 30.5645 62.6539 31.4994 61.7359C32.4342 60.818 33.6911 60.3039 35 60.3042Z" fill="#222226"/>
</svg>
