<svg width="167" height="90" viewBox="0 0 167 90" fill="none" xmlns="http://www.w3.org/2000/svg">
<path d="M104.051 48.6495C102.757 48.301 101.506 47.8456 100.184 47.3645C99.5683 47.1405 98.931 46.9084 98.2478 46.6706C96.581 46.0921 96.4475 45.2961 96.4368 45.1772L97.4013 41.9127C97.4669 41.9113 97.525 41.8998 97.5755 41.8631C97.6569 41.8188 97.7149 41.7708 97.7603 41.7352C97.8283 41.6797 97.9131 41.6098 98.6803 41.8365C99.4839 42.0739 101.321 42.7195 102.344 43.0833C102.758 43.2299 103.073 43.3429 103.202 43.39C103.404 43.6718 103.562 44.0917 103.396 44.6556C103.058 45.7988 103.053 46.484 100.78 46.744C100.73 46.6851 100.585 47.0281 101.26 47.1461C101.935 47.2636 102.842 46.8215 103.222 46.5125C103.602 46.2034 104.624 44.9966 104.698 44.8188L105.427 44.8318C105.427 44.8318 106.165 44.7657 106.505 44.4038L106.605 44.4398L106.11 46.1166C106.11 46.1166 105.55 47.0444 105.524 48.1013C105.518 48.3367 105.56 48.462 105.635 48.5616C105.309 48.7491 104.828 48.8581 104.051 48.6495ZM35.3071 18.2754L35.4974 18.3316C35.6926 18.3893 35.8976 18.2778 35.9551 18.0831C36.0006 17.9292 35.939 17.7723 35.8163 17.6829L35.8233 17.6594L45.6081 20.5504L47.7026 21.1692L47.4927 21.8798L35.3059 18.2792L35.3071 18.2754ZM17.1076 12.9024C17.483 12.6411 17.8815 12.3584 17.8815 12.3584L18.6262 12.5784L29.0181 15.6487C29.0371 15.669 29.0548 15.6919 29.0763 15.7077L29.069 15.7321L29.9216 15.984C29.8065 16.0188 29.7083 16.1024 29.6716 16.2266C29.6141 16.4213 29.7256 16.6263 29.9212 16.6841L32.8314 17.5439C32.8314 17.5439 32.8315 17.5471 32.8312 17.548L17.1076 12.9024ZM15.9344 6.79207C16.0972 6.24111 16.6767 5.92591 17.2272 6.08855L19.1419 6.65425L19.5599 8.94873L16.6373 8.08523C16.0868 7.92259 15.7719 7.34207 15.9344 6.79207ZM36.822 14.0479L36.9247 13.7002L42.9915 15.4927L46.9086 16.65L47.0201 16.8513L46.3295 17.9533L36.5869 15.0748L36.7311 14.5867L36.6683 14.5681L36.822 14.0479ZM50.5311 17.9236L50.5309 17.9246L52.3055 18.4489L52.3338 18.4484C53.501 18.4491 54.543 18.5891 55.5193 18.8776C56.5665 19.187 57.297 19.5963 57.884 19.9245C58.2486 20.1287 58.5358 20.2897 58.799 20.3675L61.2795 21.1003L61.3088 21.1001C62.3658 21.0923 63.3235 21.2126 64.155 21.4582C65.0905 21.7346 65.691 22.1107 66.1296 22.3858C66.3275 22.5099 66.488 22.6022 66.6381 22.6658C66.3726 22.6395 66.2585 22.807 66.1871 22.9127C66.0971 23.0461 65.9957 23.1971 65.2932 22.9895L62.0498 22.0312C61.7703 21.9486 61.769 21.9019 61.7665 21.8308C61.7586 21.586 61.6648 21.4076 61.2179 21.2755L57.3952 20.1461C56.9488 20.0142 56.7721 20.1127 56.6329 20.314C56.5922 20.3724 56.5657 20.4109 56.2857 20.3282L53.1885 19.4131C52.909 19.3305 52.9077 19.2837 52.9057 19.2128C52.8972 18.9678 52.8034 18.7895 52.3565 18.6574L50.7233 18.1749L50.1676 18.0143L49.876 19.0011L49.2191 18.8071L49.5645 17.638L50.5311 17.9236ZM161.857 58.8089C161.732 58.3993 161.343 58.0579 160.553 57.6661C160.031 57.4092 159.048 56.9222 157.776 56.2924C152.26 53.5611 141.992 48.4758 139.285 47.2687C138.619 46.9724 138.033 46.7507 137.49 46.5905C136.283 46.2338 135.551 46.265 134.905 46.2923C134.506 46.3094 134.16 46.3244 133.734 46.2491C133.501 46.2079 133.23 46.1424 132.932 46.0544C131.672 45.6822 130.272 45.0184 130.141 44.9549C129.937 44.8379 126.828 43.0525 125.802 42.4634C125.466 42.2711 125.167 42.1355 124.91 42.0596C124.427 41.9169 124.192 42.0135 124.096 42.0846L124.031 42.1326L123.995 42.205C123.995 42.206 123.991 42.2128 123.99 42.2169C123.133 41.8089 121.874 41.2201 121.874 41.2201L121.102 40.6522C121.498 39.1167 120.037 37.3797 119.547 37.0895C119.588 37.039 119.625 36.9795 119.65 36.8951C119.807 36.3638 119.028 33.8543 117.228 33.3225L81.8564 22.8718L81.8796 22.7932L81.5419 22.3602L80.9296 22.1793L80.9458 22.1247L82.7396 22.6547L83.107 21.4113C83.204 21.0828 83.2156 21.0013 82.8819 20.9027C82.3717 20.7519 81.787 21.4566 81.787 21.4566L80.792 21.1627C80.8222 20.7993 80.6375 20.4664 80.3244 20.3738C80.0117 20.2815 79.6752 20.4605 79.5036 20.782L79.318 20.7272C78.6412 19.7165 77.0149 19.8121 77.0149 19.8121L76.2703 19.5921L76.1338 19.3427L75.0319 19.0171C74.6848 17.9386 73.8691 18.6736 73.8691 18.6736L72.8895 18.3841L72.7977 18.6949L72.509 18.6096L72.5083 18.612C72.4311 18.4515 72.3131 18.3249 72.0839 18.2572C71.1048 17.9679 70.791 18.4299 70.5739 19.1645L70.4762 19.4954C70.4239 19.4377 70.3541 19.3879 70.2659 19.3618C70.1614 19.331 70.0575 19.3367 69.9741 19.37L70.0582 19.0856C70.1468 18.7855 70.1545 18.6324 69.7465 18.5118L69.406 18.4112C69.3986 18.3887 69.3986 18.3658 69.3875 18.3432C69.2836 18.1269 69.0444 17.9765 68.5865 17.8412C68.0197 17.6737 64.5865 16.7297 60.9517 15.7304C57.41 14.7564 53.7477 13.7495 53.1627 13.5766C52.7748 13.462 52.4417 13.483 52.1646 13.6269L51.7153 13.4941C51.3614 13.3896 50.5959 13.1801 50.3226 14.105L50.3708 13.942L37.9112 10.2608C37.7381 10.2096 37.5736 10.1751 37.4149 10.1512C37.3629 10.1436 37.3143 10.1423 37.2638 10.1367C37.1594 10.1267 37.0561 10.1181 36.9574 10.1187C36.9021 10.1185 36.8488 10.1226 36.7956 10.1262C36.7058 10.1319 36.6178 10.1404 36.5327 10.1548C36.4808 10.163 36.4304 10.1731 36.38 10.1848C36.2957 10.2037 36.2136 10.2274 36.1332 10.2542C36.0888 10.2687 36.0438 10.2831 36.0008 10.3001C35.9135 10.3342 35.8294 10.3735 35.7461 10.4156C35.7137 10.4316 35.6802 10.4462 35.6485 10.4635C35.4147 10.5914 35.1946 10.747 34.9819 10.9198C34.9762 10.9249 34.9707 10.9295 34.9645 10.9345C34.8606 11.02 34.7576 11.109 34.6559 11.2009L34.6452 11.2108C34.3078 11.5162 33.9797 11.8468 33.6317 12.1527C33.6141 12.1684 33.5957 12.1828 33.5781 12.1984C33.4111 12.3435 33.2389 12.4819 33.0587 12.608C33.0481 12.6158 33.0378 12.6243 33.0273 12.6316C32.9716 12.6699 32.9133 12.7032 32.8563 12.7391C32.5636 12.9216 32.2472 13.0679 31.8957 13.1581L31.783 13.1248L31.7669 13.1283C31.2062 13.2489 30.6094 13.2113 29.9405 13.0136L29.8777 12.9951L29.8626 13.0464C29.836 13.0479 29.8087 13.0576 29.7812 13.0641L20.1297 10.2125L20.3511 9.46299L19.2557 3.68377C19.466 3.60723 19.6937 3.29704 19.8156 2.88466C19.9694 2.36391 19.8964 1.88405 19.6538 1.81237L19.0175 1.62437L18.9906 1.61643L17.952 1.30957L17.7669 1.25488L17.2889 1.11364C17.0462 1.04195 16.7241 1.40507 16.5703 1.92582C16.4511 2.32909 16.4695 2.70625 16.5962 2.88967L16.5296 2.86998L16.5208 2.94717C16.5185 2.96734 16.2887 4.96979 15.5542 6.28246C15.5467 6.27971 15.54 6.27773 15.5347 6.27617C15.4436 6.24925 15.2936 6.23101 15.2871 6.23013L15.2326 6.22394L14.8695 7.45292C14.8401 7.54173 14.1553 8.35243 13.5459 8.17237L13.5201 8.25964L12.6671 8.0076L12.5956 7.98649C12.1717 7.86125 11.6574 8.33858 11.4464 9.05257C11.2356 9.76608 11.4081 10.4458 11.832 10.571L11.9034 10.5922L13.4134 11.0383C13.4134 11.0383 14.3363 11.4439 14.5229 12.7639C14.58 12.7807 15.2733 13.2682 16.2511 13.3256C16.3967 13.378 16.5485 13.4291 16.7106 13.477L32.9453 18.2736C33.072 18.6582 33.3382 19.0841 33.8954 19.2488L34.467 19.4176C34.467 19.4176 34.6953 18.8938 35.0899 19.0104L35.1179 18.9155L48.7504 22.9433C48.6481 23.9245 49.4514 24.1634 50.69 24.5293C51.1805 24.6743 51.9443 25.0183 52.9108 25.4529C54.7282 26.272 57.4751 27.5095 60.8724 28.5133C65.6603 29.9279 68.6581 31.2004 70.3067 32.5186C70.6607 32.8432 71.1 33.0027 71.4831 33.1159C71.6749 33.1726 71.8719 33.2224 72.0795 33.2749C72.2969 33.3297 72.5211 33.3861 72.7484 33.4532C72.9479 33.5122 73.1135 33.5022 73.2551 33.4236C73.3144 33.3905 73.3621 33.3436 73.4072 33.2918C73.8328 33.367 74.1304 33.2771 74.3371 33.1036L74.4601 33.1847L74.499 33.1978C74.574 33.2246 77.6993 34.3232 81.4025 35.6259L82.245 36.8524C82.0395 37.4032 81.0552 39.8047 78.5447 42.6797C75.9126 45.6945 71.0153 49.8627 62.6342 52.5965L62.5901 52.6152C62.388 52.726 62.4314 52.902 62.5473 53.3742C62.6148 53.6486 62.7212 54.0491 62.8636 54.5625C63.1018 55.4238 63.4447 56.619 63.8822 58.1152C64.6273 60.6596 65.3995 63.2287 65.4075 63.2545L65.4765 63.4866L65.7138 63.4352C65.7623 63.4246 70.6238 62.3349 76.4993 58.8827C81.4804 55.9572 88.1473 50.7227 92.7689 42.0946C93.0576 42.1533 93.5034 42.2892 93.6664 42.5897L93.7546 42.6158C93.4801 43.568 93.2909 44.5559 93.7514 44.9276L93.7481 44.9266C93.7481 44.9266 93.538 46.5272 93.7382 47.1041L94.1146 47.2153L94.3478 46.426C94.3478 46.426 94.1572 45.9364 94.5566 45.7192L94.7276 45.7546L94.8713 45.2684L94.866 45.2668C95.0517 45.219 95.2117 45.0233 95.4182 45.4712C95.4095 45.4832 95.5027 45.5154 95.6302 45.5531C95.7698 46.0688 96.2628 46.9235 97.9586 47.5121C98.6367 47.7474 99.2697 47.9782 99.8832 48.2012C101.016 48.613 102.095 49.0069 103.204 49.3346C103.408 49.3948 103.612 49.4525 103.819 49.5079C104.986 49.822 105.726 49.5625 106.195 49.2403C106.44 49.6973 106.697 50.5396 106.864 52.2835C107.276 56.5757 107.82 59.6059 107.613 61.7628C107.408 63.9199 107.004 64.5551 110.276 65.1669C113.547 65.7793 115.278 63.8053 115.521 62.7232C115.763 61.6414 114.919 56.5121 114.824 54.3992C114.73 52.2863 114.836 51.3411 115.59 50.5435C116.156 49.9435 116.899 48.7755 116.967 48.1559L117.16 48.2251L117.87 47.5161C118.397 47.824 119.511 48.4717 120.147 48.8141C120.317 48.9053 120.455 48.9869 120.581 49.0594C120.481 49.9533 121.837 50.9826 123.914 52.5598C124.554 53.0455 125.279 53.5962 126.032 54.1964C129.114 56.6556 147.62 72.7828 149.808 75.0876C150.383 75.6939 150.943 76.0792 151.472 76.2356C152.66 76.5866 153.68 75.8193 154.348 74.0661C155.407 71.0772 160.87 61.2546 161.431 60.2837C161.75 59.7297 162.003 59.2915 161.857 58.8089Z" fill="#626262"/>
</svg>
