<svg width="230" height="171" viewBox="0 0 230 171" fill="none" xmlns="http://www.w3.org/2000/svg">
<path d="M204.998 40.1659H114.998C111.72 40.1658 108.473 40.8144 105.446 42.0745C102.418 43.3345 99.6689 45.1811 97.3554 47.5084C95.042 49.8357 93.2099 52.5979 91.9645 55.6363C90.719 58.6748 90.0847 61.9297 90.0979 65.2144V125.331C90.0978 131.957 92.718 138.313 97.3848 143.008C102.052 147.702 108.385 150.353 114.998 150.379H176.698L201.998 169.416C202.852 170.087 203.912 170.442 204.998 170.418C205.758 170.408 206.508 170.238 207.198 169.917C208.032 169.495 208.735 168.851 209.228 168.056C209.722 167.261 209.988 166.345 209.998 165.409V149.878C215.645 148.762 220.729 145.713 224.378 141.252C228.027 136.792 230.014 131.198 229.998 125.431V65.2144C230.024 61.9175 229.396 58.6483 228.149 55.5972C226.902 52.5462 225.062 49.7742 222.735 47.4429C220.408 45.1116 217.642 43.2675 214.596 42.0182C211.551 40.7688 208.288 40.1392 204.998 40.1659ZM194.998 120.321H124.998C123.672 120.321 122.4 119.793 121.462 118.854C120.525 117.914 119.998 116.64 119.998 115.311C119.998 113.983 120.525 112.709 121.462 111.769C122.4 110.83 123.672 110.302 124.998 110.302H194.998C196.324 110.302 197.596 110.83 198.533 111.769C199.471 112.709 199.998 113.983 199.998 115.311C199.998 116.64 199.471 117.914 198.533 118.854C197.596 119.793 196.324 120.321 194.998 120.321ZM194.998 100.282H124.998C123.672 100.282 122.4 99.7546 121.462 98.8151C120.525 97.8756 119.998 96.6013 119.998 95.2727C119.998 93.944 120.525 92.6698 121.462 91.7303C122.4 90.7907 123.672 90.2629 124.998 90.2629H194.998C196.324 90.2629 197.596 90.7907 198.533 91.7303C199.471 92.6698 199.998 93.944 199.998 95.2727C199.998 96.6013 199.471 97.8756 198.533 98.8151C197.596 99.7546 196.324 100.282 194.998 100.282ZM194.998 80.2435H124.998C123.672 80.2435 122.4 79.7157 121.462 78.7762C120.525 77.8367 119.998 76.5625 119.998 75.2338C119.998 73.9052 120.525 72.6309 121.462 71.6914C122.4 70.7519 123.672 70.2241 124.998 70.2241H194.998C196.324 70.2241 197.596 70.7519 198.533 71.6914C199.471 72.6309 199.998 73.9052 199.998 75.2338C199.998 76.5625 199.471 77.8367 198.533 78.7762C197.596 79.7157 196.324 80.2435 194.998 80.2435Z" fill="#EBEBEB"/>
<path d="M35 60.3042H80.6C81.671 52.7131 85.1815 45.6784 90.6 40.2654H35C33.6739 40.2654 32.4021 39.7376 31.4645 38.7981C30.5268 37.8586 30 36.5843 30 35.2557C30 33.927 30.5268 32.6528 31.4645 31.7133C32.4021 30.7738 33.6739 30.246 35 30.246H130V25.136C130 21.8513 129.353 18.5989 128.095 15.5655C126.837 12.5321 124.994 9.77737 122.672 7.45938C120.349 5.1414 117.592 3.30581 114.56 2.05794C111.527 0.810078 108.278 0.17451 105 0.187701H25C21.7217 0.17451 18.473 0.810078 15.4405 2.05794C12.4079 3.30581 9.65114 5.1414 7.32836 7.45938C5.00558 9.77737 3.16251 12.5321 1.90492 15.5655C0.64733 18.5989 -2.64371e-05 21.8513 8.09759e-10 25.136V75.2331C0.00302843 80.9954 1.99675 86.579 5.64253 91.0354C9.28832 95.4919 14.3614 98.5466 20 99.6805V115.311C20.0095 116.247 20.2757 117.163 20.7695 117.958C21.2633 118.753 21.9657 119.397 22.8 119.82C23.4899 120.14 24.2396 120.311 25 120.321C26.0855 120.344 27.1455 119.99 28 119.319L53.3 100.282H80.1V70.2234H35C33.6739 70.2234 32.4021 69.6956 31.4645 68.7561C30.5268 67.8166 30 66.5424 30 65.2137C30.0262 63.9025 30.5645 62.6539 31.4994 61.7359C32.4342 60.818 33.6911 60.3039 35 60.3042Z" fill="#EBEBEB"/>
</svg>
