<svg width="25" height="17" viewBox="0 0 25 17" fill="none" xmlns="http://www.w3.org/2000/svg">
<path d="M23.1277 0.310349H1.87231C0.838233 0.310349 0 1.14858 0 2.18266V14.8174C0 15.8514 0.838233 16.6897 1.87231 16.6897H23.1277C24.1617 16.6897 25 15.8515 25 14.8174V2.18266C25 1.14858 24.1618 0.310349 23.1277 0.310349Z" fill="#F5F5F5"/>
<path d="M0.102966 1.57031H24.897C24.6432 0.837058 23.9472 0.310349 23.1277 0.310349H1.8723C1.05277 0.310349 0.356726 0.837058 0.102966 1.57031Z" fill="#FF4B55"/>
<path d="M25 5.35011H0V6.61002H25V5.35011Z" fill="#FF4B55"/>
<path d="M25 2.83008H0V4.08999H25V2.83008Z" fill="#FF4B55"/>
<path d="M0 8.69892C0 8.93695 0.193018 9.12997 0.431055 9.12997H25V7.87001H0V8.69892Z" fill="#FF4B55"/>
<path d="M25 12.9102H0V14.1701H25V12.9102Z" fill="#FF4B55"/>
<path d="M24.897 15.4297H0.102966C0.356726 16.1629 1.05282 16.6896 1.8723 16.6896H23.1277C23.9472 16.6896 24.6432 16.1629 24.897 15.4297Z" fill="#FF4B55"/>
<path d="M25 10.3901H0V11.65H25V10.3901Z" fill="#FF4B55"/>
<path d="M0.431055 9.12998H11.2069C11.445 9.12998 11.638 8.93696 11.638 8.69893V0.741357C11.638 0.503271 11.445 0.310303 11.2069 0.310303H1.87231C0.838233 0.310352 0 1.14858 0 2.18267V8.69893C0 8.93701 0.193018 9.12998 0.431055 9.12998Z" fill="#41479B"/>
<path d="M1.21042 1.29979L1.30583 1.58593L1.60744 1.58822C1.64651 1.58856 1.66267 1.63837 1.63127 1.66156L1.38865 1.84071L1.47966 2.12826C1.49148 2.16547 1.44905 2.19633 1.41726 2.17357L1.1719 1.99823L0.926537 2.17362C0.89475 2.19637 0.852416 2.16552 0.864135 2.12831L0.95515 1.84076L0.712524 1.66161C0.681127 1.63837 0.697289 1.58856 0.736352 1.58827L1.03796 1.58597L1.13337 1.29984C1.14568 1.26273 1.19802 1.26273 1.21042 1.29979Z" fill="#F5F5F5"/>
<path d="M1.21042 2.79643L1.30583 3.08256L1.60744 3.08486C1.64651 3.0852 1.66267 3.13496 1.63127 3.1582L1.38865 3.3374L1.47966 3.62495C1.49148 3.66216 1.44905 3.69302 1.41726 3.67027L1.1719 3.49492L0.926537 3.67031C0.89475 3.69302 0.852416 3.66221 0.864135 3.625L0.95515 3.33745L0.712524 3.15825C0.681127 3.13501 0.697289 3.08525 0.736352 3.08491L1.03796 3.08261L1.13337 2.79648C1.14568 2.75942 1.19802 2.75942 1.21042 2.79643Z" fill="#F5F5F5"/>
<path d="M1.21042 4.29328L1.30583 4.57941L1.60744 4.58171C1.64651 4.58205 1.66267 4.6318 1.63127 4.65505L1.38865 4.83425L1.47966 5.12179C1.49148 5.159 1.44905 5.18986 1.41726 5.16711L1.1719 4.99177L0.926537 5.16716C0.89475 5.18986 0.852416 5.1591 0.864135 5.12184L0.95515 4.83429L0.712524 4.65509C0.681127 4.63185 0.697289 4.5821 0.736352 4.58175L1.03796 4.57946L1.13337 4.29333C1.14568 4.25622 1.19802 4.25622 1.21042 4.29328Z" fill="#F5F5F5"/>
<path d="M1.21042 5.79004L1.30583 6.07617L1.60744 6.07847C1.64651 6.07881 1.66267 6.12861 1.63127 6.15181L1.38865 6.331L1.47966 6.61855C1.49148 6.65576 1.44905 6.68662 1.41726 6.66386L1.1719 6.48852L0.926537 6.66391C0.89475 6.68662 0.852416 6.65581 0.864135 6.6186L0.95515 6.33105L0.712524 6.15186C0.681127 6.12871 0.697289 6.07886 0.736352 6.07852L1.03796 6.07622L1.13337 5.79009C1.14568 5.75298 1.19802 5.75298 1.21042 5.79004Z" fill="#F5F5F5"/>
<path d="M1.21042 7.28682L1.30583 7.57295L1.60744 7.57524C1.64651 7.57559 1.66267 7.62534 1.63127 7.64858L1.38865 7.82778L1.47966 8.11533C1.49148 8.15254 1.44905 8.1834 1.41726 8.16065L1.1719 7.9853L0.926537 8.16069C0.89475 8.1834 0.852416 8.15259 0.864135 8.11538L0.95515 7.82783L0.712524 7.64863C0.681127 7.62539 0.697289 7.57563 0.736352 7.57529L1.03796 7.573L1.13337 7.28687C1.14568 7.2498 1.19802 7.2498 1.21042 7.28682Z" fill="#F5F5F5"/>
<path d="M2.37221 2.0335L2.46762 2.31963L2.76923 2.32193C2.8083 2.32227 2.82446 2.37207 2.79306 2.39527L2.55043 2.57447L2.64145 2.86202C2.65327 2.89922 2.61083 2.93008 2.57905 2.90733L2.33369 2.73194L2.08833 2.90733C2.05654 2.93003 2.0142 2.89922 2.02592 2.86202L2.11694 2.57447L1.87431 2.39527C1.84292 2.37202 1.85908 2.32227 1.89814 2.32193L2.19975 2.31963L2.29516 2.0335C2.30747 1.99648 2.35986 1.99648 2.37221 2.0335Z" fill="#F5F5F5"/>
<path d="M2.37221 3.53033L2.46762 3.81646L2.76923 3.81876C2.8083 3.8191 2.82446 3.8689 2.79306 3.8921L2.55043 4.0713L2.64145 4.35884C2.65327 4.39605 2.61083 4.42691 2.57905 4.40416L2.33369 4.22877L2.08833 4.40416C2.05654 4.42686 2.0142 4.3961 2.02592 4.35884L2.11694 4.0713L1.87431 3.8921C1.84292 3.86895 1.85908 3.8191 1.89814 3.81876L2.19975 3.81646L2.29516 3.53033C2.30747 3.49327 2.35986 3.49327 2.37221 3.53033Z" fill="#F5F5F5"/>
<path d="M2.37221 5.02709L2.46762 5.31323L2.76923 5.31552C2.8083 5.31586 2.82446 5.36562 2.79306 5.38886L2.55043 5.56806L2.64145 5.85561C2.65327 5.89282 2.61083 5.92368 2.57905 5.90092L2.33369 5.72553L2.08833 5.90092C2.05654 5.92363 2.0142 5.89282 2.02592 5.85561L2.11694 5.56806L1.87431 5.38886C1.84292 5.36562 1.85908 5.31586 1.89814 5.31552L2.19975 5.31323L2.29516 5.02709C2.30747 4.99003 2.35986 4.99003 2.37221 5.02709Z" fill="#F5F5F5"/>
<path d="M2.37221 6.52387L2.46762 6.81L2.76923 6.81229C2.8083 6.81264 2.82446 6.86239 2.79306 6.88563L2.55043 7.06483L2.64145 7.35238C2.65327 7.38959 2.61083 7.42045 2.57905 7.39769L2.33369 7.2223L2.08833 7.39769C2.05654 7.42045 2.0142 7.38959 2.02592 7.35238L2.11694 7.06483L1.87431 6.88563C1.84292 6.86239 1.85908 6.81264 1.89814 6.81229L2.19975 6.81L2.29516 6.52387C2.30747 6.48686 2.35986 6.48686 2.37221 6.52387Z" fill="#F5F5F5"/>
<path d="M3.53396 1.29966L3.62937 1.58579L3.93098 1.58809C3.97004 1.58843 3.9862 1.63824 3.9548 1.66143L3.71218 1.84058L3.80319 2.12813C3.81501 2.16534 3.77258 2.1962 3.74079 2.17344L3.49543 1.99805L3.25007 2.17344C3.21828 2.1962 3.17595 2.16534 3.18767 2.12813L3.27868 1.84058L3.03606 1.66143C3.00466 1.63819 3.02082 1.58838 3.05988 1.58809L3.36149 1.58579L3.4569 1.29966C3.46921 1.2626 3.5216 1.2626 3.53396 1.29966Z" fill="#F5F5F5"/>
<path d="M3.53396 2.79644L3.62937 3.08257L3.93098 3.08486C3.97004 3.08521 3.9862 3.13496 3.9548 3.1582L3.71218 3.3374L3.80319 3.62495C3.81501 3.66216 3.77258 3.69302 3.74079 3.67026L3.49543 3.49487L3.25007 3.67026C3.21828 3.69297 3.17595 3.66216 3.18767 3.62495L3.27868 3.3374L3.03606 3.1582C3.00466 3.13496 3.02082 3.08521 3.05988 3.08486L3.36149 3.08257L3.4569 2.79644C3.46921 2.75942 3.5216 2.75942 3.53396 2.79644Z" fill="#F5F5F5"/>
<path d="M3.53396 4.29327L3.62937 4.5794L3.93098 4.5817C3.97004 4.58204 3.9862 4.63179 3.9548 4.65504L3.71218 4.83424L3.80319 5.12178C3.81501 5.15899 3.77258 5.18985 3.74079 5.1671L3.49543 4.99171L3.25007 5.1671C3.21828 5.1898 3.17595 5.15904 3.18767 5.12178L3.27868 4.83424L3.03606 4.65504C3.00466 4.63179 3.02082 4.58204 3.05988 4.5817L3.36149 4.5794L3.4569 4.29327C3.46921 4.25621 3.5216 4.25621 3.53396 4.29327Z" fill="#F5F5F5"/>
<path d="M3.53396 5.79003L3.62937 6.07617L3.93098 6.07846C3.97004 6.0788 3.9862 6.12861 3.9548 6.1518L3.71218 6.331L3.80319 6.61855C3.81501 6.65576 3.77258 6.68662 3.74079 6.66386L3.49543 6.48847L3.25007 6.66386C3.21828 6.68657 3.17595 6.65576 3.18767 6.61855L3.27868 6.331L3.03606 6.1518C3.00466 6.12866 3.02082 6.0788 3.05988 6.07846L3.36149 6.07617L3.4569 5.79003C3.46921 5.75297 3.5216 5.75297 3.53396 5.79003Z" fill="#F5F5F5"/>
<path d="M3.53396 7.28681L3.62937 7.57294L3.93098 7.57523C3.97004 7.57558 3.9862 7.62533 3.9548 7.64857L3.71218 7.82777L3.80319 8.11532C3.81501 8.15253 3.77258 8.18339 3.74079 8.16063L3.49543 7.98524L3.25007 8.16063C3.21828 8.18334 3.17595 8.15253 3.18767 8.11532L3.27868 7.82777L3.03606 7.64857C3.00466 7.62533 3.02082 7.57558 3.05988 7.57523L3.36149 7.57294L3.4569 7.28681C3.46921 7.2498 3.5216 7.2498 3.53396 7.28681Z" fill="#F5F5F5"/>
<path d="M4.69578 2.0335L4.79119 2.31963L5.0928 2.32193C5.13186 2.32227 5.14802 2.37207 5.11663 2.39527L4.874 2.57447L4.96501 2.86202C4.97683 2.89922 4.9344 2.93008 4.90261 2.90733L4.65725 2.73194L4.41189 2.90733C4.3801 2.93003 4.33777 2.89922 4.34949 2.86202L4.4405 2.57447L4.19788 2.39527C4.16648 2.37202 4.18264 2.32227 4.2217 2.32193L4.52331 2.31963L4.61873 2.0335C4.63098 1.99648 4.68342 1.99648 4.69578 2.0335Z" fill="#F5F5F5"/>
<path d="M4.69578 3.53033L4.79119 3.81646L5.0928 3.81876C5.13186 3.8191 5.14802 3.8689 5.11663 3.8921L4.874 4.0713L4.96501 4.35884C4.97683 4.39605 4.9344 4.42691 4.90261 4.40416L4.65725 4.22877L4.41189 4.40416C4.3801 4.42686 4.33777 4.3961 4.34949 4.35884L4.4405 4.0713L4.19788 3.8921C4.16648 3.86895 4.18264 3.8191 4.2217 3.81876L4.52331 3.81646L4.61873 3.53033C4.63098 3.49327 4.68342 3.49327 4.69578 3.53033Z" fill="#F5F5F5"/>
<path d="M4.69578 5.02709L4.79119 5.31323L5.0928 5.31552C5.13186 5.31586 5.14802 5.36562 5.11663 5.38886L4.874 5.56806L4.96501 5.85561C4.97683 5.89282 4.9344 5.92368 4.90261 5.90092L4.65725 5.72553L4.41189 5.90092C4.3801 5.92363 4.33777 5.89282 4.34949 5.85561L4.4405 5.56806L4.19788 5.38886C4.16648 5.36562 4.18264 5.31586 4.2217 5.31552L4.52331 5.31323L4.61873 5.02709C4.63098 4.99003 4.68342 4.99003 4.69578 5.02709Z" fill="#F5F5F5"/>
<path d="M4.69578 6.52387L4.79119 6.81L5.0928 6.81229C5.13186 6.81264 5.14802 6.86239 5.11663 6.88563L4.874 7.06483L4.96501 7.35238C4.97683 7.38959 4.9344 7.42045 4.90261 7.39769L4.65725 7.2223L4.41189 7.39769C4.3801 7.42045 4.33777 7.38959 4.34949 7.35238L4.4405 7.06483L4.19788 6.88563C4.16648 6.86239 4.18264 6.81264 4.2217 6.81229L4.52331 6.81L4.61873 6.52387C4.63098 6.48686 4.68342 6.48686 4.69578 6.52387Z" fill="#F5F5F5"/>
<path d="M5.85755 1.29967L5.95296 1.5858L6.25458 1.5881C6.29364 1.58844 6.3098 1.63824 6.2784 1.66144L6.03578 1.84059L6.12679 2.12814C6.13861 2.16534 6.09618 2.1962 6.06439 2.17345L5.81898 1.99811L5.57362 2.1735C5.54183 2.19625 5.4995 2.16539 5.51121 2.12819L5.60223 1.84064L5.3596 1.66149C5.32821 1.63824 5.34437 1.58844 5.38343 1.58815L5.68504 1.58585L5.78045 1.29972C5.79281 1.26261 5.8452 1.26261 5.85755 1.29967Z" fill="#F5F5F5"/>
<path d="M5.85755 2.79644L5.95296 3.08257L6.25458 3.08486C6.29364 3.08521 6.3098 3.13496 6.2784 3.1582L6.03578 3.3374L6.12679 3.62495C6.13861 3.66216 6.09618 3.69302 6.06439 3.67026L5.81898 3.49487L5.57362 3.67026C5.54183 3.69297 5.4995 3.66216 5.51121 3.62495L5.60223 3.3374L5.3596 3.1582C5.32821 3.13496 5.34437 3.08521 5.38343 3.08486L5.68504 3.08257L5.78045 2.79644C5.79281 2.75942 5.8452 2.75942 5.85755 2.79644Z" fill="#F5F5F5"/>
<path d="M5.85755 4.29327L5.95296 4.57941L6.25458 4.5817C6.29364 4.58204 6.3098 4.6318 6.2784 4.65504L6.03578 4.83424L6.12679 5.12179C6.13861 5.159 6.09618 5.18986 6.06439 5.1671L5.81898 4.99166L5.57362 5.16705C5.54183 5.18976 5.4995 5.15895 5.51121 5.12174L5.60223 4.83419L5.3596 4.65499C5.32821 4.63175 5.34437 4.582 5.38343 4.58165L5.68504 4.57936L5.78045 4.29323C5.79281 4.25621 5.8452 4.25621 5.85755 4.29327Z" fill="#F5F5F5"/>
<path d="M5.85755 5.79003L5.95296 6.07617L6.25458 6.07846C6.29364 6.0788 6.3098 6.12861 6.2784 6.1518L6.03578 6.331L6.12679 6.61855C6.13861 6.65576 6.09618 6.68662 6.06439 6.66386L5.81898 6.48847L5.57362 6.66386C5.54183 6.68657 5.4995 6.65576 5.51121 6.61855L5.60223 6.331L5.3596 6.1518C5.32821 6.12866 5.34437 6.0788 5.38343 6.07846L5.68504 6.07617L5.78045 5.79003C5.79281 5.75297 5.8452 5.75297 5.85755 5.79003Z" fill="#F5F5F5"/>
<path d="M5.85755 7.28681L5.95296 7.57294L6.25458 7.57523C6.29364 7.57558 6.3098 7.62533 6.2784 7.64857L6.03578 7.82777L6.12679 8.11532C6.13861 8.15253 6.09618 8.18339 6.06439 8.16063L5.81898 7.98524L5.57362 8.16063C5.54183 8.18334 5.4995 8.15253 5.51121 8.11532L5.60223 7.82777L5.3596 7.64857C5.32821 7.62533 5.34437 7.57558 5.38343 7.57523L5.68504 7.57294L5.78045 7.28681C5.79281 7.2498 5.8452 7.2498 5.85755 7.28681Z" fill="#F5F5F5"/>
<path d="M7.0193 2.0335L7.11471 2.31963L7.41632 2.32193C7.45538 2.32227 7.47155 2.37207 7.44015 2.39527L7.19752 2.57447L7.28854 2.86202C7.30036 2.89922 7.25792 2.93008 7.22614 2.90733L6.98078 2.73194L6.73542 2.90733C6.70363 2.93003 6.6613 2.89922 6.67302 2.86202L6.76403 2.57447L6.52141 2.39527C6.49001 2.37202 6.50617 2.32227 6.54524 2.32193L6.84684 2.31963L6.94225 2.0335C6.95461 1.99648 7.00695 1.99648 7.0193 2.0335Z" fill="#F5F5F5"/>
<path d="M7.0193 3.53033L7.11471 3.81646L7.41632 3.81876C7.45538 3.8191 7.47155 3.8689 7.44015 3.8921L7.19752 4.0713L7.28854 4.35884C7.30036 4.39605 7.25792 4.42691 7.22614 4.40416L6.98078 4.22877L6.73542 4.40416C6.70363 4.42686 6.6613 4.3961 6.67302 4.35884L6.76403 4.0713L6.52141 3.8921C6.49001 3.86895 6.50617 3.8191 6.54524 3.81876L6.84684 3.81646L6.94225 3.53033C6.95461 3.49327 7.00695 3.49327 7.0193 3.53033Z" fill="#F5F5F5"/>
<path d="M7.0193 5.02709L7.11471 5.31323L7.41632 5.31552C7.45538 5.31586 7.47155 5.36562 7.44015 5.38886L7.19752 5.56806L7.28854 5.85561C7.30036 5.89282 7.25792 5.92368 7.22614 5.90092L6.98078 5.72553L6.73542 5.90092C6.70363 5.92363 6.6613 5.89282 6.67302 5.85561L6.76403 5.56806L6.52141 5.38886C6.49001 5.36562 6.50617 5.31586 6.54524 5.31552L6.84684 5.31323L6.94225 5.02709C6.95461 4.99003 7.00695 4.99003 7.0193 5.02709Z" fill="#F5F5F5"/>
<path d="M7.0193 6.52387L7.11471 6.81L7.41632 6.81229C7.45538 6.81264 7.47155 6.86239 7.44015 6.88563L7.19752 7.06483L7.28854 7.35238C7.30036 7.38959 7.25792 7.42045 7.22614 7.39769L6.98078 7.2223L6.73542 7.39769C6.70363 7.42045 6.6613 7.38959 6.67302 7.35238L6.76403 7.06483L6.52141 6.88563C6.49001 6.86239 6.50617 6.81264 6.54524 6.81229L6.84684 6.81L6.94225 6.52387C6.95461 6.48686 7.00695 6.48686 7.0193 6.52387Z" fill="#F5F5F5"/>
<path d="M8.18112 1.29966L8.27653 1.58579L8.57814 1.58809C8.6172 1.58843 8.63337 1.63824 8.60197 1.66143L8.35934 1.84058L8.45036 2.12813C8.46218 2.16534 8.41974 2.1962 8.38796 2.17344L8.1426 1.99805L7.89724 2.17344C7.86545 2.1962 7.82312 2.16534 7.83484 2.12813L7.92585 1.84058L7.68323 1.66143C7.65183 1.63819 7.66799 1.58838 7.70705 1.58809L8.00866 1.58579L8.10407 1.29966C8.11633 1.2626 8.16877 1.2626 8.18112 1.29966Z" fill="#F5F5F5"/>
<path d="M8.18112 2.79644L8.27653 3.08257L8.57814 3.08486C8.6172 3.08521 8.63337 3.13496 8.60197 3.1582L8.35934 3.3374L8.45036 3.62495C8.46218 3.66216 8.41974 3.69302 8.38796 3.67026L8.1426 3.49487L7.89724 3.67026C7.86545 3.69297 7.82312 3.66216 7.83484 3.62495L7.92585 3.3374L7.68323 3.1582C7.65183 3.13496 7.66799 3.08521 7.70705 3.08486L8.00866 3.08257L8.10407 2.79644C8.11633 2.75942 8.16877 2.75942 8.18112 2.79644Z" fill="#F5F5F5"/>
<path d="M8.18112 4.29327L8.27653 4.5794L8.57814 4.5817C8.6172 4.58204 8.63337 4.63179 8.60197 4.65504L8.35934 4.83424L8.45036 5.12178C8.46218 5.15899 8.41974 5.18985 8.38796 5.1671L8.1426 4.99171L7.89724 5.1671C7.86545 5.1898 7.82312 5.15904 7.83484 5.12178L7.92585 4.83424L7.68323 4.65504C7.65183 4.63179 7.66799 4.58204 7.70705 4.5817L8.00866 4.5794L8.10407 4.29327C8.11633 4.25621 8.16877 4.25621 8.18112 4.29327Z" fill="#F5F5F5"/>
<path d="M8.18112 5.79003L8.27653 6.07617L8.57814 6.07846C8.6172 6.0788 8.63337 6.12861 8.60197 6.1518L8.35934 6.331L8.45036 6.61855C8.46218 6.65576 8.41974 6.68662 8.38796 6.66386L8.1426 6.48847L7.89724 6.66386C7.86545 6.68657 7.82312 6.65576 7.83484 6.61855L7.92585 6.331L7.68323 6.1518C7.65183 6.12866 7.66799 6.0788 7.70705 6.07846L8.00866 6.07617L8.10407 5.79003C8.11633 5.75297 8.16877 5.75297 8.18112 5.79003Z" fill="#F5F5F5"/>
<path d="M8.18112 7.28681L8.27653 7.57294L8.57814 7.57523C8.6172 7.57558 8.63337 7.62533 8.60197 7.64857L8.35934 7.82777L8.45036 8.11532C8.46218 8.15253 8.41974 8.18339 8.38796 8.16063L8.1426 7.98524L7.89724 8.16063C7.86545 8.18334 7.82312 8.15253 7.83484 8.11532L7.92585 7.82777L7.68323 7.64857C7.65183 7.62533 7.66799 7.57558 7.70705 7.57523L8.00866 7.57294L8.10407 7.28681C8.11633 7.2498 8.16877 7.2498 8.18112 7.28681Z" fill="#F5F5F5"/>
<path d="M9.34287 2.0335L9.43828 2.31963L9.73989 2.32193C9.77895 2.32227 9.79511 2.37207 9.76372 2.39527L9.52109 2.57447L9.61211 2.86202C9.62392 2.89922 9.58149 2.93008 9.5497 2.90733L9.30434 2.73194L9.05898 2.90733C9.0272 2.93003 8.98486 2.89922 8.99658 2.86202L9.0876 2.57447L8.84497 2.39527C8.81357 2.37202 8.82974 2.32227 8.8688 2.32193L9.17041 2.31963L9.26582 2.0335C9.27812 1.99648 9.33051 1.99648 9.34287 2.0335Z" fill="#F5F5F5"/>
<path d="M9.34287 3.53033L9.43828 3.81646L9.73989 3.81876C9.77895 3.8191 9.79511 3.8689 9.76372 3.8921L9.52109 4.0713L9.61211 4.35884C9.62392 4.39605 9.58149 4.42691 9.5497 4.40416L9.30434 4.22877L9.05898 4.40416C9.0272 4.42686 8.98486 4.3961 8.99658 4.35884L9.0876 4.0713L8.84497 3.8921C8.81357 3.86895 8.82974 3.8191 8.8688 3.81876L9.17041 3.81646L9.26582 3.53033C9.27812 3.49327 9.33051 3.49327 9.34287 3.53033Z" fill="#F5F5F5"/>
<path d="M9.34287 5.02709L9.43828 5.31323L9.73989 5.31552C9.77895 5.31586 9.79511 5.36562 9.76372 5.38886L9.52109 5.56806L9.61211 5.85561C9.62392 5.89282 9.58149 5.92368 9.5497 5.90092L9.30434 5.72553L9.05898 5.90092C9.0272 5.92363 8.98486 5.89282 8.99658 5.85561L9.0876 5.56806L8.84497 5.38886C8.81357 5.36562 8.82974 5.31586 8.8688 5.31552L9.17041 5.31323L9.26582 5.02709C9.27812 4.99003 9.33051 4.99003 9.34287 5.02709Z" fill="#F5F5F5"/>
<path d="M9.34287 6.52387L9.43828 6.81L9.73989 6.81229C9.77895 6.81264 9.79511 6.86239 9.76372 6.88563L9.52109 7.06483L9.61211 7.35238C9.62392 7.38959 9.58149 7.42045 9.5497 7.39769L9.30434 7.2223L9.05898 7.39769C9.0272 7.42045 8.98486 7.38959 8.99658 7.35238L9.0876 7.06483L8.84497 6.88563C8.81357 6.86239 8.82974 6.81264 8.8688 6.81229L9.17041 6.81L9.26582 6.52387C9.27812 6.48686 9.33051 6.48686 9.34287 6.52387Z" fill="#F5F5F5"/>
<path d="M10.5047 1.29966L10.6001 1.58579L10.9017 1.58809C10.9408 1.58843 10.957 1.63824 10.9256 1.66143L10.6829 1.84058L10.774 2.12813C10.7858 2.16534 10.7433 2.1962 10.7116 2.17344L10.4662 1.99805L10.2208 2.17344C10.189 2.1962 10.1467 2.16534 10.1584 2.12813L10.2494 1.84058L10.0068 1.66143C9.97542 1.63819 9.99159 1.58838 10.0306 1.58809L10.3323 1.58579L10.4277 1.29966C10.44 1.2626 10.4923 1.2626 10.5047 1.29966Z" fill="#F5F5F5"/>
<path d="M10.5047 2.79644L10.6001 3.08257L10.9017 3.08486C10.9408 3.08521 10.957 3.13496 10.9256 3.1582L10.6829 3.3374L10.774 3.62495C10.7858 3.66216 10.7433 3.69302 10.7116 3.67026L10.4662 3.49487L10.2208 3.67026C10.189 3.69297 10.1467 3.66216 10.1584 3.62495L10.2494 3.3374L10.0068 3.1582C9.97542 3.13496 9.99159 3.08521 10.0306 3.08486L10.3323 3.08257L10.4277 2.79644C10.44 2.75942 10.4923 2.75942 10.5047 2.79644Z" fill="#F5F5F5"/>
<path d="M10.5047 4.29327L10.6001 4.5794L10.9017 4.5817C10.9408 4.58204 10.957 4.63179 10.9256 4.65504L10.6829 4.83424L10.774 5.12178C10.7858 5.15899 10.7433 5.18985 10.7116 5.1671L10.4662 4.99171L10.2208 5.1671C10.189 5.1898 10.1467 5.15904 10.1584 5.12178L10.2494 4.83424L10.0068 4.65504C9.97542 4.63179 9.99159 4.58204 10.0306 4.5817L10.3323 4.5794L10.4277 4.29327C10.44 4.25621 10.4923 4.25621 10.5047 4.29327Z" fill="#F5F5F5"/>
<path d="M10.5047 5.79003L10.6001 6.07617L10.9017 6.07846C10.9408 6.0788 10.957 6.12861 10.9256 6.1518L10.6829 6.331L10.774 6.61855C10.7858 6.65576 10.7433 6.68662 10.7116 6.66386L10.4662 6.48847L10.2208 6.66386C10.189 6.68657 10.1467 6.65576 10.1584 6.61855L10.2494 6.331L10.0068 6.1518C9.97542 6.12866 9.99159 6.0788 10.0306 6.07846L10.3323 6.07617L10.4277 5.79003C10.44 5.75297 10.4923 5.75297 10.5047 5.79003Z" fill="#F5F5F5"/>
<path d="M10.5047 7.28681L10.6001 7.57294L10.9017 7.57523C10.9408 7.57558 10.957 7.62533 10.9256 7.64857L10.6829 7.82777L10.774 8.11532C10.7858 8.15253 10.7433 8.18339 10.7116 8.16063L10.4662 7.98524L10.2208 8.16063C10.189 8.18334 10.1467 8.15253 10.1584 8.11532L10.2494 7.82777L10.0068 7.64857C9.97542 7.62533 9.99159 7.57558 10.0306 7.57523L10.3323 7.57294L10.4277 7.28681C10.44 7.2498 10.4923 7.2498 10.5047 7.28681Z" fill="#F5F5F5"/>
</svg>
