<svg width="112.00000000000001" height="93" xmlns="http://www.w3.org/2000/svg" fill="none">
 <defs>
  <clipPath id="clip0">
   <rect id="svg_1" fill="white" height="54" width="33" x="38"/>
  </clipPath>
 </defs>
 <g>
  <title>Layer 1</title>
  <path id="svg_2" fill="#C2C2C5" d="m10.1087,72.48795c0,0.2413 -0.20675,0.4377 -0.45373,0.4377l-8.74174,0c0.21826,2.1099 1.84369,4.03461 4.12964,4.03461c1.56226,0 2.72246,-0.5836 3.59549,-1.8013c0.12636,-0.1683 0.3159,-0.2749 0.55713,-0.1739c0.1321,0.05611 0.224,0.1739 0.24697,0.3086c0.02298,0.1403 -0.01723,0.2188 -0.05743,0.2974c-0.87877,1.4982 -2.63057,2.2333 -4.3479,2.2333c-2.94072,0 -5.03713,-2.57 -5.03713,-5.3195c0,-2.7496 2.09641,-5.3196 5.03713,-5.3196c2.94072,-0.0056 5.06587,2.5588 5.07157,5.3027l0,-0.00002l0,0.00001zm-0.93619,-0.4152c-0.18953,-2.1099 -1.84369,-4.0346 -4.12964,-4.0346c-2.28595,0 -3.91138,1.9247 -4.12964,4.0346l8.25928,0zm11.54459,-4.6799c0.2527,0 0.4365,0.2133 0.4365,0.42651c0,0.24689 -0.1895,0.4265 -0.4365,0.4265l-2.3434,0l0,8.9837c0,0.2132 -0.1895,0.4265 -0.4365,0.4265c-0.2527,0 -0.4365,-0.21329 -0.4365,-0.4265l0,-8.9837l-2.2515,0c-0.2527,0 -0.4365,-0.1852 -0.4365,-0.4265c0,-0.2132 0.1896,-0.42651 0.4365,-0.42651l2.2515,0l0,-3.2882c0,-0.2076 0.1436,-0.3984 0.3504,-0.4321c0.2929,-0.0449 0.5226,0.1515 0.5226,0.4209l0,3.2994l2.3434,0zm14.2958,4.3432l0,5.443c0,0.2469 -0.2182,0.4265 -0.4365,0.4265c-0.2527,0 -0.4365,-0.1852 -0.4365,-0.4265l0,-5.443c0,-1.8349 -1.0626,-3.6698 -3.159,-3.6698c-2.688,0 -3.8482,2.295 -3.6931,4.6462c0,0.0617 0.0287,0.3367 0.0287,0.3647l0,4.0851c0,0.2076 -0.1436,0.3984 -0.3503,0.432c-0.293,0.0449 -0.5227,-0.1515 -0.5227,-0.4208l0,-17.8777c0,-0.21329 0.1895,-0.4265 0.4365,-0.4265c0.2527,0 0.4365,0.2132 0.4365,0.4265l0,10.1172c0.7524,-1.313 2.0964,-2.1996 3.6587,-2.1996c2.5674,0 4.0377,2.1996 4.0377,4.5227zm15.6743,0.7519c0,0.2413 -0.2068,0.4377 -0.4538,0.4377l-8.7475,0c0.2183,2.1099 1.8437,4.03461 4.1297,4.03461c1.5622,0 2.7225,-0.5836 3.5955,-1.8013c0.1263,-0.1683 0.3159,-0.2749 0.5571,-0.1739c0.1321,0.05611 0.224,0.1739 0.247,0.3086c0.023,0.1403 -0.0173,0.2188 -0.0575,0.2974c-0.8787,1.4982 -2.6305,2.2333 -4.3479,2.2333c-2.9407,0 -5.0371,-2.57 -5.0371,-5.3195c0,-2.7496 2.0964,-5.3196 5.0371,-5.3196c2.9465,-0.0056 5.0716,2.5588 5.0774,5.3027l0,-0.00002l0,0.00001zm-0.942,-0.4152c-0.1895,-2.1099 -1.8437,-4.0346 -4.1296,-4.0346c-2.286,0 -3.9114,1.9247 -4.1297,4.0346l8.2593,0zm11.671,-4.2815c0,0.275 -0.1551,0.42651 -0.4078,0.46021c-2.5674,0.3647 -3.7218,2.4128 -3.7218,4.7977l0,4.085c0,0.2076 -0.1436,0.3984 -0.3504,0.4321c-0.2929,0.04491 -0.5227,-0.1515 -0.5227,-0.4209l0,-9.3092c0,-0.2076 0.1436,-0.39841 0.3504,-0.43201c0.2929,-0.0449 0.5227,0.1515 0.5227,0.42081l0,1.8966c0.7179,-1.18961 2.1596,-2.3231 3.6586,-2.3231c0.2183,-0.0056 0.471,0.1515 0.471,0.3928l0,-0.00002l0,0.00001zm14.359,4.6967c0,0.2413 -0.2068,0.4377 -0.4538,0.4377l-8.74171,0c0.2182,2.1099 1.8437,4.03461 4.1296,4.03461c1.5623,0 2.7225,-0.5836 3.5955,-1.8013c0.1264,-0.1683 0.3159,-0.2749 0.55711,-0.1739c0.1321,0.05611 0.224,0.1739 0.24699,0.3086c0.02299,0.1403 -0.0172,0.2188 -0.0574,0.2974c-0.8788,1.4982 -2.6306,2.2333 -4.3479,2.2333c-2.9407,0 -5.0371,-2.57 -5.0371,-5.3195c0,-2.7496 2.09641,-5.3196 5.0371,-5.3196c2.9407,-0.0056 5.0658,2.5588 5.0716,5.3027l0.00001,-0.00002l0,0.00001zm-0.9362,-0.4152c-0.1896,-2.1099 -1.8437,-4.0346 -4.1297,-4.0346c-2.2859,0 -3.9114,1.9247 -4.1296,4.0346l8.2593,0zm15.0482,-4.1749l0,9.3317c0,0.2469 -0.2183,0.4265 -0.4365,0.4265c-0.2528,0 -0.4366,-0.1852 -0.4366,-0.4265l0,-1.7732c-0.7179,1.4085 -2.0045,2.4129 -3.6299,2.4129c-2.5961,0 -4.0377,-2.1996 -4.0377,-4.5227l0,-5.4711c0,-0.2132 0.18951,-0.42651 0.4365,-0.42651c0.2527,0 0.4365,0.2133 0.4365,0.42651l0,5.4711c0,1.8349 1.0626,3.6698 3.159,3.6698c2.9407,0 3.6299,-2.6879 3.6299,-5.6563l0,-3.4846c0,-0.2469 0.2527,-0.4994 0.5629,-0.4096c0.18951,0.0617 0.3159,0.24129 0.3159,0.432zm22.1128,3.8045l0,5.4711c0,0.2469 -0.218,0.4265 -0.437,0.4265c-0.25201,0 -0.436,-0.1852 -0.436,-0.4265l0,-5.4711c0,-1.8349 -1.063,-3.6361 -3.159,-3.6361c-2.631,0 -3.63,2.7495 -3.63,4.8875l0,4.2197c0,0.2469 -0.21799,0.4265 -0.436,0.4265c-0.253,0 -0.437,-0.1852 -0.437,-0.4265l0,-5.4711c0,-1.8349 -1.063,-3.6361 -3.159,-3.6361c-2.6592,0 -3.7563,2.0481 -3.6586,4.7696c0,0.0617 0.0287,0.1852 0,0.2133l0,4.1131c0,0.2076 -0.1436,0.3984 -0.3561,0.432c-0.2929,0.0449 -0.5227,-0.1515 -0.5227,-0.4208l0,-9.3373c0,-0.2076 0.1436,-0.39841 0.3504,-0.43201c0.2929,-0.0449 0.5226,0.1515 0.5226,0.42081l0,1.5599c0.75249,-1.313 2.0964,-2.1715 3.6584,-2.1715c1.781,0 3.159,1.0998 3.722,2.7215c0.71799,-1.588 2.125,-2.7215 3.93999,-2.7215c2.568,0 4.038,2.1659 4.038,4.489l0.00001,0z"/>
  <g id="svg_3" clip-path="url(#clip0)">
   <path id="svg_4" fill="#343434" d="m54.495,0l-0.3602,1.23022l0,35.69808l0.3602,0.3613l16.4927,-9.7949l-16.4927,-27.4947z"/>
   <path id="svg_5" fill="#8C8C8C" d="m54.4966,0l-16.4927,27.4947l16.4927,9.7949l0,-17.3267l0,-19.9629z"/>
   <path id="svg_6" fill="#3C3C3B" d="m54.496,40.4266l-0.203,0.2487l0,12.7164l0.203,0.5957l16.5025,-23.3507l-16.5025,9.7899z"/>
   <path id="svg_7" fill="#8C8C8C" d="m54.4946,53.9875l0,-13.5608l-16.4926,-9.79l16.4926,23.3508z"/>
   <path id="svg_8" fill="#141414" d="m54.4941,37.2894l16.4924,-9.7947l-16.4924,-7.5318l0,17.3265z"/>
   <path id="svg_9" fill="#393939" d="m38.002,27.4947l16.4924,9.7948l0,-17.3266l-16.4924,7.5318z"/>
  </g>
  <g stroke="null" id="svg_10">
   <path stroke="null" fill="#F0B90B" d="m19.43346,86.51244c0,-0.49206 0.44345,-0.87943 1.20369,-0.87943c0.67576,0 1.34095,0.26176 2.00616,0.75379l0.69688,-0.97368c-0.74969,-0.59669 -1.60494,-0.92128 -2.68193,-0.92128c-1.46766,0 -2.52355,0.85847 -2.52355,2.1356c0,1.36108 0.88694,1.8216 2.4602,2.19862c1.37265,0.31398 1.6683,0.59668 1.6683,1.13061c0,0.56517 -0.50685,0.93163 -1.30927,0.93163c-0.91864,0 -1.62608,-0.3455 -2.3335,-0.95258l-0.78134,0.92106c0.88694,0.7853 1.95338,1.17265 3.08315,1.17265c1.55213,0 2.63969,-0.8166 2.63969,-2.19839c0,-1.22491 -0.81303,-1.77972 -2.37574,-2.15673c-1.41486,-0.3349 -1.75273,-0.58609 -1.75273,-1.16187z" id="svg_11"/>
   <path stroke="null" fill="#F0B90B" d="m31.05494,86.66932l0,5.25545l1.29871,0l0,-7.32825l-1.38317,0l-2.24903,3.46512l-2.24902,-3.46512l-1.38319,0l0,7.32825l1.2776,0l0,-5.23452l2.31237,3.43385l0.04227,0l2.33348,-3.45477l-0.00002,0l0,-0.00002z" id="svg_12"/>
   <path stroke="null" fill="#F0B90B" d="m38.07828,84.54426l-1.20375,0l-3.2521,7.38048l1.33041,0l0.76021,-1.76933l3.4949,0l0.74983,1.76933l1.37259,0l-3.2521,-7.38048l0.00001,0zm0.65452,4.47018l-2.54457,0l1.26704,-2.93127l1.27753,2.93127z" id="svg_13"/>
   <path stroke="null" fill="#F0B90B" d="m48.86971,91.92477l-1.99553,-2.77435c1.03477,-0.28252 1.76328,-1.01538 1.76328,-2.22971c0,-1.43424 -1.04542,-2.32421 -2.74535,-2.32421l-3.2943,0l0,7.32824l1.29878,0l0,-2.55444l1.62592,0l1.81616,2.55444l1.53104,0l0,0.00003zm-1.55214,-4.93087c0,0.75378 -0.59116,1.23527 -1.52037,1.23527l-1.90061,0l0,-2.45998l1.88995,0c0.96099,0 1.53103,0.41864 1.53103,1.22471z" id="svg_14"/>
   <path stroke="null" fill="#F0B90B" d="m53.32267,85.79011l2.34401,0l0,-1.19359l-5.99744,0l0,1.19359l2.34421,0l0,6.13466l1.30922,0l0,-6.13466z" id="svg_15"/>
   <path stroke="null" fill="#F0B90B" d="m66.63983,90.7521l-0.83408,-0.83735c-0.63358,0.58614 -1.21429,0.95258 -2.1224,0.95258c-1.41479,0 -2.43909,-1.17244 -2.43909,-2.61725c0,-1.44459 1.02431,-2.59612 2.43909,-2.59612c0.84473,0 1.47836,0.36642 2.06954,0.91066l0.83406,-0.95255c-0.70739,-0.67007 -1.53099,-1.14117 -2.89296,-1.14117c-2.23842,0 -3.81167,1.70637 -3.81167,3.80027c0,2.11469 1.6048,3.77915 3.75881,3.77915c1.38322,0 2.22795,-0.50257 2.99872,-1.29825l-0.00003,0.00003z" id="svg_16"/>
   <path stroke="null" fill="#F0B90B" d="m72.83028,88.8364l0,3.08836l1.29877,0l0,-7.32825l-1.29877,0l0,3.04649l-3.52658,0l0,-3.04649l-1.29881,0l0,7.32825l1.29881,0l0,-3.08836l3.52658,0z" id="svg_17"/>
   <path stroke="null" fill="#F0B90B" d="m79.84945,84.54426l-1.20385,0l-3.25209,7.38048l1.33055,0l0.7601,-1.76933l3.49498,0l0.74965,1.76933l1.37276,0l-3.25208,-7.38048l-0.00002,0zm0.65452,4.47018l-2.54468,0l1.26701,-2.93127l1.27767,2.93127z" id="svg_18"/>
   <path stroke="null" fill="#F0B90B" d="m84.44295,84.59652l0,7.32825l1.29858,0l0,-7.32825l-1.29858,0z" id="svg_19"/>
   <path stroke="null" fill="#F0B90B" d="m92.88345,89.66338l-3.95969,-5.06686l-1.20369,0l0,7.32825l1.27765,0l0,-5.2134l4.07574,5.2134l1.08745,0l0,-7.32825l-1.27747,0l0,5.06686z" id="svg_20"/>
  </g>
 </g>
</svg>