<svg width="112" height="83" viewBox="0 0 112 83" fill="none" xmlns="http://www.w3.org/2000/svg">
<path d="M10.1087 77.6187C10.1087 77.86 9.90195 78.0564 9.65497 78.0564H0.913231C1.13149 80.1663 2.75692 82.091 5.04287 82.091C6.60513 82.091 7.76533 81.5074 8.63836 80.2897C8.76472 80.1214 8.95426 80.0148 9.19549 80.1158C9.32759 80.1719 9.41949 80.2897 9.44246 80.4244C9.46544 80.5647 9.42523 80.6432 9.38503 80.7218C8.50626 82.22 6.75446 82.9551 5.03713 82.9551C2.09641 82.9551 0 80.3851 0 77.6356C0 74.886 2.09641 72.316 5.03713 72.316C7.97785 72.3104 10.103 74.8748 10.1087 77.6187ZM9.17251 77.2035C8.98298 75.0936 7.32882 73.1689 5.04287 73.1689C2.75692 73.1689 1.13149 75.0936 0.913231 77.2035H9.17251ZM20.7171 72.5236C20.9698 72.5236 21.1536 72.7369 21.1536 72.9501C21.1536 73.197 20.9641 73.3766 20.7171 73.3766H18.3737V82.3603C18.3737 82.5735 18.1842 82.7868 17.9372 82.7868C17.6845 82.7868 17.5007 82.5735 17.5007 82.3603V73.3766H15.2492C14.9965 73.3766 14.8127 73.1914 14.8127 72.9501C14.8127 72.7369 15.0023 72.5236 15.2492 72.5236H17.5007V69.2354C17.5007 69.0278 17.6443 68.837 17.8511 68.8033C18.144 68.7584 18.3737 68.9548 18.3737 69.2242V72.5236H20.7171ZM35.0129 76.8668V82.3098C35.0129 82.5567 34.7947 82.7363 34.5764 82.7363C34.3237 82.7363 34.1399 82.5511 34.1399 82.3098V76.8668C34.1399 75.0319 33.0773 73.197 30.9809 73.197C28.2929 73.197 27.1327 75.492 27.2878 77.8432C27.2878 77.9049 27.3165 78.1799 27.3165 78.2079V82.293C27.3165 82.5006 27.1729 82.6914 26.9662 82.725C26.6732 82.7699 26.4435 82.5735 26.4435 82.3042V64.4265C26.4435 64.2132 26.633 64 26.88 64C27.1327 64 27.3165 64.2132 27.3165 64.4265V74.5437C28.0689 73.2307 29.4129 72.3441 30.9752 72.3441C33.5426 72.3441 35.0129 74.5437 35.0129 76.8668ZM50.6872 77.6187C50.6872 77.86 50.4804 78.0564 50.2334 78.0564H41.4859C41.7042 80.1663 43.3296 82.091 45.6156 82.091C47.1778 82.091 48.3381 81.5074 49.2111 80.2897C49.3374 80.1214 49.527 80.0148 49.7682 80.1158C49.9003 80.1719 49.9922 80.2897 50.0152 80.4244C50.0382 80.5647 49.9979 80.6432 49.9577 80.7218C49.079 82.22 47.3272 82.9551 45.6098 82.9551C42.6691 82.9551 40.5727 80.3851 40.5727 77.6356C40.5727 74.886 42.6691 72.316 45.6098 72.316C48.5563 72.3104 50.6814 74.8748 50.6872 77.6187ZM49.7452 77.2035C49.5557 75.0936 47.9015 73.1689 45.6156 73.1689C43.3296 73.1689 41.7042 75.0936 41.4859 77.2035H49.7452ZM61.4162 72.922C61.4162 73.197 61.2611 73.3485 61.0084 73.3822C58.441 73.7469 57.2866 75.795 57.2866 78.1799V82.2649C57.2866 82.4725 57.143 82.6633 56.9362 82.697C56.6433 82.7419 56.4135 82.5455 56.4135 82.2761V72.9669C56.4135 72.7593 56.5571 72.5685 56.7639 72.5349C57.0568 72.49 57.2866 72.6864 57.2866 72.9557V74.8523C58.0045 73.6627 59.4462 72.5292 60.9452 72.5292C61.1635 72.5236 61.4162 72.6807 61.4162 72.922ZM75.7752 77.6187C75.7752 77.86 75.5684 78.0564 75.3214 78.0564H66.5797C66.7979 80.1663 68.4234 82.091 70.7093 82.091C72.2716 82.091 73.4318 81.5074 74.3048 80.2897C74.4312 80.1214 74.6207 80.0148 74.8619 80.1158C74.994 80.1719 75.0859 80.2897 75.1089 80.4244C75.1319 80.5647 75.0917 80.6432 75.0515 80.7218C74.1727 82.22 72.4209 82.9551 70.7036 82.9551C67.7629 82.9551 65.6665 80.3851 65.6665 77.6356C65.6665 74.886 67.7629 72.316 70.7036 72.316C73.6443 72.3104 75.7694 74.8748 75.7752 77.6187ZM74.839 77.2035C74.6494 75.0936 72.9953 73.1689 70.7093 73.1689C68.4234 73.1689 66.7979 75.0936 66.5797 77.2035H74.839ZM89.8872 73.0286V82.3603C89.8872 82.6072 89.6689 82.7868 89.4507 82.7868C89.1979 82.7868 89.0141 82.6016 89.0141 82.3603V80.5871C88.2962 81.9956 87.0096 83 85.3842 83C82.7881 83 81.3465 80.8004 81.3465 78.4773V73.0062C81.3465 72.793 81.536 72.5797 81.783 72.5797C82.0357 72.5797 82.2195 72.793 82.2195 73.0062V78.4773C82.2195 80.3122 83.2821 82.1471 85.3785 82.1471C88.3192 82.1471 89.0084 79.4592 89.0084 76.4908V73.0062C89.0084 72.7593 89.2611 72.5068 89.5713 72.5966C89.7608 72.6583 89.8872 72.8379 89.8872 73.0286ZM112 76.8331V82.3042C112 82.5511 111.782 82.7307 111.563 82.7307C111.311 82.7307 111.127 82.5455 111.127 82.3042V76.8331C111.127 74.9982 110.064 73.197 107.968 73.197C105.337 73.197 104.338 75.9465 104.338 78.0845V82.3042C104.338 82.5511 104.12 82.7307 103.902 82.7307C103.649 82.7307 103.465 82.5455 103.465 82.3042V76.8331C103.465 74.9982 102.402 73.197 100.306 73.197C97.6468 73.197 96.5497 75.2451 96.6474 77.9666C96.6474 78.0283 96.6761 78.1518 96.6474 78.1799V82.293C96.6474 82.5006 96.5038 82.6914 96.2913 82.725C95.9984 82.7699 95.7686 82.5735 95.7686 82.3042V72.9669C95.7686 72.7593 95.9122 72.5685 96.119 72.5349C96.4119 72.49 96.6416 72.6864 96.6416 72.9557V74.5156C97.3941 73.2026 98.738 72.3441 100.3 72.3441C102.081 72.3441 103.459 73.4439 104.022 75.0656C104.74 73.4776 106.147 72.3441 107.962 72.3441C110.53 72.3441 112 74.51 112 76.8331Z" fill="#C2C2C5"/>
<g clip-path="url(#clip0)">
<path d="M54.495 0L54.1348 1.23022V36.9283L54.495 37.2896L70.9877 27.4947L54.495 0Z" fill="#343434"/>
<path d="M54.4966 0L38.0039 27.4947L54.4966 37.2896V19.9629V0Z" fill="#8C8C8C"/>
<path d="M54.496 40.4266L54.293 40.6753V53.3917L54.496 53.9874L70.9985 30.6367L54.496 40.4266Z" fill="#3C3C3B"/>
<path d="M54.4946 53.9875V40.4267L38.002 30.6367L54.4946 53.9875Z" fill="#8C8C8C"/>
<path d="M54.4941 37.2894L70.9865 27.4947L54.4941 19.9629V37.2894Z" fill="#141414"/>
<path d="M38.002 27.4947L54.4944 37.2895V19.9629L38.002 27.4947Z" fill="#393939"/>
</g>
<defs>
<clipPath id="clip0">
<rect x="38" width="33" height="54" fill="white"/>
</clipPath>
</defs>
</svg>
