<svg width="24" height="18" viewBox="0 0 24 18" fill="none" xmlns="http://www.w3.org/2000/svg">
<path d="M19.0781 0H4.92188C2.20781 0 0 2.11395 0 4.71263V12.2955C0 14.8942 2.20781 17.0081 4.92188 17.0081H5.65219H10.1803H12.5273H19.0781C21.7922 17.0081 24 14.8942 24 12.2955V4.71263C24 2.11395 21.7922 0 19.0781 0Z" fill="#6787F5"/>
<path d="M19.0781 0H12V17.0081H19.0781C21.7922 17.0081 24 14.8942 24 12.2955V4.71263C24 2.11395 21.7922 0 19.0781 0Z" fill="#6787F5"/>
<path d="M9.36377 18L10.1808 17.0077L9.36377 18Z" fill="white"/>
<path d="M24 5.53173H18.0881L22.4888 1.31819C21.6038 0.502681 20.4009 0 19.0781 0H17.8997L15.1055 2.67543V0H8.895V2.67543L6.10078 0H4.92188C3.59906 0 2.39625 0.502681 1.51125 1.31819L5.91188 5.53173H0V11.4777H5.91188L1.67625 15.5333L1.51219 15.6904C2.39766 16.5059 3.59953 17.0077 4.92188 17.0077H5.65219L5.85047 17.2487L8.81953 14.4058L8.77125 17.0077H15.1045V14.3412L17.88 17.0077H19.0781C20.3948 17.0077 21.5925 16.5099 22.4766 15.7011L22.3111 15.5418L18.0806 11.4777H24V5.53173Z" fill="white"/>
<path d="M24 5.53173H18.0881L22.4888 1.31819C21.6038 0.502681 20.4009 0 19.0781 0H17.8997L15.1055 2.67543V0H12V17.0081H15.105V14.3417L17.8805 17.0081H19.0781C20.3948 17.0081 21.5925 16.5104 22.4766 15.7016L22.3111 15.5423L18.0806 11.4782H24V5.53173Z" fill="white"/>
<path d="M13.6987 6.87819V0H10.3012V6.87819H0V10.1313H10.3012L10.1803 17.0077H13.6983V10.1313H24V6.87819H13.6987Z" fill="#FF337A"/>
<path d="M9.36377 5.98056V5.0286L4.16956 0.0552063C3.63706 0.13375 3.13221 0.294429 2.66956 0.523328L8.36955 5.98056H9.36377Z" fill="#FF337A"/>
<path d="M21.3304 0.523328C20.8683 0.294429 20.3634 0.13375 19.8304 0.0552063L14.6362 5.0286V5.98056H15.6304L21.3304 0.523328Z" fill="#FF337A"/>
<path d="M2.6709 16.4852C3.13355 16.7137 3.6384 16.8744 4.1709 16.9529L9.36371 11.9809V11.0289H8.36949L2.6709 16.4852Z" fill="#FF337A"/>
<path d="M14.6362 11.0289V11.9835L19.8112 16.9551C20.3451 16.8784 20.8509 16.7195 21.3145 16.492L15.6276 11.0289H14.6362Z" fill="#FF337A"/>
</svg>
