<svg width="22" height="16" viewBox="0 0 22 16" fill="none" xmlns="http://www.w3.org/2000/svg">
<path d="M20.3524 0.793091H1.64764C0.737645 0.793091 0 1.53074 0 2.44073V13.5593C0 14.4693 0.737645 15.207 1.64764 15.207H20.3524C21.2623 15.207 22 14.4693 22 13.5593V2.44073C22 1.53074 21.2624 0.793091 20.3524 0.793091Z" fill="#41479B"/>
<path d="M11.1541 2.44357L11.3062 2.8996L11.7869 2.90334C11.8491 2.90381 11.8749 2.98322 11.8248 3.02022L11.4381 3.30579L11.5831 3.7641C11.6019 3.82339 11.5343 3.87255 11.4837 3.83633L11.0926 3.55677L10.7016 3.83633C10.651 3.87251 10.5834 3.82344 10.6021 3.7641L10.7471 3.30579L10.3604 3.02022C10.3103 2.98322 10.3361 2.90381 10.3984 2.90334L10.8791 2.8996L11.0312 2.44357C11.0508 2.38453 11.1344 2.38453 11.1541 2.44357Z" fill="#FFE15A"/>
<path d="M11.1541 12.2346L11.3062 12.6906L11.7869 12.6944C11.8491 12.6949 11.8749 12.7743 11.8248 12.8113L11.4381 13.0968L11.5831 13.5551C11.6019 13.6144 11.5343 13.6636 11.4837 13.6274L11.0926 13.3478L10.7016 13.6274C10.651 13.6635 10.5834 13.6145 10.6021 13.5551L10.7471 13.0968L10.3604 12.8113C10.3103 12.7743 10.3361 12.6949 10.3984 12.6944L10.8791 12.6906L11.0312 12.2346C11.0508 12.1755 11.1344 12.1755 11.1541 12.2346Z" fill="#FFE15A"/>
<path d="M16.0501 7.33905L16.2022 7.79507L16.6829 7.79881C16.7451 7.79928 16.7709 7.87869 16.7209 7.91568L16.3341 8.20125L16.4791 8.65956C16.4979 8.71885 16.4303 8.76801 16.3797 8.73179L15.9886 8.45223L15.5976 8.73179C15.547 8.76797 15.4794 8.7189 15.4981 8.65956L15.6431 8.20125L15.2564 7.91568C15.2063 7.87869 15.2321 7.79928 15.2944 7.79881L15.7751 7.79507L15.9272 7.33905C15.9468 7.28005 16.0304 7.28005 16.0501 7.33905Z" fill="#FFE15A"/>
<path d="M6.25857 7.33905L6.41068 7.79507L6.89137 7.79881C6.95363 7.79928 6.97941 7.87869 6.92936 7.91568L6.54264 8.20125L6.68761 8.65956C6.70639 8.71885 6.63884 8.76801 6.58818 8.73179L6.19712 8.45223L5.80607 8.73179C5.75545 8.76797 5.68786 8.7189 5.70664 8.65956L5.85161 8.20125L5.46489 7.91568C5.41483 7.87869 5.44062 7.79928 5.50288 7.79881L5.98357 7.79507L6.13568 7.33905C6.15536 7.28005 6.23893 7.28005 6.25857 7.33905Z" fill="#FFE15A"/>
<path d="M6.99343 4.78256L7.14554 5.23859L7.62623 5.24233C7.68849 5.2428 7.71428 5.32221 7.66422 5.3592L7.2775 5.64477L7.42247 6.10308C7.44125 6.16237 7.37371 6.21153 7.32305 6.17531L6.93199 5.89575L6.54093 6.17531C6.49031 6.21149 6.42272 6.16242 6.4415 6.10308L6.58648 5.64477L6.19976 5.3592C6.1497 5.32221 6.17548 5.2428 6.23774 5.24233L6.71843 5.23859L6.87054 4.78256C6.89022 4.72352 6.97371 4.72352 6.99343 4.78256Z" fill="#FFE15A"/>
<path d="M15.4729 9.67804L15.625 10.1341L16.1057 10.1378C16.168 10.1383 16.1938 10.2177 16.1437 10.2547L15.757 10.5402L15.902 10.9986C15.9207 11.0579 15.8532 11.107 15.8025 11.0708L15.4115 10.7912L15.0204 11.0708C14.9698 11.107 14.9022 11.0579 14.921 10.9986L15.066 10.5402L14.6792 10.2547C14.6292 10.2177 14.655 10.1383 14.7172 10.1378L15.1979 10.1341L15.35 9.67804C15.3697 9.61904 15.4532 9.61904 15.4729 9.67804Z" fill="#FFE15A"/>
<path d="M13.681 2.99066L13.8331 3.44668L14.3138 3.45042C14.376 3.4509 14.4018 3.5303 14.3518 3.5673L13.965 3.85287L14.11 4.31117C14.1288 4.37047 14.0612 4.41962 14.0106 4.3834L13.6195 4.10385L13.2284 4.3834C13.1778 4.41958 13.1102 4.37051 13.129 4.31117L13.274 3.85287L12.8873 3.5673C12.8372 3.5303 12.863 3.4509 12.9252 3.45042L13.4059 3.44668L13.558 2.99066C13.5777 2.93166 13.6612 2.93166 13.681 2.99066Z" fill="#FFE15A"/>
<path d="M8.78494 11.47L8.93705 11.926L9.41774 11.9297C9.48 11.9302 9.50578 12.0096 9.45572 12.0466L9.069 12.3322L9.21398 12.7905C9.23276 12.8498 9.16521 12.8989 9.11455 12.8627L8.72349 12.5832L8.33243 12.8627C8.28182 12.8989 8.21422 12.8498 8.233 12.7905L8.37798 12.3322L7.99126 12.0466C7.9412 12.0096 7.96698 11.9302 8.02925 11.9297L8.50994 11.926L8.66204 11.47C8.68172 11.4109 8.7653 11.4109 8.78494 11.47Z" fill="#FFE15A"/>
<path d="M15.35 4.78256L15.1979 5.23859L14.7172 5.24233C14.655 5.2428 14.6292 5.32221 14.6792 5.3592L15.066 5.64477L14.921 6.10308C14.9022 6.16237 14.9698 6.21153 15.0204 6.17531L15.4115 5.89575L15.8025 6.17531C15.8532 6.21149 15.9207 6.16242 15.902 6.10308L15.757 5.64477L16.1437 5.3592C16.1938 5.32221 16.168 5.2428 16.1057 5.24233L15.625 5.23859L15.4729 4.78256C15.4532 4.72352 15.3697 4.72352 15.35 4.78256Z" fill="#FFE15A"/>
<path d="M6.87054 9.67804L6.71843 10.1341L6.23774 10.1378C6.17548 10.1383 6.1497 10.2177 6.19976 10.2547L6.58648 10.5402L6.4415 10.9986C6.42272 11.0579 6.49027 11.107 6.54093 11.0708L6.93199 10.7912L7.32305 11.0708C7.37366 11.107 7.44125 11.0579 7.42247 10.9986L7.2775 10.5402L7.66422 10.2547C7.71428 10.2177 7.68849 10.1383 7.62623 10.1378L7.14554 10.1341L6.99343 9.67804C6.97371 9.61904 6.89022 9.61904 6.87054 9.67804Z" fill="#FFE15A"/>
<path d="M8.66204 2.99066L8.50994 3.44668L8.02925 3.45042C7.96698 3.4509 7.9412 3.5303 7.99126 3.5673L8.37798 3.85287L8.233 4.31117C8.21422 4.37047 8.28177 4.41962 8.33243 4.3834L8.72349 4.10385L9.11455 4.3834C9.16517 4.41958 9.23276 4.37051 9.21398 4.31117L9.069 3.85287L9.45572 3.5673C9.50578 3.5303 9.48 3.4509 9.41774 3.45042L8.93705 3.44668L8.78494 2.99066C8.76521 2.93166 8.68172 2.93166 8.66204 2.99066Z" fill="#FFE15A"/>
<path d="M13.558 11.47L13.4059 11.926L12.9252 11.9297C12.863 11.9302 12.8372 12.0096 12.8873 12.0466L13.274 12.3322L13.129 12.7905C13.1102 12.8498 13.1778 12.8989 13.2284 12.8627L13.6195 12.5832L14.0105 12.8627C14.0612 12.8989 14.1288 12.8498 14.11 12.7905L13.965 12.3322L14.3517 12.0466C14.4018 12.0096 14.376 11.9302 14.3137 11.9297L13.833 11.926L13.6809 11.47C13.6612 11.4109 13.5777 11.4109 13.558 11.47Z" fill="#FFE15A"/>
</svg>
