<svg width="24" height="24" xmlns="http://www.w3.org/2000/svg" fill="none">

 <g>
  <title>Layer 1</title>
  <path id="svg_2" d="m0.0625,8c0,-4.34703 3.65297,-8 8,-8l8,0c4.34703,0 8,3.65297 8,8l0,8c0,4.34703 -3.65297,8 -8,8l-8,0c-4.34703,0 -8,-3.65297 -8,-8l0,-8z" opacity="undefined" fill-opacity="0.1" fill="#ed9728"/>
  <path fill="#ed9728" fill-rule="nonzero" d="m15.53487,12.31019c0,-0.28516 1.21484,-4.04687 -1.14844,-5.18359c-2.72656,-1.3125 -3.48047,-2.35938 -3.45703,-4.03516c0,0.06641 -1.64844,2.72266 -0.57813,4.03516c1.66797,2.02734 0.96094,3.59765 0,3.45703c-1.61328,-0.24219 -1.41797,-2.35156 -1.14843,-2.88281c-0.84766,-0.08594 -1.82422,0.4375 -2.3086,1.15234c-1.45312,2.16016 1.69531,4.22656 0.57813,5.76172c-0.85157,1.17187 -2.3086,-1.13281 -2.30469,-1.14844c-1.73047,9.02734 10.83203,9.25781 11.52344,1.72656c0.20703,-2.26172 2.23828,-3.48828 2.30468,-3.45703c-2.16796,-1.0039 -3.46093,0.64453 -3.46093,0.57422zm-4.02735,6.33594c-3.02343,0.11328 -2.71484,-2.15235 -2.30468,-2.87891c0.51171,-0.92969 1.8164,-1.11328 1.14843,-2.30859c0.00782,0.01953 1.41407,0.23047 2.30469,1.15234c1.36719,1.41016 1.21094,3.94922 -1.14844,4.03516zm1.72657,-13.82813c-0.35157,-0.3789 -0.57813,-0.83203 -0.57813,-1.15234c0,-0.60156 0.49219,-1.17578 1.15625,-1.72656c0.06641,0.48047 -0.28906,1.19922 0,1.72656c0.21875,0.39062 0.57422,0.83203 0.57422,1.15234c0,0.42969 -0.15625,0.82032 -0.57422,1.15235c-0.06641,-0.16016 -0.17578,-0.6875 -0.57812,-1.15235zm0,0"/>
 </g>
</svg>