<svg width="30" height="35" viewBox="0 0 30 35" fill="none" xmlns="http://www.w3.org/2000/svg">
<path d="M23.9 0H6.1V3.18H0V7.87C0 11.22 2.73 14 6.1 14H6.21C6.78 17.68 9.55 20.6 13.13 21.36V26.41H10.94C10.26 26.41 9.72 26.95 9.72 27.64V29.26H7.86V35H22.14V29.26H20.27V27.64C20.27 26.95 19.73 26.41 19.05 26.41H16.86V21.36C20.45 20.6 23.21 17.64 23.79 14H23.9C27.24 14 30 11.26 30 7.87V3.18H23.9V0ZM6.1 10.9C4.45 10.9 3.09 9.53 3.09 7.87V6.28H6.1V10.9ZM19.05 8.7L17.22 10.25L17.79 12.6C17.9 13.03 17.43 13.39 17.04 13.14L15 11.87L12.95 13.13C12.56 13.38 12.09 13.02 12.2 12.59L12.77 10.24L10.94 8.7C10.58 8.41 10.76 7.83 11.23 7.8L13.6 7.62L14.5 5.38C14.68 4.95 15.25 4.95 15.43 5.38L16.33 7.62L18.7 7.8C19.2 7.87 19.38 8.41 19.05 8.7ZM26.91 6.28V7.87C26.91 9.53 25.55 10.9 23.9 10.9V6.28H26.91Z" fill="#3C3C3C"/>
</svg>
