<svg width="19" height="16" viewBox="0 0 19 16" fill="none" xmlns="http://www.w3.org/2000/svg">
<path d="M18.0346 3.26423L13.7515 5.4324L10.0163 0.280544C9.95284 0.192654 9.87399 0.122083 9.78521 0.0736928C9.69642 0.0253026 9.59982 0.000244141 9.50206 0.000244141C9.4043 0.000244141 9.3077 0.0253026 9.21892 0.0736928C9.13014 0.122083 9.05128 0.192654 8.9878 0.280544L5.2526 5.4324L0.969114 3.26423C0.850791 3.19705 0.718497 3.17201 0.588348 3.19215C0.458198 3.21229 0.335814 3.27675 0.236105 3.37767C0.136396 3.47859 0.0636678 3.61162 0.0267807 3.76055C-0.0101063 3.90947 -0.0095593 4.06787 0.0283549 4.21643L2.73502 15.4161C2.77598 15.5891 2.86501 15.7408 2.98776 15.8467C3.11051 15.9526 3.25983 16.0065 3.41168 15.9999H15.5917C15.7435 16.0067 15.8929 15.9528 16.0157 15.8469C16.1385 15.7409 16.2275 15.5892 16.2683 15.4161L18.975 4.21643C19.009 4.07171 19.0079 3.91858 18.9718 3.77456C18.9356 3.63055 18.8659 3.50148 18.7706 3.40213C18.6753 3.30277 18.5583 3.23714 18.4329 3.21275C18.3075 3.18837 18.1789 3.20621 18.0617 3.26423H18.0346Z" fill="#F26A5C"/>
</svg>
