<svg width="14" height="17" viewBox="0 0 14 17" fill="none" xmlns="http://www.w3.org/2000/svg">
<path d="M6.99999 7.42C9.06999 7.42 10.79 5.78 10.79 3.74C10.79 1.7 9.06999 0 6.99999 0C4.92999 0 3.20999 1.69 3.20999 3.74C3.20999 5.79 4.92999 7.42 6.99999 7.42ZM13.69 11.3C12.93 10 11.51 9.11 9.89999 9.11H4.09999C2.48999 9.11 1.06999 9.99 0.309992 11.3C-0.180008 12.14 -0.0800081 13.2 0.539992 13.96C2.09999 15.87 4.43999 17 6.99999 17C9.55999 17 11.9 15.87 13.46 13.96C14.08 13.2 14.18 12.15 13.69 11.3Z" fill="#4B4B4E"/>
</svg>
