<svg width="14" height="17" viewBox="0 0 14 17" fill="none" xmlns="http://www.w3.org/2000/svg">
<path d="M7.00042 7.42C9.07042 7.42 10.7904 5.78 10.7904 3.74C10.7904 1.7 9.07042 0 7.00042 0C4.93042 0 3.21042 1.69 3.21042 3.74C3.21042 5.79 4.93042 7.42 7.00042 7.42ZM13.6904 11.3C12.9304 10 11.5104 9.11 9.90042 9.11H4.10042C2.49042 9.11 1.07042 9.99 0.310419 11.3C-0.179581 12.14 -0.0795809 13.2 0.540419 13.96C2.10042 15.87 4.44042 17 7.00042 17C9.56042 17 11.9004 15.87 13.4604 13.96C14.0804 13.2 14.1804 12.15 13.6904 11.3Z" fill="#B6B6C0"/>
</svg>
