<svg width="80" height="81" viewBox="0 0 80 81" fill="none" xmlns="http://www.w3.org/2000/svg">
<path d="M40 50C53.8071 50 65 38.8071 65 25C65 11.1929 53.8071 0 40 0C26.1929 0 15 11.1929 15 25C15 38.8071 26.1929 50 40 50Z" fill="#989898"/>
<path d="M35.8508 9.00864L31.9629 24.2516L29.2863 25.3271L28 30.3289L30.6766 29.2793L28.4537 38H52.3599L54 31.5296H39.6097L41.2498 25.1889L43.8764 24.1652L45.1627 19.1634L42.536 20.213L45.3875 9H35.8508V9.00864Z" fill="white"/>
<path d="M10.075 77.7744V80.6949H0V65.591H3.39461V77.7744H10.075Z" fill="#4D4D4D"/>
<path d="M15.2861 80.6949H12.0438V69.2308H15.2861V80.6949ZM15.5907 65.9179C15.5907 66.5137 15.3949 66.9859 15.0032 67.3346C14.626 67.6688 14.1763 67.8359 13.6541 67.8359C13.1318 67.8359 12.6749 67.6688 12.2832 67.3346C11.906 66.9859 11.7174 66.5137 11.7174 65.9179C11.7174 65.3222 11.906 64.8573 12.2832 64.5231C12.6749 64.1744 13.1318 64 13.6541 64C14.1763 64 14.626 64.1744 15.0032 64.5231C15.3949 64.8573 15.5907 65.3222 15.5907 65.9179Z" fill="#4D4D4D"/>
<path d="M18.2251 66.3756L21.4674 65.8526V69.2308H25.3625V71.9333H21.4674V75.9654C21.4674 76.6483 21.5834 77.1932 21.8155 77.6C22.0622 78.0068 22.5481 78.2103 23.2735 78.2103C23.6216 78.2103 23.9771 78.1812 24.3397 78.1231C24.7169 78.0504 25.0578 77.956 25.3625 77.8397L25.8194 80.3679C25.4277 80.5278 24.9925 80.6658 24.5138 80.7821C24.0351 80.8983 23.4476 80.9564 22.7512 80.9564C21.8663 80.9564 21.1337 80.8402 20.5534 80.6077C19.9732 80.3607 19.5089 80.0265 19.1608 79.6051C18.8126 79.1692 18.566 78.6462 18.4209 78.0359C18.2904 77.4256 18.2251 76.75 18.2251 76.009V66.3756Z" fill="#4D4D4D"/>
<path d="M27.0338 75.05C27.0338 74.0329 27.1861 73.1466 27.4907 72.391C27.8099 71.6209 28.2233 70.9816 28.7311 70.4731C29.2388 69.9645 29.8191 69.5795 30.4719 69.3179C31.1392 69.0564 31.821 68.9256 32.5174 68.9256C34.1421 68.9256 35.426 69.4269 36.3689 70.4295C37.3119 71.4175 37.7833 72.8778 37.7833 74.8103C37.7833 74.9991 37.7761 75.2098 37.7616 75.4423C37.7471 75.6603 37.7326 75.8564 37.7181 76.0308H30.3631C30.4356 76.6991 30.7475 77.2295 31.2988 77.6218C31.85 78.0141 32.5899 78.2103 33.5183 78.2103C34.1131 78.2103 34.6934 78.1594 35.2591 78.0577C35.8394 77.9415 36.3109 77.8034 36.6736 77.6436L37.1088 80.2808C36.9347 80.3679 36.7026 80.4551 36.4124 80.5423C36.1223 80.6295 35.7959 80.7021 35.4332 80.7603C35.0851 80.8329 34.7079 80.891 34.3017 80.9346C33.8955 80.9782 33.4893 81 33.0831 81C32.0531 81 31.1537 80.8474 30.3848 80.5423C29.6305 80.2372 28.9994 79.8231 28.4917 79.3C27.9985 78.7624 27.6285 78.1303 27.3819 77.4038C27.1498 76.6774 27.0338 75.8927 27.0338 75.05ZM34.6499 73.8077C34.6353 73.5316 34.5846 73.2628 34.4975 73.0013C34.425 72.7397 34.3017 72.5073 34.1276 72.3038C33.968 72.1004 33.7577 71.9333 33.4966 71.8026C33.2499 71.6718 32.938 71.6064 32.5609 71.6064C32.1982 71.6064 31.8863 71.6718 31.6252 71.8026C31.3641 71.9188 31.1465 72.0786 30.9724 72.2821C30.7983 72.4855 30.6605 72.7252 30.5589 73.0013C30.4719 73.2628 30.4066 73.5316 30.3631 73.8077H34.6499Z" fill="#4D4D4D"/>
<path d="M39.7414 74.9628C39.7414 74.1346 39.872 73.3573 40.1331 72.6308C40.4087 71.8897 40.8004 71.2504 41.3082 70.7128C41.8159 70.1607 42.4324 69.7248 43.1578 69.4051C43.8831 69.0855 44.71 68.9256 45.6385 68.9256C46.2478 68.9256 46.8063 68.9838 47.314 69.1C47.8217 69.2017 48.315 69.3543 48.7937 69.5577L48.1191 72.1513C47.8145 72.035 47.4808 71.9333 47.1182 71.8462C46.7555 71.759 46.3493 71.7154 45.8996 71.7154C44.9421 71.7154 44.224 72.0132 43.7453 72.609C43.2811 73.2047 43.049 73.9893 43.049 74.9628C43.049 75.9944 43.2666 76.7936 43.7018 77.3603C44.1515 77.9269 44.9276 78.2103 46.0301 78.2103C46.4218 78.2103 46.8425 78.1739 47.2922 78.1013C47.742 78.0286 48.1554 77.9124 48.5326 77.7526L48.9895 80.4115C48.6124 80.5714 48.1409 80.7094 47.5751 80.8256C47.0094 80.9419 46.3856 81 45.7037 81C44.6593 81 43.7598 80.8474 43.0055 80.5423C42.2511 80.2227 41.6273 79.794 41.1341 79.2564C40.6554 78.7188 40.2999 78.0868 40.0678 77.3603C39.8502 76.6192 39.7414 75.8201 39.7414 74.9628Z" fill="#4D4D4D"/>
<path d="M61.3191 74.941C61.3191 75.8419 61.1886 76.6701 60.9274 77.4256C60.6663 78.1667 60.2891 78.806 59.7959 79.3436C59.3027 79.8667 58.7079 80.2735 58.0116 80.5641C57.3297 80.8547 56.5609 81 55.705 81C54.8636 81 54.0947 80.8547 53.3984 80.5641C52.7166 80.2735 52.129 79.8667 51.6358 79.3436C51.1426 78.806 50.7581 78.1667 50.4825 77.4256C50.2069 76.6701 50.0691 75.8419 50.0691 74.941C50.0691 74.0402 50.2069 73.2192 50.4825 72.4782C50.7726 71.7372 51.1643 71.1051 51.6576 70.5821C52.1653 70.059 52.7601 69.6521 53.4419 69.3615C54.1382 69.0709 54.8926 68.9256 55.705 68.9256C56.5319 68.9256 57.2862 69.0709 57.968 69.3615C58.6644 69.6521 59.2592 70.059 59.7524 70.5821C60.2456 71.1051 60.6301 71.7372 60.9057 72.4782C61.1813 73.2192 61.3191 74.0402 61.3191 74.941ZM58.0116 74.941C58.0116 73.9385 57.8085 73.1538 57.4023 72.5872C57.0106 72.006 56.4448 71.7154 55.705 71.7154C54.9651 71.7154 54.3921 72.006 53.9859 72.5872C53.5797 73.1538 53.3766 73.9385 53.3766 74.941C53.3766 75.9436 53.5797 76.7427 53.9859 77.3385C54.3921 77.9197 54.9651 78.2103 55.705 78.2103C56.4448 78.2103 57.0106 77.9197 57.4023 77.3385C57.8085 76.7427 58.0116 75.9436 58.0116 74.941Z" fill="#4D4D4D"/>
<path d="M67.073 80.6949H63.8307V69.2308H67.073V80.6949ZM67.3777 65.9179C67.3777 66.5137 67.1818 66.9859 66.7901 67.3346C66.413 67.6688 65.9633 67.8359 65.441 67.8359C64.9188 67.8359 64.4618 67.6688 64.0701 67.3346C63.6929 66.9859 63.5043 66.5137 63.5043 65.9179C63.5043 65.3222 63.6929 64.8573 64.0701 64.5231C64.4618 64.1744 64.9188 64 65.441 64C65.9633 64 66.413 64.1744 66.7901 64.5231C67.1818 64.8573 67.3777 65.3222 67.3777 65.9179Z" fill="#4D4D4D"/>
<path d="M70.1208 69.6231C70.6721 69.4632 71.3829 69.3179 72.2533 69.1872C73.1237 69.0419 74.0377 68.9692 74.9951 68.9692C75.9671 68.9692 76.7722 69.1 77.4105 69.3615C78.0633 69.6085 78.5783 69.9645 78.9555 70.4295C79.3327 70.8944 79.6011 71.4466 79.7606 72.0859C79.9202 72.7252 80 73.4372 80 74.2218V80.6949H76.7577V74.6141C76.7577 73.5679 76.6199 72.8269 76.3443 72.391C76.0686 71.9551 75.5536 71.7372 74.7993 71.7372C74.5672 71.7372 74.3206 71.7517 74.0594 71.7808C73.7983 71.7953 73.5662 71.8171 73.3631 71.8462V80.6949H70.1208V69.6231Z" fill="#4D4D4D"/>
</svg>
