<?xml version="1.0" encoding="utf-8"?>
<!-- Generator: Adobe Illustrator 21.1.0, SVG Export Plug-In . SVG Version: 6.00 Build 0)  -->
<svg version="1.1" id="Layer_1" xmlns="http://www.w3.org/2000/svg" xmlns:xlink="http://www.w3.org/1999/xlink" x="0px" y="0px"
	 viewBox="0 0 46 48" style="enable-background:new 0 0 46 48;" xml:space="preserve">
<style type="text/css">
	.st0{fill:#E55647;}
</style>
<path class="st0" d="M43.6,10.9L27.8,1.3c-2.8-1.7-6.8-1.7-9.4,0l-16,9.6C0.9,11.8,0,13.3,0,15.1v17.9c0,1.7,0.9,3.3,2.4,4.1
	l15.8,9.6c1.5,0.9,3.1,1.3,4.8,1.3s3.3-0.4,4.8-1.3l15.8-9.6c1.5-0.9,2.4-2.4,2.4-4.1V15.1C46,13.3,45.1,11.8,43.6,10.9z M29.6,10
	c1.1,0,2,0.9,2,2c0,1.1-0.9,2-2,2s-2-0.9-2-2C27.6,10.9,28.5,10,29.6,10z M16.4,10c1.1,0,2,0.9,2,2c0,1.1-0.9,2-2,2
	c-1.1,0-2-0.9-2-2C14.5,10.9,15.3,10,16.4,10z M9.9,31.4c-1.1,0-2-0.9-2-2c0-1.1,0.9-2,2-2s2,0.9,2,2C11.8,30.5,10.9,31.4,9.9,31.4z
	 M20.6,24.7c-0.2,0.4-0.7,0.4-0.9,0.4c-0.2,0-0.4,0-0.7-0.2L4.8,16.1c-0.4-0.2-0.7-0.9-0.2-1.5c0.2-0.4,1.1-0.7,1.5-0.4l14.2,8.7
	C20.8,23.3,21,24,20.6,24.7z M24.1,42.5c0,0.7-0.4,1.1-1.1,1.1c-0.7,0-1.1-0.4-1.1-1.1V28.4c0-0.7,0.4-1.1,1.1-1.1
	c0.7,0,1.1,0.4,1.1,1.1V42.5z M29.6,40.1c-1.1,0-2-0.9-2-2c0-1.1,0.9-2,2-2s2,0.9,2,2C31.5,39.3,30.7,40.1,29.6,40.1z M34,31.4
	c-1.1,0-2-0.9-2-2c0-1.1,0.9-2,2-2c1.1,0,2,0.9,2,2C35.9,30.5,35,31.4,34,31.4z M38.3,24.9c-1.1,0-2-0.9-2-2c0-1.1,0.9-2,2-2
	s2,0.9,2,2C40.3,24,39.4,24.9,38.3,24.9z M41.2,16.1l-14.2,8.7c-0.2,0.2-0.4,0.2-0.7,0.2c-0.4,0-0.7-0.2-0.9-0.4
	c-0.2-0.4-0.2-1.1,0.4-1.5l14.2-8.7c0.4-0.2,1.1-0.2,1.5,0.4C41.8,15.3,41.6,15.9,41.2,16.1z"/>
</svg>
