<svg id="SvgjsSvg1001" width="288" height="288" xmlns="http://www.w3.org/2000/svg" version="1.1" xmlns:xlink="http://www.w3.org/1999/xlink" xmlns:svgjs="http://svgjs.com/svgjs"><defs id="SvgjsDefs1002"></defs><g id="SvgjsG1008" transform="matrix(1,0,0,1,0,0)"><svg xmlns="http://www.w3.org/2000/svg" width="288" height="288" viewBox="0 0 1000.008 775.972"><g transform="translate(1417.705 -1887.453) scale(8.58376)" fill="#ffffff" class="color000 svgShape"><path d="m 358.9,351.1 0,-6 c 0,-2.3 -1.4,-3.8 -3.8,-3.8 -1.2,0 -2.5,0.4 -3.4,1.7 -0.7,-1.1 -1.7,-1.7 -3.2,-1.7 -1,0 -2,0.3 -2.8,1.4 l 0,-1.2 -2.1,0 0,9.6 2.1,0 0,-5.3 c 0,-1.7 0.9,-2.5 2.3,-2.5 1.4,0 2.1,0.9 2.1,2.5 l 0,5.3 2.1,0 0,-5.3 c 0,-1.7 1,-2.5 2.3,-2.5 1.4,0 2.1,0.9 2.1,2.5 l 0,5.3 2.3,0 z m 31.1,-9.6 -3.4,0 0,-2.9 -2.1,0 0,2.9 -1.9,0 0,1.9 1.9,0 0,4.4 c 0,2.2 0.9,3.5 3.3,3.5 0.9,0 1.9,-0.3 2.6,-0.7 l -0.6,-1.8 c -0.6,0.4 -1.3,0.5 -1.8,0.5 -1,0 -1.4,-0.6 -1.4,-1.6 l 0,-4.3 3.4,0 0,-1.9 z m 17.8,-0.2 c -1.2,0 -2,0.6 -2.5,1.4 l 0,-1.2 -2.1,0 0,9.6 2.1,0 0,-5.4 c 0,-1.6 0.7,-2.5 2,-2.5 0.4,0 0.9,0.1 1.3,0.2 l 0.6,-2 c -0.4,-0.1 -1,-0.1 -1.4,-0.1 l 0,0 z m -26.9,1 c -1,-0.7 -2.4,-1 -3.9,-1 -2.4,0 -4,1.2 -4,3.1 0,1.6 1.2,2.5 3.3,2.8 l 1,0.1 c 1.1,0.2 1.7,0.5 1.7,1 0,0.7 -0.8,1.2 -2.2,1.2 -1.4,0 -2.5,-0.5 -3.2,-1 l -1,1.6 c 1.1,0.8 2.6,1.2 4.1,1.2 2.8,0 4.4,-1.3 4.4,-3.1 0,-1.7 -1.3,-2.6 -3.3,-2.9 l -1,-0.1 c -0.9,-0.1 -1.6,-0.3 -1.6,-0.9 0,-0.7 0.7,-1.1 1.8,-1.1 1.2,0 2.4,0.5 3,0.8 l 0.9,-1.7 z m 55.8,-1 c -1.2,0 -2,0.6 -2.5,1.4 l 0,-1.2 -2.1,0 0,9.6 2.1,0 0,-5.4 c 0,-1.6 0.7,-2.5 2,-2.5 0.4,0 0.9,0.1 1.3,0.2 l 0.6,-2 c -0.4,-0.1 -1,-0.1 -1.4,-0.1 l 0,0 z m -26.8,5 c 0,2.9 2,5 5.1,5 1.4,0 2.4,-0.3 3.4,-1.1 l -1,-1.7 c -0.8,0.6 -1.6,0.9 -2.5,0.9 -1.7,0 -2.9,-1.2 -2.9,-3.1 0,-1.8 1.2,-3 2.9,-3.1 0.9,0 1.7,0.3 2.5,0.9 l 1,-1.7 c -1,-0.8 -2,-1.1 -3.4,-1.1 -3.1,0 -5.1,2.1 -5.1,5 l 0,0 z m 19.4,0 0,-4.8 -2.1,0 0,1.2 c -0.7,-0.9 -1.7,-1.4 -3,-1.4 -2.7,0 -4.8,2.1 -4.8,5 0,2.9 2.1,5 4.8,5 1.4,0 2.4,-0.5 3,-1.4 l 0,1.2 2.1,0 0,-4.8 z m -7.7,0 c 0,-1.7 1.1,-3.1 2.9,-3.1 1.7,0 2.9,1.3 2.9,3.1 0,1.7 -1.2,3.1 -2.9,3.1 -1.8,-0.1 -2.9,-1.4 -2.9,-3.1 l 0,0 z m -25.1,-5 c -2.8,0 -4.8,2 -4.8,5 0,3 2,5 4.9,5 1.4,0 2.8,-0.4 3.9,-1.3 l -1,-1.5 c -0.8,0.6 -1.8,1 -2.8,1 -1.3,0 -2.6,-0.6 -2.9,-2.3 l 7.1,0 c 0,-0.3 0,-0.5 0,-0.8 0.1,-3.1 -1.7,-5.1 -4.4,-5.1 l 0,0 z m 0,1.8 c 1.3,0 2.2,0.8 2.4,2.3 l -5,0 c 0.2,-1.3 1.1,-2.3 2.6,-2.3 l 0,0 z m 52.1,3.2 0,-8.6 -2.1,0 0,5 c -0.7,-0.9 -1.7,-1.4 -3,-1.4 -2.7,0 -4.8,2.1 -4.8,5 0,2.9 2.1,5 4.8,5 1.4,0 2.4,-0.5 3,-1.4 l 0,1.2 2.1,0 0,-4.8 z m -7.7,0 c 0,-1.7 1.1,-3.1 2.9,-3.1 1.7,0 2.9,1.3 2.9,3.1 0,1.7 -1.2,3.1 -2.9,3.1 -1.8,-0.1 -2.9,-1.4 -2.9,-3.1 l 0,0 z m -70.2,0 0,-4.8 -2.1,0 0,1.2 c -0.7,-0.9 -1.7,-1.4 -3,-1.4 -2.7,0 -4.8,2.1 -4.8,5 0,2.9 2.1,5 4.8,5 1.4,0 2.4,-0.5 3,-1.4 l 0,1.2 2.1,0 0,-4.8 z m -7.8,0 c 0,-1.7 1.1,-3.1 2.9,-3.1 1.7,0 2.9,1.3 2.9,3.1 0,1.7 -1.2,3.1 -2.9,3.1 -1.8,-0.1 -2.9,-1.4 -2.9,-3.1 z" transform="translate(-502.861 -41.014)" fill="#ffffff" class="color000 svgShape"></path><g transform="translate(-502.861 -41.014)" fill="#ffffff" class="color000 svgShape"><rect width="31.5" height="56.6" x="380.2" y="268.6" fill="#ff5f00" class="st1 colorff5f00 svgShape"></rect><path fill="#eb001b" d="m 382.2,296.9 c 0,-11.5 5.4,-21.7 13.7,-28.3 -6.1,-4.8 -13.8,-7.7 -22.2,-7.7 -19.9,0 -36,16.1 -36,36 0,19.9 16.1,36 36,36 8.4,0 16.1,-2.9 22.2,-7.7 -8.3,-6.5 -13.7,-16.8 -13.7,-28.3 z" class="st2 coloreb001b svgShape"></path><path fill="#f79e1b" d="m 454.2,296.9 c 0,19.9 -16.1,36 -36,36 -8.4,0 -16.1,-2.9 -22.2,-7.7 8.4,-6.6 13.7,-16.8 13.7,-28.3 0,-11.5 -5.4,-21.7 -13.7,-28.3 6.1,-4.8 13.8,-7.7 22.2,-7.7 19.9,0 36,16.2 36,36 z" class="st3 colorf79e1b svgShape"></path></g></g></svg></g></svg>