<svg width="99" height="50" viewBox="0 0 99 50" fill="none" xmlns="http://www.w3.org/2000/svg">
<path d="M1.5874 48.229H47.911V1.62109H1.5874V48.229Z" fill="#FF0000"/>
<path d="M24.7489 6.40808C31.3319 6.40808 38.3667 18.2502 38.3667 28.5053C38.3667 36.5604 33.6607 43.432 24.7489 43.432C15.8304 43.432 11.1367 36.5604 11.1367 28.5053C11.1367 18.2502 18.1649 6.40808 24.7489 6.40808Z" fill="white"/>
<path d="M97.5177 48.2482H51.1987V1.64087H97.5177V48.2482Z" fill="#FF0000"/>
<path d="M54.5894 19.4204H59.4666L61.0598 26.003H61.086L62.681 19.4204H67.5544V30.6092H64.3137V23.428H64.2796L62.3515 30.6092H59.7941L57.8622 23.428H57.8339V30.6092H54.5894V19.4204Z" fill="white"/>
<path d="M72.5381 22.2859H69.4241V19.4204H79.0842V22.2859H75.9625V30.6092H72.5381V22.2859Z" fill="white"/>
<path d="M87.3556 23.5842C87.2932 23.1812 86.9787 21.9403 85.5676 21.9403C83.9593 21.9403 83.4442 23.5094 83.4442 25.0173C83.4442 26.5229 83.9593 28.0876 85.5676 28.0876C86.7154 28.0876 87.17 27.2732 87.3708 26.2173H90.7368C90.7368 28.4747 88.9126 30.878 85.6566 30.878C82.0559 30.878 80.0198 28.3231 80.0198 25.0173C80.0198 21.4877 82.2303 19.1554 85.6566 19.1554C88.712 19.1678 90.3956 20.7812 90.6855 23.5842H87.3556Z" fill="white"/>
</svg>
