<svg width="165" height="44" xmlns="http://www.w3.org/2000/svg">
 <defs>
  <clipPath id="clip0">
   <rect id="svg_1" fill="white" height="44" width="56.878" x="108"/>
  </clipPath>
 </defs>
 <g>
  <title>background</title>
  <rect fill="none" id="canvas_background" height="602" width="802" y="-1" x="-1"/>
 </g>
 <g>
  <title>Layer 1</title>
  <path id="svg_2" fill="#2566AF" d="m76.51247,36.6212l-7.3478,0l4.5923,-28.22285l7.3486,0l-4.5931,28.22285zm-13.5293,-28.22285l-7.0052,19.41195l-0.8289,-4.1802l0.0007,0.0015l-2.4724,-12.6921c0,0 -0.299,-2.54115 -3.4856,-2.54115l-11.58086,0l-0.13589,0.47788c0,0 3.54145,0.73682 7.68611,3.22587l6.38384,24.5199l7.6559,0l11.6903,-28.22365l-7.908,0zm57.7948,28.22285l6.747,0l-5.8825,-28.22361l-5.9067,0c-2.72771,0 -3.39201,2.10331 -3.39201,2.10331l-10.95879,26.1203l7.6597,0l1.5318,-4.1922l9.3409,0l0.8606,4.1922zm-8.0854,-9.9834l3.8608,-10.5617l2.172,10.5617l-6.0328,0zm-10.7331,-11.4525l1.0486,-6.0607c0,0 -3.23569,-1.23056 -6.6088,-1.23056c-3.6464,0 -12.3056,1.59369 -12.3056,9.34326c0,7.2912 10.1631,7.3818 10.1631,11.2117c0,3.8298 -9.116,3.1435 -12.1244,0.7285l-1.0924,6.337c0,0 3.281,1.5937 8.29379,1.5937c5.01431,0 12.5789,-2.5963 12.5789,-9.6626c0,-7.338 -10.25439,-8.0213 -10.25439,-11.2117c0.00069,-3.1911 7.15689,-2.7812 10.30119,-1.0486z"/>
  <path id="svg_3" fill="#E6A540" d="m55.33737,23.6309l-2.4724,-12.6922c0,0 -0.299,-2.54112 -3.4856,-2.54112l-11.58086,0l-0.13589,0.47788c0,0 5.56622,1.15354 10.90514,5.47564c5.105,4.1311 6.7696,9.2798 6.7696,9.2798z"/>
 </g>
</svg>