<svg width="28" height="28" viewBox="0 0 28 28" fill="none" xmlns="http://www.w3.org/2000/svg">
<path fill-rule="evenodd" clip-rule="evenodd" d="M5.0347 4.375C4.59306 2.1 6.35962 0 8.65615 0C10.6877 0 12.3659 1.6625 12.3659 3.675V8.225C12.8959 8.225 13.4259 8.1375 13.9558 8.1375C14.4858 8.1375 14.9274 8.1375 15.4574 8.225V3.675C15.4574 1.6625 17.1356 0 19.1672 0C21.4637 0 23.2303 2.1 22.877 4.375L21.9054 9.7125C25.3502 11.2 28 13.825 28 17.0625V19.075C28 21.7875 26.2334 24.0625 23.6719 25.55C21.1104 27.125 17.7539 28 13.9558 28C10.1577 28 6.80126 27.125 4.23975 25.55C1.76656 24.0625 0 21.7875 0 19.075V17.0625C0 13.825 2.56151 11.2 6.00631 9.7125L5.0347 4.375ZM20.5804 10.4125L21.7287 4.1125C21.9937 2.5375 20.8454 1.05 19.1672 1.05C17.7539 1.05 16.6057 2.1875 16.6057 3.5875V9.3625C16.2524 9.275 15.8107 9.275 15.4574 9.275C14.9274 9.275 14.4858 9.1875 13.9558 9.1875C13.4259 9.1875 12.8959 9.1875 12.3659 9.275C12.0126 9.275 11.571 9.3625 11.2177 9.3625V3.675C11.2177 2.275 10.0694 1.1375 8.65615 1.1375C7.06625 1.1375 5.82965 2.625 6.18297 4.2L7.33123 10.5C3.62145 11.9 1.14826 14.35 1.14826 17.15V19.1625C1.14826 23.45 6.88959 26.95 13.9558 26.95C21.0221 26.95 26.7634 23.45 26.7634 19.1625V17.15C26.8517 14.2625 24.3785 11.8125 20.5804 10.4125Z" fill="#633001"/>
<path d="M26.8517 19.075C26.8517 23.3625 21.1104 26.8625 14.0441 26.8625C6.9779 26.8625 1.23657 23.3625 1.23657 19.075V17.0625H26.94V19.075H26.8517Z" fill="#FEDC90"/>
<path fill-rule="evenodd" clip-rule="evenodd" d="M6.18294 4.19995C5.82963 2.62495 7.06623 1.13745 8.65613 1.13745C10.0694 1.13745 11.2176 2.27495 11.2176 3.67495V9.44995C12.1009 9.36245 12.9842 9.27495 13.9558 9.27495C14.8391 9.27495 15.7224 9.36245 16.6057 9.44995V3.67495C16.6057 2.27495 17.7539 1.13745 19.1672 1.13745C20.7571 1.13745 21.9937 2.62495 21.7287 4.19995L20.5804 10.5C24.2902 11.9 26.8517 14.35 26.8517 17.15C26.8517 21.4375 21.1104 24.9375 14.0441 24.9375C6.9779 24.9375 1.23657 21.4375 1.23657 17.15C1.23657 14.35 3.70976 11.9 7.41954 10.5L6.18294 4.19995Z" fill="#D1884F"/>
<path d="M10.4227 16.5375C10.4227 17.675 9.80439 18.6375 9.00944 18.6375C8.21449 18.6375 7.59619 17.675 7.59619 16.5375C7.59619 15.4 8.21449 14.4375 9.00944 14.4375C9.80439 14.4375 10.4227 15.4 10.4227 16.5375Z" fill="#633001"/>
<path d="M20.2271 16.5375C20.2271 17.675 19.6088 18.6375 18.8139 18.6375C18.0189 18.6375 17.4006 17.675 17.4006 16.5375C17.4006 15.4 18.0189 14.4375 18.8139 14.4375C19.6088 14.4375 20.2271 15.4 20.2271 16.5375Z" fill="#633001"/>
</svg>
