<svg width="150" height="52" viewBox="0 0 150 52" fill="none" xmlns="http://www.w3.org/2000/svg">
<path d="M25.9316 31.7814C29.0407 31.7814 31.5612 29.2541 31.5612 26.1366C31.5612 23.0192 29.0407 20.4919 25.9316 20.4919C22.8225 20.4919 20.302 23.0192 20.302 26.1366C20.302 29.2541 22.8225 31.7814 25.9316 31.7814Z" fill="#FFD833"/>
<path d="M21.4159 21.1877C19.7338 18.5871 18.6858 15.626 18.3566 12.5439C15.8091 10.4153 11.7566 9.36997 6.199 9.40798C6.14457 10.7586 6.22841 12.1113 6.4492 13.4448C7.58649 19.6483 12.727 23.6053 18.7888 24.5175L19.3233 24.586C19.6611 23.2667 20.3909 22.0815 21.4159 21.1877Z" fill="#F54182"/>
<path d="M21.4159 21.1877C19.7338 18.5871 18.6858 15.626 18.3566 12.5439C15.8091 10.4153 11.7566 9.36997 6.199 9.40798C6.14457 10.7586 6.22841 12.1113 6.4492 13.4448C7.58649 19.6483 12.727 23.6053 18.7888 24.5175L19.3233 24.586C19.6611 23.2667 20.3909 22.0815 21.4159 21.1877Z" fill="url(#paint0_radial)"/>
<path d="M10.7259 34.3815C9.14126 36.8142 8.12907 40.2885 7.68932 44.8042C9.93485 45.1931 12.2385 45.0762 14.4335 44.4621C16.2101 43.925 17.8508 43.0111 19.2442 41.7823L19.5626 41.463C21.8231 38.9938 23.3513 35.941 23.9753 32.6482C22.9638 32.3503 22.0416 31.8057 21.2913 31.0631C18.1674 33.1783 14.495 34.3317 10.7259 34.3815Z" fill="#F54182"/>
<path d="M10.7259 34.3815C9.14126 36.8142 8.12907 40.2885 7.68932 44.8042C9.93485 45.1931 12.2385 45.0762 14.4335 44.4621C16.2101 43.925 17.8508 43.0111 19.2442 41.7823L19.5626 41.463C21.8231 38.9938 23.3513 35.941 23.9753 32.6482C22.9638 32.3503 22.0416 31.8057 21.2913 31.0631C18.1674 33.1783 14.495 34.3317 10.7259 34.3815Z" fill="url(#paint1_radial)"/>
<path d="M9.62246 22.4535C9.25778 22.1561 8.90855 21.8402 8.57615 21.507C5.41844 22.5312 2.50108 24.1877 0.000976562 26.3762C1.27403 28.2775 2.957 29.8676 4.92545 31.0289C6.54785 31.9631 8.36797 32.4985 10.2366 32.5911H10.737C14.1181 32.5449 17.4101 31.4975 20.1993 29.5806C19.6207 28.6098 19.2997 27.5067 19.2667 26.3762C15.7585 25.9625 12.4266 24.6073 9.62246 22.4535Z" fill="#F54182"/>
<path d="M9.62246 22.4535C9.25778 22.1561 8.90855 21.8402 8.57615 21.507C5.41844 22.5312 2.50108 24.1877 0.000976562 26.3762C1.27403 28.2775 2.957 29.8676 4.92545 31.0289C6.54785 31.9631 8.36797 32.4985 10.2366 32.5911H10.737C14.1181 32.5449 17.4101 31.4975 20.1993 29.5806C19.6207 28.6098 19.2997 27.5067 19.2667 26.3762C15.7585 25.9625 12.4266 24.6073 9.62246 22.4535Z" fill="url(#paint2_radial)"/>
<path d="M31.9193 40.157C31.9193 39.9538 31.8622 39.7618 31.8279 39.5699C31.3621 36.9294 30.4169 34.3937 29.038 32.085C28.1031 32.5682 27.0633 32.82 26.0081 32.8188H25.8823C25.1863 36.4158 23.483 39.7481 20.9658 42.4375V42.5052C21.5299 45.3652 23.2525 48.53 26.1339 51.9997C27.1303 51.2519 28.0564 50.4169 28.9008 49.5047C29.6605 48.6766 30.2958 47.7451 30.7874 46.7388C31.7918 44.696 32.1846 42.4126 31.9193 40.157Z" fill="#F54182"/>
<path d="M31.9193 40.157C31.9193 39.9538 31.8622 39.7618 31.8279 39.5699C31.3621 36.9294 30.4169 34.3937 29.038 32.085C28.1031 32.5682 27.0633 32.82 26.0081 32.8188H25.8823C25.1863 36.4158 23.483 39.7481 20.9658 42.4375V42.5052C21.5299 45.3652 23.2525 48.53 26.1339 51.9997C27.1303 51.2519 28.0564 50.4169 28.9008 49.5047C29.6605 48.6766 30.2958 47.7451 30.7874 46.7388C31.7918 44.696 32.1846 42.4126 31.9193 40.157Z" fill="url(#paint3_radial)"/>
<path d="M29.5716 20.3069C31.2866 17.6611 32.2564 14.9305 32.4809 12.1151V12.007C32.5182 11.6635 32.5366 11.318 32.5359 10.9724C32.5133 8.95992 31.9698 6.98772 30.9585 5.24839C29.9464 3.43648 28.4445 1.82031 26.4528 0.399902H26.4401C24.4442 1.81325 22.9387 3.43012 21.9239 5.2505C20.9125 6.98983 20.3691 8.96204 20.3465 10.9745C20.3458 11.3202 20.3641 11.6656 20.4015 12.0091V12.1173C20.6175 14.8323 21.5293 17.4689 23.1371 20.0271C24.141 19.5068 25.2636 19.259 26.393 19.3085C27.5223 19.358 28.619 19.7029 29.5738 20.309L29.5716 20.3069Z" fill="url(#paint4_linear)"/>
<path d="M49.0153 35.633C49.0153 35.9487 48.9133 36.2088 48.7092 36.4131C48.5051 36.6174 48.2454 36.7196 47.93 36.7196C47.6146 36.7196 47.3549 36.6174 47.1508 36.4131C46.9468 36.2088 46.8447 35.9487 46.8447 35.633V16.0465C46.8447 15.7308 46.9468 15.4708 47.1508 15.2664C47.3549 15.0621 47.6146 14.96 47.93 14.96H53.4956C54.8499 14.96 56.0558 15.2664 57.1133 15.8794C58.1893 16.4738 59.0241 17.3096 59.6178 18.3869C60.2114 19.4456 60.5083 20.6622 60.5083 22.0367C60.5083 23.3926 60.2114 24.5999 59.6178 25.6587C59.0241 26.7174 58.1893 27.5439 57.1133 28.1383C56.0558 28.7327 54.8499 29.0299 53.4956 29.0299H49.0153V35.633ZM53.4956 26.9403C54.4418 26.9403 55.2859 26.736 56.028 26.3273C56.77 25.9001 57.3452 25.315 57.7533 24.5721C58.18 23.8291 58.3933 22.984 58.3933 22.0367C58.3933 21.0709 58.18 20.2164 57.7533 19.4735C57.3452 18.7119 56.77 18.1176 56.028 17.6904C55.2859 17.2632 54.4418 17.0496 53.4956 17.0496H49.0153V26.9403H53.4956Z" fill="#2196F3"/>
<path d="M64.051 22.5659C64.051 22.2502 64.153 21.9901 64.3571 21.7858C64.5611 21.5815 64.8209 21.4794 65.1363 21.4794C65.4516 21.4794 65.7021 21.5815 65.8876 21.7858C66.0917 21.9901 66.1937 22.2502 66.1937 22.5659V35.6328C66.1937 35.9486 66.0917 36.2086 65.8876 36.413C65.7021 36.6173 65.4516 36.7194 65.1363 36.7194C64.8209 36.7194 64.5611 36.6173 64.3571 36.413C64.153 36.2086 64.051 35.9486 64.051 35.6328V22.5659ZM65.1363 15.5449C65.5444 15.5449 65.8969 15.6842 66.1937 15.9628C66.4905 16.2415 66.639 16.6036 66.639 17.0494C66.639 17.4766 66.4905 17.8388 66.1937 18.136C65.8969 18.4332 65.5351 18.5818 65.1084 18.5818C64.6817 18.5818 64.32 18.4332 64.0231 18.136C63.7448 17.8388 63.6057 17.4766 63.6057 17.0494C63.6057 16.6036 63.7541 16.2415 64.051 15.9628C64.3478 15.6842 64.7096 15.5449 65.1363 15.5449Z" fill="#2196F3"/>
<path d="M78.5787 21.3401C80.0258 21.3401 81.3337 21.6837 82.5025 22.371C83.6898 23.0396 84.6174 23.9683 85.2852 25.1571C85.9717 26.3458 86.3149 27.6646 86.3149 29.1134V35.6607C86.3149 35.9579 86.2128 36.2087 86.0088 36.413C85.8047 36.6173 85.545 36.7195 85.2296 36.7195C84.9142 36.7195 84.6545 36.6266 84.4504 36.4409C84.2463 36.2365 84.1443 35.9765 84.1443 35.6607V33.9891C83.495 34.8806 82.6694 35.5864 81.6676 36.1065C80.6658 36.608 79.562 36.8588 78.3561 36.8588C76.9461 36.8588 75.666 36.5244 74.5158 35.8558C73.3842 35.1685 72.4844 34.2398 71.8165 33.0697C71.1672 31.8809 70.8425 30.5621 70.8425 29.1134C70.8425 27.6646 71.1765 26.3458 71.8443 25.1571C72.5308 23.9683 73.4584 23.0396 74.6271 22.371C75.8145 21.6837 77.1317 21.3401 78.5787 21.3401ZM78.5787 34.9085C79.6362 34.9085 80.5916 34.6577 81.445 34.1562C82.2984 33.6547 82.9662 32.9675 83.4486 32.0945C83.9495 31.203 84.2 30.2092 84.2 29.1134C84.2 28.0175 83.9495 27.0331 83.4486 26.1601C82.9662 25.2685 82.2984 24.572 81.445 24.0705C80.5916 23.5504 79.6362 23.2904 78.5787 23.2904C77.5212 23.2904 76.5565 23.5504 75.6846 24.0705C74.8312 24.572 74.1541 25.2685 73.6532 26.1601C73.1708 27.0331 72.9296 28.0175 72.9296 29.1134C72.9296 30.2092 73.1708 31.203 73.6532 32.0945C74.1541 32.9675 74.8312 33.6547 75.6846 34.1562C76.5565 34.6577 77.5212 34.9085 78.5787 34.9085Z" fill="#2196F3"/>
<path d="M95.7418 21.3401C96.9662 21.3401 98.033 21.5537 98.942 21.9809C99.8511 22.3895 100.584 22.9653 101.14 23.7083C101.289 23.9498 101.363 24.1634 101.363 24.3491C101.363 24.6649 101.215 24.9156 100.918 25.1013C100.788 25.1942 100.612 25.2407 100.389 25.2407C99.9995 25.2407 99.6748 25.1013 99.4151 24.8227C98.506 23.7826 97.2631 23.2625 95.6861 23.2625C94.6658 23.2625 93.8495 23.4761 93.2373 23.9033C92.6251 24.3119 92.3189 24.832 92.3189 25.4635C92.3189 26.1322 92.6065 26.6709 93.1816 27.0795C93.7567 27.4696 94.7771 27.7853 96.2427 28.0268C98.2278 28.3611 99.647 28.909 100.5 29.6706C101.354 30.4136 101.78 31.3423 101.78 32.4567C101.78 33.3111 101.521 34.0727 101.001 34.7413C100.5 35.41 99.7954 35.9301 98.8864 36.3015C97.9773 36.673 96.9477 36.8588 95.7974 36.8588C94.6472 36.8588 93.5434 36.6637 92.4859 36.2737C91.4285 35.8836 90.5751 35.3357 89.9257 34.6299C89.7402 34.407 89.6475 34.1934 89.6475 33.9891C89.6475 33.6733 89.7959 33.3947 90.0927 33.1532C90.3153 32.9861 90.5472 32.9025 90.7884 32.9025C91.1038 32.9025 91.3728 33.0325 91.5954 33.2925C92.0407 33.8126 92.6251 34.212 93.3486 34.4906C94.0907 34.7692 94.9069 34.9085 95.7974 34.9085C97.0961 34.9085 98.0701 34.6856 98.7194 34.2398C99.3687 33.794 99.7026 33.209 99.7212 32.4846C99.7212 31.8159 99.3965 31.2587 98.7472 30.8129C98.0979 30.3671 97.0683 30.0328 95.6583 29.8099C93.8402 29.5127 92.4766 29.0019 91.5676 28.2775C90.6771 27.5346 90.2318 26.643 90.2318 25.6028C90.2318 24.2469 90.7513 23.1975 91.7902 22.4545C92.8477 21.7116 94.1649 21.3401 95.7418 21.3401Z" fill="#2196F3"/>
<path d="M112.19 34.5742C112.487 34.5742 112.728 34.6764 112.914 34.8807C113.099 35.085 113.192 35.345 113.192 35.6608C113.192 35.958 113.081 36.2087 112.858 36.413C112.635 36.6174 112.357 36.7195 112.023 36.7195H111.439C110.456 36.7195 109.574 36.4873 108.795 36.023C108.016 35.5401 107.404 34.8993 106.958 34.1006C106.532 33.2833 106.318 32.3639 106.318 31.3423V23.9034H104.51C104.213 23.9034 103.972 23.8198 103.786 23.6526C103.619 23.4669 103.536 23.244 103.536 22.9839C103.536 22.7053 103.619 22.4824 103.786 22.3153C103.972 22.1295 104.213 22.0367 104.51 22.0367H106.318V17.7182C106.318 17.4024 106.411 17.1424 106.597 16.9381C106.801 16.7337 107.061 16.6316 107.376 16.6316C107.691 16.6316 107.951 16.7337 108.155 16.9381C108.359 17.1424 108.461 17.4024 108.461 17.7182V22.0367H111.606C111.903 22.0367 112.134 22.1295 112.301 22.3153C112.487 22.4824 112.58 22.7053 112.58 22.9839C112.58 23.244 112.487 23.4669 112.301 23.6526C112.134 23.8198 111.903 23.9034 111.606 23.9034H108.461V31.3423C108.461 32.2896 108.739 33.0697 109.296 33.6826C109.853 34.277 110.567 34.5742 111.439 34.5742H112.19Z" fill="#2196F3"/>
<path d="M123.554 21.3123C124.333 21.3123 124.945 21.4144 125.39 21.6187C125.854 21.823 126.086 22.1109 126.086 22.4824C126.086 22.5939 126.077 22.6775 126.058 22.7332C125.984 22.9932 125.863 23.1697 125.696 23.2625C125.548 23.3554 125.335 23.4018 125.056 23.4018C124.889 23.4018 124.602 23.3833 124.194 23.3461C124.045 23.3275 123.823 23.3183 123.526 23.3183C122.134 23.3183 120.994 23.6897 120.103 24.4327C119.231 25.1757 118.795 26.1415 118.795 27.3303V35.6608C118.795 35.9951 118.702 36.2551 118.517 36.4409C118.331 36.6266 118.072 36.7195 117.738 36.7195C117.404 36.7195 117.144 36.6266 116.958 36.4409C116.773 36.2551 116.68 35.9951 116.68 35.6608V22.5381C116.68 22.2038 116.773 21.9438 116.958 21.758C117.144 21.5723 117.404 21.4794 117.738 21.4794C118.072 21.4794 118.331 21.5723 118.517 21.758C118.702 21.9438 118.795 22.2038 118.795 22.5381V23.764C119.333 22.9839 120.02 22.3803 120.854 21.9531C121.689 21.5259 122.589 21.3123 123.554 21.3123Z" fill="#2196F3"/>
<path d="M129.871 22.5659C129.871 22.2502 129.973 21.9901 130.177 21.7858C130.381 21.5815 130.64 21.4794 130.956 21.4794C131.271 21.4794 131.522 21.5815 131.707 21.7858C131.911 21.9901 132.013 22.2502 132.013 22.5659V35.6328C132.013 35.9486 131.911 36.2086 131.707 36.413C131.522 36.6173 131.271 36.7194 130.956 36.7194C130.64 36.7194 130.381 36.6173 130.177 36.413C129.973 36.2086 129.871 35.9486 129.871 35.6328V22.5659ZM130.956 15.5449C131.364 15.5449 131.716 15.6842 132.013 15.9628C132.31 16.2415 132.459 16.6036 132.459 17.0494C132.459 17.4766 132.31 17.8388 132.013 18.136C131.716 18.4332 131.355 18.5818 130.928 18.5818C130.501 18.5818 130.14 18.4332 129.843 18.136C129.564 17.8388 129.425 17.4766 129.425 17.0494C129.425 16.6036 129.574 16.2415 129.871 15.9628C130.167 15.6842 130.529 15.5449 130.956 15.5449Z" fill="#2196F3"/>
<path d="M148.739 35.0479C148.943 35.3079 149.045 35.5587 149.045 35.8002C149.045 36.0602 148.943 36.2831 148.739 36.4688C148.554 36.636 148.34 36.7196 148.099 36.7196C147.876 36.7196 147.691 36.6824 147.543 36.6081C147.394 36.5338 147.255 36.4038 147.125 36.2181L142.561 30.3951L137.831 36.3852C137.664 36.6081 137.413 36.7196 137.079 36.7196C136.782 36.7196 136.541 36.6267 136.356 36.441C136.189 36.2552 136.105 36.0323 136.105 35.7723C136.105 35.4751 136.198 35.2244 136.384 35.02L141.198 29.002L136.634 23.2069C136.448 23.0026 136.356 22.7518 136.356 22.4546C136.356 22.176 136.439 21.9438 136.606 21.7581C136.773 21.5724 137.014 21.4795 137.33 21.4795C137.645 21.4795 137.914 21.5909 138.137 21.8138L142.617 27.5811L147.042 21.981C147.301 21.6467 147.607 21.4795 147.96 21.4795C148.257 21.4795 148.489 21.5724 148.656 21.7581C148.841 21.9438 148.934 22.1667 148.934 22.4268C148.934 22.7054 148.832 22.9747 148.628 23.2347L144.008 28.9742L148.739 35.0479Z" fill="#2196F3"/>
<defs>
<radialGradient id="paint0_radial" cx="0" cy="0" r="1" gradientUnits="userSpaceOnUse" gradientTransform="translate(25.9314 26.0001) rotate(180) scale(25.2323 33.5863)">
<stop stop-color="#FF8F50"/>
<stop offset="0.737524" stop-color="#FF4D7A"/>
<stop offset="1" stop-color="#FF4182"/>
</radialGradient>
<radialGradient id="paint1_radial" cx="0" cy="0" r="1" gradientUnits="userSpaceOnUse" gradientTransform="translate(25.9314 26.0001) rotate(180) scale(25.2323 33.5863)">
<stop stop-color="#FF8F50"/>
<stop offset="0.737524" stop-color="#FF4D7A"/>
<stop offset="1" stop-color="#FF4182"/>
</radialGradient>
<radialGradient id="paint2_radial" cx="0" cy="0" r="1" gradientUnits="userSpaceOnUse" gradientTransform="translate(25.9314 26.0001) rotate(180) scale(25.2323 33.5863)">
<stop stop-color="#FF8F50"/>
<stop offset="0.737524" stop-color="#FF4D7A"/>
<stop offset="1" stop-color="#FF4182"/>
</radialGradient>
<radialGradient id="paint3_radial" cx="0" cy="0" r="1" gradientUnits="userSpaceOnUse" gradientTransform="translate(25.9314 26.0001) rotate(180) scale(25.2323 33.5863)">
<stop stop-color="#FF8F50"/>
<stop offset="0.737524" stop-color="#FF4D7A"/>
<stop offset="1" stop-color="#FF4182"/>
</radialGradient>
<linearGradient id="paint4_linear" x1="25.2333" y1="9.1999" x2="25.3336" y2="24.4999" gradientUnits="userSpaceOnUse">
<stop stop-color="#FF4081"/>
<stop offset="1" stop-color="#FFA73F"/>
</linearGradient>
</defs>
</svg>
