<svg width="115" height="86" xmlns="http://www.w3.org/2000/svg" fill="none">
 <g>
  <title>Layer 1</title>
  <g id="svg_6">
   <g id="svg_1" stroke="null">
    <path id="svg_3" d="m77.88979,12.01598l-20.4422,-11.66287l-20.38843,11.75314l0.05111,27.72472l0,1.42836l20.44218,11.66288l19.46042,-11.21687l0.92799,-0.53095l-0.05106,-29.1584l0,-0.00001zm-11.73273,32.16909l-7.00954,4.04326l0,-2.47961l7.00954,-1.56365zm0.53786,-28.98323l-4.86569,-8.5859l10.82621,6.17526l-5.96053,2.41064zm7.35928,23.87779l-14.14816,3.15401l6.35049,-20.36551l7.79768,17.21149l-0.00001,0.00001zm-5.88248,-20.95482l6.41771,-2.5965l0.03222,16.83451l-6.44993,-14.23801zm-19.44699,3.74331l6.35312,20.36814l-14.1508,-3.15664l7.79768,-17.21149l0,-0.00001zm-0.43853,-6.6663l-5.91743,-2.3894l10.82089,-6.231l-4.90345,8.62039l-0.00001,0zm-1.47664,2.92035l-6.42852,14.19291l-0.03228,-16.80794l6.4608,2.61504zm9.03221,27.61063l0,2.44252l-7.02296,-4.00895l7.02296,1.56643zm7.89713,-26.86457l-6.24023,20.0469l-6.24826,-20.03098l12.48849,-0.01591zm-11.91286,-3.26026l5.6646,-9.97701l5.66737,9.97701l-11.33197,0z" fill="url(#svg_2)" stroke="null"/>
   </g>
   <g stroke-opacity="0" stroke="null">
    <g stroke="#000" fill="black" stroke-width="0.25mm" font-size="9pt" fill-rule="evenodd" stroke-linecap="round" id="svg_4">
     <path fill="url(#svg_text)" stroke="#e164af" vector-effect="non-scaling-stroke" d="m78.20657,71.15955l0,2.45885a16.3889,16.3889 0 0 1 -0.03452,1.09821q-0.0383,0.56577 -0.11821,1.04784a6.84126,6.84126 0 0 1 -0.20191,0.88022a5.20589,5.20589 0 0 1 -1.07621,1.90987a6.13694,6.13694 0 0 1 -0.17686,0.19434a6.0698,6.0698 0 0 1 -3.94951,1.87723a8.30853,8.30853 0 0 1 -0.80267,0.03783q-2.67164,0 -4.49213,-1.7732a5.72012,5.72012 0 0 1 -0.86791,-1.09608a4.46517,4.46517 0 0 1 -0.56246,-1.44552a10.65365,10.65365 0 0 1 -0.13145,-0.89487q-0.14045,-1.29279 -0.14045,-3.34899q0,-2.86078 0.2719,-4.24388a4.58527,4.58527 0 0 1 0.82064,-1.83397a6.05585,6.05585 0 0 1 0.60973,-0.70763a6.17312,6.17312 0 0 1 4.40891,-1.77273a7.99195,7.99195 0 0 1 0.08323,-0.00047a8.02813,8.02813 0 0 1 1.8186,0.19411q1.39658,0.32462 2.37987,1.19183a5.08177,5.08177 0 0 1 0.16362,0.15084a6.66205,6.66205 0 0 1 1.94934,3.70979a8.21065,8.21065 0 0 1 0.02481,0.14398l-3.30997,0a3.95685,3.95685 0 0 0 -0.43455,-1.13226q-0.66293,-1.11924 -2.05219,-1.2942a4.32024,4.32024 0 0 0 -0.53953,-0.03239a2.96409,2.96409 0 0 0 -1.09821,0.19742a2.71419,2.71419 0 0 0 -1.006,0.70101a2.4761,2.4761 0 0 0 -0.40594,0.66129q-0.12365,0.2908 -0.19978,0.64024a4.53799,4.53799 0 0 0 -0.03262,0.16431a6.99967,6.99967 0 0 0 -0.07236,0.5497q-0.08891,0.9138 -0.09292,2.55437a64.15739,64.15739 0 0 0 -0.00023,0.15865a53.37347,53.37347 0 0 0 0.00992,1.07622q0.03075,1.51502 0.15559,2.21012a3.94101,3.94101 0 0 0 0.16738,0.63835q0.13099,0.36386 0.32864,0.64545a2.234,2.234 0 0 0 0.14233,0.18204a2.66288,2.66288 0 0 0 1.82568,0.86438a3.63743,3.63743 0 0 0 0.27853,0.01041a3.8845,3.8845 0 0 0 0.95918,-0.11183a2.65933,2.65933 0 0 0 1.38143,-0.83388a2.9142,2.9142 0 0 0 0.66508,-1.34196a4.23961,4.23961 0 0 0 0.09149,-0.9041l0,-0.61471l-3.09719,0l0,-2.7662l6.35989,0zm-13.83099,6.43083l0,2.93169l-10.92294,0l0,-16.83363l3.28633,0l0,13.90194l7.6366,0zm-19.24519,-3.40456l-3.23906,0l0,6.33625l-3.28633,0l0,-16.83363l6.52539,0a6.96775,6.96775 0 0 1 1.73325,0.20404a4.92454,4.92454 0 0 1 2.32148,1.3091a5.08437,5.08437 0 0 1 1.50084,3.66628a6.53059,6.53059 0 0 1 0.00047,0.06927a5.4182,5.4182 0 0 1 -0.39317,2.08884a5.0813,5.0813 0 0 1 -1.10814,1.64672a4.99358,4.99358 0 0 1 -2.63144,1.37979a7.23751,7.23751 0 0 1 -1.42329,0.13335zm-0.16549,-7.56568l-3.07356,0l0,4.61034l3.07356,0q1.11121,0 1.7732,-0.62653a2.08363,2.08363 0 0 0 0.6367,-1.27624a2.92366,2.92366 0 0 0 0.0253,-0.39058a2.65579,2.65579 0 0 0 -0.10521,-0.76508a2.07701,2.07701 0 0 0 -0.55679,-0.91356a2.22336,2.22336 0 0 0 -1.12256,-0.57594a3.23031,3.23031 0 0 0 -0.65064,-0.06242z"/>
    </g>
   </g>
  </g>
 </g>
 <defs>
  <linearGradient id="svg_2" x1="0.5" y1="0" x2="0.5" y2="1">
   <stop stop-color="#815BEC"/>
   <stop offset="1" stop-color="#EC5B75"/>
  </linearGradient>
  <linearGradient id="svg_text" x1="0.5" y1="0" x2="0.5" y2="1">
   <stop stop-color="#EC5B75"/>
   <stop offset="1" stop-color="#815BEC"/>
  </linearGradient>
 </defs>
</svg>