<svg width="121" height="88" viewBox="0 0 121 88" fill="none" xmlns="http://www.w3.org/2000/svg">
<path d="M22.8928 63C18.5497 63 15 66.5368 15 70.9107C15 71.7897 15.1462 72.6477 15.4176 73.4848C15.6055 74.0499 16.2319 74.3638 16.8166 74.1754C17.3804 73.9871 17.6936 73.3592 17.5057 72.7733C17.276 72.1245 17.1716 71.4339 17.1924 70.7433C17.276 67.7925 19.6563 65.3648 22.6005 65.2183C25.8787 65.0509 28.5932 67.6669 28.5932 70.9107C28.5932 73.9452 26.2128 76.4356 23.2269 76.603C23.2269 76.603 22.1202 76.6658 21.5773 76.7495C21.3059 76.7914 21.0971 76.8333 20.9509 76.8542C20.8883 76.8751 20.8256 76.8123 20.8465 76.7495L21.0345 75.8287L22.0367 71.12C22.162 70.534 21.7861 69.948 21.2015 69.8224C20.6168 69.6969 20.0322 70.0736 19.9069 70.6596C19.9069 70.6596 17.443 82.1698 17.4221 82.2954C17.2969 82.8814 17.6727 83.4674 18.2574 83.5929C18.842 83.7185 19.4267 83.3418 19.5519 82.7558C19.5728 82.6302 19.9069 81.1025 19.9069 81.1025C20.1575 79.9306 21.118 79.0725 22.2455 78.926C22.4961 78.8842 23.4775 78.8214 23.4775 78.8214C27.5492 78.5075 30.7647 75.0962 30.7647 70.9316C30.7856 66.5368 27.2568 63 22.8928 63ZM36.5486 71.685C34.7738 71.685 33.3122 72.4175 32.1428 73.9034C30.9735 75.3683 30.3889 77.1053 30.3889 79.0516C30.3889 80.391 30.7647 81.4792 31.4956 82.3163C32.2264 83.1534 33.2078 83.572 34.4397 83.572C36.0893 83.572 37.4882 82.8814 38.6575 81.5001C39.4301 80.4956 39.7433 79.8887 39.9104 79.4492C40.3489 78.3819 40.5577 77.2727 40.5577 76.1636C40.5577 74.8451 40.2445 73.7778 39.6181 72.9407C38.9916 72.1036 37.9476 71.685 36.5486 71.685ZM36.6113 80.5165C36.0057 81.1234 35.2958 81.4374 34.5023 81.4374C33.9177 81.4374 33.4374 81.2281 33.1033 80.8095C32.7693 80.391 32.6022 79.805 32.6022 79.0725C32.6022 77.6076 32.9572 76.3728 33.688 75.3683C34.3979 74.3638 35.3167 73.8615 36.4233 73.8615C37.6762 73.8615 38.2817 74.6149 38.2817 76.1426C38.3026 78.3819 37.2377 79.8887 36.6113 80.5165ZM103.638 77.189C103.115 77.0216 102.531 77.2727 102.322 77.7959C101.362 80.2026 100.171 81.4164 98.7097 81.4164C97.958 81.4164 97.5822 80.7677 97.5822 79.4911C97.5822 78.7795 97.791 77.3774 98.2086 75.3055L98.5218 73.8406H101.487C101.988 73.8406 102.447 73.4848 102.531 72.9825C102.677 72.3129 102.155 71.685 101.487 71.685H99.002L99.5241 69.2574C99.6702 68.5668 99.1482 67.918 98.4383 67.918C97.9163 67.918 97.4778 68.2738 97.3525 68.797L96.7261 71.685H89.7938C88.0189 71.685 86.5573 72.4175 85.388 73.9034C84.2187 75.3683 83.634 77.1053 83.634 79.0516C83.634 79.5957 83.6967 80.0771 83.822 80.5375C83.2582 81.1234 82.6527 81.4164 82.0054 81.4164C81.5669 81.4164 81.2537 81.2909 81.0657 81.0397C80.8778 80.7886 80.7734 80.37 80.7734 79.7841C80.7734 78.947 80.9405 77.7122 81.2954 76.0799L83.112 67.6669C83.2582 66.9763 82.7362 66.3275 82.0262 66.3275C81.5042 66.3275 81.0449 66.7042 80.9405 67.2065L79.8547 72.3338C79.0821 71.8943 78.2886 71.685 77.4325 71.685C75.6368 71.685 74.1334 72.3756 72.9224 73.7778C71.7322 75.18 71.1266 76.9379 71.1266 79.0516C71.1266 79.7213 71.2102 80.3073 71.3772 80.8514C70.897 81.249 70.3958 81.4374 69.8529 81.4374C69.4145 81.4374 69.1012 81.3118 68.8716 81.0607C68.6628 80.8095 68.5583 80.391 68.5583 79.805C68.5583 79.2818 68.6628 78.4656 68.8924 77.3146C69.0177 76.6658 68.5584 76.038 67.8902 75.9752C67.3473 75.9124 66.8253 76.2682 66.6791 76.7914C66.2615 78.2354 65.7395 79.3446 65.1548 80.098C64.4449 80.9979 63.6723 81.4583 62.858 81.4583C62.3777 81.4583 61.981 81.2281 61.6678 80.7677C61.3755 80.3073 61.2293 79.7004 61.2293 78.9679C61.2293 77.482 61.5843 76.2473 62.3151 75.3055C63.0459 74.3428 63.9855 73.8615 65.1548 73.8615C65.7395 73.8615 66.3241 73.9871 66.8253 74.1964C67.1385 74.3219 67.5143 74.3219 67.8067 74.1336C68.5584 73.6732 68.4748 72.5431 67.6814 72.2291C67.2429 72.0408 67.0132 71.9989 66.8253 71.9571C66.3241 71.8315 65.6977 71.7269 65.1966 71.7269C63.4218 71.7478 61.9184 72.4384 60.7282 73.8197C60.0809 74.5731 59.6006 75.4311 59.3083 76.3938C58.2643 79.7841 56.8862 81.4792 55.2366 81.4792C54.6729 81.4792 54.2552 81.2909 54.0047 80.9351C53.7332 80.5793 53.608 80.1189 53.608 79.5748C53.608 79.3864 53.608 79.2399 53.6288 79.1353C54.6729 78.7167 55.5289 78.068 56.1554 77.21C56.7818 76.3519 57.1159 75.3892 57.1159 74.3638C57.1159 72.6268 56.1762 71.7687 54.2761 71.7687C52.9398 71.7687 51.7705 72.2501 50.7264 73.2127L51.8958 67.7297C52.0419 67.0391 51.5199 66.4112 50.8309 66.4112C50.3088 66.4112 49.8703 66.767 49.7659 67.2902L46.5504 82.3582C46.4042 83.0488 46.9262 83.6766 47.6153 83.6766C48.1373 83.6766 48.5758 83.3209 48.6802 82.8186L49.6824 78.2145C49.8495 77.6285 50.0792 77.0216 50.3924 76.4356C50.7056 75.8496 51.1858 75.2846 51.854 74.7614C52.5013 74.2173 53.2321 73.9661 54.0464 73.9661C54.5893 73.9661 54.8608 74.2382 54.8608 74.8033C54.8608 75.4311 54.5058 76.0589 53.8168 76.6449C53.1277 77.2309 52.376 77.6076 51.5825 77.7331C51.5199 78.4028 51.4781 78.8632 51.4781 79.1562C51.4781 80.5584 51.7914 81.6676 52.4178 82.4837C53.0442 83.2999 53.9629 83.6976 55.1949 83.6976C56.6356 83.6976 57.8884 83.0697 58.9533 81.835C59.0995 81.6676 59.2248 81.5001 59.371 81.3118C59.538 81.7303 59.7468 82.107 60.0182 82.421C60.7073 83.2581 61.626 83.6766 62.7953 83.6766C64.2779 83.6766 65.5307 82.9651 66.5538 81.5211C66.9923 82.9651 68.0572 83.6766 69.7903 83.6766C70.7717 83.6766 71.6487 83.3627 72.463 82.7349C73.1103 83.3627 73.9455 83.6766 74.9478 83.6766C76.4303 83.6766 77.6831 82.9651 78.7062 81.5211C79.1447 82.9651 80.2096 83.6766 81.9427 83.6766C83.0494 83.6766 84.0308 83.2999 84.8869 82.5465C85.6177 83.2999 86.5364 83.6766 87.7057 83.6766C89.3553 83.6766 90.7543 82.986 91.9236 81.6048C92.6962 80.6002 93.0094 79.9933 93.1764 79.5539C93.6149 78.4865 93.8237 77.3774 93.8237 76.2682C93.8237 75.3892 93.6775 74.6149 93.4061 73.9452H96.2667L95.9953 75.2009C95.5359 77.3564 95.3062 78.8214 95.3062 79.5957C95.3062 82.3163 96.4129 83.6766 98.6053 83.6766C101.048 83.6766 102.928 82.0233 104.264 78.6958C104.514 78.0471 104.222 77.3983 103.638 77.189ZM79.0821 75.8496C78.6854 77.7541 78.1007 79.1562 77.3699 80.0561C76.6391 80.956 75.8456 81.4164 75.0104 81.4164C74.5302 81.4164 74.1334 81.1862 73.8202 80.7258C73.5279 80.2654 73.3817 79.6585 73.3817 78.926C73.3817 77.4402 73.7367 76.2054 74.4675 75.2637C75.1983 74.301 76.138 73.8197 77.3073 73.8197C77.9337 73.8197 78.6018 74.0917 79.3327 74.6568L79.0821 75.8496ZM91.151 78.4865C91.151 78.4865 90.5037 79.8887 89.8982 80.5165C89.2926 81.1234 88.5827 81.4374 87.7892 81.4374C87.2046 81.4374 86.7243 81.2281 86.3903 80.8095C86.0562 80.391 85.8891 79.805 85.8891 79.0725C85.8891 77.6076 86.2441 76.3728 86.9749 75.3683C87.7057 74.3638 88.6036 73.8615 89.7102 73.8615C90.9631 73.8615 91.5686 74.6149 91.5686 76.1426C91.5686 76.896 91.4433 77.6704 91.151 78.4865ZM45.9239 66.3275C45.4019 66.3275 44.9634 66.6833 44.859 67.2065L41.6435 82.2745C41.4973 82.9651 42.0193 83.5929 42.7084 83.5929C43.2304 83.5929 43.6689 83.2371 43.7733 82.7349L47.0097 67.6669C47.1559 66.9763 46.6339 66.3275 45.9239 66.3275Z" fill="#DBDBDB"/>
<path d="M105.956 81.207C105.246 81.0605 104.557 81.5 104.39 82.2325C104.243 82.944 104.682 83.6556 105.413 83.802C106.144 83.9485 106.833 83.5091 106.979 82.7766C107.104 82.0441 106.666 81.3535 105.956 81.207Z" fill="#E6007A"/>
<path d="M60.4947 0C75.1251 0 86.9894 11.8655 86.9894 26.4974C86.9894 41.1292 75.1251 52.9947 60.4947 52.9947C45.8643 52.9947 34 41.1292 34 26.4974C34 11.8655 45.8643 0 60.4947 0Z" fill="black"/>
<path d="M61.6285 8.37305C54.5332 8.39954 48.7892 14.1442 48.7627 21.2402C48.7627 22.6604 48.9905 24.0754 49.441 25.4214C49.7748 26.3382 50.7657 26.8311 51.6983 26.5502C52.6044 26.2058 53.0866 25.2148 52.7952 24.2927C52.4137 23.2434 52.2441 22.1305 52.2971 21.0176C52.4508 15.893 56.727 11.8601 61.8511 12.0138C66.9751 12.1675 71.0076 16.4441 70.854 21.5687C70.7109 26.37 66.9327 30.2705 62.1372 30.5566C62.1372 30.5566 60.3356 30.6679 59.4348 30.7845C59.1009 30.8322 58.7724 30.8958 58.4492 30.9806C58.3962 31.023 58.322 31.0124 58.2796 30.9541C58.2478 30.9117 58.2478 30.8534 58.2796 30.811L58.5604 29.2848L60.2561 21.6111C60.4574 20.6572 59.8534 19.7245 58.8996 19.5231C57.9458 19.3218 57.0131 19.9259 56.8118 20.8798C56.8118 20.8798 52.774 39.624 52.774 39.7936C52.5461 40.7104 53.1078 41.6378 54.0298 41.8657C54.0616 41.871 54.0934 41.8816 54.1252 41.8869C55.0472 42.1095 55.9745 41.5371 56.1971 40.615C56.2024 40.5885 56.2077 40.5567 56.213 40.5302C56.2713 40.3023 56.78 37.8169 56.78 37.8169C57.1615 35.9409 58.6717 34.5047 60.5634 34.2186C60.9502 34.1603 62.5876 34.049 62.5876 34.049C69.6617 33.3812 74.8653 27.1173 74.2082 20.0478C73.6041 13.5188 68.1886 8.48434 61.6285 8.37305Z" fill="white"/>
<path d="M64.1032 36.9848C62.9374 36.7463 61.7982 37.5041 61.565 38.67C61.565 38.6753 61.565 38.6753 61.565 38.6806C61.316 39.8306 62.0525 40.9647 63.2024 41.2138C63.2236 41.2191 63.2395 41.2244 63.2607 41.2244C64.3894 41.4841 65.5127 40.7739 65.7724 39.6451C65.783 39.608 65.7883 39.5709 65.7936 39.5286C65.9896 38.368 65.2531 37.2551 64.1032 36.9848Z" fill="#E6007A"/>
</svg>
