<svg width="23" height="22" viewBox="0 0 23 22" fill="none" xmlns="http://www.w3.org/2000/svg">
<g clip-path="url(#clip0_2_466)">
<path d="M2.98536 14.8256H20.0146L22.4635 7.16413C22.5085 7.02514 22.5115 6.87512 22.4723 6.73426C22.4331 6.5934 22.3535 6.46846 22.2442 6.37624C22.1349 6.28401 22.0011 6.22894 21.8609 6.21843C21.7208 6.20791 21.5808 6.24246 21.46 6.31742L15.2666 10.1986L12.1323 2.35872C12.0813 2.22733 11.9939 2.11482 11.8812 2.0356C11.7686 1.95638 11.6358 1.91406 11.5 1.91406C11.3642 1.91406 11.2314 1.95638 11.1188 2.0356C11.0061 2.11482 10.9187 2.22733 10.8677 2.35872L7.73295 10.1986L1.53997 6.31742C1.41918 6.24218 1.27919 6.20741 1.13888 6.21781C0.998566 6.2282 0.864686 6.28326 0.755297 6.37556C0.645909 6.46785 0.566277 6.59294 0.527144 6.73395C0.48801 6.87496 0.491259 7.02511 0.536451 7.16413L2.98536 14.8256Z" fill="white"/>
<path d="M3.25098 16.2607V18.413C3.25144 18.6032 3.32403 18.7854 3.45288 18.9199C3.58172 19.0544 3.75633 19.1301 3.93855 19.1306H19.0606C19.2429 19.1301 19.4175 19.0544 19.5463 18.9199C19.6752 18.7854 19.7477 18.6032 19.7482 18.413V16.2607H3.25098Z" fill="white"/>
</g>
<defs>
<clipPath id="clip0_2_466">
<rect width="22" height="22" fill="white" transform="translate(0.5)"/>
</clipPath>
</defs>
</svg>
