<svg width="127" height="54" viewBox="0 0 127 54" fill="none" xmlns="http://www.w3.org/2000/svg">
<g clip-path="url(#clip0)">
<path d="M51.3565 52.1269C51.1149 51.4677 50.6768 51.0182 50.3596 50.4338C49.5893 49.4299 48.683 48.5609 47.7767 47.6918C47.4595 47.587 47.3236 47.2873 47.0215 47.1674C46.8251 46.9127 46.5079 46.7779 46.2512 46.5831C45.7376 46.1935 45.1787 45.8639 44.6047 45.5342C43.5172 44.845 42.1729 44.4105 40.8437 43.961C39.4087 43.6164 37.8983 43.3617 36.3274 43.1519C34.7716 42.9271 33.2158 42.7174 32.0377 42.1031C31.358 41.9083 30.8595 41.5337 30.2704 41.234C29.7267 40.8744 29.1376 40.5748 28.6844 40.1253C28.1256 39.7956 27.7782 39.2412 27.3401 38.7917C27.1891 38.4921 26.9323 38.3123 26.8115 37.9826C26.6604 37.9227 26.6151 37.7429 26.5245 37.638C26.4187 37.5181 26.4187 37.2784 26.2375 37.2335C26.1468 37.8478 26.1771 38.582 26.2375 39.2113C26.313 39.481 26.3432 39.8106 26.4187 40.0803C26.464 40.32 26.6906 40.7096 26.6 40.8894C21.8873 40.6497 18.4435 39.1663 15.4527 37.2185C13.9725 36.2446 12.7037 35.0609 11.5255 33.7873C11.012 33.0831 10.4531 32.4088 9.99996 31.6297C9.53172 30.8655 9.139 29.9965 8.71607 29.1874C8.02125 27.4343 7.37175 25.6363 7.13008 23.4338C6.81288 21.3811 6.8884 18.759 7.35665 16.8561C7.5228 15.8073 7.8702 14.9232 8.1723 14.0093C8.36866 13.5897 8.58012 13.1702 8.76138 12.7357C9.01816 12.3761 9.1541 11.8816 9.4713 11.567C10.3323 9.96375 11.6162 8.76508 12.9303 7.61137C14.3501 6.57751 15.9663 5.73845 17.9148 5.22901C19.7878 4.80948 22.3405 4.73456 24.3645 5.16908C28.473 6.00815 31.5694 7.83612 34.1674 10.1735C36.7956 12.466 38.8197 15.3727 40.2093 18.9088C41.6442 22.2651 42.1427 27.4943 40.8588 31.3001C40.3301 31.0004 39.8015 30.7157 39.2728 30.431C38.6384 30.2512 38.0191 30.0415 37.279 29.9665C36.3878 29.9516 35.5117 29.9665 34.9378 30.2512C36.1008 30.1313 37.0373 30.446 37.7623 30.7157C38.1853 30.8805 38.4269 30.9854 38.7592 31.1802C39.4087 31.5548 39.9827 31.8994 40.4661 32.4088C41.8406 33.6075 42.8224 35.1957 43.2906 37.2934C43.2906 37.3533 43.3662 37.3383 43.3511 37.2335C43.4115 37.2185 43.4417 37.1735 43.4719 37.1136C43.5474 37.0237 43.638 36.9338 43.7136 36.8289C43.8646 36.6491 44.0157 36.4693 44.1214 36.2446C44.4386 35.87 44.6954 35.4504 44.937 35.0159C45.4959 34.2068 45.9188 33.2779 46.4022 32.3938C47.233 30.5059 47.9127 28.4682 48.3356 26.1608C49.1815 21.0365 48.1694 16.1818 46.4022 12.6008C44.5896 8.98983 42.0521 6.09805 38.7743 3.92546C35.4664 1.76786 31.5996 0.179621 26.2828 0.0297872C26.2526 -0.0750963 26.2073 0.0447705 26.1015 0.0297872C23.2921 -0.060113 21.0264 0.329454 18.7758 0.898822C17.7335 1.24344 16.646 1.54311 15.7246 2.00759C14.6673 2.35221 13.8214 2.92158 12.8547 3.34111C12.5073 3.67074 11.9787 3.83556 11.6162 4.15021C11.1479 4.37496 10.8005 4.73456 10.3323 4.95931C9.57703 5.61858 8.77649 6.20293 8.03636 6.87718C7.31133 7.53645 6.67694 8.28562 5.98212 8.97485C5.87639 9.21459 5.69513 9.3794 5.51388 9.5592C5.39304 9.78395 5.24199 9.97874 5.04563 10.1436C4.97011 10.4133 4.72844 10.5181 4.63781 10.7878C4.44145 10.9377 4.39613 11.2373 4.16956 11.3722C3.9732 11.8517 3.6258 12.1963 3.39923 12.6458C3.12734 13.0803 2.91588 13.5598 2.64399 13.9793C2.22106 14.9532 1.76792 15.8972 1.42051 16.946C1.058 17.9649 0.75591 19.0437 0.544445 20.2124C0.317875 21.3062 0.106409 22.7296 0.136619 23.8833C-0.014428 24.3028 0.106409 25.082 0.136619 25.5764C0.136619 25.6663 0.0762 25.6963 0.0762 25.7562C0.0762 26.3106 0.227247 26.9848 0.257456 27.3295C0.378293 28.603 0.604863 29.7867 0.967375 30.8206C1.19395 31.9743 1.67729 32.8733 2.0247 33.9072C2.55336 34.7762 2.91588 35.81 3.55027 36.5892C4.01852 37.5032 4.68312 38.2224 5.31752 38.9715C5.99723 39.6907 6.67694 40.4249 7.49259 41.0093C8.98795 42.2978 10.7401 43.3317 12.6584 44.2157C16.2382 45.9388 21.5852 47.0625 26.3885 46.7779C27.612 46.613 28.8506 46.4632 29.9683 46.1935C30.9954 45.8189 32.1887 45.5942 33.4273 45.4443C36.2519 45.2645 38.6988 45.5193 40.8739 46.1486C43.0792 46.7329 44.9824 47.6169 46.6288 48.7706C47.5048 49.2801 48.2299 49.9394 48.97 50.5687C49.7252 51.2129 50.3294 52.0071 51.0242 52.7263C51.1148 52.996 51.2961 53.1907 51.432 53.4305C51.6133 53.6253 51.5227 54.0748 51.9607 54.0148C52.2326 53.7451 51.9154 53.3556 51.9003 53.0259C51.6284 52.7412 51.568 52.3667 51.3565 52.1269Z" fill="#FCA016"/>
<path d="M40.3899 36.1849C40.3295 36.1849 40.3144 36.2298 40.269 36.2448C40.1633 36.4695 40.2086 36.8292 40.269 37.0539C40.5862 37.6982 40.692 38.5372 41.3868 38.8069C41.7191 38.7021 41.6889 38.2226 41.6738 37.7581C41.5227 37.1887 41.3113 36.6793 40.9639 36.3047C40.7222 36.2148 40.556 36.065 40.3899 36.1849ZM36.2814 37.818C36.2814 37.7881 36.2361 37.7581 36.221 37.818C35.647 37.7431 35.4507 38.0578 35.1637 38.2825C34.6652 39.5861 35.4658 40.8597 36.8705 40.8447C37.4294 40.7098 37.7768 40.3502 37.8674 39.7359C37.7919 38.6421 37.3236 37.9379 36.2814 37.818Z" fill="#FCA016"/>
<path d="M70.1463 33.6676C70.3728 34.6116 70.8562 35.2858 71.4 35.9151C71.9437 36.5444 72.5781 37.0688 73.3484 37.4584C74.0735 37.9079 74.8589 38.2825 75.7652 38.5372C76.2032 38.687 76.6262 38.8668 77.1699 38.9268C77.5475 39.1365 78.0007 39.2414 78.0309 39.7808C78.0158 40.4251 77.5778 40.6648 77.0189 40.7847C76.46 40.6648 75.7652 40.6798 75.297 40.47C74.1188 40.3352 73.1672 39.9606 72.1703 39.616C70.2671 38.8818 68.666 37.818 67.3368 36.5144C67.0649 36.0649 66.6873 35.7053 66.4003 35.2708C66.1133 34.8363 65.917 34.3119 65.6149 33.8774C63.2887 33.5777 61.7028 32.5289 60.3131 31.3152C59.0292 29.8618 58.0021 28.1238 57.5792 25.8163C57.0807 23.5988 57.2318 20.8269 57.8209 18.6843C59.1048 14.5339 61.7934 11.7769 66.8686 11.4023C68.2733 11.4473 69.4968 11.6121 70.6145 12.0316C71.7474 12.4362 72.8198 13.1854 73.6656 13.9645C73.7412 14.0244 73.7714 14.0394 73.8167 14.1143C73.998 14.369 74.436 14.7286 74.6777 15.0433C74.723 15.1032 74.7079 15.2081 74.7532 15.283C74.8438 15.4179 74.9798 15.4778 75.0704 15.5977C75.1157 15.6726 75.1006 15.7625 75.1459 15.8224C75.2063 15.9123 75.2818 16.0472 75.3725 16.212C75.4027 16.2719 75.5084 16.3169 75.5235 16.3618C75.6595 16.6166 75.7199 16.9312 75.8407 17.2159C75.9616 17.5156 76.1277 17.7703 76.2334 18.0699C76.5355 18.954 76.7319 20.0028 76.8527 21.0816C77.1548 24.1981 76.5355 26.985 75.3725 29.0527C74.8287 30.1315 74.0735 31.0156 73.1823 31.7647C72.3666 32.6188 71.2489 33.1282 70.1463 33.6676ZM66.4003 14.1593C65.7206 14.2042 65.3128 14.5189 64.7539 14.6987C64.3914 15.0283 63.9382 15.283 63.6664 15.7026C63.2132 15.9573 63.0924 16.5267 62.7299 16.8563C62.4278 17.6055 62.1408 18.4445 61.9444 19.4184C61.7632 20.3774 61.6423 21.4562 61.6272 22.52C61.6121 25.187 62.1861 27.8391 63.2585 29.4123C63.8929 30.1765 64.6633 30.8058 65.5998 31.2703C66.1435 31.3152 66.5665 31.495 67.1555 31.51C67.4878 31.3901 68.0316 31.51 68.2431 31.2703C68.7264 31.3002 68.8322 30.9856 69.2551 30.9556C69.4817 30.7309 69.7233 30.5511 70.0405 30.4162C70.3275 30.1016 70.5994 29.7869 70.9015 29.4873C71.0525 29.2625 71.1432 28.9479 71.3697 28.783C72.7292 26.2059 72.8802 21.4861 71.989 18.4895C71.6567 17.3957 71.1885 16.5117 70.6598 15.7775C70.0858 15.1931 69.4061 14.6987 68.6358 14.3091C68.0165 14.1743 67.4274 14.0094 66.6118 14.0844C66.5665 14.0844 66.5211 14.0993 66.5362 14.1593C66.506 14.1593 66.4607 14.1593 66.4003 14.1593ZM82.8795 11.9867C84.103 12.0316 85.5379 11.8818 86.6254 12.0616C86.8671 12.4362 86.7765 12.8857 86.7765 13.3052C86.8671 18.9839 86.7765 25.0821 86.7765 30.8807C86.7765 31.3452 86.7916 31.8247 86.7765 32.2742C86.7614 32.6637 86.8671 33.0833 86.6254 33.4429C86.0817 33.5777 85.2962 33.5178 84.6014 33.5178C83.8613 33.5178 83.1363 33.6227 82.6529 33.3679C82.517 26.5056 82.517 19.1038 82.6529 12.2264C82.6831 12.1066 82.7587 12.0316 82.8795 11.9867ZM92.2444 11.9867H95.9148C96.2471 12.4362 96.3528 13.1104 96.4586 13.7697C97.5612 17.9351 98.6488 22.1154 99.6608 26.3857C99.9024 26.4157 99.8269 26.131 99.9024 25.9961C100.008 25.8912 99.9478 25.6365 100.053 25.5316C100.099 25.187 100.31 25.0072 100.295 24.6027C100.567 24.0783 100.658 23.3591 100.914 22.8197C101.232 21.5611 101.655 20.3924 102.017 19.1787C102.365 17.9201 102.833 16.7814 103.105 15.4628C103.618 14.399 103.739 12.9456 104.358 11.9867H105.914C106.473 13.0355 106.684 14.429 107.168 15.5527C107.485 16.8113 107.923 17.9501 108.255 19.1937C109.026 21.606 109.826 23.9884 110.521 26.4756C110.838 26.0111 110.838 25.232 111.065 24.6926C111.201 24.0783 111.322 23.449 111.533 22.9096C112.137 20.4523 112.711 17.98 113.406 15.6276C113.663 14.399 113.92 13.1404 114.342 12.0616C115.249 11.9268 116.638 11.9268 117.545 12.0616C117.62 12.9756 117.197 13.9645 116.925 14.7736C116.774 15.7625 116.412 16.5267 116.215 17.4856C115.657 19.2386 115.234 21.0966 114.66 22.8346C114.222 24.6926 113.633 26.4007 113.179 28.2586C112.877 29.1127 112.666 30.0566 112.394 30.9706C112.092 31.8097 111.986 32.8435 111.533 33.5328H109.343C108.784 32.5588 108.588 31.2403 108.089 30.2065C107.002 26.7902 105.793 23.5089 104.736 20.0627C104.373 20.4373 104.373 21.2015 104.117 21.6809C103.95 22.2653 103.784 22.8496 103.573 23.389C103.271 24.5727 102.818 25.5766 102.561 26.7902C102.123 27.8541 101.806 29.0378 101.473 30.2065C101.02 31.2253 100.854 32.5289 100.295 33.4578C99.7212 33.6376 98.8149 33.4878 98.105 33.5328C97.5612 32.9184 97.5008 31.8097 97.1685 30.9706C96.9117 30.1016 96.7305 29.1426 96.3982 28.3335C95.9752 26.4456 95.3408 24.7825 94.9179 22.9096C94.359 21.1715 93.8757 19.3585 93.3621 17.5605C93.0751 16.7065 92.8637 15.7925 92.5767 14.9234C92.4407 13.9945 91.8063 13.1554 92.0329 12.1365C92.0631 12.0616 92.1538 12.0167 92.2444 11.9867ZM123.073 11.9867C124.296 12.0316 125.716 11.8818 126.819 12.0616C127.091 12.8707 126.97 13.7397 126.97 14.6088V30.8657C126.97 31.7497 127.076 32.6038 126.819 33.4279C125.973 33.5178 124.735 33.5627 123.692 33.5028C123.39 33.4878 123.028 33.5777 122.831 33.353C122.559 32.5439 122.68 31.6898 122.68 30.7908V14.6987C122.68 13.7248 122.59 12.7808 122.831 12.1365C122.892 12.0616 122.982 12.0167 123.073 11.9867Z" fill="#0269B3"/>
</g>
<defs>
<clipPath id="clip0">
<path d="M0 0H127V54H0V0Z" fill="white"/>
</clipPath>
</defs>
</svg>
