<svg width="16" height="13" viewBox="0 0 16 13" fill="none" xmlns="http://www.w3.org/2000/svg">
<path d="M0.286379 5.88467C0.75749 5.21733 1.3086 4.61933 1.8686 4.03867C2.05527 3.83067 2.36638 3.83067 2.51749 4.03867C3.11305 4.61933 3.64638 5.252 4.1086 5.88467L4.29527 6.12733C4.48193 6.33533 4.32193 6.63867 4.04638 6.63867H3.05082C3.11305 9.23 5.29082 11.31 7.99304 11.31C8.95304 11.31 9.82416 11.0413 10.6064 10.582C10.9442 10.374 11.3797 10.4347 11.6642 10.7033C12.0642 11.0933 11.9753 11.726 11.513 12.0293C10.4819 12.636 9.27304 13 7.99304 13C4.32193 13 1.37082 10.1313 1.3086 6.604H0.321934C0.0463787 6.604 -0.0780657 6.30067 0.0730454 6.09267L0.286379 5.88467ZM4.35749 2.32267C4.63305 2.59133 5.0686 2.652 5.41527 2.444C6.16193 1.99333 7.05971 1.716 8.0286 1.716C10.7042 1.716 12.9086 3.796 12.9708 6.38733H11.9753C11.6997 6.38733 11.5753 6.69067 11.7264 6.89867L11.913 7.14133C12.3753 7.80867 12.9353 8.40667 13.4953 8.97867C13.6819 9.18667 13.993 9.18667 14.1442 8.97867C14.7308 8.40667 15.2642 7.774 15.7264 7.14133L15.913 6.89867C16.0997 6.69067 15.9397 6.38733 15.6642 6.38733H14.6686C14.6153 2.86867 11.6375 0 7.99304 0C6.69527 0 5.51304 0.364 4.48193 0.962C4.01971 1.3 3.95749 1.93267 4.35749 2.32267Z" fill="#5EB76E"/>
</svg>
