<svg width="121" height="89" viewBox="0 0 121 89" fill="none" xmlns="http://www.w3.org/2000/svg">
<path d="M35.7947 69.8165C35.5569 69.7369 35.0549 69.6838 34.5529 69.6838C33.0467 69.6838 31.4349 70.9089 31.4349 72.4212V79.6331H28V66.7654H31.3028V68.0654C32.0691 67.1103 33.4694 66.5 35.0285 66.5C35.4183 66.5028 35.8072 66.5383 36.1911 66.6062L35.7947 69.8165Z" fill="#4D4D4D"/>
<path d="M39.6786 60C40.9205 60 41.9246 60.9551 41.9246 62.2021C41.9246 63.4491 40.9205 64.4042 39.6786 64.4042C38.4367 64.4042 37.4326 63.4491 37.4326 62.2021C37.4326 60.9551 38.4367 60 39.6786 60ZM41.3961 79.6333H37.9611V66.7655H41.3961V79.6333Z" fill="#4D4D4D"/>
<path d="M51.543 66.4994C50.1798 66.4821 48.8531 66.9422 47.7911 67.8006V66.7653H44.4875V86H47.9228V78.7312C48.8997 79.5062 50.1132 79.9186 51.3581 79.8988C53.2607 79.8988 55.0834 79.0491 56.2196 77.7226C57.2241 76.555 57.8308 74.9639 57.8308 73.2125C57.8308 69.4184 55.0301 66.4994 51.543 66.4994ZM51.1255 76.7674C48.9918 76.7674 47.5894 75.2889 47.5894 73.2237C47.5894 71.1586 48.9918 69.6801 51.1255 69.6801C52.9468 69.6801 54.4235 71.2669 54.4235 73.2237C54.4235 75.1805 52.9468 76.7674 51.1255 76.7674Z" fill="#4D4D4D"/>
<path d="M78.6787 79.6334H75.2437V60.7961H78.6787L78.6787 79.6334Z" fill="#4D4D4D"/>
<path d="M92.6827 77.5902C91.4409 79.0759 89.4062 79.8984 87.4246 79.8984C83.5933 79.8984 80.7131 77.2453 80.7131 73.2125C80.7131 69.6308 83.1441 66.5 86.949 66.5C90.4897 66.5 92.9999 69.4981 92.9999 73.0798C93.0019 73.4088 92.9753 73.7372 92.9205 74.0615H84.0424C84.2274 75.8656 85.6807 77.1126 87.5039 77.1126C88.9571 77.1126 90.1197 76.2901 90.7275 75.6269L92.6827 77.5902ZM89.4856 71.5411C89.3798 70.4002 88.3495 69.2859 86.949 69.2859C85.5221 69.2859 84.3595 70.3737 84.201 71.5411H89.4856Z" fill="#4D4D4D"/>
<path d="M66.9214 66.4994C65.5581 66.4821 64.2315 66.9422 63.1695 67.8006V66.7653H59.8659V86H63.3012V78.7312C64.2781 79.5062 65.4916 79.9186 66.7364 79.8988C68.639 79.8988 70.4617 79.0491 71.598 77.7226C72.6025 76.555 73.2091 74.9639 73.2091 73.2125C73.2091 69.4184 70.4085 66.4994 66.9214 66.4994ZM66.5039 76.7674C64.3701 76.7674 62.9677 75.2889 62.9677 73.2237C62.9677 71.1586 64.3702 69.6801 66.5039 69.6801C68.3252 69.6801 69.8019 71.2669 69.8019 73.2237C69.8019 75.1805 68.3252 76.7674 66.5039 76.7674Z" fill="#4D4D4D"/>
<path d="M78.6764 30.5133C76.8741 29.4925 74.8444 29.1967 72.8339 29.1278C71.1471 29.07 68.6305 28.0098 68.6305 25.0001C68.6305 22.7577 70.4838 20.953 72.8348 20.8725C74.8451 20.8037 76.8746 20.5074 78.6764 19.487C80.295 18.5705 81.6391 17.2522 82.5736 15.6646C83.5081 14.077 84 12.2762 84 10.443C84 8.60985 83.508 6.80899 82.5735 5.22144C81.639 3.63389 80.2949 2.31558 78.6763 1.39903C77.0578 0.482471 75.2217 -3.65719e-05 73.3527 2.07907e-09C71.4838 3.65761e-05 69.6478 0.482616 68.0292 1.39923C66.4107 2.31585 65.0666 3.63421 64.1322 5.2218C63.1978 6.80939 62.7058 8.61027 62.7059 10.4434C62.7059 12.4668 63.4396 14.3287 64.3758 16.0557C65.1631 17.5081 65.5615 20.204 62.861 21.7331C60.8522 22.8707 58.3451 22.1504 57.0929 20.1847C56.0351 18.5244 54.7582 16.9687 52.9705 15.9562C51.352 15.0396 49.516 14.5571 47.647 14.5571C45.7781 14.5571 43.9421 15.0396 42.3235 15.9561C40.705 16.8727 39.3609 18.191 38.4264 19.7786C37.492 21.3661 37 23.1669 37 25.0001C37 26.8332 37.492 28.634 38.4264 30.2216C39.3609 31.8091 40.705 33.1274 42.3235 34.044C43.9421 34.9606 45.7781 35.4431 47.647 35.4431C49.516 35.4431 51.352 34.9605 52.9705 34.044C54.7577 33.0318 56.0347 31.4771 57.0918 29.8178C57.9599 28.4553 60.1279 26.7185 62.8609 28.2674C64.8667 29.4041 65.4868 31.8945 64.3748 33.9459C63.4388 35.6725 62.7061 37.5341 62.7061 39.5571C62.7061 41.3902 63.198 43.191 64.1325 44.7785C65.0669 46.3661 66.411 47.6844 68.0295 48.6009C69.648 49.5175 71.484 50 73.353 50C75.2219 50 77.0579 49.5175 78.6764 48.6009C80.2949 47.6844 81.639 46.3661 82.5734 44.7786C83.5079 43.191 83.9999 41.3902 83.9999 39.5571C83.9999 37.724 83.5079 35.9232 82.5735 34.3356C81.639 32.7481 80.295 31.4298 78.6764 30.5133H78.6764Z" fill="url(#paint0_linear_0_909)"/>
<defs>
<linearGradient id="paint0_linear_0_909" x1="50.2545" y1="7.6735" x2="87.5812" y2="40.023" gradientUnits="userSpaceOnUse">
<stop stop-color="#00AAE4"/>
<stop offset="1" stop-color="#1F9BE2"/>
</linearGradient>
</defs>
</svg>
