<svg width="115.00000000000001" height="79" xmlns="http://www.w3.org/2000/svg" fill="none">
 <g>
  <title>Layer 1</title>
  <g stroke="null">
   <path stroke="null" fill="#fff" d="m99.8342,27.44718l0,13.44099l-4.79951,0l0,-9.42857l-4.62127,0l0,9.42857l-4.79951,0l0,-13.4419l14.22029,0l0,0.00092z"/>
   <path stroke="null" fill="#fff" d="m75.75698,41.36876c4.29645,0 7.48696,-2.63432 7.48696,-6.62795c0,-3.86535 -2.35394,-6.37505 -6.28802,-6.37505c-1.81562,0 -3.31374,0.63911 -4.44214,1.74185c0.26939,-2.27926 2.19678,-3.94323 4.31891,-3.94323c0.48975,0 4.17688,-0.00779 4.17688,-0.00779l2.08501,-3.98997s-4.62907,0.10537 -6.78098,0.10537c-4.91678,0.08567 -8.23785,4.55486 -8.23785,9.98293c0,6.32374 3.23907,9.11383 7.68123,9.11383zm0.02609,-9.46889c1.59527,0 2.70123,1.04823 2.70123,2.84049c0,1.61311 -0.98273,2.94218 -2.70123,2.94585c-1.6438,0 -2.74976,-1.23148 -2.74976,-2.91836c0,-1.79272 1.10596,-2.86798 2.74976,-2.86798z" clip-rule="evenodd" fill-rule="evenodd"/>
   <path stroke="null" fill="#fff" d="m64.16917,36.38829s-1.13344,0.65331 -2.82628,0.77701c-1.94619,0.05773 -3.68026,-1.17147 -3.68026,-3.35544c0,-2.13036 1.5302,-3.35131 3.63124,-3.35131c1.2883,0 2.99258,0.89292 2.99258,0.89292s1.24706,-2.28842 1.89304,-3.43286c-1.18292,-0.89659 -2.75847,-1.38817 -4.59104,-1.38817c-4.62495,0 -8.20717,3.0155 -8.20717,7.2524c0,4.29095 3.36689,7.23636 8.20717,7.14748c1.35289,-0.05039 3.21937,-0.52549 4.35694,-1.25622l-1.77623,-3.2858z"/>
   <path stroke="null" fill="#5B57A2" d="m2.965,23.97812l6.65773,11.90026l0,7.25881l-6.64994,11.87689l-0.00779,-31.03596z"/>
   <path stroke="null" fill="#D90751" d="m28.52798,31.54802l6.23853,-3.82366l12.76752,-0.01192l-19.00605,11.64324l0,-7.80767z"/>
   <path stroke="null" fill="#FAB718" d="m28.4927,23.90803l0.03528,15.75553l-6.67331,-4.10038l0,-23.55173l6.63849,11.89659l-0.00046,0z"/>
   <path stroke="null" fill="#ED6F26" d="m47.53403,27.71244l-12.76798,0.01192l-6.27334,-3.81633l-6.63803,-11.89659l25.67889,15.701l0.00046,0z"/>
   <path stroke="null" fill="#63B22F" d="m28.52798,55.08005l0,-7.64411l-6.67331,-4.02249l0.00367,23.57512l6.66964,-11.90851z"/>
   <path stroke="null" fill="#1487C9" d="m34.75093,51.29121l-25.12866,-15.41283l-6.65727,-11.90026l44.54199,27.29751l-12.75652,0.01558l0.00046,0z"/>
   <path stroke="null" fill="#017F36" d="m21.8588,66.98856l6.66872,-11.90851l6.22295,-3.78884l12.75606,-0.01558l-25.64774,15.71293z"/>
   <path stroke="null" fill="#984995" d="m2.97279,55.01408l18.93641,-11.60017l-6.36635,-3.90614l-5.92012,3.62941l-6.64994,11.87689z"/>
   <path stroke="null" fill="#fff" d="m57.66401,49.93419c-0.1466,0.18692 -0.33948,0.32803 -0.57084,0.42332a1.96177,1.96177 0 0 1 -0.74769,0.14478a2.1212,2.1212 0 0 1 -0.74814,-0.12553a1.65985,1.65985 0 0 1 -0.57817,-0.35826a1.62137,1.62137 0 0 1 -0.37751,-0.56076a1.91183,1.91183 0 0 1 -0.13515,-0.72799c0,-0.2474 0.04261,-0.47647 0.13103,-0.69363c0.08475,-0.21762 0.208,-0.40409 0.36239,-0.56078c0.15439,-0.15989 0.33948,-0.28176 0.54748,-0.37705c0.21212,-0.09162 0.44347,-0.14111 0.69775,-0.14111c0.27397,0 0.52824,0.03437 0.75961,0.10262c0.23136,0.06873 0.42791,0.18325 0.58963,0.34361l-0.2813,0.47646a1.3222,1.3222 0 0 0 -0.47052,-0.27488a1.65481,1.65481 0 0 0 -0.51265,-0.07972c-0.15394,0 -0.30054,0.03024 -0.44303,0.0875a1.18705,1.18705 0 0 0 -0.37796,0.24419a1.11695,1.11695 0 0 0 -0.2584,0.38117c-0.06552,0.14845 -0.09621,0.31246 -0.09621,0.49526c0,0.18691 0.03436,0.3546 0.09988,0.49937c0.06597,0.14889 0.15439,0.27488 0.26617,0.38117c0.11179,0.10721 0.24282,0.18692 0.39309,0.24052c0.15073,0.05727 0.30879,0.08384 0.4783,0.08384c0.208,0 0.39721,-0.04214 0.55893,-0.12232a1.39733,1.39733 0 0 0 0.42424,-0.31612l0.28909,0.43432zm0.79396,0.48792l0,-3.39256l0.60933,0l0,2.52758l1.98147,-2.52758l0.60932,0l0,3.39301l-0.60932,0l0,-2.52758l-1.98147,2.52758l-0.60933,0l0,-0.00046zm7.23637,-0.48792a1.37901,1.37901 0 0 1 -0.57039,0.42332a1.96589,1.96589 0 0 1 -0.74815,0.14478a2.12028,2.12028 0 0 1 -0.74769,-0.12553a1.66168,1.66168 0 0 1 -0.57864,-0.35826a1.62137,1.62137 0 0 1 -0.37751,-0.56076a1.91183,1.91183 0 0 1 -0.13515,-0.72799c0,-0.2474 0.04261,-0.47647 0.13103,-0.69363c0.08521,-0.21762 0.20845,-0.40409 0.36239,-0.56078c0.1544,-0.15989 0.33949,-0.28176 0.54748,-0.37705a1.66626,1.66626 0 0 1 0.69774,-0.14111c0.27399,0 0.52824,0.03437 0.75961,0.10262c0.23136,0.06873 0.42791,0.18325 0.59009,0.34361l-0.28175,0.47646a1.3167,1.3167 0 0 0 -0.47005,-0.27488a1.65664,1.65664 0 0 0 -0.51266,-0.07972a1.19255,1.19255 0 0 0 -0.82145,0.3317a1.16185,1.16185 0 0 0 -0.25839,0.38117c-0.06552,0.14845 -0.09621,0.31246 -0.09621,0.49526c0,0.18691 0.03482,0.3546 0.10033,0.49937c0.06551,0.14889 0.15395,0.27488 0.26572,0.38117c0.11179,0.10721 0.24328,0.18692 0.39355,0.24052c0.15028,0.05314 0.30833,0.08384 0.47784,0.08384c0.20846,0 0.39354,-0.04214 0.55893,-0.12232a1.39733,1.39733 0 0 0 0.42424,-0.31612l0.28909,0.43432zm0.31244,-2.90463l3.12637,0l0,0.60247l-1.25669,0l0,2.79009l-0.60933,0l0,-2.79009l-1.25668,0l0,-0.60247l-0.00367,0z"/>
   <path stroke="null" fill="#fff" d="m71.97868,50.38821c0.23135,-0.07239 0.42791,-0.18327 0.59742,-0.33536l-0.1851,-0.47281c-0.11179,0.09942 -0.26206,0.18326 -0.44303,0.25197c-0.18142,0.06873 -0.38576,0.10263 -0.60934,0.10263c-0.33534,0 -0.61298,-0.08752 -0.83289,-0.26664c-0.21944,-0.17959 -0.33903,-0.43065 -0.36605,-0.75135l2.63708,0c0.02702,-0.11821 0.03848,-0.25153 0.03848,-0.40775c0,-0.23274 -0.04261,-0.44212 -0.12737,-0.6327a1.50133,1.50133 0 0 0 -0.33903,-0.49205a1.50958,1.50958 0 0 0 -0.509,-0.31612a1.69146,1.69146 0 0 0 -0.62078,-0.11454c-0.28544,0 -0.53603,0.04947 -0.75549,0.14111a1.66626,1.66626 0 0 0 -0.55159,0.37751a1.59296,1.59296 0 0 0 -0.34269,0.56031a1.95719,1.95719 0 0 0 -0.11957,0.69362c0,0.2671 0.04626,0.51083 0.13103,0.72844a1.6035,1.6035 0 0 0 0.37018,0.56031c0.15805,0.15578 0.35047,0.27444 0.57817,0.35828a2.18626,2.18626 0 0 0 0.7596,0.12553a2.30904,2.30904 0 0 0 0.68997,-0.10995l0,-0.00045zm-1.54211,-2.61142c0.18875,-0.17135 0.43936,-0.25518 0.75548,-0.25518c0.29688,0 0.53602,0.08017 0.70965,0.24052c0.17364,0.15989 0.26572,0.38117 0.2813,0.66293l-2.0818,0a1.0354,1.0354 0 0 1 0.33537,-0.64781l0,-0.00046z" clip-rule="evenodd" fill-rule="evenodd"/>
   <path stroke="null" fill="#fff" d="m73.64402,47.02956l0.55527,0l1.31853,1.68139l1.24889,-1.68139l0.53969,0l0,3.39301l-0.60888,0l0,-2.47397l-1.18749,1.57417l-0.02338,0l-1.23331,-1.57463l0,2.47397l-0.60933,0l0,-3.39256z"/>
   <path stroke="null" fill="#fff" d="m78.96397,47.04102a1.91824,1.91824 0 0 0 -0.52412,0.22449l0.16174,0.48104c0.13882,-0.06871 0.27763,-0.12599 0.41646,-0.17546c0.1388,-0.04994 0.3161,-0.07285 0.52822,-0.07285c0.16952,0 0.30466,0.02703 0.40867,0.08018c0.104,0.04947 0.18095,0.12599 0.23502,0.21762c0.05406,0.09162 0.08889,0.2057 0.10812,0.33902c0.01924,0.13332 0.02703,0.2781 0.02703,0.43478a1.04457,1.04457 0 0 0 -0.41645,-0.1718a2.39563,2.39563 0 0 0 -0.43935,-0.04581c-0.18143,0 -0.35094,0.02703 -0.51311,0.07239c-0.16174,0.04581 -0.30055,0.11454 -0.41235,0.20616a0.98043,0.98043 0 0 0 -0.26985,0.33903a1.05373,1.05373 0 0 0 -0.10032,0.46135c0,0.33169 0.09666,0.591 0.28909,0.77425c0.19287,0.18281 0.44714,0.27398 0.76325,0.27398c0.28543,0 0.51313,-0.04948 0.68631,-0.14844c0.17362,-0.09941 0.31244,-0.21349 0.41278,-0.34315l0,0.43845l0.57039,0l0,-2.08134c0,-0.44257 -0.0962,-0.78525 -0.29275,-1.02578c-0.19289,-0.24006 -0.53603,-0.36193 -1.02167,-0.36193c-0.21623,0 -0.42057,0.03024 -0.61712,0.08384zm1.01844,2.74886c-0.13879,0.09896 -0.32022,0.14431 -0.5438,0.14431c-0.19654,0 -0.35094,-0.04948 -0.4586,-0.14478c-0.10812,-0.09895 -0.16219,-0.22861 -0.16219,-0.38896c0,-0.09483 0.01924,-0.17501 0.06185,-0.2474c0.0426,-0.07238 0.10033,-0.12965 0.16584,-0.17547a0.73303,0.73303 0 0 1 0.23504,-0.10308c0.08887,-0.02291 0.1773,-0.03437 0.26985,-0.03437c0.30099,0 0.55893,0.07239 0.77106,0.22495l0,0.43065a1.75194,1.75194 0 0 1 -0.33905,0.29366l0,0.00047zm6.2917,-3.95377c0.12322,-0.0568 0.23868,-0.1521 0.34682,-0.29321l-0.33172,-0.47647c-0.08474,0.11454 -0.18097,0.19425 -0.28909,0.2364a1.83578,1.83578 0 0 1 -0.3546,0.09897l-0.11544,0.02061c-0.10034,0.01741 -0.20801,0.03666 -0.32391,0.0559a2.39334,2.39334 0 0 0 -0.5397,0.16767c-0.27397,0.11819 -0.49342,0.2781 -0.65926,0.48014c-0.16586,0.20204 -0.29688,0.43066 -0.38576,0.68264a3.5703,3.5703 0 0 0 -0.18095,0.78892c-0.03116,0.27489 -0.04628,0.5374 -0.04628,0.78892c0,0.32436 0.04214,0.61758 0.1269,0.88054c0.08522,0.26344 0.20433,0.48426 0.36239,0.6634c0.15806,0.18325 0.34727,0.3207 0.57085,0.41966c0.22356,0.09895 0.47417,0.14843 0.75547,0.14843c0.25839,0 0.49754,-0.04948 0.71333,-0.14111a1.7217,1.7217 0 0 0 0.55527,-0.37704c0.15392,-0.15668 0.27764,-0.34361 0.3624,-0.55298c0.08841,-0.20982 0.13101,-0.43477 0.13101,-0.67117c0,-0.25518 -0.03849,-0.48746 -0.11179,-0.69363a1.49858,1.49858 0 0 0 -0.31612,-0.52962a1.40741,1.40741 0 0 0 -0.50532,-0.34361a1.75331,1.75331 0 0 0 -0.66293,-0.12186c-0.14661,0 -0.28909,0.01925 -0.4279,0.05727a1.65115,1.65115 0 0 0 -0.38576,0.16401a1.46606,1.46606 0 0 0 -0.31978,0.2474c-0.09254,0.09575 -0.16952,0.2025 -0.22359,0.32436l-0.01557,0c0.01191,-0.15622 0.03116,-0.31612 0.06551,-0.48013c0.03482,-0.16401 0.08477,-0.3207 0.15074,-0.46913c0.06551,-0.14845 0.15028,-0.28222 0.25426,-0.40409a1.15452,1.15452 0 0 1 0.40088,-0.28588a2.12853,2.12853 0 0 1 0.52824,-0.17134l0.12095,-0.02199c0.1205,-0.02199 0.23547,-0.04307 0.34544,-0.06597c0.14661,-0.03024 0.28131,-0.06872 0.40501,-0.12554l0,-0.00046zm-2.14365,3.25968a1.89946,1.89946 0 0 1 -0.08476,-0.59466a0.95752,0.95752 0 0 1 0.13882,-0.32391c0.06552,-0.10309 0.15027,-0.19427 0.2506,-0.27489a1.27043,1.27043 0 0 1 0.79397,-0.2703c0.35872,0 0.62858,0.11041 0.81733,0.32803c0.18922,0.22083 0.28175,0.49525 0.28175,0.82695c0,0.16401 -0.03115,0.3129 -0.08475,0.44989a1.08122,1.08122 0 0 1 -0.58597,0.60612c-0.13881,0.06092 -0.28954,0.09163 -0.45907,0.09163s-0.32391,-0.03436 -0.46638,-0.10308a1.07205,1.07205 0 0 1 -0.36652,-0.28588a1.43353,1.43353 0 0 1 -0.23502,-0.44991zm7.51398,-2.06623l-0.60932,0l0,3.39301l0.60932,0l0,-3.39301zm-3.79388,0l0.60933,0l0,1.018l0.56306,0c0.26572,0 0.48151,0.03436 0.65514,0.09895c0.17365,0.06505 0.31246,0.15257 0.41646,0.25932c0.10399,0.10675 0.17731,0.23273 0.2199,0.37339c0.04214,0.1411 0.06551,0.28588 0.06551,0.43844c0,0.15257 -0.02337,0.29779 -0.0733,0.44257c-0.04626,0.14477 -0.12735,0.2703 -0.23547,0.38483c-0.10767,0.11454 -0.25428,0.20617 -0.43936,0.27489c-0.18508,0.06827 -0.40868,0.10629 -0.67852,0.10629l-1.1064,0l0,-3.39668l0.00365,0zm0.60933,1.58564l0,1.24294l0.44349,0c0.30467,0 0.52045,-0.05315 0.64369,-0.16035c0.1237,-0.10675 0.18508,-0.25885 0.18508,-0.4609c0,-0.20616 -0.06551,-0.36193 -0.18875,-0.46914c-0.12737,-0.10675 -0.33949,-0.16035 -0.63223,-0.16035l-0.45128,0l0,0.00779z" clip-rule="evenodd" fill-rule="evenodd"/>
   <path stroke="null" fill="#fff" d="m95.67335,49.93419c-0.14661,0.18692 -0.33948,0.32803 -0.57085,0.42332a1.9636,1.9636 0 0 1 -0.74768,0.14478a2.1212,2.1212 0 0 1 -0.74816,-0.12553a1.65527,1.65527 0 0 1 -0.57816,-0.35826a1.6287,1.6287 0 0 1 -0.37798,-0.56076a1.92053,1.92053 0 0 1 -0.13469,-0.72799c0,-0.2474 0.04215,-0.47647 0.13102,-0.69363c0.08475,-0.21762 0.20799,-0.40409 0.3624,-0.56078c0.1544,-0.15989 0.33902,-0.28176 0.54747,-0.37705a1.66489,1.66489 0 0 1 0.69777,-0.14111c0.27351,0 0.52824,0.03437 0.75958,0.10262c0.23138,0.06873 0.42792,0.18325 0.58965,0.34361l-0.2813,0.47646a1.3222,1.3222 0 0 0 -0.47052,-0.27488a1.65481,1.65481 0 0 0 -0.51266,-0.07972c-0.15393,0 -0.30054,0.03024 -0.44348,0.0875a1.18521,1.18521 0 0 0 -0.3775,0.24419a1.15452,1.15452 0 0 0 -0.2584,0.38117c-0.06552,0.14845 -0.09621,0.31246 -0.09621,0.49526c0,0.18691 0.03436,0.3546 0.09988,0.49937c0.0655,0.14889 0.15438,0.27488 0.26617,0.38117c0.11179,0.10721 0.24281,0.18692 0.39308,0.24052c0.15073,0.05314 0.30878,0.08384 0.47829,0.08384c0.20802,0 0.39311,-0.04214 0.55894,-0.12232a1.39733,1.39733 0 0 0 0.42424,-0.31612l0.28909,0.43432zm0.312,-2.90463l3.12681,0l0,0.60247l-1.25714,0l0,2.79009l-0.60886,0l0,-2.79009l-1.25668,0l0,-0.60247l-0.00413,0z"/>
   <path stroke="null" fill="#fff" d="m100.38442,47.03003l-0.60931,0l0,4.90213l0.60931,0l0,-1.66581c0.12323,0.08017 0.26985,0.13744 0.43936,0.17546c0.16951,0.03802 0.34682,0.05681 0.52824,0.05681c0.26986,0 0.51266,-0.04948 0.73257,-0.14064a1.7524,1.7524 0 0 0 0.56261,-0.38484c0.15806,-0.16447 0.27764,-0.35506 0.3624,-0.58001c0.08474,-0.22449 0.12735,-0.46502 0.12735,-0.72021c0,-0.25198 -0.03848,-0.48426 -0.11177,-0.69408a1.61449,1.61449 0 0 0 -0.31612,-0.54107a1.3726,1.3726 0 0 0 -0.49754,-0.3546a1.59892,1.59892 0 0 0 -0.65927,-0.12966c-0.23869,0 -0.46227,0.04582 -0.67439,0.13744c-0.21212,0.09163 -0.37798,0.20158 -0.49343,0.33903l0,-0.39996zm0.42424,0.62904c0.17365,-0.09163 0.3624,-0.13744 0.56673,-0.13744c0.1773,0 0.33537,0.02657 0.4783,0.08383c0.13882,0.05727 0.25427,0.13745 0.35094,0.24419c0.09621,0.10675 0.1695,0.22906 0.21577,0.37338c0.04995,0.14478 0.07331,0.30146 0.07331,0.47281c0,0.18326 -0.03115,0.34681 -0.08475,0.49937a1.09954,1.09954 0 0 1 -0.23548,0.38897a1.08122,1.08122 0 0 1 -0.37385,0.25518a1.23011,1.23011 0 0 1 -0.49755,0.0953c-0.16538,0 -0.31977,-0.01879 -0.46638,-0.05681a1.5247,1.5247 0 0 1 -0.45081,-0.20616l0,-1.68139c0.10767,-0.1292 0.2506,-0.2396 0.42377,-0.33123zm7.00089,-0.6295l-0.60934,0l0,3.39301l0.60934,0l0,-3.39301zm-3.79755,0l0.60934,0l0,1.018l0.5626,0c0.26619,0 0.48197,0.03436 0.65561,0.09895c0.17363,0.06505 0.31245,0.15257 0.41644,0.25932c0.10401,0.10675 0.17731,0.23273 0.21946,0.37339c0.04261,0.1411 0.06551,0.28588 0.06551,0.43844c0,0.15257 -0.0229,0.29779 -0.07283,0.44257c-0.04628,0.14477 -0.12736,0.2703 -0.23549,0.38483c-0.10767,0.11454 -0.25426,0.20617 -0.43935,0.27489c-0.18509,0.06827 -0.40866,0.10629 -0.67851,0.10629l-1.10641,0l0,-3.39668l0.00365,0zm0.61346,1.58564l0,1.24294l0.4435,0c0.3042,0 0.52045,-0.05315 0.64368,-0.16035c0.12325,-0.10675 0.18507,-0.25885 0.18507,-0.4609c0,-0.20616 -0.0655,-0.36193 -0.18874,-0.46914c-0.12737,-0.10675 -0.33949,-0.16035 -0.63224,-0.16035l-0.45127,0l0,0.00779z" clip-rule="evenodd" fill-rule="evenodd"/>
   <path stroke="null" fill="#fff" d="m110.73204,48.66513l1.30296,1.75745l-0.74768,0l-1.00655,-1.37259l-1.02166,1.37259l-0.70921,0l1.29516,-1.7272l-1.21819,-1.66581l0.74815,0l0.92913,1.28097l0.94422,-1.28097l0.70966,0l-1.22599,1.63557zm-53.51884,5.95082l-1.86967,0l0,2.82858l-0.60933,0l0,-3.39255l3.08788,0l0,3.39255l-0.60888,0l0,-2.82858zm4.06694,0.03803l-1.20263,0l-0.03894,0.57176c-0.04214,0.48426 -0.09987,0.87322 -0.18097,1.1701c-0.08109,0.29779 -0.18142,0.52641 -0.29687,0.6863c-0.11546,0.16034 -0.25061,0.27076 -0.405,0.32436a1.40192,1.40192 0 0 1 -0.49709,0.08385l-0.04627,-0.58735c0.06552,0.00367 0.14249,-0.01145 0.22724,-0.04947c0.08521,-0.03803 0.16997,-0.12186 0.25061,-0.24741c0.08109,-0.13011 0.1544,-0.3129 0.21991,-0.54931c0.06552,-0.24006 0.10812,-0.55252 0.13103,-0.94561l0.06185,-1.05602l2.38646,0l0,3.39301l-0.60933,0l0,-2.79468l0,0.00047z"/>
   <path stroke="null" fill="#fff" d="m63.53191,54.05977c-0.19701,0.05315 -0.3743,0.12919 -0.52457,0.22448l0.16219,0.48059c0.13881,-0.06873 0.27763,-0.12599 0.41598,-0.17547c0.13883,-0.04948 0.31659,-0.07238 0.52825,-0.07238c0.16996,0 0.30466,0.02657 0.40867,0.07971c0.10445,0.04994 0.18142,0.12599 0.23547,0.21762c0.0536,0.09163 0.08842,0.20615 0.10767,0.33902c0.01926,0.13378 0.02703,0.27855 0.02703,0.43478a1.04319,1.04319 0 0 0 -0.41645,-0.17135a2.3915,2.3915 0 0 0 -0.43937,-0.04581c-0.18095,0 -0.35093,0.02657 -0.51264,0.07238c-0.16219,0.04581 -0.30101,0.11454 -0.41279,0.20616a0.98043,0.98043 0 0 0 -0.26985,0.33903a1.05373,1.05373 0 0 0 -0.09988,0.46136c0,0.33124 0.09621,0.591 0.28909,0.7738c0.19242,0.1828 0.44715,0.27443 0.76328,0.27443c0.28541,0 0.51265,-0.04948 0.68629,-0.1489c0.17319,-0.09896 0.312,-0.21349 0.41233,-0.34315l0,0.43845l0.57085,0l0,-2.08134c0,-0.44212 -0.09668,-0.78526 -0.29322,-1.02533c-0.19286,-0.24053 -0.53602,-0.36193 -1.02165,-0.36193a2.33653,2.33653 0 0 0 -0.61665,0.08339l0,0.00046zm1.02165,2.74794c-0.13835,0.09941 -0.31979,0.14523 -0.54336,0.14523c-0.20066,0 -0.35093,-0.04948 -0.45859,-0.14523c-0.10812,-0.09896 -0.16219,-0.22861 -0.16219,-0.38851c0,-0.0953 0.01924,-0.17548 0.06184,-0.24785c0.04216,-0.07239 0.10034,-0.12967 0.16585,-0.17548c0.06551,-0.04582 0.14615,-0.08017 0.23502,-0.10308a1.06747,1.06747 0 0 1 0.26985,-0.0339c0.30054,0 0.55894,0.07238 0.77106,0.22449l0,0.43065a1.75469,1.75469 0 0 1 -0.33949,0.29367z" clip-rule="evenodd" fill-rule="evenodd"/>
   <path stroke="null" fill="#fff" d="m66.06039,54.05198l3.12683,0l0,0.60201l-1.25715,0l0,2.79055l-0.60887,0l0,-2.79009l-1.25668,0l0,-0.60246l-0.00414,0z"/>
   <path stroke="null" fill="#fff" d="m72.03273,57.41017c0.23136,-0.07239 0.4279,-0.18325 0.59743,-0.33537l-0.18508,-0.47281c-0.1118,0.09941 -0.26207,0.18326 -0.4435,0.25198c-0.18096,0.06873 -0.3853,0.10262 -0.60888,0.10262c-0.33534,0 -0.61299,-0.08749 -0.83289,-0.26664c-0.21991,-0.17913 -0.33904,-0.43065 -0.36605,-0.75135l2.63706,0c0.02657,-0.11773 0.03848,-0.25151 0.03848,-0.40775c0,-0.23228 -0.0426,-0.44211 -0.12736,-0.63269a1.49538,1.49538 0 0 0 -0.33949,-0.49158a1.50271,1.50271 0 0 0 -0.50854,-0.31658a1.6933,1.6933 0 0 0 -0.62077,-0.11454c-0.28543,0 -0.53605,0.04949 -0.75549,0.14111a1.65756,1.65756 0 0 0 -0.55161,0.37752a1.60075,1.60075 0 0 0 -0.34313,0.56031a1.96726,1.96726 0 0 0 -0.11958,0.69362c0,0.2671 0.04628,0.51083 0.13103,0.72844c0.08521,0.21717 0.21211,0.40409 0.37018,0.56032c0.15807,0.15622 0.35094,0.27443 0.57863,0.35826a2.18351,2.18351 0 0 0 0.75914,0.126c0.22771,0 0.45907,-0.03849 0.69042,-0.11087zm-1.54576,-2.61509c0.18875,-0.17134 0.43935,-0.25518 0.75548,-0.25518c0.30099,0 0.53603,0.08384 0.70966,0.24007c0.17318,0.16034 0.26572,0.38117 0.2813,0.66338l-2.08179,0a1.0354,1.0354 0 0 1 0.33536,-0.64828zm2.67921,-0.7431l0.77106,0l1.17559,1.63557l-1.25668,1.75698l-0.74769,0l1.31808,-1.75743l-1.26035,-1.63557l0,0.00045zm2.09691,0l0.60933,0l0,3.39255l-0.60933,0l0,-3.39255zm2.78735,3.39255l-1.34145,-1.75743l1.25302,-1.63557l-0.75593,0l-1.18339,1.63557l1.27225,1.75743l0.75549,0zm2.78368,-0.03436c0.23136,-0.07239 0.42789,-0.18325 0.59741,-0.33537l-0.1851,-0.47281c-0.11179,0.09941 -0.26205,0.18326 -0.44302,0.25198c-0.18143,0.06873 -0.38577,0.10262 -0.60933,0.10262c-0.33537,0 -0.61301,-0.08749 -0.83292,-0.26664c-0.21944,-0.17913 -0.33902,-0.43065 -0.36605,-0.75135l2.63706,0c0.02705,-0.11773 0.03848,-0.25151 0.03848,-0.40775c0,-0.23228 -0.04213,-0.44211 -0.12735,-0.63269a1.50087,1.50087 0 0 0 -0.33904,-0.49158a1.50454,1.50454 0 0 0 -0.50899,-0.31658a1.69146,1.69146 0 0 0 -0.62079,-0.11454c-0.28496,0 -0.53556,0.04949 -0.75547,0.14111a1.66031,1.66031 0 0 0 -0.55116,0.37752a1.58746,1.58746 0 0 0 -0.34315,0.56031a1.95719,1.95719 0 0 0 -0.11957,0.69362c0,0.2671 0.04626,0.51083 0.13103,0.72844c0.08475,0.21717 0.21212,0.40409 0.37018,0.56032c0.15806,0.15622 0.35047,0.27443 0.57817,0.35826a2.18626,2.18626 0 0 0 0.75961,0.126a2.30904,2.30904 0 0 0 0.68997,-0.11087zm-1.54578,-2.61509c0.18921,-0.17134 0.43982,-0.25518 0.75593,-0.25518c0.29689,0 0.53558,0.08384 0.70921,0.24007c0.17364,0.16034 0.26618,0.38117 0.28131,0.66338l-2.08181,0a1.0354,1.0354 0 0 1 0.33536,-0.64828zm4.85403,-1.88297c-0.35873,0 -0.55528,-0.19838 -0.58597,-0.59467l-0.57451,0c0,0.15211 0.02703,0.28954 0.07697,0.4192c0.05039,0.12966 0.1237,0.24007 0.21991,0.3317c0.09621,0.09163 0.2199,0.16402 0.36239,0.22083c0.14249,0.05726 0.30833,0.08382 0.49709,0.08382c0.17364,0 0.32803,-0.02656 0.46685,-0.08382c0.13882,-0.05315 0.25426,-0.1292 0.3546,-0.22083c0.09622,-0.09163 0.17364,-0.20204 0.22724,-0.3317c0.05406,-0.12966 0.08109,-0.26709 0.08109,-0.4192l-0.5704,0c-0.02704,0.39629 -0.21624,0.59467 -0.55527,0.59467l0.00002,0zm-1.64657,1.13941l0,3.393l0.60934,0l1.98145,-2.52757l0,2.52757l0.60934,0l0,-3.393l-0.60934,0l-1.98145,2.52757l0,-2.52757l-0.60934,0z" clip-rule="evenodd" fill-rule="evenodd"/>
  </g>
 </g>

</svg>