<svg width="24" height="24" viewBox="0 0 24 24" fill="none" xmlns="http://www.w3.org/2000/svg">
<rect opacity="0.1" width="24" height="24" rx="8" fill="#E15D51"/>
<path d="M8.58018 17.616H15.4202C15.9122 17.616 16.3082 17.22 16.3082 16.728V11.82C16.3082 11.328 15.9122 10.932 15.4202 10.932H15.3962V9.75603C15.3962 7.89603 13.8842 6.38403 12.0242 6.38403C10.1642 6.38403 8.65218 7.89603 8.65218 9.75603V10.932H8.56818C8.07618 10.932 7.68018 11.328 7.68018 11.82V16.728C7.69218 17.22 8.08818 17.616 8.58018 17.616ZM10.1282 9.75603C10.1282 8.71203 10.9802 7.86003 12.0242 7.86003C13.0682 7.86003 13.9202 8.71203 13.9202 9.75603V10.932H10.1282V9.75603Z" fill="#E15D51"/>
</svg>
