<svg width="121" height="89" viewBox="0 0 121 89" fill="none" xmlns="http://www.w3.org/2000/svg">
<path d="M19.1559 87C18.6599 87 18.1697 86.9572 17.6852 86.8717C17.2123 86.7968 16.7509 86.6845 16.3011 86.5348C15.8628 86.3743 15.4476 86.1925 15.0554 85.9893C14.6632 85.7754 14.3114 85.5401 14 85.2834L16.5087 82.7487C16.7971 83.0374 17.1777 83.2941 17.6506 83.5187C18.1351 83.7433 18.631 83.8556 19.1386 83.8556C19.3692 83.8556 19.5769 83.8182 19.7614 83.7433C19.9575 83.6684 20.0555 83.5294 20.0555 83.3262C20.0555 83.2193 20.0209 83.1283 19.9517 83.0535C19.8941 82.9786 19.7845 82.9037 19.623 82.8289C19.4615 82.7433 19.2366 82.6524 18.9482 82.5561C18.6714 82.4599 18.3196 82.3476 17.8928 82.2193C17.4776 82.0909 17.0797 81.9412 16.699 81.7701C16.3184 81.5882 15.9781 81.369 15.6782 81.1123C15.3899 80.8556 15.1592 80.5508 14.9862 80.1979C14.8132 79.8342 14.7267 79.4011 14.7267 78.8984C14.7267 78.1925 14.8824 77.5936 15.1938 77.1016C15.5052 76.6096 15.9032 76.2086 16.3876 75.8984C16.8836 75.5775 17.4372 75.3476 18.0486 75.2086C18.6599 75.0695 19.2654 75 19.8652 75C20.6726 75 21.4916 75.1444 22.322 75.4332C23.164 75.7219 23.9022 76.139 24.5366 76.6845L21.976 79.107C21.6992 78.7861 21.3589 78.5455 20.9552 78.385C20.5515 78.2139 20.1882 78.1283 19.8652 78.1283C19.5653 78.1283 19.3231 78.1711 19.1386 78.2567C18.954 78.3316 18.8617 78.4599 18.8617 78.6417C18.8617 78.8128 18.954 78.9412 19.1386 79.0267C19.3346 79.1123 19.6461 79.2193 20.0728 79.3476C20.5111 79.4759 20.9725 79.6257 21.457 79.7968C21.9414 79.9679 22.3855 80.1925 22.7892 80.4706C23.2044 80.738 23.5447 81.0695 23.81 81.4652C24.0753 81.861 24.2079 82.3529 24.2079 82.9412C24.2079 83.6257 24.058 84.2246 23.7581 84.738C23.4697 85.2406 23.0833 85.6631 22.5989 86.0053C22.1259 86.3369 21.5896 86.5829 20.9898 86.7433C20.39 86.9144 19.7787 87 19.1559 87Z" fill="#4D4D4D"/>
<path d="M33.2944 82.3636H29.9379V86.6791H25.8202V75.3209H29.9206V79.1711H33.2771V75.3209H37.4122V86.6791H33.2944V82.3636Z" fill="#4D4D4D"/>
<path d="M39.6918 75.3209H43.8442V86.6791H39.6918V75.3209Z" fill="#4D4D4D"/>
<path d="M49.9701 78.2888V79.6845H51.0774C51.3658 79.6845 51.6022 79.6257 51.7868 79.508C51.9713 79.3797 52.0636 79.1872 52.0636 78.9305C52.0636 78.7166 51.9656 78.5561 51.7695 78.4492C51.5734 78.3422 51.3139 78.2888 50.9909 78.2888H49.9701ZM49.9701 82.139V83.6791H51.1985C51.5215 83.6791 51.781 83.615 51.9771 83.4866C52.1847 83.3476 52.2885 83.1497 52.2885 82.893C52.2885 82.7433 52.2424 82.6203 52.1501 82.5241C52.0694 82.4278 51.9656 82.3529 51.8387 82.2995C51.7118 82.2353 51.5734 82.1925 51.4235 82.1711C51.285 82.1497 51.1524 82.139 51.0255 82.139H49.9701ZM54.1398 80.7754C54.4282 80.8396 54.7107 80.9465 54.9876 81.0963C55.2644 81.2353 55.5124 81.4171 55.7315 81.6417C55.9507 81.8556 56.1237 82.107 56.2506 82.3957C56.3775 82.6845 56.4409 83.0053 56.4409 83.3583C56.4409 83.9786 56.3025 84.5027 56.0257 84.9305C55.7604 85.3476 55.4028 85.6898 54.953 85.9572C54.5147 86.2139 54.0072 86.4011 53.4304 86.5187C52.8653 86.6257 52.2828 86.6791 51.683 86.6791H46.1292V75.3209H51.1639C51.6599 75.3209 52.1847 75.3583 52.7384 75.4332C53.3036 75.4973 53.8226 75.6364 54.2955 75.8503C54.7684 76.0535 55.1606 76.3583 55.472 76.7647C55.7834 77.1604 55.9392 77.6845 55.9392 78.3369C55.9392 78.9465 55.7719 79.4492 55.4374 79.8449C55.1145 80.2406 54.6819 80.5348 54.1398 80.7273V80.7754Z" fill="#4D4D4D"/>
<path d="M61.5338 75.3209H65.911L70.6863 86.6791H66.2052L65.565 85.0107H61.6722L61.0666 86.6791H56.7066L61.5338 75.3209ZM63.6619 79.2834L62.6584 82.0909H64.648L63.6619 79.2834Z" fill="#4D4D4D"/>
<path d="M75.579 75.3209H79.7313V86.6791H75.579V75.3209Z" fill="#4D4D4D"/>
<path d="M82.0163 75.3209H86.1168L89.6117 81.0802H89.6809L89.5079 75.3209H93.418V86.6791H89.2138L85.8227 81.2567H85.7535L85.9265 86.6791H82.0163V75.3209Z" fill="#4D4D4D"/>
<path d="M101.204 87C100.247 87 99.4104 86.877 98.6953 86.631C97.9917 86.385 97.4034 86.0481 96.9305 85.6203C96.4576 85.1925 96.1058 84.6898 95.8751 84.1123C95.6444 83.5241 95.5291 82.893 95.5291 82.2193V75.3209H99.6469V81.8021C99.6469 82.3476 99.7853 82.7754 100.062 83.0856C100.35 83.385 100.754 83.5348 101.273 83.5348C101.792 83.5348 102.19 83.385 102.467 83.0856C102.755 82.7754 102.9 82.3476 102.9 81.8021V75.3209H107V82.2193C107 82.893 106.873 83.5241 106.619 84.1123C106.377 84.6898 106.014 85.1925 105.529 85.6203C105.045 86.0481 104.439 86.385 103.713 86.631C102.998 86.877 102.161 87 101.204 87Z" fill="#4D4D4D"/>
<path d="M73.2708 5.8388C71.8395 7.25406 70.5281 8.78796 69.3624 10.4236L68.9939 10.3049C66.8683 9.61847 64.6656 9.19474 62.4457 9.05067C61.7771 8.99982 59.283 8.99982 58.4687 9.05067C56.0089 9.21169 54.1232 9.57609 51.9805 10.3134C51.8948 10.3473 51.8176 10.3727 51.7405 10.3981C50.532 8.77101 49.1863 7.24558 47.7036 5.84728C54.8175 2.24558 63.1399 1.81337 70.5881 4.65236C71.3852 4.94897 72.1652 5.29643 72.928 5.66931L73.2708 5.8388Z" fill="#F00500"/>
<path d="M86.5389 37.9828C85.4589 41.0252 83.839 43.8472 81.7391 46.3048C80.5992 47.6268 79.3392 48.8387 77.985 49.9404C74.8138 52.4658 71.1111 54.2709 67.1599 55.2201C62.7887 56.2624 58.2289 56.2624 53.8577 55.2201C49.8979 54.2709 46.2038 52.4658 43.0326 49.9404C41.6784 48.8387 40.4184 47.6268 39.2785 46.3048C33.2359 39.2455 31.4017 29.5506 34.4787 20.8133C35.0616 19.1947 35.7901 17.6353 36.6643 16.1523C37.0672 15.4743 37.5643 14.7116 37.8043 14.3981C38.6271 17.898 39.6385 20.9743 40.0156 22.0845C39.9899 22.1438 39.9556 22.2116 39.9213 22.2709C37.9243 26.2709 36.8443 30.1269 36.5872 34.2285C36.5872 34.2794 36.5786 34.3387 36.5786 34.3896C36.51 35.6184 36.5443 36.2031 36.75 36.9743C37.3929 39.3896 39.3728 42.0506 42.4755 44.6607C47.558 48.9319 54.4491 52.0167 59.6688 52.3726C65.1114 52.737 73.1424 49.5929 78.4907 44.9997C79.3307 44.2624 80.1192 43.4828 80.8563 42.6523C81.3877 42.0421 82.1763 40.9913 82.1163 40.9913C82.0991 40.9913 82.1163 40.9743 82.1505 40.9574C82.1763 40.9404 82.202 40.915 82.1848 40.898C82.1762 40.8896 82.1934 40.8641 82.2191 40.8557C82.2448 40.8472 82.262 40.8302 82.2534 40.8133C82.2448 40.7963 82.2534 40.7794 82.2877 40.7709C82.3134 40.7624 82.3219 40.737 82.3134 40.7201C82.3048 40.7031 82.3134 40.6862 82.3305 40.6862C82.3477 40.6862 82.3648 40.6607 82.3648 40.6438C82.3648 40.6268 82.3819 40.6014 82.3991 40.6014C82.4162 40.6014 82.4334 40.5845 82.4334 40.5675C82.4591 40.4997 82.5019 40.4319 82.5448 40.3726C82.6734 40.1777 83.1876 39.2709 83.2562 39.1184C83.7447 38.0252 84.0533 37.0506 84.199 36.076C84.2676 35.6099 84.3104 34.754 84.2761 34.5506C84.2676 34.5167 84.2676 34.4574 84.259 34.3641C84.2419 34.1946 84.2333 33.9404 84.2161 33.6862C84.199 33.3048 84.1647 32.7709 84.139 32.5082C83.7705 28.6608 82.7762 25.5167 80.8906 22.1862C80.8135 22.0591 80.7449 21.9319 80.702 21.8302C80.6849 21.8048 80.6763 21.7794 80.6678 21.7625C80.9335 20.9743 82.022 17.6777 82.8876 13.9065L82.9048 13.9235L83.0333 14.093C83.2562 14.3896 83.8476 15.2709 84.1133 15.6947C85.3218 17.6438 86.2646 19.737 86.9331 21.9235C88.4845 27.1862 88.3559 32.7963 86.5389 37.9828Z" fill="#F00500"/>
<path d="M75.4136 27.8559C75.3878 27.9915 74.985 28.3983 74.5822 28.6949C73.3994 29.5508 71.2823 30.3475 69.131 30.7288C67.9054 30.9491 66.6797 30.983 66.3112 30.8051C66.0712 30.6864 66.0369 30.5932 66.1226 30.2881C66.3026 29.6525 66.8854 28.9576 67.794 28.3051C68.2568 27.9746 70.1338 26.8475 71.0081 26.3729C72.448 25.5932 73.6137 25.1271 74.4022 25.017C74.6507 24.9831 74.9507 24.9746 75.045 25.017C75.1993 25.0763 75.3707 25.5254 75.4393 26.0678C75.4736 26.3559 75.4564 27.6271 75.4136 27.8559Z" fill="black"/>
<path d="M55.2207 30.661C55.1693 30.7626 54.9121 30.8728 54.6207 30.9152C54.3293 30.9576 53.4379 30.9321 52.9322 30.8728C51.1152 30.6355 49.1867 30.0847 47.7811 29.4067C46.9926 29.0254 46.4269 28.644 46.0069 28.2287L45.7669 27.983L45.7412 27.6609C45.6983 27.1016 45.7069 26.2203 45.7755 25.9067C45.8183 25.644 45.9126 25.3898 46.0412 25.1609C46.1097 25.0762 46.1097 25.0762 46.4183 25.0762C46.7954 25.0762 47.1125 25.1355 47.6268 25.2965C48.681 25.6186 50.2495 26.3982 52.1608 27.5338C53.7379 28.466 54.3293 28.9237 54.7836 29.5508C55.0921 29.9406 55.2978 30.4915 55.2207 30.661Z" fill="black"/>
<path d="M67.357 42.4574C67.357 42.4828 67.2541 42.8896 67.1256 43.3726C66.997 43.8557 66.8941 44.2455 66.8941 44.2625C66.7999 44.2709 66.7141 44.2794 66.6199 44.2709H66.3456L65.9685 45.1523C65.7628 45.6353 65.5742 46.0845 65.5485 46.1523L65.4971 46.2709L65.3171 45.9828L65.1371 45.6947V43.3472L65.0685 43.3642C64.9228 43.3981 63.8857 43.5337 63.4315 43.576C61.5544 43.7625 59.6688 43.7201 57.8003 43.4574C57.5003 43.415 57.2432 43.3811 57.2346 43.3896C57.2261 43.3981 57.2346 43.9404 57.2518 44.6099L57.2775 45.8133L57.1318 46.0337C57.0547 46.1523 56.9775 46.254 56.9775 46.2625C56.9518 46.2879 56.8661 46.1523 56.669 45.7625C56.4547 45.3557 56.3004 44.9235 56.189 44.4743L56.129 44.2286L55.8633 44.2455L55.5976 44.2709L55.529 43.9574C55.4947 43.7879 55.4519 43.5252 55.4347 43.3811L55.409 43.1099L55.1862 42.915C55.0576 42.8048 54.929 42.6947 54.9033 42.6777C54.8605 42.6438 54.8433 42.5845 54.8433 42.5337V42.432L55.9147 42.4404L56.9861 42.4489L57.0204 42.5591L57.0546 42.6692L57.4232 42.6862C57.6289 42.6947 58.2803 42.7116 58.8631 42.7286L59.9345 42.754L60.2088 42.3303L60.4916 41.9065H60.8516L60.843 41.0252L60.8345 40.1438L60.363 39.9404C58.846 39.2794 57.9546 38.5252 57.6203 37.6099C57.5518 37.4235 57.5518 37.3557 57.5346 36.5082C57.5261 35.6692 57.526 35.593 57.586 35.4065C57.706 34.9828 58.0403 34.6523 58.4689 34.5421C58.6146 34.4998 59.0003 34.4998 61.023 34.4998L63.4057 34.5082L63.6714 34.6354C63.9886 34.7879 64.1343 34.8981 64.3143 35.1353C64.52 35.4065 64.58 35.6184 64.58 36.1353C64.58 36.8726 64.5286 37.5082 64.4514 37.7625C64.34 38.1099 64.1686 38.4404 63.9543 38.737C63.5257 39.2794 62.7458 39.8218 62.0344 40.0676L61.8287 40.1438L61.8373 41.0337L61.8458 41.9235L62.0344 41.9404L62.223 41.9574L62.4801 42.3387L62.7286 42.7201H63.8772C64.5114 42.7201 65.0685 42.7286 65.1199 42.737C65.2057 42.754 65.2228 42.7455 65.3085 42.6015L65.4114 42.4489H66.397C67.1341 42.415 67.357 42.432 67.357 42.4574Z" fill="black"/>
<path d="M62.8315 44.8895C62.6686 44.9827 62.5572 45.0251 62.5315 45.0082C62.5058 44.9997 62.3858 44.898 62.2572 44.8048L62.0258 44.6183L61.7858 44.8726C61.263 45.4319 61.2459 45.4573 61.0916 45.4658C60.8516 45.4912 60.8002 45.4488 60.5088 45.0166C60.3545 44.7963 60.2345 44.6099 60.2345 44.6099C60.2345 44.6099 60.1231 44.5929 59.9945 44.5844L59.7545 44.559L59.6431 44.7878L59.5317 45.0166L59.3345 44.9573C59.1802 44.9065 59.026 44.8471 58.8803 44.7794L58.6231 44.6522V44.1692L60.903 44.1777L63.1829 44.1861L63.1915 44.4149C63.2 44.6861 63.2086 44.6777 62.8315 44.8895Z" fill="black"/>
<path d="M84.2591 34.5504C84.2506 34.5165 84.2505 34.4572 84.242 34.364C82.1849 34.1436 76.3138 34.008 70.8627 38.4572C70.8627 38.4572 69.1056 30.4911 60.8775 30.4911C52.6493 30.4911 49.5981 38.4572 49.5981 38.4572C44.9869 33.5504 38.8158 33.9063 36.5873 34.2284C36.5873 34.2792 36.5787 34.3385 36.5787 34.3894C36.5102 35.6182 36.5445 36.203 36.7502 36.9741C37.393 39.3894 39.3729 42.0504 42.4756 44.6606C47.5582 48.9318 54.4492 52.0165 59.669 52.3724C65.1115 52.7369 73.1426 49.5928 78.4908 44.9996C79.3308 44.2623 80.1193 43.4826 80.8564 42.6521C81.3878 42.0419 82.1764 40.9911 82.1164 40.9911C82.0992 40.9911 82.1164 40.9741 82.1507 40.9572C82.1764 40.9402 82.2021 40.9148 82.1849 40.8979C82.1764 40.8894 82.1935 40.864 82.2192 40.8555C82.2449 40.847 82.2621 40.8301 82.2535 40.8131C82.2449 40.7962 82.2535 40.7792 82.2878 40.7708C82.3135 40.7623 82.3221 40.7369 82.3135 40.7199C82.3049 40.703 82.3135 40.686 82.3307 40.686C82.3478 40.686 82.3649 40.6606 82.3649 40.6436C82.3649 40.6267 82.3821 40.6013 82.3992 40.6013C82.4164 40.6013 82.4335 40.5843 82.4335 40.5674C82.4592 40.4996 82.5021 40.4318 82.5449 40.3724C82.6735 40.1775 83.1877 39.2708 83.2563 39.1182C83.7449 38.025 84.0534 37.0504 84.1991 36.0758C84.2505 35.6097 84.2934 34.7538 84.2591 34.5504ZM62.8317 44.8894C62.6688 44.9826 62.5574 45.025 62.5317 45.008C62.506 44.9996 62.386 44.8979 62.2574 44.8047L62.026 44.6182L61.786 44.8724C61.2632 45.4318 61.246 45.4572 61.0918 45.4657C60.8518 45.4911 60.8003 45.4487 60.5089 45.0165C60.3547 44.7962 60.2347 44.6097 60.2347 44.6097C60.2347 44.6097 60.1232 44.5928 59.9947 44.5843L59.7547 44.5589L59.6433 44.7877L59.5318 45.0165L59.3347 44.9572C59.1804 44.9063 59.0262 44.847 58.8804 44.7792L58.6233 44.6521V44.1691L60.9032 44.1775L63.1831 44.186L63.1916 44.4148C63.2002 44.686 63.2088 44.6775 62.8317 44.8894ZM67.1172 43.364C66.9886 43.847 66.8857 44.2369 66.8857 44.2538C66.7915 44.2623 66.7057 44.2708 66.6115 44.2623H66.3372L65.9686 45.1521C65.7629 45.6352 65.5744 46.0843 65.5487 46.1521L65.4972 46.2708L65.3173 45.9826L65.1373 45.6945V43.347L65.0687 43.364C64.923 43.3979 63.8859 43.5335 63.4316 43.5758C61.5546 43.7623 59.669 43.7199 57.8005 43.4572C57.5005 43.4148 57.2434 43.3809 57.2348 43.3894C57.2262 43.3979 57.2348 43.9402 57.252 44.6097L57.2777 45.8131L57.132 46.0335C57.0548 46.1521 56.9777 46.2538 56.9777 46.2623C56.952 46.2877 56.8663 46.1521 56.6691 45.7623C56.4549 45.3555 56.3006 44.9233 56.1892 44.4741L56.1292 44.2284L55.8635 44.2453L55.5978 44.2707L55.5292 43.9572C55.4949 43.7877 55.452 43.525 55.4349 43.3809L55.4092 43.1097L55.1863 42.9148C55.0578 42.8046 54.9292 42.6945 54.9035 42.6775C54.8607 42.6436 54.8435 42.5843 54.8435 42.5335V42.4318L55.9149 42.4402L56.9862 42.4487L57.0205 42.5589L57.0548 42.6691L57.4234 42.686C57.6291 42.6945 58.2805 42.7114 58.8633 42.7284L59.9347 42.7538L60.2089 42.3301L60.4918 41.9063H60.8518L60.8432 41.025L60.8346 40.1436L60.3632 39.9402C58.8462 39.2792 57.9548 38.525 57.6205 37.6097C57.5519 37.4233 57.5519 37.3555 57.5348 36.508C57.5262 35.6691 57.5262 35.5928 57.5862 35.4063C57.7062 34.9826 58.0405 34.6521 58.469 34.5419C58.6147 34.4996 59.0004 34.4996 61.0232 34.4996L63.4059 34.508L63.6716 34.6352C63.9887 34.7877 64.1344 34.8979 64.3144 35.1352C64.5201 35.4063 64.5801 35.6182 64.5801 36.1352C64.5801 36.8724 64.5287 37.508 64.4516 37.7623C64.3402 38.1097 64.1687 38.4402 63.9545 38.7369C63.5259 39.2792 62.746 39.8216 62.0346 40.0674L61.8289 40.1436L61.8374 41.0335L61.846 41.9233L62.0346 41.9402L62.2231 41.9572L62.4803 42.3385L62.7288 42.7199H63.8773C64.5116 42.7199 65.0687 42.7284 65.1201 42.7369C65.2058 42.7538 65.223 42.7453 65.3087 42.6013L65.4115 42.4487H66.3972C67.16 42.4487 67.3829 42.4572 67.3829 42.4826C67.3571 42.4741 67.2457 42.8894 67.1172 43.364Z" fill="white"/>
<path d="M84.1904 33.6862C84.1732 33.3048 84.1389 32.7709 84.1132 32.5082C83.7447 28.6608 82.7504 25.5167 80.8648 22.1862C80.7877 22.0591 80.7191 21.932 80.6763 21.8303C80.6591 21.8048 80.6505 21.7794 80.642 21.7625C80.9077 20.9743 81.9962 17.6777 82.8619 13.9065C84.0361 8.78789 84.7818 2.80484 82.5019 1.00823C82.5019 1.00823 78.5592 0.720092 73.2795 5.83874C71.8481 7.25399 70.5368 8.78789 69.3711 10.4235L69.0026 10.3048C66.877 9.61839 64.6742 9.19467 62.4543 9.0506C61.7858 8.99975 59.2916 8.99975 58.4774 9.0506C56.0175 9.21162 54.1319 9.57602 51.9892 10.3133C51.9035 10.3472 51.8263 10.3726 51.7492 10.3981C50.5407 8.77094 49.195 7.24552 47.7123 5.84721C42.2183 0.703144 38.1299 0.999753 38.1299 0.999753C35.7129 2.85569 36.5357 9.10992 37.7871 14.3981C38.6099 17.8981 39.6212 20.9743 39.9984 22.0845C39.9727 22.1438 39.9384 22.2116 39.9041 22.2709C37.9071 26.2709 36.8271 30.1269 36.57 34.2286C38.807 33.9065 44.9695 33.5421 49.5893 38.4574C49.5893 38.4574 52.6406 30.4913 60.8687 30.4913C69.0969 30.4913 70.8539 38.4574 70.8539 38.4574C76.305 34.0082 82.1762 34.1523 84.2332 34.3642C84.2246 34.1947 84.2075 33.9404 84.1904 33.6862ZM41.6183 18.8896C41.6183 18.8896 38.4127 10.9659 39.2356 6.44043C39.3727 5.67772 39.6298 5.00823 40.0327 4.49975C40.0327 4.49975 43.6667 4.85568 49.5293 11.2964C49.5293 11.2964 48.4151 11.8303 46.9237 12.9659C46.9237 12.9659 46.9152 12.9743 46.9066 12.9743C45.2867 14.2031 43.2125 16.1523 41.6183 18.8896ZM55.2204 30.6608C55.169 30.7625 54.9119 30.8726 54.6205 30.915C54.3291 30.9574 53.4377 30.932 52.932 30.8726C51.1149 30.6353 49.1865 30.0845 47.7808 29.4065C46.9923 29.0252 46.4266 28.6438 46.0066 28.2286L45.7666 27.9828L45.7409 27.6608C45.6981 27.1014 45.7066 26.2201 45.7752 25.9065C45.8181 25.6438 45.9123 25.3896 46.0409 25.1608C46.1095 25.076 46.1095 25.076 46.418 25.076C46.7952 25.076 47.1123 25.1353 47.6265 25.2964C48.6808 25.6184 50.2493 26.3981 52.1606 27.5336C53.7377 28.4659 54.3291 28.9235 54.7833 29.5506C55.0919 29.9404 55.2976 30.4913 55.2204 30.6608ZM75.4137 27.8557C75.388 27.9913 74.9851 28.3981 74.5823 28.6947C73.3995 29.5506 71.2825 30.3472 69.1311 30.7286C67.9055 30.9489 66.6798 30.9828 66.3113 30.8048C66.0713 30.6862 66.037 30.593 66.1227 30.2879C66.3027 29.6523 66.8855 28.9574 67.7941 28.3048C68.2569 27.9743 70.1339 26.8472 71.0082 26.3726C72.4481 25.593 73.6138 25.1269 74.4023 25.0167C74.6509 24.9828 74.9508 24.9743 75.0451 25.0167C75.1994 25.076 75.3708 25.5252 75.4394 26.0675C75.4737 26.3557 75.4565 27.6269 75.4137 27.8557ZM73.9909 12.9659L73.9737 12.9574C72.5338 11.8218 71.4539 11.2879 71.4539 11.2879C77.1193 4.84721 80.6248 4.49128 80.6248 4.49128C81.0105 5.00823 81.2591 5.66924 81.3962 6.43196C82.1933 10.9574 79.0992 18.8896 79.0992 18.8896C77.805 16.6099 76.0651 14.593 73.9909 12.9659Z" fill="#FFA409"/>
<path d="M81.405 6.4321C80.7365 6.34736 77.5738 6.33041 73.9911 12.966L73.974 12.9575C72.5341 11.8219 71.4541 11.288 71.4541 11.288C77.1196 4.84736 80.6251 4.49142 80.6251 4.49142C81.0193 5.00837 81.2679 5.66939 81.405 6.4321Z" fill="#FF9300"/>
<path d="M79.1079 18.89C77.8051 16.6018 76.0737 14.5933 73.991 12.9662C77.5737 6.33064 80.7278 6.34759 81.4049 6.43233C82.202 10.9662 79.1079 18.89 79.1079 18.89Z" fill="#FF8300"/>
<path d="M81.5335 6.45761C81.4906 6.44914 81.4478 6.44066 81.4049 6.43219L81.5335 6.45761Z" fill="#FF8300"/>
<path d="M49.5293 11.288C49.5293 11.288 48.4151 11.8219 46.9237 12.9575C46.9237 12.9575 46.9152 12.966 46.9066 12.966C43.1953 6.32193 39.9298 6.34736 39.227 6.4321C39.3641 5.66939 39.6213 4.9999 40.0241 4.49142C40.0327 4.49142 43.6668 4.84736 49.5293 11.288Z" fill="#FF9300"/>
<path d="M46.9152 12.9662C45.2867 14.2035 43.2125 16.1442 41.6183 18.89C41.6183 18.89 38.4128 10.9662 39.2356 6.43233C39.9298 6.34759 43.2039 6.33064 46.9152 12.9662Z" fill="#FF8300"/>
<path d="M39.2356 6.43219C39.1927 6.44066 39.1413 6.44914 39.0984 6.45761L39.2356 6.43219Z" fill="#FF8300"/>
<path d="M70.4342 23.2878C70.4342 23.2878 67.6915 23.4572 68.0343 21.3386C68.3771 19.22 70.5199 18.9657 71.1198 19.0505C71.7198 19.1352 74.1197 19.9827 73.6911 21.7623C73.2626 23.542 72.6626 23.203 72.3198 23.2878C71.9769 23.3725 70.4342 23.2878 70.4342 23.2878Z" fill="white"/>
<path d="M50.2067 23.2878C50.2067 23.2878 47.464 23.4572 47.8068 21.3386C48.1496 19.22 50.2924 18.9657 50.8923 19.0505C51.4923 19.1352 53.8922 19.9827 53.4636 21.7623C53.0351 23.542 52.4351 23.203 52.0923 23.2878C51.7494 23.3725 50.2067 23.2878 50.2067 23.2878Z" fill="white"/>
</svg>
