<svg width="18" height="18" viewBox="0 0 18 18" fill="none" xmlns="http://www.w3.org/2000/svg">
<path fill-rule="evenodd" clip-rule="evenodd" d="M0.666748 8.99999C0.666748 13.6024 4.39771 17.3333 9.00008 17.3333C13.6025 17.3333 17.3334 13.6024 17.3334 8.99999C17.3334 4.39762 13.6025 0.666656 9.00008 0.666656C4.39771 0.666656 0.666748 4.39762 0.666748 8.99999ZM2.33341 8.99999C2.33341 5.31809 5.31818 2.33332 9.00008 2.33332C12.682 2.33332 15.6667 5.31809 15.6667 8.99999C15.6667 12.6819 12.682 15.6667 9.00008 15.6667C5.31818 15.6667 2.33341 12.6819 2.33341 8.99999ZM13.5454 6.3369C13.5021 6.12005 13.3744 5.92928 13.1904 5.80661C13.0064 5.68395 12.7812 5.63945 12.5644 5.68291L10.3714 6.12247C9.92013 6.21292 9.62764 6.65206 9.71809 7.10333C9.80827 7.55324 10.2451 7.84533 10.6949 7.75743L9.28841 9.56638L7.53286 8.22283C7.17883 7.95189 6.67427 8.00757 6.38784 8.34918L4.19485 10.9646C3.89914 11.3172 3.94532 11.8428 4.29799 12.1386C4.65065 12.4343 5.17627 12.3881 5.47198 12.0354L7.15286 10.0308L8.93222 11.3925C9.29573 11.6707 9.81558 11.6036 10.0966 11.2423L12.2675 8.45005L12.3495 8.86088C12.4396 9.31221 12.8785 9.60508 13.3298 9.51501C13.7812 9.42494 14.074 8.98604 13.984 8.53471L13.5454 6.3369Z" fill="#E1B067"/>
</svg>
