<?xml version="1.0" encoding="UTF-8" standalone="no"?>
<!DOCTYPE svg PUBLIC "-//W3C//DTD SVG 1.1//EN" "http://www.w3.org/Graphics/SVG/1.1/DTD/svg11.dtd">
<!-- Created with Vectornator (http://vectornator.io/) -->
<svg height="100%" stroke-miterlimit="10" style="fill-rule:nonzero;clip-rule:evenodd;stroke-linecap:round;stroke-linejoin:round;" version="1.1" viewBox="0 0 165 44" width="100%" xml:space="preserve" xmlns="http://www.w3.org/2000/svg" xmlns:vectornator="http://vectornator.io" xmlns:xlink="http://www.w3.org/1999/xlink">
<defs>
<linearGradient gradientTransform="matrix(0.609453 0 0 0.609453 15.1554 3.2511)" gradientUnits="userSpaceOnUse" id="LinearGradient" x1="26.87" x2="26.381" y1="-2.286" y2="59.123">
<stop offset="0" stop-color="#db2f36"/>
<stop offset="1" stop-color="#5474bf"/>
</linearGradient>
</defs>
<g id="Untitled" vectornator:layerName="Untitled">
<g opacity="1">
<path d="M66.5384 30.3955C69.4089 30.3955 71.4237 28.9127 71.4237 26.2701C71.4237 23.9134 69.9031 22.9437 67.2039 22.2404C64.9038 21.6517 64.3334 21.3665 64.3334 20.4919C64.3334 19.8075 64.9227 19.2943 66.0441 19.2943C67.1655 19.2943 68.3253 19.7886 69.504 20.6059L71.0245 18.4009C69.6746 17.3173 68.0212 16.709 66.0819 16.709C63.3637 16.709 61.4257 18.3058 61.4257 20.7198C61.4257 23.4002 63.1547 24.1413 65.835 24.8257C68.0595 25.3962 68.5154 25.7765 68.5154 26.5176C68.5154 27.3348 67.7932 27.8096 66.5956 27.8096C65.0751 27.8096 63.8202 27.1831 62.6226 26.1946L60.893 28.2667C62.4898 29.6922 64.5235 30.3955 66.5384 30.3955ZM73.9639 30.2054L76.8911 30.2054L76.8911 26.1373L78.4312 24.5405L82.556 30.2054L86.0725 30.2054L80.4077 22.5445L85.8251 16.8992L82.2897 16.8992L76.8911 22.7158L76.8911 16.8992L73.9639 16.8992C73.9639 16.8992 73.9639 30.2054 73.9639 30.2054ZM87.982 30.2054L90.9092 30.2054L90.9092 16.8992L87.982 16.8992L87.982 30.2054ZM94.2343 30.2054L97.1237 30.2054L97.1237 21.7462L103.567 30.2054L106.058 30.2054L106.058 16.8992L103.168 16.8992L103.168 25.0921L96.9336 16.8992L94.2343 16.8992L94.2343 30.2054Z" fill="#ffffff" fill-rule="nonzero" opacity="1" stroke="none"/>
<path d="M115.714 30.4333C119.82 30.4333 122.805 27.3348 122.805 23.5526C122.805 19.7313 119.859 16.6712 115.753 16.6712C111.647 16.6712 108.663 19.7697 108.663 23.552C108.663 27.3732 111.609 30.4333 115.714 30.4333ZM115.753 27.734C113.396 27.734 111.723 25.8332 111.723 23.5526C111.723 21.2336 113.358 19.3705 115.714 19.3705C118.072 19.3705 119.745 21.2714 119.745 23.5526C119.745 25.8715 118.11 27.734 115.753 27.734ZM130.952 30.4144C134.526 30.4144 136.788 28.4373 136.788 24.4076L136.788 16.8992L133.86 16.8992L133.86 24.5216C133.86 26.6315 132.777 27.7151 130.99 27.7151C129.204 27.7151 128.12 26.5938 128.12 24.4265L128.12 16.8998L125.193 16.8998L125.193 24.5027C125.193 28.4185 127.379 30.4144 130.952 30.4144ZM142.869 30.2054L145.796 30.2054L145.796 19.5985L149.844 19.5985L149.844 16.8992L138.819 16.8992L138.819 19.5991L142.869 19.5991L142.869 30.2054Z" fill="#d92948" fill-rule="nonzero" opacity="1" stroke="none"/>
<path d="M39.4451 7.9646C31.7069 3.49731 21.8027 6.15819 17.3299 13.9049C12.8577 21.6523 15.5052 31.5596 23.2434 36.0269C30.981 40.4942 40.8853 37.8339 45.358 30.0865C49.8308 22.3398 47.1968 12.4404 39.4445 7.9646L39.4451 7.9646ZM27.2603 29.0687C23.3629 26.8186 22.027 21.8193 24.2801 17.917C26.5326 14.0153 31.5302 12.6726 35.4276 14.9227C39.3251 17.1734 40.661 22.1722 38.4078 26.0745C36.1553 29.9768 31.1724 31.3274 27.2609 29.0687L27.2603 29.0687Z" fill="url(#LinearGradient)" fill-rule="nonzero" opacity="0.43" stroke="none"/>
<path d="M34.9979 24.1054L21.9581 16.5774C20.7258 15.8656 20.7453 14.0786 22.0172 13.3973L40.4873 3.47842C42.0969 2.60995 43.835 4.39748 42.916 5.98998L34.9979 24.1054Z" fill="#d92948" fill-rule="nonzero" opacity="1" stroke="none"/>
<path d="M27.704 19.8946L40.7445 27.422C41.9768 28.1338 41.9573 29.9208 40.686 30.6021L22.2153 40.5216C20.6051 41.39 18.8669 39.6025 19.7866 38.01L27.7046 19.8946L27.704 19.8946Z" fill="#d92948" fill-rule="nonzero" opacity="1" stroke="none"/>
<path d="M34.9979 24.1054L26.9239 21.6432L27.704 19.894L34.9979 24.1054Z" fill="#8e221f" fill-rule="nonzero" opacity="1" stroke="none"/>
</g>
</g>
</svg>
