<svg width="18" height="18" xmlns="http://www.w3.org/2000/svg" fill="none">

 <g>
  <title>Layer 1</title>
  <path id="svg_1" fill="#06b75e" d="m0.66675,8.99999c0,4.60241 3.73096,8.33331 8.33333,8.33331c4.60242,0 8.33332,-3.7309 8.33332,-8.33331c0,-4.60237 -3.7309,-8.33333 -8.33332,-8.33333c-4.60237,0 -8.33333,3.73096 -8.33333,8.33333zm1.66666,0c0,-3.6819 2.98477,-6.66667 6.66667,-6.66667c3.68192,0 6.66662,2.98477 6.66662,6.66667c0,3.68191 -2.9847,6.66671 -6.66662,6.66671c-3.6819,0 -6.66667,-2.9848 -6.66667,-6.66671zm11.21199,-2.66309c-0.0433,-0.21685 -0.171,-0.40762 -0.355,-0.53029c-0.184,-0.12266 -0.4092,-0.16716 -0.626,-0.1237l-2.193,0.43956c-0.45127,0.09045 -0.74376,0.52959 -0.65331,0.98086c0.09018,0.44991 0.52701,0.742 0.97681,0.6541l-1.40649,1.80895l-1.75555,-1.34355c-0.35403,-0.27094 -0.85859,-0.21526 -1.14502,0.12635l-2.19299,2.61542c-0.29571,0.3526 -0.24953,0.8782 0.10314,1.174c0.35266,0.2957 0.87828,0.2495 1.17399,-0.1032l1.68088,-2.0046l1.77936,1.3617c0.36351,0.2782 0.88336,0.2111 1.16438,-0.1502l2.1709,-2.79225l0.082,0.41083c0.0901,0.45133 0.529,0.7442 0.9803,0.65413c0.4514,-0.09007 0.7442,-0.52897 0.6542,-0.9803l-0.4386,-2.19781z" clip-rule="evenodd" fill-rule="evenodd"/>
 </g>
</svg>