<svg width="14" height="14" viewBox="0 0 14 14" fill="none" xmlns="http://www.w3.org/2000/svg">
<path fill-rule="evenodd" clip-rule="evenodd" d="M1.55555 7C1.55555 10.0069 3.99311 12.4444 7 12.4444C10.0069 12.4444 12.4444 10.0069 12.4444 7C12.4444 3.99312 10.0069 1.55555 7 1.55555C3.99312 1.55555 1.55555 3.99311 1.55555 7ZM7 14C10.866 14 14 10.866 14 7C14 3.13401 10.866 -2.73984e-07 7 -6.11959e-07C3.13401 -9.49935e-07 -2.18133e-06 3.134 -2.51931e-06 7C-2.85728e-06 10.866 3.134 14 7 14ZM7.77778 9.33333C7.77778 9.76289 7.42956 10.1111 7.00001 10.1111C6.57045 10.1111 6.22223 9.76289 6.22223 9.33333L6.22223 6.7123L6.02576 6.93332C5.74037 7.25436 5.24875 7.28327 4.92771 6.99788C4.60666 6.71249 4.57776 6.22088 4.86315 5.89983L6.4187 4.14992C6.5663 3.98389 6.77785 3.88889 7.00001 3.88889C7.22216 3.88889 7.43371 3.98389 7.58131 4.14992L9.13687 5.89983C9.42226 6.22088 9.39335 6.71249 9.07231 6.99788C8.75126 7.28327 8.25965 7.25436 7.97426 6.93332L7.77778 6.7123L7.77778 9.33333Z" fill="#FF614B"/>
</svg>
