<svg width="121" height="88" viewBox="0 0 121 88" fill="none" xmlns="http://www.w3.org/2000/svg">
<path d="M25.4465 69V66H13.9979C13.2028 66 12.4403 66.314 11.8781 66.8725C11.3158 67.4312 11 68.189 11 68.9792V72.0208C11 72.811 11.3158 73.5687 11.8781 74.1275C12.4403 74.686 13.2028 75 13.9979 75H23.0755V78H11.2096V81H23.0964C23.4901 81 23.88 80.9229 24.2437 80.7731C24.6074 80.6235 24.9379 80.4042 25.2163 80.1275C25.4947 79.8508 25.7155 79.5223 25.8661 79.1608C26.0168 78.7994 26.0943 78.4121 26.0943 78.0208V74.9792C26.0943 74.189 25.7785 73.4312 25.2163 72.8725C24.6541 72.314 23.8915 72 23.0964 72H14.0189V69H25.4465Z" fill="#DBDBDB"/>
<path d="M28.6625 68.9792V78.0208C28.6622 78.4119 28.7395 78.7994 28.8899 79.1608C29.0404 79.5223 29.261 79.8506 29.5392 80.1273C29.8174 80.404 30.1478 80.6235 30.5114 80.7731C30.875 80.9229 31.2647 81 31.6583 81H40.7694C41.1631 81 41.5528 80.9229 41.9166 80.7731C42.2803 80.6235 42.6109 80.4042 42.8893 80.1275C43.1677 79.8508 43.3885 79.5223 43.539 79.1608C43.6897 78.7994 43.7673 78.4121 43.7673 78.0208V68.9792C43.7673 68.5879 43.6897 68.2006 43.539 67.8392C43.3885 67.4777 43.1677 67.1492 42.8893 66.8725C42.6109 66.5958 42.2803 66.3765 41.9166 66.2269C41.5528 66.0771 41.1631 66 40.7694 66H31.6583C31.2647 66 30.875 66.0771 30.5114 66.2269C30.1478 66.3765 29.8174 66.596 29.5392 66.8727C29.261 67.1494 29.0404 67.4777 28.8899 67.8392C28.7395 68.2006 28.6622 68.5881 28.6625 68.9792ZM40.738 78H31.6814V69H40.738V78Z" fill="#DBDBDB"/>
<path d="M60.7736 68.9792V81H63.7925V76.0708H72.6353V81H75.6541V68.9792C75.6543 68.5879 75.577 68.2004 75.4265 67.8387C75.2759 67.4773 75.0552 67.1487 74.7766 66.8719C74.4982 66.5952 74.1676 66.3758 73.8038 66.2262C73.4399 66.0767 73.0499 65.9998 72.6562 66H63.7715C63.3778 66 62.9879 66.0771 62.6244 66.2269C62.2606 66.3765 61.93 66.5958 61.6516 66.8725C61.3732 67.1492 61.1525 67.4777 61.0017 67.8392C60.8512 68.2006 60.7736 68.5879 60.7736 68.9792ZM72.6353 73.0708H63.7925V69H72.6353V73.0708Z" fill="#DBDBDB"/>
<path d="M96.1153 68.9792V81H99.1342V76.0708H107.981V81H111V68.9792C111 68.189 110.684 67.4313 110.122 66.8725C109.56 66.314 108.797 66 108.002 66H99.1195C98.7254 65.9992 98.3348 66.0756 97.9702 66.225C97.6059 66.3744 97.2746 66.5938 96.9956 66.8704C96.7166 67.1471 96.4952 67.4758 96.344 67.8377C96.1931 68.1996 96.1153 68.5875 96.1153 68.9792ZM107.975 73.0708H99.1405V69H107.981L107.975 73.0708Z" fill="#DBDBDB"/>
<path d="M90.4152 66V78H89.2076L84.8806 67.25C84.7325 66.8812 84.4766 66.565 84.146 66.3421C83.8151 66.1192 83.4248 66 83.0252 66H80.3376C79.8076 66 79.2994 66.2092 78.9248 66.5815C78.5502 66.9537 78.3397 67.4587 78.3397 67.9854V81H81.3585V69H82.5661L86.891 79.75C87.0384 80.1187 87.294 80.4352 87.6244 80.6581C87.9548 80.8808 88.3449 81 88.7443 81H91.4319C91.9617 81 92.4699 80.7908 92.8447 80.4185C93.2193 80.0462 93.4298 79.5412 93.4298 79.0146V66H90.4152Z" fill="#DBDBDB"/>
<path d="M49.4612 78V66H46.4424V78.0208C46.4424 78.4121 46.5199 78.7994 46.6707 79.1608C46.8212 79.5223 47.0422 79.8508 47.3204 80.1275C47.5988 80.4042 47.9294 80.6235 48.2931 80.7731C48.6568 80.9229 49.0466 81 49.4403 81H58.5178V78H49.4612Z" fill="#DBDBDB"/>
<path fill-rule="evenodd" clip-rule="evenodd" d="M43.1041 39.8375C43.2724 39.6556 43.4771 39.5095 43.705 39.4085C43.9329 39.3074 44.1794 39.2535 44.4292 39.25H86.0585C86.2348 39.2524 86.4064 39.305 86.5528 39.4013C86.6999 39.4976 86.8145 39.6336 86.8847 39.7929C86.955 39.9521 86.9768 40.128 86.9477 40.2992C86.9185 40.4704 86.8397 40.6297 86.7211 40.7579L77.8956 50.4125C77.7274 50.5944 77.5226 50.7405 77.2947 50.8415C77.0668 50.9426 76.8203 50.9965 76.5705 51H34.9346C34.7583 50.9976 34.5867 50.945 34.4403 50.8487C34.2939 50.7524 34.1786 50.6164 34.1083 50.4572C34.0381 50.2978 34.0169 50.122 34.0454 49.9508C34.0746 49.7796 34.1534 49.6203 34.272 49.4921L43.1041 39.8375ZM86.7608 31.8344C86.8794 31.9627 86.9583 32.122 86.9874 32.2932C87.0166 32.4644 86.9947 32.6402 86.9245 32.7995C86.8543 32.9588 86.7396 33.0948 86.5925 33.191C86.4461 33.2874 86.2745 33.3399 86.0983 33.3424H44.469C44.2192 33.3388 43.9727 33.2849 43.7448 33.1839C43.5168 33.0828 43.3121 32.9368 43.1438 32.7549L34.2389 23.1656C34.1203 23.0374 34.0414 22.878 34.0123 22.7069C33.9838 22.5356 34.005 22.3598 34.0752 22.2005C34.1454 22.0412 34.2607 21.9052 34.4072 21.809C34.5536 21.7126 34.7252 21.6601 34.9014 21.6576L76.544 21.625C76.7938 21.6285 77.0403 21.6824 77.2682 21.7835C77.4961 21.8845 77.7008 22.0306 77.8691 22.2125L86.7608 31.8344ZM43.1041 4.5875C43.2724 4.40556 43.4771 4.25955 43.705 4.1585C43.9329 4.05746 44.1794 4.00351 44.4292 4L86.0585 4.03264C86.2348 4.03508 86.4064 4.08762 86.5528 4.18393C86.6999 4.28023 86.8145 4.41621 86.8847 4.57551C86.955 4.7348 86.9768 4.91062 86.9477 5.08183C86.9185 5.25303 86.8397 5.41233 86.7211 5.54056L77.8956 15.1625C77.7274 15.3444 77.5226 15.4905 77.2947 15.5915C77.0668 15.6926 76.8203 15.7465 76.5705 15.75H34.9081C34.7318 15.7476 34.5602 15.695 34.4138 15.5987C34.2674 15.5024 34.1521 15.3664 34.0818 15.2072C34.0116 15.0479 33.9904 14.872 34.0189 14.7008C34.0481 14.5296 34.1269 14.3703 34.2455 14.2421L43.1041 4.5875Z" fill="url(#paint0_linear_2_521)"/>
<defs>
<linearGradient id="paint0_linear_2_521" x1="35.6038" y1="52.0249" x2="84.648" y2="2.24482" gradientUnits="userSpaceOnUse">
<stop stop-color="#9945FF"/>
<stop offset="0.14" stop-color="#8A53F4"/>
<stop offset="0.42" stop-color="#6377D6"/>
<stop offset="0.79" stop-color="#24B0A7"/>
<stop offset="0.99" stop-color="#00D18C"/>
<stop offset="1" stop-color="#00D18C"/>
</linearGradient>
</defs>
</svg>
