<svg width="25" height="20" viewBox="0 0 25 20" fill="none" xmlns="http://www.w3.org/2000/svg">
<path d="M13.938 1.19401C13.462 0.888009 12.85 0.854009 12.306 1.09201L5.47202 5.27401H2.54802C1.63002 5.27401 0.848022 6.02201 0.848022 6.97401V13.4C0.848022 14.318 1.59602 15.1 2.54802 15.1H5.47202L12.204 19.18L12.306 19.248C12.544 19.35 12.782 19.418 13.02 19.418C13.326 19.418 13.632 19.316 13.938 19.146C14.414 18.84 14.72 18.296 14.72 17.718V2.62201C14.72 2.04401 14.414 1.50001 13.938 1.19401ZM12.68 17.106L6.05002 13.026H2.88802V7.28001H6.05002L12.68 3.20001V17.106Z" fill="#4E4E50"/>
<path d="M25 7.00662L23.9934 6L21 9.00221L18.0066 6L17 7.00662L20.0022 10L17 12.9934L18.0066 14L21 10.9978L23.9934 14L25 12.9934L21.9978 10L25 7.00662Z" fill="#D4594C"/>
</svg>
