<svg width="23" height="20" viewBox="0 0 23 20" fill="none" xmlns="http://www.w3.org/2000/svg">
<path d="M13.938 1.19401C13.462 0.888009 12.85 0.854009 12.306 1.09201L5.47202 5.27401H2.54802C1.63002 5.27401 0.848022 6.02201 0.848022 6.97401V13.4C0.848022 14.318 1.59602 15.1 2.54802 15.1H5.47202L12.204 19.18L12.306 19.248C12.544 19.35 12.782 19.418 13.02 19.418C13.326 19.418 13.632 19.316 13.938 19.146C14.414 18.84 14.72 18.296 14.72 17.718V2.62201C14.72 2.04401 14.414 1.50001 13.938 1.19401ZM12.68 17.106L6.05002 13.026H2.88802V7.28001H6.05002L12.68 3.20001V17.106Z" fill="#4E4E50"/>
<path d="M18.052 7.82401C17.644 7.41601 16.998 7.41601 16.624 7.82401C16.216 8.23201 16.216 8.87801 16.624 9.25201C17.134 9.76201 17.134 10.578 16.624 11.088C16.216 11.496 16.216 12.142 16.624 12.516C16.828 12.72 17.066 12.822 17.338 12.822C17.61 12.822 17.848 12.72 18.052 12.516C19.344 11.224 19.344 9.11601 18.052 7.82401Z" fill="#4E4E50"/>
<path d="M20.296 4.56001C19.888 4.15201 19.242 4.15201 18.868 4.56001C18.46 4.96802 18.46 5.61402 18.868 5.98802C21.18 8.30002 21.18 12.04 18.868 14.352C18.46 14.76 18.46 15.406 18.868 15.78C19.072 15.984 19.31 16.086 19.582 16.086C19.854 16.086 20.092 15.984 20.296 15.78C23.39 12.686 23.39 7.65402 20.296 4.56001Z" fill="#4E4E50"/>
</svg>
