<svg width="114" height="45" viewBox="0 0 114 45" fill="none" xmlns="http://www.w3.org/2000/svg">
<path d="M1.60571 16.504V22.5385L17.8695 20.7479V14.2164L1.60571 16.504ZM6.79576 22.9056V43.5841H12.7501V22.2965L6.79576 22.9056ZM20.066 13.9075V43.5841H26.3402V13.0246L20.066 13.9075ZM27.5091 12.86V19.6868L36.569 18.6891V11.5859L27.5091 12.86ZM27.5091 24.768V31.7192L33.4564 31.3945V24.2556L27.5091 24.768ZM27.5091 36.7296V43.5841H36.569V36.4561L27.5091 36.7296ZM59.9991 8.27933V43.5841H68.2241V7.12219L59.9991 8.27933ZM69.7601 6.90586V15.0268L81.7464 13.7076V5.21933L69.7601 6.90586ZM69.7601 21.1342V29.4055L77.6164 28.9761V20.4608L69.7601 21.1342ZM69.7601 35.4513V43.5841H81.7464V35.089L69.7601 35.4513ZM38.9662 11.248V43.5841H46.1132V10.2423L38.9662 11.248ZM47.4472 36.1276V43.5837H57.8215V35.8142L47.4472 36.1276ZM108.619 4.82011C106.02 2.36183 102.208 1.35351 98.0394 1.95297V10.96C99.7276 10.8662 101.096 11.4933 101.705 12.7559C102.668 14.7465 101.675 17.7332 99.3323 20.5004C95.7171 24.7705 86.1035 33.5108 86.1035 33.5108L99.9042 33.0566C108.337 24.8107 111.365 19.8054 111.908 13.5585C112.194 10.2535 110.995 7.06915 108.619 4.82011ZM112.394 43.5841V34.1595L84.4025 35.0035L112.394 43.5841ZM84.4025 35.0032L84.4054 43.5837H112.394L84.4025 35.0032ZM96.4303 2.15515C88.2984 3.88861 84.3052 9.87683 84.766 19.6479L93.4364 18.8778C93.0414 13.3576 94.7283 12.0481 96.4344 11.3281L96.4303 2.15515Z" fill="#141414"/>
</svg>
