<svg width="112" height="43" viewBox="0 0 112 43" fill="none" xmlns="http://www.w3.org/2000/svg">
<path d="M0.605469 15.5049V21.5394L16.8693 19.7487V13.2173L0.605469 15.5049ZM5.79552 21.9065V42.5849H11.7499V21.2974L5.79552 21.9065ZM19.0658 12.9084V42.5849H25.3399V12.0254L19.0658 12.9084ZM26.5088 11.8609V18.6877L35.5688 17.69V10.5867L26.5088 11.8609ZM26.5088 23.7688V30.72L32.4561 30.3954V23.2565L26.5088 23.7688ZM26.5088 35.7305V42.5849H35.5688V35.4569L26.5088 35.7305ZM58.9988 7.28018V42.5849H67.2239V6.12304L58.9988 7.28018ZM68.7598 5.90672V14.0276L80.7462 12.7085V4.22018L68.7598 5.90672ZM68.7598 20.1351V28.4064L76.6162 27.977V19.4617L68.7598 20.1351ZM68.7598 34.4521V42.5849H80.7462V34.0899L68.7598 34.4521ZM37.966 10.2489V42.5849H45.113V9.24315L37.966 10.2489ZM46.447 35.1284V42.5846H56.8213V34.815L46.447 35.1284ZM107.619 3.82097C105.02 1.36268 101.208 0.354362 97.0392 0.953826V9.9609C98.7274 9.86704 100.095 10.4941 100.705 11.7567C101.667 13.7473 100.674 16.734 98.3321 19.5012C94.7168 23.7714 85.1032 32.5117 85.1032 32.5117L98.904 32.0575C107.336 23.8116 110.365 18.8063 110.908 12.5593C111.194 9.2544 109.995 6.07 107.619 3.82097ZM111.394 42.5849V33.1603L83.4022 34.0044L111.394 42.5849ZM83.4022 34.0041L83.4051 42.5846H111.394L83.4022 34.0041ZM95.43 1.156C87.2981 2.88947 83.3049 8.87768 83.7657 18.6488L92.4362 17.8786C92.0412 12.3584 93.7281 11.0489 95.4342 10.3289L95.43 1.156Z" fill="white"/>
</svg>
