<svg width="16" height="17" viewBox="0 0 16 17" fill="none" xmlns="http://www.w3.org/2000/svg">
<path d="M8.00001 0.0234375C3.6 0.0234375 0 3.62344 0 8.02344C0 12.4234 3.6 16.0234 8.00001 16.0234C12.4 16.0234 16 12.4234 16 8.02344C16 3.59267 12.4 0.0234375 8.00001 0.0234375ZM8.00001 1.86959C11.4154 1.86959 14.1539 4.60805 14.1539 8.02344C14.1539 11.4388 11.4154 14.1773 8.00001 14.1773C4.58462 14.1773 1.84616 11.4388 1.84616 8.02344C1.84616 4.60805 4.58462 1.86959 8.00001 1.86959ZM8.00001 2.79267C7.47693 2.79267 7.07693 3.19267 7.07693 3.71575V8.02344C7.07693 8.3619 7.26154 8.66958 7.53847 8.82343L10.7385 10.6696C11.1692 10.9157 11.7539 10.7619 12 10.3311C12.2462 9.90036 12.0923 9.31573 11.6615 9.06958L8.92308 7.50036V3.71575C8.92308 3.19267 8.52308 2.79267 8.00001 2.79267Z" fill="#CCCCCC"/>
</svg>
