<svg width="80" height="81" xmlns="http://www.w3.org/2000/svg" fill="none">
 <g>
  <title>Layer 1</title>
  <g id="svg_1" stroke="null"/>
  <defs transform="translate(16 0) translate(-33.5002 0) translate(0 12.5)">
   <clipPath id="svg_14">
    <rect x="-17.50021" y="12.5" fill="white" height="56" width="147"/>
   </clipPath>
  </defs>
  <g stroke="null" id="svg_15">
   <path stroke="null" fill="#ffffff" d="m22.03901,78.92632l3.50101,0l0,-12.20966l4.84087,0l0,-3.32595l-13.18292,0l0,3.32595l4.84104,0l0,12.20966z"/>
   <path stroke="null" fill="#ffffff" d="m38.79502,78.94615c4.41967,0 8.03043,-3.61038 8.03043,-8.03038c0,-4.41995 -3.61077,-8.03038 -8.03043,-8.03038c-4.442,0 -8.03049,3.61043 -8.03049,8.03038c0,4.42 3.58849,8.03038 8.03049,8.03038zm0,-3.36972c-2.53838,0 -4.52954,-2.14435 -4.52954,-4.66066c0,-2.51631 1.99116,-4.66067 4.52954,-4.66067c2.51602,0 4.5073,2.14436 4.5073,4.66067c0,2.51631 -1.99128,4.66066 -4.5073,4.66066z"/>
   <path stroke="null" fill="#ffffff" d="m62.80202,78.92632l0,-15.5356l-3.50134,0l0,9.58393l-7.54867,-9.58393l-2.99781,0l0,15.5356l3.47902,0l0,-9.60581l7.57099,9.60581l2.99781,0z"/>
  </g>
  <g stroke="null" id="svg_16">
   <path stroke="null" fill="#0098EA" d="m39.99999,55.8913c14.74363,0 26.69566,-11.95202 26.69566,-26.69565c0,-14.74363 -11.95203,-26.69565 -26.69566,-26.69565c-14.74362,0 -26.69564,11.95202 -26.69564,26.69565c0,14.74363 11.95202,26.69565 26.69564,26.69565z"/>
   <path stroke="null" fill="white" d="m49.11494,17.3997l-18.23094,0c-3.35202,0 -5.47651,3.61583 -3.79021,6.53891l11.25146,19.50193c0.73423,1.27338 2.57423,1.27338 3.30845,0l11.25374,-19.50193c1.68412,-2.91841 -0.44048,-6.53891 -3.79021,-6.53891l-0.00229,0zm-10.77885,20.1925l-2.45037,-4.74239l-5.91252,-10.57463c-0.39004,-0.67683 0.09172,-1.54416 0.90851,-1.54416l7.4521,0l0,16.86345l0.00228,-0.00229zm11.68507,-15.3193l-5.91023,10.5792l-2.45037,4.74011l0,-16.86346l7.45209,0c0.81679,0 1.29855,0.86732 0.90851,1.54415z"/>
  </g>
 </g>

</svg>