<svg width="80" height="81" xmlns="http://www.w3.org/2000/svg" fill="none">

 <g>
  <title>Layer 1</title>

  <g stroke="null">
   <g stroke="null">
    <path stroke="null" fill-rule="nonzero" fill="#ffffff" d="m10.45122,67.95241l1.73108,0l0,0l0,11.32033l0,0l-1.73108,0l0,0l0,-11.32033l0,0z"/>
    <path stroke="null" fill-rule="nonzero" fill="#ffffff" d="m5.8163,63.16194l14.133,0l0,0l0,1.73096l0,0l-14.133,0l0,0l0,-1.73096l0,0z"/>
    <path stroke="null" fill-rule="nonzero" fill="#ffffff" d="m13.58593,67.95241l1.73108,0l0,0l0,11.32033l0,0l-1.73108,0l0,0l0,-11.32033l0,0z"/>
   </g>
   <g stroke="null">
    <path stroke="null" fill-rule="nonzero" fill="#ffffff" d="m63.22037,79.28884l1.7497,0l0,-6.81946l-1.7497,-1.94574l0,8.7652z"/>
    <path stroke="null" fill-rule="nonzero" fill="#ffffff" d="m72.43111,63.16194l0,12.63807l-12.37764,-13.75461l0,17.24344l1.7497,0l0,-12.64864l12.38054,13.75977l0,-17.23803l-1.75259,0z"/>
   </g>
   <g stroke="null">
    <path stroke="null" fill-rule="nonzero" fill="#ffffff" d="m48.72773,63.15125c-4.44705,0 -8.0649,3.61772 -8.0649,8.06477c0,4.44705 3.61785,8.06477 8.0649,8.06477c4.44705,0 8.0649,-3.61772 8.0649,-8.06477c0,-4.44705 -3.61785,-8.06477 -8.0649,-8.06477zm0,14.39054c-3.48895,0 -6.32841,-2.83681 -6.32841,-6.32853c0,-3.49159 2.83681,-6.32841 6.32841,-6.32841c3.49159,0 6.32853,2.83681 6.32853,6.32841c0,3.49172 -2.83958,6.32853 -6.32853,6.32853z"/>
    <path stroke="null" fill-rule="nonzero" fill="#ffffff" d="m48.72773,70.05396c-0.63869,0 -1.16206,0.52325 -1.16206,1.16206c0,0.63881 0.52337,1.16206 1.16206,1.16206c0.63869,0 1.16206,-0.52325 1.16206,-1.16206c0,-0.63881 -0.51797,-1.16206 -1.16206,-1.16206z"/>
   </g>
   <path stroke="null" fill-rule="nonzero" fill="#ffffff" d="m37.62746,68.10558c0,-2.72678 -2.2034,-4.94364 -4.91132,-4.94364l-9.22696,0l0,16.1269l1.72304,0l0,-14.37708l7.50392,0c1.73637,0 3.15081,1.43318 3.15081,3.19105c0,1.74982 -1.39558,3.17759 -3.11598,3.19646l-6.1218,-0.00277l0,7.9897l1.72304,0l0,-6.23988l4.03647,0l3.29567,6.23988l1.99956,0l-3.44067,-6.48408c1.99944,-0.65755 3.3842,-2.57374 3.3842,-4.69654z"/>
  </g>
  <path stroke="null" fill-rule="nonzero" fill="#ff0000" d="m54.06616,12.50989l-37.99081,-6.99195l19.99047,50.3106l27.85884,-33.94124l-9.8585,-9.37742zm-0.61289,3.08396l5.8123,5.52248l-15.89806,2.87959l10.08576,-8.40208zm-13.53555,7.8223l-16.75484,-13.89483l27.38431,5.03795l-10.62947,8.85688zm-1.19281,2.46128l-2.73151,22.58363l-14.73174,-37.0682l17.46325,14.48457zm2.52722,1.19605l17.60161,-3.18618l-20.18815,24.6001l2.58653,-21.41392z"/>
 </g>
</svg>