<svg width="80" height="81" xmlns="http://www.w3.org/2000/svg" fill="none">

 <g>
  <title>Layer 1</title>
  <g stroke="null">
   <path stroke="null" fill="#2775ca" d="m39.34415,50.9855c14.08247,0 25.41183,-11.32936 25.41183,-25.41183s-11.32935,-25.41183 -25.41183,-25.41183s-25.41183,11.32936 -25.41183,25.41183s11.32936,25.41183 25.41183,25.41183z"/>
   <path stroke="null" fill="#fff" d="m46.33241,29.59712c0,-3.7058 -2.22353,-4.9764 -6.6706,-5.50573c-3.17648,-0.42361 -3.81178,-1.2706 -3.81178,-2.75312s1.05891,-2.43522 3.17648,-2.43522c1.90589,0 2.9648,0.6353 3.49413,2.22354c0.10596,0.31765 0.42361,0.52933 0.74126,0.52933l1.69395,0c0.42362,0 0.74126,-0.31765 0.74126,-0.74101l0,-0.10597c-0.42361,-2.3295 -2.3295,-4.12942 -4.76472,-4.3411l0,-2.54118c0,-0.42361 -0.31765,-0.74126 -0.84697,-0.84723l-1.58825,0c-0.42361,0 -0.74126,0.31765 -0.84723,0.84723l0,2.43522c-3.17648,0.42361 -5.18808,2.54118 -5.18808,5.18833c0,3.49413 2.11757,4.87043 6.56464,5.40002c2.96479,0.52933 3.91774,1.16462 3.91774,2.85883s-1.48252,2.85883 -3.49412,2.85883c-2.75312,0 -3.70607,-1.16488 -4.02371,-2.75312c-0.10571,-0.42336 -0.42336,-0.63529 -0.74101,-0.63529l-1.80017,0c-0.42336,0 -0.74101,0.31765 -0.74101,0.74126l0,0.10597c0.42337,2.6469 2.11757,4.55278 5.6117,5.08236l0,2.54119c0,0.42336 0.31765,0.74101 0.84698,0.84698l1.58823,0c0.42362,0 0.74127,-0.31765 0.84723,-0.84698l0,-2.54119c3.17648,-0.52957 5.29405,-2.75311 5.29405,-5.61194z"/>
   <path stroke="null" fill="#fff" d="m33.94414,40.7148c-8.25885,-2.96455 -12.49424,-12.17633 -9.42347,-20.32946c1.58824,-4.44707 5.08236,-7.83523 9.42347,-9.42347c0.42361,-0.21168 0.6353,-0.52933 0.6353,-1.05891l0,-1.48227c0,-0.42361 -0.21168,-0.74126 -0.6353,-0.84697c-0.10597,0 -0.31765,0 -0.42361,0.10571c-10.05877,3.17648 -15.56475,13.8708 -12.38827,23.92956c1.90589,5.92934 6.45893,10.48239 12.38827,12.38826c0.42361,0.21169 0.84723,0 0.95295,-0.42361c0.10596,-0.10572 0.10596,-0.21168 0.10596,-0.42337l0,-1.48252c0,-0.31764 -0.31765,-0.74101 -0.6353,-0.95295zm11.22364,-33.03538c-0.42362,-0.21168 -0.84723,0 -0.95294,0.42362c-0.10597,0.10597 -0.10597,0.21168 -0.10597,0.42361l0,1.48227c0,0.42361 0.31764,0.84698 0.63529,1.05891c8.25885,2.96454 12.49424,12.17633 9.42348,20.32946c-1.58825,4.44707 -5.08237,7.83523 -9.42348,9.42347c-0.42361,0.21168 -0.63529,0.52933 -0.63529,1.0589l0,1.48228c0,0.42362 0.21168,0.74127 0.63529,0.84698c0.10597,0 0.31765,0 0.42362,-0.10571c10.05877,-3.17648 15.56475,-13.8708 12.38827,-23.92956c-1.90589,-6.03531 -6.56489,-10.58835 -12.38827,-12.49424l0,0z"/>
  </g>
  <g stroke="null">
   <g stroke="#000000" fill="#000000" stroke-width="0.25mm" font-size="9pt" fill-rule="evenodd" stroke-linecap="round" id="svg_11">
    <path fill="#ffffff" stroke="#ffffff" vector-effect="non-scaling-stroke" d="m26.62396,67.09093l0,9.06586a5.18421,5.18421 0 0 1 -0.25861,1.67118a4.3675,4.3675 0 0 1 -1.19425,1.82539a5.01161,5.01161 0 0 1 -3.12385,1.3279a6.60976,6.60976 0 0 1 -0.49862,0.01841a5.76245,5.76245 0 0 1 -1.81898,-0.27644a4.88162,4.88162 0 0 1 -1.80349,-1.06988q-1.45286,-1.34633 -1.45286,-3.49657l0,-9.06586l2.69264,0l0,8.96901q0,1.18166 0.63926,1.85967a2.11169,2.11169 0 0 0 1.18961,0.63016a3.06438,3.06438 0 0 0 0.55383,0.04784a2.90243,2.90243 0 0 0 0.76227,-0.09473a2.10878,2.10878 0 0 0 0.99085,-0.58327q0.64894,-0.67801 0.64894,-1.85967l0,-8.96901l2.67327,0zm1.76281,12.08783l1.74343,-1.74345a3.76815,3.76815 0 0 0 1.67409,0.9556q0.59413,0.16795 1.30448,0.19952a7.53571,7.53571 0 0 0 0.33397,0.00717q1.20103,0 1.8306,-0.44554a1.42923,1.42923 0 0 0 0.61564,-1.03967a1.99507,1.99507 0 0 0 0.01394,-0.23885a1.94936,1.94936 0 0 0 -0.05986,-0.49668a1.39882,1.39882 0 0 0 -0.36631,-0.64623q-0.34423,-0.32603 -1.12878,-0.44885a4.94381,4.94381 0 0 0 -0.111,-0.01607l-1.64658,-0.25183q-1.74343,-0.25183 -2.67327,-1.14293q-0.96528,-0.94629 -0.98737,-2.63239a6.05999,6.05999 0 0 1 -0.00058,-0.07962q0,-1.87904 1.29789,-3.03165q1.23203,-1.0939 3.28424,-1.14951a8.20151,8.20151 0 0 1 0.222,-0.00309q2.7895,0 4.45544,1.60783l-1.70469,1.68532a3.09189,3.09189 0 0 0 -1.25817,-0.7336q-0.68382,-0.21561 -1.57007,-0.21561a3.4276,3.4276 0 0 0 -0.59431,0.04825q-0.60188,0.10616 -0.97478,0.44572a1.6059,1.6059 0 0 0 -0.54085,1.16771a2.04679,2.04679 0 0 0 -0.00155,0.08176q0,0.61989 0.38743,0.98795a1.81724,1.81724 0 0 0 0.518,0.32602q0.32157,0.13716 0.74116,0.19701l1.64658,0.25183q1.17585,0.16796 1.95516,0.59452a3.20017,3.20017 0 0 1 0.67936,0.4903a3.14884,3.14884 0 0 1 0.87579,1.45325q0.15109,0.51276 0.1819,1.13071a6.48868,6.48868 0 0 1 0.00775,0.32176a4.27936,4.27936 0 0 1 -0.21871,1.39999a3.54692,3.54692 0 0 1 -1.21478,1.6704a5.12938,5.12938 0 0 1 -2.04912,0.94396q-0.75375,0.16989 -1.63147,0.16989q-1.64658,0 -2.84761,-0.41648a5.58074,5.58074 0 0 1 -1.81104,-1.05401a6.70119,6.70119 0 0 1 -0.37794,-0.35043zm32.40854,-2.53768l2.7314,0a6.56191,6.56191 0 0 1 -0.42656,1.47185a4.61836,4.61836 0 0 1 -1.2975,1.7632a4.85605,4.85605 0 0 1 -2.61264,1.08404a6.38698,6.38698 0 0 1 -0.71926,0.03951a5.53037,5.53037 0 0 1 -1.97125,-0.34074a4.98933,4.98933 0 0 1 -1.72871,-1.11212a4.68675,4.68675 0 0 1 -0.71112,-0.89786a3.6585,3.6585 0 0 1 -0.46085,-1.18458a8.729,8.729 0 0 1 -0.10771,-0.73321q-0.11507,-1.05924 -0.11507,-2.74398q0,-2.34396 0.22278,-3.4772a3.75691,3.75691 0 0 1 0.67238,-1.50264a4.96182,4.96182 0 0 1 0.49959,-0.57979a5.06778,5.06778 0 0 1 3.56165,-1.45132a6.61208,6.61208 0 0 1 0.13831,-0.00153a5.75838,5.75838 0 0 1 1.66343,0.23071a4.71406,4.71406 0 0 1 1.66846,0.89284a4.65963,4.65963 0 0 1 1.35426,1.90015a6.68995,6.68995 0 0 1 0.36981,1.33489l-2.75076,0a3.37181,3.37181 0 0 0 -0.32796,-0.87308q-0.60788,-1.08345 -1.97725,-1.08345a2.73293,2.73293 0 0 0 -0.73108,0.09261a1.98287,1.98287 0 0 0 -0.99299,0.62414q-0.34481,0.39674 -0.49784,1.04664a3.85299,3.85299 0 0 0 -0.03487,0.16408q-0.14296,0.75259 -0.14529,2.61961a49.84776,49.84776 0 0 0 0,0.06335q0,1.88601 0.14045,2.6572a3.51361,3.51361 0 0 0 0.00484,0.02574a3.36774,3.36774 0 0 0 0.14296,0.52905q0.14761,0.40331 0.38975,0.68167a2.02762,2.02762 0 0 0 1.25644,0.6813a2.95609,2.95609 0 0 0 0.46763,0.03545q1.46719,0 2.06616,-1.2177a3.50857,3.50857 0 0 0 0.25841,-0.73883zm-14.74171,4.24237l-4.97849,0l0,-13.79252l4.97849,0a5.80622,5.80622 0 0 1 1.82188,0.27178a4.6143,4.6143 0 0 1 2.34298,1.74284q0.58114,0.81361 0.72644,1.83062q0.12088,0.84575 0.14121,2.39471a50.03527,50.03527 0 0 1 0.00407,0.6563q0,1.64678 -0.09531,2.62678a9.53253,9.53253 0 0 1 -0.04998,0.42424q-0.14529,1.01701 -0.72644,1.83061a4.67997,4.67997 0 0 1 -3.42701,1.97493a6.64211,6.64211 0 0 1 -0.73785,0.0397zm-0.23246,-11.39046l-2.05339,0l0,8.98839l2.05339,0q1.33663,0 2.01464,-0.85235a1.77385,1.77385 0 0 0 0.30568,-0.51722q0.08736,-0.22315 0.13541,-0.49126a3.36193,3.36193 0 0 0 0.02383,-0.15381a7.65911,7.65911 0 0 0 0.04242,-0.43103q0.05443,-0.74095 0.05443,-2.04853a50.0527,50.0527 0 0 0 -0.006,-0.80875q-0.01821,-1.11717 -0.09066,-1.66925a5.42267,5.42267 0 0 0 -0.00019,-0.00156q-0.07981,-0.60574 -0.34326,-1.00169a1.60861,1.60861 0 0 0 -0.12165,-0.1606a2.18181,2.18181 0 0 0 -1.27911,-0.77718a3.39641,3.39641 0 0 0 -0.73553,-0.07516z"/>
   </g>
  </g>
 </g>
</svg>