<svg width="165" height="44" viewBox="0 0 165 44" fill="none" xmlns="http://www.w3.org/2000/svg">
<path d="M39.5123 36.6212H32.1645L36.7568 8.39835H44.1054L39.5123 36.6212ZM25.983 8.39835L18.9778 27.8103L18.1489 23.6301L18.1496 23.6316L15.6772 10.9395C15.6772 10.9395 15.3782 8.39835 12.1916 8.39835H0.610744L0.474854 8.87623C0.474854 8.87623 4.0163 9.61305 8.16096 12.1021L14.5448 36.622H22.2007L33.891 8.39835H25.983ZM83.7778 36.6212H90.5248L84.6423 8.39759H78.7356C76.0079 8.39759 75.3436 10.5009 75.3436 10.5009L64.3848 36.6212H72.0445L73.5763 32.429H82.9172L83.7778 36.6212ZM75.6924 26.6378L79.5532 16.0761L81.7252 26.6378H75.6924ZM64.9593 15.1853L66.0079 9.1246C66.0079 9.1246 62.7722 7.89404 59.3991 7.89404C55.7527 7.89404 47.0935 9.48773 47.0935 17.2373C47.0935 24.5285 57.2566 24.6191 57.2566 28.449C57.2566 32.2788 48.1406 31.5925 45.1322 29.1775L44.0398 35.5145C44.0398 35.5145 47.3208 37.1082 52.3336 37.1082C57.3479 37.1082 64.9125 34.5119 64.9125 27.4456C64.9125 20.1076 54.6581 19.4243 54.6581 16.2339C54.6588 13.0428 61.815 13.4527 64.9593 15.1853Z" fill="#2566AF"/>
<path d="M18.1496 23.6309L15.6772 10.9387C15.6772 10.9387 15.3782 8.39758 12.1916 8.39758H0.610744L0.474854 8.87546C0.474854 8.87546 6.04107 10.029 11.38 14.3511C16.485 18.4822 18.1496 23.6309 18.1496 23.6309Z" fill="#E6A540"/>
<g clip-path="url(#clip0)">
<path d="M163.757 43.4032V43.5163H163.863C163.883 43.5167 163.903 43.5117 163.92 43.5019C163.927 43.4971 163.933 43.4905 163.936 43.483C163.94 43.4754 163.942 43.4671 163.941 43.4587C163.942 43.4504 163.94 43.4422 163.936 43.4348C163.933 43.4275 163.927 43.4211 163.92 43.4165C163.903 43.4063 163.883 43.4013 163.863 43.4021H163.757V43.4032ZM163.864 43.3232C163.91 43.3204 163.955 43.3334 163.992 43.36C164.007 43.372 164.018 43.3874 164.026 43.4047C164.034 43.4221 164.037 43.4411 164.036 43.4601C164.037 43.4764 164.034 43.4927 164.028 43.5079C164.022 43.5231 164.013 43.5367 164.001 43.548C163.972 43.5726 163.936 43.5874 163.899 43.5901L164.041 43.7513H163.932L163.801 43.5913H163.758V43.7513H163.667V43.3235H163.866L163.864 43.3232ZM163.836 43.8989C163.884 43.8994 163.932 43.8898 163.976 43.8707C164.018 43.8525 164.057 43.8265 164.089 43.794C164.122 43.7616 164.148 43.7232 164.166 43.6809C164.204 43.5913 164.204 43.4906 164.166 43.401C164.148 43.3588 164.122 43.3205 164.089 43.2879C164.057 43.2554 164.018 43.2294 163.976 43.2112C163.931 43.1932 163.884 43.1841 163.836 43.1846C163.787 43.1842 163.739 43.1932 163.694 43.2112C163.65 43.2291 163.611 43.2551 163.577 43.2879C163.527 43.3392 163.493 43.4041 163.48 43.4745C163.466 43.5448 163.474 43.6176 163.502 43.6837C163.519 43.7262 163.545 43.7647 163.577 43.7969C163.611 43.8296 163.65 43.8556 163.694 43.8735C163.739 43.8926 163.787 43.9022 163.836 43.9018V43.8989ZM163.836 43.0817C163.961 43.0816 164.081 43.1303 164.17 43.2174C164.213 43.2593 164.247 43.3092 164.271 43.3642C164.295 43.4207 164.308 43.4816 164.308 43.5431C164.308 43.6045 164.295 43.6654 164.271 43.7219C164.247 43.7767 164.213 43.8265 164.17 43.8687C164.126 43.9103 164.076 43.9438 164.02 43.9677C163.962 43.9923 163.899 44.0048 163.836 44.0044C163.772 44.0049 163.708 43.9924 163.649 43.9677C163.593 43.9444 163.542 43.9108 163.498 43.8687C163.456 43.8249 163.422 43.7735 163.399 43.7171C163.375 43.6606 163.362 43.5997 163.362 43.5383C163.362 43.4768 163.375 43.4159 163.399 43.3594C163.423 43.3043 163.457 43.2545 163.5 43.2126C163.543 43.1698 163.594 43.1361 163.651 43.1137C163.71 43.089 163.773 43.0765 163.837 43.0769L163.836 43.0817ZM120.29 41.4295C120.29 40.6137 120.828 39.9435 121.706 39.9435C122.546 39.9435 123.112 40.5848 123.112 41.4295C123.112 42.2741 122.546 42.9154 121.706 42.9154C120.828 42.9154 120.29 42.2453 120.29 41.4295ZM124.069 41.4295V39.1079H123.054V39.6734C122.732 39.2555 122.244 38.9933 121.58 38.9933C120.272 38.9933 119.245 40.0136 119.245 41.4306C119.245 42.8476 120.271 43.8678 121.58 43.8678C122.244 43.8678 122.732 43.6054 123.054 43.1878V43.7513H124.068V41.4295H124.069ZM158.364 41.4295C158.364 40.6137 158.902 39.9435 159.781 39.9435C160.621 39.9435 161.187 40.5848 161.187 41.4295C161.187 42.2741 160.621 42.9154 159.781 42.9154C158.902 42.9154 158.364 42.2453 158.364 41.4295ZM162.144 41.4295V37.2444H161.129V39.6734C160.807 39.2555 160.318 38.9933 159.654 38.9933C158.346 38.9933 157.319 40.0136 157.319 41.4306C157.319 42.8476 158.346 43.8678 159.654 43.8678C160.318 43.8678 160.807 43.6054 161.129 43.1878V43.7513H162.144V41.4295ZM136.666 39.8957C137.321 39.8957 137.741 40.3035 137.848 41.0214H135.426C135.534 40.3512 135.944 39.8957 136.667 39.8957H136.666ZM136.687 38.9908C135.319 38.9908 134.362 39.9805 134.362 41.428C134.362 42.9039 135.357 43.8653 136.755 43.8653C137.458 43.8653 138.102 43.6908 138.668 43.2149L138.171 42.467C137.78 42.778 137.281 42.9525 136.813 42.9525C136.159 42.9525 135.563 42.6513 135.417 41.8157H138.883C138.893 41.6902 138.903 41.5635 138.903 41.4278C138.893 39.9808 137.993 38.9905 136.686 38.9905L136.687 38.9908ZM148.941 41.4278C148.941 40.612 149.478 39.9418 150.357 39.9418C151.196 39.9418 151.763 40.5831 151.763 41.4278C151.763 42.2724 151.196 42.9137 150.357 42.9137C149.478 42.9137 148.94 42.2436 148.94 41.4278H148.941ZM152.719 41.4278V39.1079H151.705V39.6734C151.382 39.2555 150.895 38.9933 150.231 38.9933C148.923 38.9933 147.896 40.0136 147.896 41.4306C147.896 42.8476 148.922 43.8678 150.231 43.8678C150.895 43.8678 151.382 43.6054 151.705 43.1878V43.7513H152.72V41.4295L152.719 41.4278ZM143.209 41.4278C143.209 42.8357 144.195 43.865 145.699 43.865C146.402 43.865 146.87 43.7095 147.377 43.3116L146.889 42.4958C146.508 42.7681 146.108 42.9137 145.667 42.9137C144.856 42.9038 144.261 42.3213 144.261 41.4278C144.261 40.5342 144.856 39.952 145.667 39.9418C146.107 39.9418 146.507 40.0874 146.889 40.3597L147.377 39.5439C146.87 39.1461 146.401 38.9905 145.699 38.9905C144.195 38.9905 143.209 40.0195 143.209 41.4278ZM156.294 38.9905C155.708 38.9905 155.327 39.2628 155.063 39.6706V39.1079H154.057V43.7488H155.073V41.1473C155.073 40.3792 155.405 39.9525 156.069 39.9525C156.286 39.9494 156.502 39.9891 156.703 40.0693L157.016 39.1181C156.792 39.0301 156.499 38.9914 156.293 38.9914L156.294 38.9905ZM129.087 39.4769C128.599 39.1568 127.926 38.9914 127.184 38.9914C126.001 38.9914 125.24 39.5549 125.24 40.4771C125.24 41.2338 125.807 41.7006 126.85 41.8463L127.33 41.9141C127.886 41.9919 128.149 42.1375 128.149 42.3997C128.149 42.7585 127.78 42.9632 127.085 42.9632C126.382 42.9632 125.875 42.7398 125.533 42.4777L125.056 43.2647C125.612 43.6724 126.316 43.867 127.077 43.867C128.425 43.867 129.206 43.2358 129.206 42.3522C129.206 41.5363 128.591 41.1096 127.575 40.964L127.097 40.895C126.658 40.8385 126.306 40.7505 126.306 40.4395C126.306 40.1001 126.637 39.896 127.194 39.896C127.79 39.896 128.367 40.1194 128.649 40.2938L129.089 39.478L129.087 39.4769ZM142.184 38.9922C141.598 38.9922 141.217 39.2645 140.954 39.6723V39.1079H139.948V43.7488H140.963V41.1473C140.963 40.3792 141.295 39.9525 141.959 39.9525C142.176 39.9494 142.392 39.9891 142.593 40.0693L142.906 39.1181C142.682 39.0301 142.389 38.9914 142.183 38.9914L142.184 38.9922ZM133.522 39.1079H131.863V37.6999H130.836V39.1079H129.89V40.0303H130.836V42.1474C130.836 43.2242 131.257 43.8656 132.457 43.8656C132.898 43.8656 133.405 43.7298 133.727 43.5067L133.434 42.6426C133.131 42.817 132.799 42.905 132.535 42.905C132.028 42.905 131.863 42.5939 131.863 42.1282V40.0311H133.522V39.1079ZM118.347 43.7499V40.8373C118.347 39.7404 117.644 39.0024 116.511 38.9925C115.915 38.9826 115.301 39.167 114.871 39.8182C114.549 39.3036 114.041 38.9925 113.328 38.9925C112.829 38.9925 112.342 39.1381 111.961 39.6816V39.1079H110.945V43.7488H111.969V41.1755C111.969 40.3699 112.418 39.9418 113.112 39.9418C113.786 39.9418 114.127 40.3787 114.127 41.1653V43.7482H115.153V41.175C115.153 40.3693 115.622 39.9412 116.295 39.9412C116.988 39.9412 117.319 40.3781 117.319 41.1648V43.7477L118.347 43.7499Z" fill="#231F20"/>
<path d="M164.336 28.3121V27.6334H164.158L163.953 28.0991L163.748 27.6334H163.57V28.3121H163.696V27.8008L163.888 28.2419H164.019L164.212 27.7997V28.3121H164.337H164.336ZM163.209 28.3121V27.7496H163.436V27.6351H162.855V27.7496H163.082V28.3121H163.207H163.209Z" fill="#F79410"/>
<path d="M144.134 31.2228H128.752V3.73694H144.134L144.134 31.2228Z" fill="#FF5F00"/>
<path d="M129.727 17.4797C129.727 11.9042 132.353 6.93748 136.441 3.73674C133.347 1.31037 129.519 -0.00650352 125.578 -0.000713409C115.87 -0.000713409 108 7.8254 108 17.4797C108 27.1339 115.87 34.96 125.578 34.96C129.519 34.9659 133.347 33.649 136.442 31.2226C132.353 28.0224 129.727 23.0554 129.727 17.4797Z" fill="#EB001B"/>
<path d="M164.885 17.4804C164.885 27.1347 157.016 34.9608 147.307 34.9608C143.366 34.9665 139.538 33.6497 136.442 31.2233C140.532 28.0226 143.157 23.0562 143.157 17.4804C143.157 11.9046 140.532 6.93822 136.442 3.73747C139.537 1.31118 143.366 -0.00566961 147.307 1.83492e-05C157.015 1.83492e-05 164.885 7.82613 164.885 17.4804" fill="#F79E1B"/>
</g>
<defs>
<clipPath id="clip0">
<rect x="108" width="56.878" height="44" fill="white"/>
</clipPath>
</defs>
</svg>
