<svg width="16" height="14" xmlns="http://www.w3.org/2000/svg" fill="none">
 <g>
  <title>Layer 1</title>
  <g stroke="null" id="svg_2">
   <path stroke="null" id="svg_3" d="m14.3851,12.46113l-5.76876,-11.53753a0.69249,0.69249 0 0 0 -1.23239,0l-5.76876,11.53753a0.68662,0.68662 0 0 0 0.58685,0.99178l11.56687,0a0.68662,0.68662 0 0 0 0.61619,-0.99178zm-6.90139,-7.26524l1.03873,0l0,2.55868a7.04223,7.04223 0 0 1 -0.04108,0.79812c0,0.26408 -0.05868,0.5399 -0.10563,0.83333l-0.7453,0c-0.04695,-0.29343 -0.08216,-0.58685 -0.10563,-0.83333a7.04223,7.04223 0 0 1 -0.04108,-0.79812l0,-2.55868zm1.13263,6.12674a0.79812,0.79812 0 0 1 -0.14671,0.21127a0.51643,0.51643 0 0 1 -0.21127,0.14085a0.70422,0.70422 0 0 1 -0.26408,0.05282a0.66901,0.66901 0 0 1 -0.26995,-0.05282a0.53404,0.53404 0 0 1 -0.21713,-0.14085a0.51643,0.51643 0 0 1 -0.14085,-0.21127a0.68662,0.68662 0 0 1 0,-0.52817a0.53404,0.53404 0 0 1 0.14085,-0.21714a0.69249,0.69249 0 0 1 0.21713,-0.14085a0.66901,0.66901 0 0 1 0.26995,-0.05282a0.70422,0.70422 0 0 1 0.26408,0.05282a0.66314,0.66314 0 0 1 0.21127,0.14085a0.82746,0.82746 0 0 1 0.14671,0.21714a0.68662,0.68662 0 0 1 0,0.52817z" fill="#FF5C5C"/>
  </g>
 </g>

</svg>