<svg width="66" height="66" viewBox="0 0 66 66" fill="none" xmlns="http://www.w3.org/2000/svg">
<circle cx="33" cy="34" r="32" fill="#D4AE4C"/>
<path d="M32.9995 39.969C31.9323 39.969 30.8901 40.3967 30.1384 41.1484C29.3873 41.9001 28.959 42.9429 28.959 44.0009C28.959 45.0681 29.3873 46.1096 30.1384 46.8614C30.8901 47.6131 31.9323 48.05 32.9995 48.05C34.0654 48.05 35.1082 47.6131 35.852 46.8614C36.611 46.1096 37.04 45.0681 37.04 44.0009C37.04 42.9423 36.6117 41.8995 35.852 41.1484C35.1082 40.3967 34.0654 39.969 32.9995 39.969ZM31.0776 35.9522C31.1535 37.4168 32.1336 37.8728 32.9995 37.8728C33.773 37.8728 34.8561 37.3442 34.9214 35.9522L36.9014 23.8531C37.104 22.4328 36.2995 19.9512 32.9995 19.9512C29.72 19.9512 28.895 22.3912 29.0976 23.8531L31.0776 35.9522Z" fill="white"/>
</svg>
