<svg width="16" height="16" viewBox="0 0 16 16" fill="none" xmlns="http://www.w3.org/2000/svg">
<circle cx="7.99976" cy="8" r="8" fill="#F5955E"/>
<path d="M6.4971 8.03561C6.4971 8.86337 7.16933 9.53561 7.9971 9.53561C8.82486 9.53561 9.4971 8.86337 9.4971 8.03561V8.02314C9.33689 8.18561 9.11708 8.28564 8.87207 8.28564C8.38935 8.28564 7.9971 7.89315 7.9971 7.41067C7.9971 7.0632 8.20184 6.76069 8.49456 6.62066C8.33954 6.56566 8.17204 6.5357 7.9971 6.5357C7.16959 6.5357 6.4971 7.20819 6.4971 8.0357V8.03561ZM13.6622 7.18307C12.7322 6.00056 10.4672 4.03564 7.99967 4.03564C5.5296 4.03564 3.26246 6.00062 2.33224 7.18307C2.12222 7.45312 2.00721 7.74557 1.99976 8.03561C2.00729 8.32564 2.12222 8.61812 2.33224 8.88814C3.26246 10.0709 5.52724 12.0356 7.99731 12.0356C10.4674 12.0356 12.732 10.0708 13.6624 8.88814C13.8749 8.6181 13.9899 8.32564 13.9974 8.03561C13.9898 7.74557 13.8749 7.45309 13.6624 7.18307H13.6622ZM7.9971 10.5356C6.61714 10.5356 5.49703 9.41559 5.49703 8.0355C5.49703 6.65554 6.61701 5.53543 7.9971 5.53543C9.37706 5.53543 10.4972 6.65542 10.4972 8.0355C10.4972 9.41546 9.37718 10.5356 7.9971 10.5356Z" fill="#FFF2EB"/>
</svg>
