<svg width="147" height="41" viewBox="0 0 147 41" fill="none" xmlns="http://www.w3.org/2000/svg">
<path fill-rule="evenodd" clip-rule="evenodd" d="M124.644 3.20874C127.466 3.20874 130.143 3.85048 132.495 4.99135C132.856 5.16961 133.254 5.34787 133.616 5.56178L131.952 7.02352L129.456 4.49222L125.295 8.20004L122.798 5.52613L115.02 12.4427L120.013 17.8618L118.059 19.5731L122.979 24.9922L121.026 26.7035L128.045 34.4044L132.205 30.6253L135.823 34.6896C135.1 35.2244 134.34 35.7592 133.472 36.2227C130.867 37.6844 127.827 38.54 124.644 38.54C114.766 38.54 106.698 30.5896 106.698 20.8566C106.734 11.1592 114.766 3.20874 124.644 3.20874Z" fill="#0073B8"/>
<path fill-rule="evenodd" clip-rule="evenodd" d="M121.387 19.7513L125.657 15.9722L129.492 20.1791L125.223 23.9583L121.387 19.7513Z" fill="#0073B8"/>
<path fill-rule="evenodd" clip-rule="evenodd" d="M124.427 27.0244L128.696 23.2452L132.531 27.4522L128.262 31.2313L124.427 27.0244Z" fill="#0073B8"/>
<path fill-rule="evenodd" clip-rule="evenodd" d="M118.348 12.5853L122.581 8.80615L126.417 13.0131L122.183 16.7922L118.348 12.5853Z" fill="#0073B8"/>
<path fill-rule="evenodd" clip-rule="evenodd" d="M126.163 10.5531L129.347 7.70093L132.242 10.874L129.022 13.6905L126.163 10.5531Z" fill="#0073B8"/>
<path fill-rule="evenodd" clip-rule="evenodd" d="M131.844 23.5305L135.027 20.714L137.922 23.8514L134.702 26.7036L131.844 23.5305Z" fill="#0073B8"/>
<path fill-rule="evenodd" clip-rule="evenodd" d="M134.666 29.9122L137.849 27.0601L140.744 30.2331L137.524 33.0496L134.666 29.9122Z" fill="#0073B8"/>
<path fill-rule="evenodd" clip-rule="evenodd" d="M135.932 15.3305L138.067 13.4409L139.984 15.5444L137.849 17.434L135.932 15.3305Z" fill="#0073B8"/>
<path fill-rule="evenodd" clip-rule="evenodd" d="M133.218 9.09135L135.353 7.20178L137.27 9.30526L135.136 11.1948L133.218 9.09135Z" fill="#0073B8"/>
<path fill-rule="evenodd" clip-rule="evenodd" d="M138.682 21.5696L140.78 19.6801L142.698 21.7835L140.599 23.6731L138.682 21.5696Z" fill="#0073B8"/>
<path fill-rule="evenodd" clip-rule="evenodd" d="M129.094 16.8992L132.314 14.047L135.172 17.1844L131.988 20.0366L129.094 16.8992Z" fill="#0073B8"/>
<path d="M10.673 17.8261H10.5283L7.81481 27.88H5.60782L2.31543 13.5835H4.59478L6.87413 24.2791H7.01885L9.69618 13.6191H11.5052L14.3634 24.2791H14.5081L16.6066 13.6191H18.9945L15.6659 27.9157H13.4589L10.673 17.8261Z" fill="#0073B8"/>
<path d="M28.0394 25.6696V27.2026C27.1349 27.7374 25.9048 28.1296 24.4214 28.1296C20.9843 28.1296 19.5732 26.0261 19.5732 22.8531C19.5732 19.787 21.1652 17.5765 24.2043 17.5765C26.7731 17.5765 28.3288 19.2165 28.3288 22.4965V23.2452H21.6717C21.6717 25.6696 22.6847 26.7391 24.7832 26.7391C25.9048 26.7035 26.9178 26.347 28.0394 25.6696ZM21.7079 21.8905H26.4113C26.3028 19.787 25.2535 18.9313 24.1681 18.9313C22.9018 18.9313 21.9611 19.8583 21.7079 21.8905Z" fill="#0073B8"/>
<path d="M32.3451 18.3252C32.9601 18.0043 34.0094 17.5765 35.0948 17.5765C37.6274 17.5765 39.0022 19.3235 39.0022 22.5322C39.0022 26.3113 37.157 28.1296 34.1903 28.1296C33.1049 28.1296 31.4406 27.773 30.2104 27.1313V13.0843L32.3451 12.5852V18.3252ZM32.3089 26.3826C32.9601 26.6678 33.6837 26.7035 34.1903 26.7035C35.7098 26.7035 36.8676 25.7765 36.8676 22.4965C36.8676 19.9296 35.9269 19.1096 34.5521 19.1096C33.7199 19.1096 33.141 19.3235 32.3089 19.7869V26.3826Z" fill="#0073B8"/>
<path d="M48.3005 24.8496H48.409L52.7868 13.5835H55.3194V27.88H53.1125V17.5409H52.9316L48.7708 27.9157H47.4683L43.3076 17.7905H43.1267V27.9157H41.2454V13.5835H43.7056L48.3005 24.8496Z" fill="#0073B8"/>
<path d="M57.5986 22.8531C57.5986 19.3235 59.5524 17.5765 62.2659 17.5765C64.9794 17.5765 66.9331 19.3235 66.9331 22.8531C66.9331 26.3113 65.0879 28.1296 62.2659 28.1296C59.4438 28.1296 57.5986 26.3113 57.5986 22.8531ZM64.7623 22.8531C64.7623 20.1435 63.6407 18.967 62.2297 18.967C60.891 18.967 59.6971 20.1078 59.6971 22.8531C59.6971 25.5983 60.7463 26.7391 62.2297 26.7391C63.7131 26.7035 64.7623 25.5983 64.7623 22.8531Z" fill="#0073B8"/>
<path d="M68.8509 19.0739C69.7554 18.5391 71.7091 17.5765 74.0608 17.5765C76.5211 17.5765 77.4256 18.5391 77.4256 20.607V27.9157H75.2909V21.0705C75.2909 19.4661 74.495 19.1809 73.4458 19.1809C72.6136 19.1809 71.6006 19.5374 70.9493 19.8939V27.88H68.8147V19.0739H68.8509Z" fill="#0073B8"/>
<path d="M87.8092 25.6696V27.2026C86.9047 27.7374 85.6745 28.1296 84.1911 28.1296C80.754 28.1296 79.343 26.0261 79.343 22.8531C79.343 19.787 80.9349 17.5765 83.9741 17.5765C86.5429 17.5765 88.0986 19.2165 88.0986 22.4965V23.2452H81.4415C81.4415 25.6696 82.4545 26.7391 84.553 26.7391C85.6745 26.7035 86.6876 26.347 87.8092 25.6696ZM81.5138 21.8905H86.1811C86.0725 19.787 85.0233 18.9313 83.9379 18.9313C82.6716 18.9313 81.7309 19.8583 81.5138 21.8905Z" fill="#0073B8"/>
<path d="M96.0943 17.8973H98.2651L94.5748 27.9869C93.5617 30.7678 92.2954 32.2295 89.9437 32.2295V30.5895C91.3185 30.5895 92.1869 29.4843 92.6934 28.0226L88.7498 17.933H90.9929L93.5979 25.3486H93.7064L96.0943 17.8973Z" fill="#0073B8"/>
</svg>
