<svg width="64" height="64" viewBox="0 0 64 64" fill="none" xmlns="http://www.w3.org/2000/svg">
<circle cx="32" cy="32" r="32" fill="#4C8BD4"/>
<path fill-rule="evenodd" clip-rule="evenodd" d="M32.1993 19.3594C31.026 19.3594 30.06 19.7772 29.9323 20.9143C26.4745 21.8999 23.943 25.0801 23.943 28.8537C23.943 34.9329 21.2185 40.2747 21.2185 41.1617C21.2151 42.2784 23.7553 42.9656 28.7227 43.4427C29.1696 44.9459 30.5481 46.0479 32.1959 46.0479C33.8438 46.0479 35.2219 44.9444 35.6673 43.4427C40.6366 42.9656 43.1783 42.2784 43.1783 41.1617C43.1783 40.2747 40.4561 34.9329 40.4561 28.8537C40.4561 25.0793 37.9223 21.9003 34.4649 20.9143C34.3368 19.7757 33.3712 19.3594 32.1993 19.3594ZM20.3783 28.3225C20.0443 27.9886 19.5041 27.989 19.1702 28.3225C17.1706 30.3225 17.1698 33.5748 19.1698 35.5744C19.5034 35.9079 20.044 35.9083 20.3775 35.5744C20.7123 35.2396 20.7115 34.6998 20.3783 34.3658C19.0455 33.033 19.0459 30.8635 20.3787 29.531C20.7126 29.1975 20.7123 28.6569 20.3783 28.3225ZM17.9613 27.1148C18.2952 26.7808 18.2952 26.2402 17.9609 25.9059C17.6277 25.5719 17.0867 25.5723 16.7528 25.9059C13.4208 29.2379 13.4211 34.6594 16.7528 37.991C17.0863 38.325 17.6273 38.325 17.9609 37.991C18.2949 37.6567 18.2949 37.1168 17.9613 36.7829C15.2957 34.1169 15.2957 29.78 17.9613 27.1148ZM47.644 25.9055C47.3105 25.5719 46.7699 25.5719 46.4359 25.9059C46.1019 26.2402 46.1019 26.7801 46.4355 27.1136C49.1015 29.7796 49.1015 34.1165 46.4355 36.7821C46.1016 37.1161 46.1016 37.6567 46.4363 37.991C46.7699 38.3246 47.3101 38.3246 47.6444 37.9906C50.976 34.659 50.9757 29.2379 47.644 25.9055ZM44.0196 28.3222C43.6849 28.6569 43.6853 29.1971 44.0189 29.531C45.3517 30.8635 45.3509 33.033 44.0185 34.3655C43.6845 34.6994 43.6845 35.2396 44.0189 35.5744C44.3528 35.9083 44.8927 35.9079 45.227 35.5744C47.2266 33.5744 47.227 30.3221 45.227 28.3225C44.8934 27.989 44.3532 27.9886 44.0196 28.3222Z" fill="white"/>
</svg>
