<svg width="137" height="35" viewBox="0 0 137 35" fill="none" xmlns="http://www.w3.org/2000/svg">
<g clip-path="url(#clip0)">
<path d="M72.935 13.5471V23.5791H71.2051V11.4297H73.5474L76.7187 19.0317L79.8537 11.4297H82.1783V23.5791H80.448V13.5471L77.2231 21.3748H76.1959L72.935 13.5471Z" fill="#FAFAFC"/>
<path d="M85.8002 16.4114C86.1969 16.0471 87.1704 15.2832 88.8993 15.2832C90.1967 15.2832 91.2054 15.7174 91.8719 16.3419C92.6471 17.0709 93.1333 18.2511 93.1333 19.5533C93.1333 21.1321 92.5035 22.1045 91.9988 22.6075C91.0081 23.6145 89.8003 23.7703 88.809 23.7703C87.6922 23.7703 86.5754 23.5101 85.6743 22.5901C85.1337 22.035 84.5391 21.0633 84.5391 19.5708C84.5387 18.0258 85.1881 17.0021 85.8002 16.4114ZM86.9898 17.3143C86.4311 17.9214 86.1972 18.7719 86.1972 19.5358C86.1972 20.2648 86.4311 21.1321 86.9898 21.7402C87.4761 22.2778 88.0889 22.5212 88.8275 22.5212C89.5842 22.5212 90.197 22.2778 90.6833 21.7402C91.242 21.1325 91.4759 20.2648 91.4759 19.5358C91.4759 18.7723 91.2424 17.9214 90.6833 17.3143C90.197 16.7761 89.5842 16.5333 88.8456 16.5333C88.0889 16.5333 87.4761 16.7761 86.9898 17.3143Z" fill="#FAFAFC"/>
<path d="M96.7372 15.4746V16.4463C96.8278 16.3594 97.2604 15.9252 97.7999 15.6479C98.3587 15.3531 98.8809 15.2832 99.44 15.2832C99.9266 15.2832 100.845 15.3356 101.494 15.9601C102.142 16.5854 102.196 17.5051 102.196 18.3556V23.58H100.701V18.3905C100.701 17.8002 100.611 17.3493 100.412 17.0709C100.251 16.8456 99.9266 16.5679 99.2772 16.5679C98.6832 16.5679 98.2506 16.7586 97.7818 17.0883C97.3133 17.4181 96.9892 17.7821 96.7372 18.1128V23.58H95.2422V15.4746H96.7372Z" fill="#FAFAFC"/>
<path d="M111.773 22.4863C111.106 23.2153 110.151 23.7703 108.475 23.7703C107.485 23.7703 106.422 23.632 105.484 22.6942C104.746 21.9477 104.277 20.8195 104.277 19.5879C104.277 17.5396 105.521 15.2832 108.205 15.2832C111.196 15.2832 111.989 17.956 111.989 19.8132H105.935C105.972 21.5139 107.143 22.5209 108.422 22.5209C108.926 22.5209 109.863 22.4514 110.765 21.6354L111.773 22.4863ZM110.259 18.5634C110.115 17.2274 109.16 16.533 108.187 16.533C107.142 16.533 106.205 17.2445 106.007 18.5634H110.259Z" fill="#FAFAFC"/>
<path d="M119.039 15.4746H120.66L117.634 23.9617C117.002 25.7145 116.552 26.2527 116.318 26.4609C115.652 27.0855 114.769 27.1385 114.318 27.1385C113.994 27.1385 113.688 27.1029 113.4 27.0334L113.255 25.732C113.382 25.7669 113.67 25.8364 114.012 25.8364C114.66 25.8364 115.057 25.5755 115.255 25.3851C115.489 25.1591 115.742 24.7606 116.012 23.9097L116.228 23.2502L112.805 15.475H114.534L117.038 21.2369L119.039 15.4746Z" fill="#FAFAFC"/>
<path d="M126.483 0H59.0215V35H126.478L137 17.4926L126.483 0ZM124.171 31.7989H62.6829V3.20146H124.176L132.77 17.493L124.171 31.7989Z" fill="#FFCD05"/>
<path d="M22.2207 14.4824C21.0651 14.4824 19.8602 15.2949 19.8602 15.2949V14.7724C19.8602 14.6581 19.8126 14.6122 19.6938 14.6122H18.2195C18.1007 14.6122 18.0293 14.681 18.0293 14.7724V25.9074C18.0293 26.0217 18.0769 26.0905 18.196 26.0905H19.6942C19.7895 26.0905 19.8605 26.0217 19.8605 25.9074V16.3762C19.8605 16.3762 20.5561 15.9517 21.4007 15.9517C22.2054 15.9517 22.8402 16.3362 22.8402 17.1247V25.9074C22.8402 26.0217 22.911 26.0905 23.03 26.0905H24.5044C24.6235 26.0905 24.6711 25.9988 24.6711 25.9074V16.6259C24.6711 15.2278 23.779 14.4824 22.2207 14.4824Z" fill="#FAFAFC"/>
<path d="M33.6903 8.89648H32.2159C32.0968 8.89648 32.0254 8.96531 32.0254 9.05707V14.6742C31.4592 14.465 30.9438 14.3544 30.5272 14.3544C28.1322 14.3544 26.4883 16.5598 26.4883 20.8008C26.4883 24.434 28.0874 26.383 30.1749 26.383C31.055 26.383 31.7812 25.8974 32.3129 25.442L32.6346 25.9676C32.689 26.058 32.7334 26.0892 32.8422 26.0892L33.6906 26.0899C33.7859 26.0899 33.8573 26.0217 33.8573 25.906V9.05707C33.8566 8.94237 33.809 8.89648 33.6903 8.89648ZM28.4379 20.4258C28.4379 18.0893 29.1481 15.775 30.5979 15.775C31.0888 15.775 31.5605 15.9304 32.025 16.2859V24.5193C31.6621 24.71 31.2047 24.8849 30.7109 24.8849C29.1346 24.8849 28.4379 23.0843 28.4379 20.4258Z" fill="#FAFAFC"/>
<path d="M39.3393 14.377C36.8839 14.377 35.6719 17.4719 35.6719 20.8398C35.6719 24.3648 37.4007 26.3401 39.6233 26.3401C40.6004 26.3401 41.5726 25.9697 42.2102 25.6286C42.308 25.5766 42.3258 25.5023 42.3027 25.4112L42.1161 24.6668C42.093 24.5751 42.0453 24.5299 41.9273 24.5299C41.8754 24.5299 41.0696 24.7572 40.2859 24.7572C38.4671 24.7572 37.6325 23.1996 37.6325 21.1305V20.6275C37.6325 20.6275 38.5367 20.748 39.0799 20.748H42.5117V19.7931C42.5117 16.266 41.2292 14.377 39.3393 14.377ZM39.2213 19.3154C38.6786 19.3154 37.6897 19.4452 37.6897 19.4452C37.6897 19.4452 37.7029 19.0655 37.7502 18.7008C37.9631 16.7666 38.4415 15.7883 39.2682 15.7883C39.987 15.7883 40.4792 16.7892 40.5976 18.5419C40.6211 18.9062 40.6211 19.3158 40.6211 19.3158H39.2213V19.3154Z" fill="#FAFAFC"/>
<path d="M15.2281 15.8233C14.6825 14.7883 13.7114 14.3359 12.5992 14.3359C11.8844 14.3359 10.7687 14.5992 10.0237 14.9218C9.87796 14.9848 9.7859 15.0406 9.7859 15.1509C9.7859 15.2166 9.81966 15.2923 9.85699 15.3573L10.3585 16.3924C10.4104 16.5095 10.4936 16.5362 10.5618 16.5362C10.6361 16.5362 10.6962 16.5023 10.763 16.4612C11.4895 16.0137 12.022 15.7679 12.4435 15.7679C13.0009 15.7679 13.3794 16.124 13.613 16.6598C13.8305 17.159 13.9151 17.8486 13.9151 18.6458C13.9151 18.7474 13.9154 18.88 13.9154 18.88C13.4576 18.6043 12.6639 18.452 12.268 18.452C10.1374 18.452 8.98828 20.4019 8.98828 22.4872C8.98828 24.734 10.3315 26.3827 11.9452 26.3827C12.8438 26.3827 13.6574 25.8745 14.2026 25.2339C14.2026 25.2339 14.4927 25.8999 14.5304 25.9803C14.5687 26.0598 14.6089 26.0892 14.718 26.0892L15.5803 26.0899C15.6752 26.0899 15.7467 26.0211 15.7467 25.9067V19.4466C15.7463 17.8599 15.6635 16.6492 15.2281 15.8233ZM13.9154 24.2851C13.4932 24.6782 12.987 24.8843 12.5313 24.8843C12.076 24.8843 11.7241 24.6816 11.4423 24.3063C11.0985 23.8503 10.9386 23.1466 10.9386 22.3684C10.9386 21.1364 11.411 19.8719 12.4116 19.8719C12.9074 19.8719 13.4509 20.0277 13.9154 20.3834V24.2851Z" fill="#FAFAFC"/>
<path d="M50.2996 14.6094H48.9851C48.8383 14.6094 48.7633 14.6833 48.7257 14.7795C48.6421 14.9901 48.0866 16.3995 47.8591 16.9832C47.6966 17.4003 47.2587 18.5953 47.2587 18.5953L47.2079 18.5946C47.2065 18.5898 46.8859 17.7256 46.7128 17.2924C46.572 16.9415 45.8402 15.0836 45.747 14.8545C45.6976 14.7313 45.6422 14.6094 45.4545 14.6094H44.015C43.8571 14.6094 43.7676 14.7765 43.8184 14.8802C43.8699 14.9843 46.1626 20.0152 46.1626 20.0152C46.1626 20.0152 43.7 25.6488 43.6282 25.7751C43.5564 25.9015 43.6471 26.0887 43.822 26.0887H45.0834C45.2981 26.0887 45.3827 25.9806 45.4467 25.8059C45.628 25.317 45.8977 24.6363 46.2802 23.5858C46.5336 22.889 46.9339 21.6659 46.9339 21.6659H46.9779C46.9779 21.6659 47.4162 22.9119 47.5793 23.3197C47.9913 24.3504 48.5188 25.6957 48.5742 25.8378C48.6325 25.9871 48.7139 26.0891 48.8618 26.0891H50.2917C50.4336 26.0891 50.4986 25.9333 50.4325 25.798C50.2733 25.4752 48.9148 22.2956 47.9721 20.2059C47.9721 20.2059 50.4197 15.0028 50.4673 14.8744C50.5153 14.7453 50.5007 14.6094 50.2996 14.6094Z" fill="#FAFAFC"/>
<path d="M10.4774 7.2207H8.81966C8.67286 7.2207 8.58116 7.29021 8.55983 7.39088C8.53886 7.49189 6.07386 14.7323 5.89472 15.3356C5.76782 15.7633 5.35373 17.2705 5.25385 17.6325L4.39652 15.3777C4.18823 14.757 2.19135 9.38366 2.1327 9.16897C2.10036 9.05119 2.0442 8.90429 1.82986 8.90429H0.211175C0.0530027 8.90429 -0.0365691 9.07139 0.0142594 9.17479C0.0547799 9.258 2.9783 16.7504 4.15944 19.6126V25.9063C4.15944 26.0206 4.20743 26.0895 4.32614 26.0895H5.85917C5.95407 26.0895 6.02552 26.0206 6.02552 25.9063V19.9406V19.6629C7.0101 17.0137 10.6061 7.59084 10.6456 7.48538C10.6928 7.35664 10.679 7.2207 10.4774 7.2207Z" fill="#ED2224"/>
</g>
<defs>
<clipPath id="clip0">
<rect width="137" height="35" fill="white"/>
</clipPath>
</defs>
</svg>
