<svg width="137" height="35" viewBox="0 0 137 35" fill="none" xmlns="http://www.w3.org/2000/svg">
<g clip-path="url(#clip0)">
<path d="M72.936 13.5471V23.5791H71.2061V11.4297H73.5484L76.7197 19.0317L79.8547 11.4297H82.1793V23.5791H80.449V13.5471L77.2241 21.3748H76.1968L72.936 13.5471Z" fill="black"/>
<path d="M85.7997 16.4107C86.1964 16.0464 87.1699 15.2825 88.8988 15.2825C90.1962 15.2825 91.2049 15.7166 91.8714 16.3412C92.6466 17.0702 93.1328 18.2504 93.1328 19.5526C93.1328 21.1314 92.503 22.1038 91.9983 22.6068C91.0076 23.6138 89.7998 23.7696 88.8085 23.7696C87.6917 23.7696 86.5749 23.5094 85.6739 22.5893C85.1332 22.0343 84.5386 21.0626 84.5386 19.57C84.5382 18.0251 85.1876 17.0013 85.7997 16.4107ZM86.9894 17.3136C86.4306 17.9207 86.1967 18.7712 86.1967 19.5351C86.1967 20.2641 86.4306 21.1314 86.9894 21.7395C87.4756 22.2771 88.0884 22.5205 88.827 22.5205C89.5837 22.5205 90.1965 22.2771 90.6828 21.7395C91.2415 21.1317 91.4754 20.2641 91.4754 19.5351C91.4754 18.7715 91.2419 17.9207 90.6828 17.3136C90.1965 16.7753 89.5837 16.5326 88.8451 16.5326C88.0884 16.5326 87.4756 16.7753 86.9894 17.3136Z" fill="black"/>
<path d="M96.7377 15.4739V16.4456C96.8283 16.3586 97.2609 15.9245 97.8004 15.6471C98.3592 15.3523 98.8813 15.2825 99.4404 15.2825C99.9271 15.2825 100.846 15.3349 101.495 15.9594C102.143 16.5846 102.197 17.5043 102.197 18.3548V23.5792H100.702V18.3898C100.702 17.7995 100.611 17.3485 100.413 17.0702C100.251 16.8449 99.927 16.5672 99.2777 16.5672C98.6837 16.5672 98.2511 16.7579 97.7823 17.0876C97.3138 17.4173 96.9897 17.7813 96.7377 18.1121V23.5792H95.2427V15.4739H96.7377Z" fill="black"/>
<path d="M111.773 22.4856C111.107 23.2146 110.151 23.7696 108.475 23.7696C107.485 23.7696 106.422 23.6313 105.485 22.6934C104.746 21.947 104.278 20.8188 104.278 19.5872C104.278 17.5389 105.521 15.2825 108.206 15.2825C111.196 15.2825 111.989 17.9553 111.989 19.8125H105.936C105.972 21.5132 107.143 22.5202 108.422 22.5202C108.926 22.5202 109.864 22.4507 110.765 21.6347L111.773 22.4856ZM110.26 18.5627C110.115 17.2266 109.16 16.5322 108.187 16.5322C107.142 16.5322 106.206 17.2438 106.007 18.5627H110.26Z" fill="black"/>
<path d="M119.038 15.4739H120.659L117.633 23.961C117.001 25.7138 116.551 26.252 116.317 26.4602C115.651 27.0847 114.768 27.1378 114.317 27.1378C113.993 27.1378 113.687 27.1022 113.399 27.0327L113.254 25.7312C113.381 25.7661 113.669 25.8357 114.011 25.8357C114.659 25.8357 115.056 25.5747 115.254 25.3844C115.488 25.1584 115.741 24.7598 116.011 23.909L116.227 23.2495L112.804 15.4742H114.533L117.037 21.2362L119.038 15.4739Z" fill="black"/>
<path d="M126.483 0H59.0217V35H126.478L137 17.4926L126.483 0ZM124.172 31.7989H62.6832V3.20146H124.177L132.77 17.493L124.172 31.7989Z" fill="#FFCD05"/>
<path d="M22.2197 14.4818C21.0642 14.4818 19.8592 15.2943 19.8592 15.2943V14.7718C19.8592 14.6575 19.8116 14.6116 19.6929 14.6116H18.2185C18.0998 14.6116 18.0283 14.6804 18.0283 14.7718V25.9067C18.0283 26.0211 18.0759 26.0899 18.195 26.0899H19.6932C19.7885 26.0899 19.8596 26.0211 19.8596 25.9067V16.3756C19.8596 16.3756 20.5552 15.9511 21.3997 15.9511C22.2044 15.9511 22.8392 16.3356 22.8392 17.1241V25.9067C22.8392 26.0211 22.91 26.0899 23.0291 26.0899H24.5034C24.6225 26.0899 24.6701 25.9982 24.6701 25.9067V16.6252C24.6701 15.2272 23.778 14.4818 22.2197 14.4818Z" fill="black"/>
<path d="M33.6912 8.89661H32.2169C32.0978 8.89661 32.0264 8.96543 32.0264 9.05719V14.6743C31.4601 14.4651 30.9447 14.3545 30.5282 14.3545C28.1332 14.3545 26.4893 16.5599 26.4893 20.8009C26.4893 24.4341 28.0884 26.3831 30.1759 26.3831C31.056 26.3831 31.7822 25.8976 32.3139 25.4422L32.6356 25.9677C32.69 26.0581 32.7344 26.0893 32.8432 26.0893L33.6916 26.09C33.7869 26.09 33.8583 26.0218 33.8583 25.9061V9.05719C33.8576 8.94249 33.81 8.89661 33.6912 8.89661ZM28.4389 20.426C28.4389 18.0894 29.149 15.7751 30.5989 15.7751C31.0898 15.7751 31.5614 15.9306 32.026 16.286V24.5194C31.6631 24.7101 31.2056 24.8851 30.7119 24.8851C29.1355 24.8851 28.4389 23.0844 28.4389 20.426Z" fill="black"/>
<path d="M39.3396 14.3774C36.8842 14.3774 35.6721 17.4724 35.6721 20.8403C35.6721 24.3653 37.401 26.3406 39.6236 26.3406C40.6007 26.3406 41.5728 25.9701 42.2105 25.6291C42.3082 25.5771 42.326 25.5028 42.3029 25.4117L42.1163 24.6673C42.0932 24.5755 42.0456 24.5303 41.9276 24.5303C41.8757 24.5303 41.0699 24.7577 40.2861 24.7577C38.4673 24.7577 37.6327 23.2001 37.6327 21.131V20.628C37.6327 20.628 38.537 20.7485 39.0801 20.7485H42.5119V19.7936C42.5119 16.2665 41.2295 14.3774 39.3396 14.3774ZM39.2216 19.3159C38.6788 19.3159 37.69 19.4457 37.69 19.4457C37.69 19.4457 37.7031 19.066 37.7504 18.7013C37.9633 16.7671 38.4417 15.7888 39.2685 15.7888C39.9872 15.7888 40.4795 16.7897 40.5979 18.5424C40.6213 18.9067 40.6213 19.3162 40.6213 19.3162H39.2216V19.3159Z" fill="black"/>
<path d="M15.2276 15.8241C14.682 14.789 13.7109 14.3367 12.5987 14.3367C11.8839 14.3367 10.7682 14.6 10.0232 14.9225C9.87747 14.9855 9.78541 15.0413 9.78541 15.1516C9.78541 15.2173 9.81918 15.293 9.8565 15.3581L10.358 16.3931C10.4099 16.5102 10.4931 16.5369 10.5613 16.5369C10.6356 16.5369 10.6957 16.503 10.7625 16.462C11.489 16.0144 12.0215 15.7686 12.4431 15.7686C13.0004 15.7686 13.3789 16.1247 13.6125 16.6606C13.83 17.1598 13.9146 17.8494 13.9146 18.6465C13.9146 18.7482 13.915 18.8807 13.915 18.8807C13.4571 18.6051 12.6634 18.4527 12.2675 18.4527C10.1369 18.4527 8.98779 20.4027 8.98779 22.4879C8.98779 24.7347 10.331 26.3834 11.9447 26.3834C12.8433 26.3834 13.6569 25.8753 14.2021 25.2346C14.2021 25.2346 14.4922 25.9006 14.5299 25.9811C14.5683 26.0605 14.6084 26.09 14.7175 26.09L15.5798 26.0906C15.6748 26.0906 15.7462 26.0218 15.7462 25.9075V19.4474C15.7458 17.8607 15.663 16.6499 15.2276 15.8241ZM13.915 24.2858C13.4927 24.6789 12.9865 24.8851 12.5309 24.8851C12.0755 24.8851 11.7236 24.6823 11.4418 24.3071C11.0981 23.851 10.9381 23.1474 10.9381 22.3691C10.9381 21.1371 11.4105 19.8726 12.4111 19.8726C12.9069 19.8726 13.4504 20.0284 13.915 20.3842V24.2858Z" fill="black"/>
<path d="M50.2996 14.6102H48.9851C48.8383 14.6102 48.7633 14.6842 48.7257 14.7804C48.6421 14.991 48.0866 16.4003 47.8591 16.9841C47.6966 17.4012 47.2587 18.5961 47.2587 18.5961L47.2079 18.5954C47.2065 18.5907 46.8859 17.7264 46.7128 17.2933C46.572 16.9423 45.8402 15.0845 45.747 14.8554C45.6976 14.7321 45.6422 14.6102 45.4545 14.6102H44.015C43.8571 14.6102 43.7676 14.7773 43.8184 14.8811C43.8699 14.9852 46.1626 20.0161 46.1626 20.0161C46.1626 20.0161 43.7 25.6496 43.6282 25.776C43.5564 25.9023 43.6471 26.0896 43.822 26.0896H45.0834C45.2981 26.0896 45.3827 25.9814 45.4467 25.8068C45.628 25.3178 45.8977 24.6371 46.2802 23.5866C46.5336 22.8899 46.9339 21.6668 46.9339 21.6668H46.9779C46.9779 21.6668 47.4162 22.9128 47.5793 23.3206C47.9913 24.3512 48.5188 25.6965 48.5742 25.8386C48.6325 25.9879 48.7139 26.0899 48.8618 26.0899H50.2917C50.4336 26.0899 50.4986 25.9342 50.4325 25.7989C50.2733 25.476 48.9148 22.2965 47.9721 20.2068C47.9721 20.2068 50.4197 15.0037 50.4673 14.8752C50.5153 14.7462 50.5007 14.6102 50.2996 14.6102Z" fill="black"/>
<path d="M10.4774 7.22131H8.81966C8.67286 7.22131 8.58116 7.29082 8.55983 7.39149C8.53886 7.4925 6.07386 14.7329 5.89472 15.3362C5.76782 15.7639 5.35373 17.2712 5.25385 17.6331L4.39652 15.3784C4.18823 14.7576 2.19135 9.38427 2.1327 9.16958C2.10036 9.0518 2.0442 8.9049 1.82986 8.9049H0.211175C0.0530027 8.9049 -0.0365691 9.072 0.0142594 9.1754C0.0547799 9.25861 2.9783 16.751 4.15944 19.6132V25.9069C4.15944 26.0212 4.20743 26.0901 4.32614 26.0901H5.85917C5.95407 26.0901 6.02552 26.0212 6.02552 25.9069V19.9412V19.6635C7.0101 17.0144 10.6061 7.59145 10.6456 7.48599C10.6928 7.35725 10.679 7.22131 10.4774 7.22131Z" fill="#ED2224"/>
</g>
<defs>
<clipPath id="clip0">
<rect width="137" height="35" fill="white"/>
</clipPath>
</defs>
</svg>
